<svg xmlns="http://www.w3.org/2000/svg" width="88" height="88" viewBox="0 0 88 88">
  <g id="Grupo_1106375" data-name="Grupo 1106375" transform="translate(-177.051 -1738)">
    <g id="Grupo_1106195" data-name="Grupo 1106195" transform="translate(-130 640)">
      <path id="Trazado_875307" data-name="Trazado 875307" d="M42.5,0A42.5,42.5,0,1,1,0,42.5,42.5,42.5,0,0,1,42.5,0Z" transform="translate(310.051 1098)" fill="#7bb5f2"/>
      <g id="Elipse_11629" data-name="Elipse 11629" transform="translate(307.051 1110)" fill="none" stroke="#000" stroke-width="1">
        <circle cx="38" cy="38" r="38" stroke="none"/>
        <circle cx="38" cy="38" r="37.5" fill="none"/>
      </g>
    </g>
    <g id="ventas_1_" data-name="ventas (1)" transform="translate(183.018 1677.83)">
      <path id="Trazado_874093" data-name="Trazado 874093" d="M55.351,85.8v0l-.009,0Zm-.173,44.333v0l-.02-.008Zm-.419-.174c-18.686-7.813-18.564-11.02-36.932-11.02-14.48,0-14.48-21.89,0-21.89,18.255,0,18.412-3.218,36.756-10.927-3.548,2.009-6.225,11.037-6.225,21.872,0,11.013,2.765,20.16,6.4,21.965Z" transform="translate(-5.874 -6.462)" fill="#77cedb" fill-rule="evenodd"/>
      <path id="Trazado_874094" data-name="Trazado 874094" d="M97.15,302.58l4.315,16.59,6.7.588-3.011-16.576A66.083,66.083,0,0,0,97.15,302.58Z" transform="translate(-82.257 -190.072)" fill="#77cedb" fill-rule="evenodd"/>
      <ellipse id="Elipse_11523" data-name="Elipse 11523" cx="7.718" cy="22.29" rx="7.718" ry="22.29" transform="translate(42.483 79.241)" fill="#fcb13c"/>
      <path id="Trazado_874095" data-name="Trazado 874095" d="M50.2,122.75c1.627,0,3.207-2.219,4.45-5.805,2.942-8.5,2.942-22.333,0-30.828-1.242-3.587-2.823-5.805-4.45-5.805-2.271,0-3.937,4.326-4.45,5.805a41.1,41.1,0,0,0-1.85,8.82H50.94a3.393,3.393,0,0,1,2.889,2.216,10.959,10.959,0,0,1,0,8.756,3.393,3.393,0,0,1-2.889,2.216H43.9a41.079,41.079,0,0,0,1.85,8.82C46.281,118.465,47.94,122.75,50.2,122.75Zm-29.979-8.881,1.183,5.349,1.689.947-1.108-6.1c-.565-.075-1.151-.141-1.764-.2ZM26.945,129.4a1.073,1.073,0,0,1-1.125,1.351l-6.7-.588v0a1.068,1.068,0,0,1-.941-.8l-4.11-15.8c-.676-.011-1.379-.015-2.112-.015-15.9,0-15.9-24.033,0-24.033,13.21,0,16.767-1.714,24.922-5.639C38.939,82.883,48,78.17,50.2,78.17c2.636,0,4.915,2.771,6.466,7.253,3.108,8.976,3.108,23.242,0,32.217-1.552,4.48-3.83,7.253-6.466,7.253-2.356,0-11.208-4.659-13.514-5.77-4.776-2.3-7.945-3.833-12.468-4.7q1.361,7.487,2.722,14.976Zm-3.351-6.508,1.018,5.6-4.56-.4-3.764-14.477q.891.032,1.715.081l1.425,6.447a1.069,1.069,0,0,0,.52.7l0,0Zm13.257-16.636a34.433,34.433,0,0,0,.938,8.37,20.971,20.971,0,0,0,1.039,3.152q-.622-.3-1.209-.583c-6.567-3.169-10.211-4.927-18.042-5.539a6.9,6.9,0,0,1-3.354-1.5,6.657,6.657,0,0,1-1.957-3.19,1.067,1.067,0,0,0-2.043.62,8.927,8.927,0,0,0,2.232,3.845c-.8-.014-1.628-.021-2.5-.021-13.057,0-13.058-19.748,0-19.748,1.454,0,2.793-.02,4.038-.061a11.428,11.428,0,0,0-2.347,2.823,16.1,16.1,0,0,0-1.937,8.639,1.067,1.067,0,1,0,2.135-.041,14.036,14.036,0,0,1,1.645-7.508,10.022,10.022,0,0,1,5.066-4.19c7.227-.69,10.893-2.456,17.253-5.518q.838-.4,1.747-.839A22.593,22.593,0,0,0,38.1,89.152a48.412,48.412,0,0,0-1.259,11.58,1.067,1.067,0,0,0,2.135-.008,46.166,46.166,0,0,1,1.2-11.054c.707-2.819,1.7-5.079,2.978-6.228a1.052,1.052,0,0,0,.216-.268q.794-.363,1.646-.745a21.446,21.446,0,0,0-1.279,3c-3.108,8.976-3.108,23.242,0,32.217a21.488,21.488,0,0,0,1.3,3.028c-1-.444-1.93-.871-2.809-1.279q-.021-.03-.046-.06a13.652,13.652,0,0,1-2.317-5.221,32.354,32.354,0,0,1-.878-7.842,1.067,1.067,0,0,0-2.135-.012Zm26.41,10.436a1.07,1.07,0,0,1,.552-2.067l9.614,2.577a1.07,1.07,0,0,1-.552,2.067ZM63.2,89.625a1.07,1.07,0,0,1-.552-2.067L72.77,84.845a1.07,1.07,0,0,1,.552,2.067Zm1.06,12.694a1.071,1.071,0,1,1,0-2.142h11.2a1.071,1.071,0,1,1,0,2.142Zm-16.171,3.663H43.712a63.111,63.111,0,0,1,0-8.9h4.376l-.037.073a10.959,10.959,0,0,0,0,8.756C48.064,105.933,48.076,105.958,48.088,105.982ZM51.914,98.1a8.912,8.912,0,0,1,0,6.864c-.312.63-.661,1.019-.973,1.019s-.661-.39-.973-1.019a8.912,8.912,0,0,1,0-6.864c.312-.63.661-1.019.973-1.019S51.6,97.468,51.914,98.1Z" transform="translate(0)" fill="#010101" fill-rule="evenodd"/>
    </g>
  </g>
</svg>
