<svg xmlns="http://www.w3.org/2000/svg" xmlns:xlink="http://www.w3.org/1999/xlink" width="401.031" height="659" viewBox="0 0 401.031 659">
  <defs>
    <clipPath id="clip-path">
      <rect id="Rectángulo_403091" data-name="Rectángulo 403091" width="401.031" height="598.065" fill="none"/>
    </clipPath>
    <clipPath id="clip-path-3">
      <rect id="Rectángulo_403084" data-name="Rectángulo 403084" width="18.316" height="11.174" fill="none"/>
    </clipPath>
    <clipPath id="clip-path-5">
      <rect id="Rectángulo_403086" data-name="Rectángulo 403086" width="17.093" height="9.045" fill="none"/>
    </clipPath>
    <clipPath id="clip-path-6">
      <rect id="Rectángulo_403087" data-name="Rectángulo 403087" width="18.844" height="39.121" fill="none"/>
    </clipPath>
  </defs>
  <g id="Grupo_1106374" data-name="Grupo 1106374" transform="translate(-180 -2303)">
    <rect id="Rectángulo_403019" data-name="Rectángulo 403019" width="306" height="659" rx="14" transform="translate(221.051 2303)" fill="#e6eae9"/>
    <g id="Grupo_1106373" data-name="Grupo 1106373" transform="translate(180 2333.468)">
      <g id="Grupo_1106372" data-name="Grupo 1106372" clip-path="url(#clip-path)">
        <g id="Grupo_1106359" data-name="Grupo 1106359">
          <g id="Grupo_1106358" data-name="Grupo 1106358" clip-path="url(#clip-path)">
            <path id="Trazado_875399" data-name="Trazado 875399" d="M347.211,258.949a13.426,13.426,0,0,1,13.128,13.569c-.284,28.009-1.178,78.943-2.034,121.363-.768,37.121-1.5,67.721-1.786,70.713-.465,4.829-124.814,2.353-202.713.33-35.581-.948-61.477-1.774-61.477-1.774S94.564,315,95.094,271.041c.078-6.369.4-9.7,3.23-11.876,7.013-5.394,196.635-1.418,248.887-.216" transform="translate(40.69 113.004)" fill="#8380ff"/>
            <path id="Trazado_875400" data-name="Trazado 875400" d="M162.7,432.435l-13.38-13.593c-2.533-3.949-23.366-28.088-23.366-28.088s4.9-7.47,1.908-18.081a98.969,98.969,0,0,1-3.364-18.761c-.418-5.081.026-13.193-3.782-14.063s-7.6,1.056-8.9,6.208-1.052,10.069-.34,16.437c0,0-5.538-6.194-11.431-11.821-5.256-5.018-23.132-24.737-27.907-19.787,0,0-3.772,3.1.02,7.094S89.8,356.593,90.919,359.046s1.771,2,.473,3.159-6.911-5.176-8.878-6.318c-1.625-.945-14.52-13.9-22.6-14.642a4.506,4.506,0,0,0-4.815,5.136,8.692,8.692,0,0,0,3.04,5.4s-5.792-2.724-7.519,1.805,6.309,12.913,8.327,14.407S72.418,378.146,72.483,380.5s-.892,1.713-2.5,1.272-15.74-5.871-22.252-1.663c-5.3,3.425-1.279,8,4.73,9.308,3.337.725,15.385,3.263,21.444,8.5s14.386,9.814,17.208,11.36c6.14,3.367,7.549,1.869,10.082,5.367s11.879,17.934,11.879,17.934" transform="translate(19.948 145.479)" fill="#cc8770"/>
            <path id="Trazado_875401" data-name="Trazado 875401" d="M52.723,345.835a133.66,133.66,0,0,1,25.649,22.271c1.2,1.343,3.155-.655,1.961-1.993a136.556,136.556,0,0,0-26.248-22.72c-1.5-1-2.854,1.449-1.361,2.442" transform="translate(22.951 151.236)" fill="#421b36"/>
            <path id="Trazado_875402" data-name="Trazado 875402" d="M95.149,353.286a19.384,19.384,0,0,0-9.059,30.14c1.081,1.412,3.511.025,2.42-1.4A17.117,17.117,0,0,1,85.3,367.853a16.9,16.9,0,0,1,10.575-11.869c1.681-.614.961-3.315-.73-2.7" transform="translate(36.183 155.659)" fill="#421b36"/>
            <path id="Trazado_875403" data-name="Trazado 875403" d="M343.065,366.1c-.789,33.043-1.543,60.281-1.837,62.944-.477,4.3-128.276,2.095-208.338.294-2.057-.091-4.1-.2-6.116-.294,21.22-105.56,108.145-90.539,108.145-90.539l44.963,1.753c28.781-2.351,49.058,9.735,63.183,25.842" transform="translate(55.871 148.86)" fill="#a0d2f4"/>
            <path id="Trazado_875404" data-name="Trazado 875404" d="M169.8,371a207.442,207.442,0,0,0-7.067,27.6c-.683,3.6-1.307,7.231-1.706,10.879-.125,1.145-.239,2.3-.269,3.449a5.128,5.128,0,0,1,.013,1.276c-.156.4.421.376-.3-.053a1.234,1.234,0,0,1-1.245,2.129c-1.366-.81-.954-3.283-.866-4.568a104.921,104.921,0,0,1,1.459-10.8,207.706,207.706,0,0,1,7.607-30.572c.5-1.5,2.884-.854,2.377.656" transform="translate(69.736 162.841)" fill="#421b36"/>
            <path id="Trazado_875405" data-name="Trazado 875405" d="M290.826,410.021s-16.4-31.052-43.439-20.654c0,0-10.477-6.653-19.316.625,0,0-11.625-3.406-15.705,4.548,0,0-4.1,0-8.775,4.289-4.636,4.247-8.855,14.175-7.672,18.611,2.08,7.8,11.957,0,11.957,0s.118,9.575,7.6,8.407c6.493-1.013,5.626-9.094,5.626-9.094s2.868,14.115,12.187,8.93c4.792-2.665,4.956-12.392,4.956-12.392l.755,1.163a9.653,9.653,0,0,0,16.806-1.095l1.671-3.5c.823-4.86,4.769-3.852,10.259.05Z" transform="translate(86.256 170.375)" fill="#cc8770"/>
            <path id="Trazado_875406" data-name="Trazado 875406" d="M224.348,414.194c.673-9.772,2.51-21.449,12.259-26.335,1.413-.709,2.664,1.418,1.243,2.129-8.919,4.469-10.424,15.295-11.037,24.205-.108,1.575-2.575,1.586-2.465,0" transform="translate(98.872 170.873)" fill="#421b36"/>
            <path id="Trazado_875407" data-name="Trazado 875407" d="M213.251,420.386a34.517,34.517,0,0,1,6.832-31.916c1.023-1.216,2.759.536,1.743,1.743a31.963,31.963,0,0,0-6.2,29.517,1.234,1.234,0,0,1-2.377.656" transform="translate(93.372 171.024)" fill="#421b36"/>
            <path id="Trazado_875408" data-name="Trazado 875408" d="M203.015,416.9a32.647,32.647,0,0,1,5.338-25.063c.912-1.282,3.051-.053,2.129,1.243a30.2,30.2,0,0,0-5.09,23.164c.3,1.55-2.073,2.213-2.377.656" transform="translate(89.206 172.452)" fill="#421b36"/>
            <path id="Trazado_875409" data-name="Trazado 875409" d="M234.632,373.729A42.743,42.743,0,0,1,267.061,345.4c1.552-.281,2.217,2.095.656,2.379a40.283,40.283,0,0,0-30.707,26.609c-.494,1.5-2.876.857-2.377-.656" transform="translate(103.376 152.212)" fill="#421b36"/>
            <path id="Trazado_875410" data-name="Trazado 875410" d="M227.7,399.332A8.208,8.208,0,0,1,232.211,413a1.233,1.233,0,0,1-1.743-1.743,5.9,5.9,0,0,0,1.1-5.94,5.96,5.96,0,0,0-4.518-3.606,1.242,1.242,0,0,1-.86-1.516,1.257,1.257,0,0,1,1.516-.862" transform="translate(99.667 175.981)" fill="#421b36"/>
            <path id="Trazado_875411" data-name="Trazado 875411" d="M213.07,408.2a6.183,6.183,0,0,1,8.477.7,7.987,7.987,0,0,1,.739,9.254,1.233,1.233,0,0,1-2.129-1.243,6.27,6.27,0,0,0,.813-3.391,5.092,5.092,0,0,0-.383-1.647c.058.138-.1-.206-.1-.2-.062-.121-.127-.239-.2-.356s-.143-.229-.219-.341a1.6,1.6,0,0,0-.179-.232,3.726,3.726,0,0,0-3.837-1.377c-.13.032-.259.069-.386.112,0,0-.366.153-.2.076a4,4,0,0,0-.356.189c-.076.046-.151.094-.226.144-.122.086-.145.1-.072.052a1.269,1.269,0,0,1-1.743,0,1.241,1.241,0,0,1,0-1.743" transform="translate(93.745 179.302)" fill="#421b36"/>
            <path id="Trazado_875412" data-name="Trazado 875412" d="M203.588,405.774A7.117,7.117,0,0,1,211,408.438a7.035,7.035,0,0,1,.068,7.933,1.264,1.264,0,0,1-1.686.442,1.242,1.242,0,0,1-.442-1.686,4.5,4.5,0,0,0,.854-2.706,3.721,3.721,0,0,0-.2-1.351,3.864,3.864,0,0,0-.644-1.287c-.049-.068-.049-.068,0,0-.04-.051-.081-.1-.122-.146-.082-.1-.169-.187-.258-.277s-.182-.174-.277-.258c-.048-.042-.1-.082-.144-.122.085.063.068.052-.052-.036a6.72,6.72,0,0,0-.644-.4c-.112-.06-.225-.117-.34-.167.179.079-.174-.065-.176-.065a6.073,6.073,0,0,0-.728-.209c-.124-.026-.248-.052-.373-.069.222.032-.13-.007-.174-.01a5.506,5.506,0,0,0-.755,0c-.084.006-.167.013-.251.023.1-.013.1-.012.016,0q-.218.041-.432.1a1.233,1.233,0,0,1-.656-2.377" transform="translate(89.327 178.738)" fill="#421b36"/>
            <path id="Trazado_875413" data-name="Trazado 875413" d="M197.255,402.81a8.22,8.22,0,0,1,4.576,11.729,1.233,1.233,0,0,1-2.129-1.245,5.732,5.732,0,0,0-3.1-8.107,1.263,1.263,0,0,1-.86-1.516,1.243,1.243,0,0,1,1.516-.862" transform="translate(86.246 177.5)" fill="#421b36"/>
            <path id="Trazado_875414" data-name="Trazado 875414" d="M115.288,266.172a3.445,3.445,0,1,0,3.445-3.445,3.445,3.445,0,0,0-3.445,3.445" transform="translate(50.809 115.788)" fill="#fff"/>
            <path id="Trazado_875415" data-name="Trazado 875415" d="M108.722,266.172a3.445,3.445,0,1,0,3.445-3.445,3.445,3.445,0,0,0-3.445,3.445" transform="translate(47.916 115.788)" fill="#fff"/>
            <path id="Trazado_875416" data-name="Trazado 875416" d="M102.156,266.172a3.445,3.445,0,1,0,3.445-3.445,3.445,3.445,0,0,0-3.445,3.445" transform="translate(45.022 115.788)" fill="#fff"/>
            <path id="Trazado_875417" data-name="Trazado 875417" d="M249.526,345.429l22.461-68.85-25.642-26.8c-38.67-6.408-53.412,22.9-53.412,22.9q-12.435-1.074-24.868-2.151a4.561,4.561,0,0,0-2.964.419c-1.65,1.1-1.3,3.631-.617,5.485a39.315,39.315,0,0,0,11.21,16.168l-1.06,4.243a41.992,41.992,0,0,0,2.736,36.989,39.5,39.5,0,0,0,31.065,18.742l4.449,30.635,46.54-2.174Z" transform="translate(72.24 109.677)" fill="#cc8770"/>
            <path id="Trazado_875418" data-name="Trazado 875418" d="M193.2,263.146c.908.316,1.689,4.929,25.325,1.864,0,0,6.854,7.727,19.765,7.436,0,0-24.56,26.188-20.1,31.68s11.519,2.409,11.519,2.409,4.731,45,7.16,50.01,4.567,5.3,4.567,5.3,23.573-9.934,38.506-26.959,22.786-47.271,5.916-56.315c0,0,1.184-38.637-52.443-33.819,0,0-12.812-17.728-19.878-14.193s-8.785,14.383-8.785,14.383-12.383-5.816-16.094,1.157,1.837,16.1,4.543,17.042" transform="translate(82.597 101.408)" fill="#421b36"/>
            <path id="Trazado_875419" data-name="Trazado 875419" d="M235.134,295.695c1.075-3.948.782-8.481-1.74-11.7s-15.953-6.829-19.589,2.294l2.645,21.545c3.458.264,10.6-1.225,13.265-3.445a17.184,17.184,0,0,0,5.42-8.692" transform="translate(94.227 123.62)" fill="#cc8770"/>
            <path id="Trazado_875420" data-name="Trazado 875420" d="M193.3,269.134a2.747,2.747,0,1,0,3.678-1.869,2.929,2.929,0,0,0-3.678,1.869" transform="translate(85.081 117.712)" fill="#421b36"/>
            <path id="Trazado_875421" data-name="Trazado 875421" d="M214.456,267.493c-3.629-6.16-10.3-12.079-18.108-10.8a1.737,1.737,0,0,0-.135,3.332c3.154.864,6.166,1.019,9.13,2.582a23.741,23.741,0,0,1,7.562,5.953c.658.847,2.1-.144,1.552-1.07" transform="translate(85.953 113.052)" fill="#421b36"/>
            <path id="Trazado_875422" data-name="Trazado 875422" d="M213.128,293.216c1.068-.2,2.237.006,3.354-.246,1.4-.316,2.792-.7,4.191-1.024,2.606-.6,5.557-.608,8.048-1.508,1.882-.681.752-3.113-.742-3.347-2.619-.412-6.238.975-8.688,1.772a22.46,22.46,0,0,0-4.034,1.611,11.251,11.251,0,0,0-2.379,2.259.284.284,0,0,0,.249.484" transform="translate(93.781 126.492)" fill="#421b36"/>
            <g id="Grupo_1106357" data-name="Grupo 1106357" transform="translate(281.484 402.16)" opacity="0.2">
              <g id="Grupo_1106356" data-name="Grupo 1106356">
                <g id="Grupo_1106355" data-name="Grupo 1106355" clip-path="url(#clip-path-3)">
                  <path id="Trazado_875423" data-name="Trazado 875423" d="M213.531,288.312c-.944,2.366-5.736,2.677-10.7.7s-8.231-5.5-7.289-7.869,5.735-2.677,10.7-.7,8.232,5.5,7.289,7.869" transform="translate(-195.378 -279.139)" fill="#421b36"/>
                </g>
              </g>
            </g>
            <path id="Trazado_875424" data-name="Trazado 875424" d="M177,286.287a18.069,18.069,0,0,0,11.392,1.7c3.358-.624,8.17-2.24,9.661-5.571a1.321,1.321,0,0,0-1.54-1.67c-1.465.458-2.49,1.465-3.806,2.236a17.046,17.046,0,0,1-4.589,1.854,19.851,19.851,0,0,1-10.347-.218c-.961-.3-1.742,1.214-.771,1.668" transform="translate(77.811 123.71)" fill="#421b36"/>
            <path id="Trazado_875425" data-name="Trazado 875425" d="M255.409,269.251a20.354,20.354,0,0,0,8.061-13.613c.167-1.452-2.229-1.8-2.547-.377-1.108,4.95-2.932,9.272-6.509,12.969-.656.679.284,1.566,1,1.021" transform="translate(112.027 112.098)" fill="#421b36"/>
            <path id="Trazado_875426" data-name="Trazado 875426" d="M254.18,267.9a33.083,33.083,0,0,1,16.4-.328c1.71.418,2.455-2.271.755-2.609a30.207,30.207,0,0,0-17.57,1.369c-.934.379-.634,1.837.412,1.569" transform="translate(111.593 116.468)" fill="#421b36"/>
            <path id="Trazado_875427" data-name="Trazado 875427" d="M194.66,323.474l3.734,29.986c.206,1.657,2.724.984,2.52-.661l-3.734-29.986c-.206-1.655-2.724-.983-2.52.661" transform="translate(85.785 141.848)" fill="#421b36"/>
            <path id="Trazado_875428" data-name="Trazado 875428" d="M185.606,319.107c7.15,6.13,20.135,7.172,28.941,4.845,1.183-.313,1.027-2.314-.271-2.21-4.584.369-9.039.885-13.639.442-5.169-.5-9.9-2.377-14.963-3.191-.059-.009-.125.063-.068.114" transform="translate(81.79 140.585)" fill="#421b36"/>
            <path id="Trazado_875429" data-name="Trazado 875429" d="M253.916,340.46s-40.28,22.5-51.349,17.742-8.889-20.318-8.889-20.318,55.407-1.808,60.238,2.576" transform="translate(85.281 148.748)" fill="#cc8770"/>
          </g>
        </g>
        <g id="Grupo_1106367" data-name="Grupo 1106367">
          <g id="Grupo_1106366" data-name="Grupo 1106366" clip-path="url(#clip-path)">
            <path id="Trazado_875430" data-name="Trazado 875430" d="M300.459,63.034v222.33H13.565a6.808,6.808,0,0,1-6.806-6.377c-1.892-29.9-9.432-156.824-4.443-205.4C3.35,63.521,4.909,56.814,7.171,55.019c14.7-11.621,284.787-9.007,293.288,8.015" transform="translate(0.281 21.117)" fill="#fff"/>
            <path id="Trazado_875431" data-name="Trazado 875431" d="M299.945,63.034V74.266L1.8,73.583C2.836,63.521,4.4,56.814,6.657,55.019c14.7-11.621,284.786-9.007,293.288,8.015" transform="translate(0.794 21.117)" fill="#8380ff"/>
            <path id="Trazado_875432" data-name="Trazado 875432" d="M301.675,286.572H13.845a7.765,7.765,0,0,1-7.74-7.253c-1.627-25.712-9.481-156.466-4.44-205.56,1.511-14.707,3.694-18,5.205-19.2,13.891-10.98,229.744-9.019,281.662,2.557,10.249,2.285,12.353,4.388,13.043,5.77l.1.2ZM119.649,49.054c-56.623,0-105.871,2.43-111.617,6.972C6.71,57.074,4.854,61.036,3.527,73.951-1.5,122.9,6.348,253.515,7.973,279.2a5.889,5.889,0,0,0,5.872,5.5H299.8V63.555c-.63-.952-3.027-2.683-11.677-4.612-30.268-6.748-104.134-9.889-168.479-9.889" transform="translate(0 20.844)" fill="#421b36"/>
            <path id="Trazado_875433" data-name="Trazado 875433" d="M195.2,115.374c-6.4-6.5-12.655-14.577-11.932-23.672.627-7.879,6.341-14.324,9.117-21.723,3.378-9.006,2.183-19.383-2.206-27.944S178.434,26.661,170.072,21.9a63.962,63.962,0,0,0-29.281-8.291L124.707,155.958,188.77,188.3c21.863-40.486,12.831-66.424,6.433-72.929" transform="translate(54.96 5.999)" fill="#421b36"/>
            <path id="Trazado_875434" data-name="Trazado 875434" d="M120.092,30.127c21.988-23.5,62.01-14.747,72.271,15.756,3.245,9.646,3.6,21.923,1.132,37.93-6.874,44.658-44.776,39.659-44.776,39.659l-11.161,35.823L91,141.8l17.349-44.835s-.8-34.021,4.793-54.767a28.6,28.6,0,0,1,6.951-12.072" transform="translate(40.104 7.372)" fill="#944d4d"/>
            <path id="Trazado_875435" data-name="Trazado 875435" d="M153.5,45.691a2.718,2.718,0,1,1-2.348-3.283,2.861,2.861,0,0,1,2.348,3.283" transform="translate(65.274 18.683)" fill="#421b36"/>
            <path id="Trazado_875436" data-name="Trazado 875436" d="M133.67,42.875a2.718,2.718,0,1,1-2.35-3.283,2.861,2.861,0,0,1,2.35,3.283" transform="translate(56.533 17.442)" fill="#421b36"/>
            <path id="Trazado_875437" data-name="Trazado 875437" d="M121.981,31.829c6.3-2.834,12.282-1.454,18.529.277a1.313,1.313,0,0,0,1.007-2.389c-6.171-4.167-14.272-2.53-20.252.886-.811.462-.1,1.593.716,1.226" transform="translate(53.286 12.005)" fill="#421b36"/>
            <path id="Trazado_875438" data-name="Trazado 875438" d="M117.359,84.749a37.156,37.156,0,0,0,24.816,10.5c1.5.062,1.435-2.137,0-2.3a62.346,62.346,0,0,1-24.688-8.365.106.106,0,0,0-.128.166" transform="translate(51.709 37.271)" fill="#421b36"/>
            <path id="Trazado_875439" data-name="Trazado 875439" d="M134.635,15.1c-6.9,2.589-13.59,6.042-18.94,11.109-4.5,4.259-7.9,9.513-11.261,14.713-6.227,9.636-15.823,43.33-22.05,52.965,0,0-20.153,50.375-19.542,70.442l11.821,15.916s25.835-20.409,30.965-29.584,15.442-26.155,18.529-39.415,3.752-47.261,7.431-59.748,29.915-26.214,40.49-31.3l.67-5.94c-11.769-5.675-25.881-3.746-38.114.846" transform="translate(27.69 4.741)" fill="#421b36"/>
            <g id="Grupo_1106362" data-name="Grupo 1106362" transform="translate(172.967 68.268)" opacity="0.3">
              <g id="Grupo_1106361" data-name="Grupo 1106361">
                <g id="Grupo_1106360" data-name="Grupo 1106360" clip-path="url(#clip-path-5)">
                  <path id="Trazado_875440" data-name="Trazado 875440" d="M137.134,52.871c-.275,2.439-4.319,3.986-9.03,3.453s-8.309-2.942-8.033-5.381,4.319-3.986,9.032-3.453,8.307,2.942,8.032,5.381" transform="translate(-120.056 -47.385)" fill="#421b36"/>
                </g>
              </g>
            </g>
            <path id="Trazado_875441" data-name="Trazado 875441" d="M140,17.944c4.208-2.752,7.839-5.65,12.866-6.843,6.235-1.48,11.9.141,17.662,2.487.962.392,1.425-1.065.669-1.586-9.311-6.405-25.612-4.867-31.412,5.727-.072.133.078.305.216.216" transform="translate(61.599 3.612)" fill="#421b36"/>
            <path id="Trazado_875442" data-name="Trazado 875442" d="M163.44,3.083C150.812,2.144,140.456,9.62,136.8,21.7a1.167,1.167,0,0,0,2.248.621c3.282-10.96,12.994-18.169,24.387-18.784a.228.228,0,0,0,0-.455" transform="translate(60.268 1.324)" fill="#421b36"/>
            <path id="Trazado_875443" data-name="Trazado 875443" d="M101.334,47.669a7.9,7.9,0,0,0-8.078.089,12.46,12.46,0,0,0-5.14,6.56c-1.637,4.419-1.33,9.684,1.442,13.494s8.178,5.717,12.508,3.86Z" transform="translate(38.394 20.537)" fill="#944d4d"/>
            <path id="Trazado_875444" data-name="Trazado 875444" d="M92.208,56.695a7.173,7.173,0,0,1,4.061-.523,5.169,5.169,0,0,1,3.118,2.239c.89,1.118,2.429-.305,1.873-1.444a5.933,5.933,0,0,0-4.831-3.123,5.314,5.314,0,0,0-2.835.563A5.183,5.183,0,0,0,91.908,56.4c-.128.187.118.4.3.3" transform="translate(40.49 23.724)" fill="#421b36"/>
            <path id="Trazado_875445" data-name="Trazado 875445" d="M161.337,34.16c-4.164-5.483-12.237-6.248-16.78-.906-7.1,8.356-3.834,23.865.509,32.675a1.373,1.373,0,0,0,2.5-1.053C145.108,58,142.9,50.936,143.594,43.5c.89-9.6,8.872-14.471,17-8.6.428.31,1.069-.314.743-.743" transform="translate(61.879 13.055)" fill="#421b36"/>
            <path id="Trazado_875446" data-name="Trazado 875446" d="M138.72,108.683s29.248.663,39.486,20.553,34.367,60.994,34.367,60.994,34.368,48.4,25.593,65.636-1.462,33.149-27.055,23.867c-11.693-4.24-25.75-20.082-26.361-22.07H163.01Z" transform="translate(61.136 47.898)" fill="#8380ff"/>
            <path id="Trazado_875447" data-name="Trazado 875447" d="M237.554,155.326a6.933,6.933,0,0,0-10.261-4.367c-13.553,7.944-39.942,24.746-43.721,37.163-5.119,16.817,23.4,76.14,23.4,76.14s35.829-3.02,38.754-36.655c2.15-24.715-4.5-56.931-8.17-72.282" transform="translate(80.632 66.107)" fill="#8380ff"/>
            <path id="Trazado_875448" data-name="Trazado 875448" d="M87.677,114.2s15-22.007,17.238-19.4S131.1,109.862,131.1,109.862s13.733-11,16.289-10.135,13.824,15.168,13.824,15.168,28.531,147.431,24.29,148.98H114.333Z" transform="translate(38.641 41.687)" fill="#a0d2f4"/>
            <path id="Trazado_875449" data-name="Trazado 875449" d="M87.687,111.092a181.875,181.875,0,0,0,14.126,14.849q3.827,3.676,7.757,7.247c2.17,1.98,4.553,4.857,7.208,6.173,6.061,3,7.79-8.077,8.858-11.568,2.167-7.091,4.218-14.218,6.515-21.271.467-1.433-1.789-2.047-2.253-.621-1.987,6.1-3.789,12.255-5.643,18.4-.916,3.031-1.84,6.06-2.809,9.075-.428,1.33-.808,3.318-2.235,3.888-1.622.648-3.377-1.563-4.543-2.611-8.843-7.938-17.721-16.052-25.328-25.211-.961-1.158-2.608.5-1.653,1.653" transform="translate(38.518 46.316)" fill="#421b36"/>
            <path id="Trazado_875450" data-name="Trazado 875450" d="M117.188,107.073,127.5,120.183l5.334,6.78a62.712,62.712,0,0,0,4.9,6.15,3.518,3.518,0,0,0,4.811.249c1.8-1.458,1.923-4.118,2.335-6.222q1.6-8.175,3.206-16.349c.288-1.47-1.965-2.1-2.255-.621q-1.357,6.926-2.716,13.855-.352,1.8-.706,3.6a11.136,11.136,0,0,1-.843,3.332c-1.51,2.626-3.874-1.576-4.767-2.711q-8.977-11.415-17.957-22.827c-.929-1.181-2.573.483-1.653,1.653" transform="translate(51.527 46.282)" fill="#421b36"/>
            <path id="Trazado_875451" data-name="Trazado 875451" d="M118.085,108.866c4.256,18.179,7.029,36.744,9.787,55.2,3.268,21.867,6.175,43.8,8.551,65.785,1,9.225,1.933,18.467,2.478,27.732.088,1.494,2.426,1.5,2.337,0-1.089-18.568-3.42-37.09-5.773-55.531-2.8-21.993-5.93-43.959-9.674-65.813-1.6-9.366-3.283-18.738-5.45-27.992-.343-1.465-2.6-.844-2.255.621" transform="translate(52.026 47.337)" fill="#421b36"/>
            <path id="Trazado_875452" data-name="Trazado 875452" d="M174.233,230.85a439.35,439.35,0,0,0-8.149-68.966c-.294-1.474-2.547-.85-2.253.621A435.432,435.432,0,0,1,171.9,230.85c.058,1.5,2.394,1.507,2.337,0" transform="translate(72.191 70.974)" fill="#421b36"/>
            <path id="Trazado_875453" data-name="Trazado 875453" d="M165.7,174.048a301.441,301.441,0,0,0,14.919-34.5c.51-1.419-1.749-2.03-2.255-.622a296.453,296.453,0,0,1-14.682,33.94c-.68,1.337,1.336,2.521,2.018,1.179" transform="translate(72.077 60.877)" fill="#421b36"/>
            <path id="Trazado_875454" data-name="Trazado 875454" d="M231.769,154.5a17.365,17.365,0,0,0-14.076,2.881,95.707,95.707,0,0,0-29.313,34.59c-.962,1.936-1.645,4.736.19,5.88,1.6,1,3.625-.285,5.047-1.531,13.409-11.761,29-26.539,38.232-41.8Z" transform="translate(82.598 67.899)" fill="#421b36"/>
            <path id="Trazado_875455" data-name="Trazado 875455" d="M197.126,247.946c-5.234-15.92-11.462-31.9-13.167-48.693-.693-6.835-1.392-13.047,2.112-19.313,3.75-6.7,10.023-11.694,16.385-15.774,1.262-.81.091-2.834-1.18-2.018-8.673,5.561-18.675,13.763-20.04,24.75a46.638,46.638,0,0,0,.03,7.4,115.021,115.021,0,0,0,4.426,25.633c2.657,9.67,6.048,19.115,9.179,28.637.468,1.423,2.726.814,2.255-.621" transform="translate(79.81 71.377)" fill="#421b36"/>
            <path id="Trazado_875456" data-name="Trazado 875456" d="M148.216,63.489a65.135,65.135,0,0,0-12.3-8.052,4.267,4.267,0,0,0-2.648-.648,3.687,3.687,0,0,0-2.4,2.481,10.567,10.567,0,0,0,16.614,12.018,5.091,5.091,0,0,0,1.58-2.047,2.738,2.738,0,0,0-.843-3.752" transform="translate(57.362 24.128)" fill="#fff"/>
            <path id="Trazado_875457" data-name="Trazado 875457" d="M10.178,257.874s6.776-5.774,5.313-13.067S5.254,229.559,25,210.993s16.086-61.657,32.9-76.243S121.831,108.2,121.831,108.2s21.289,82.187,27.814,149.6Z" transform="translate(4.486 47.687)" fill="#8380ff"/>
            <path id="Trazado_875458" data-name="Trazado 875458" d="M42.165,133.194A142.652,142.652,0,0,1,72.31,195.1c.3,1.472,2.554.85,2.253-.621-4.754-23.223-15.694-44.71-30.745-62.941-.958-1.161-2.6.5-1.653,1.652" transform="translate(18.457 57.799)" fill="#421b36"/>
            <path id="Trazado_875459" data-name="Trazado 875459" d="M59.26,225.915q4.29-19.262,8.578-38.525.625-2.8,1.248-5.6c.326-1.465-1.926-2.092-2.255-.621q-4.272,19.19-8.546,38.384-.64,2.872-1.278,5.743c-.327,1.465,1.926,2.09,2.253.621" transform="translate(25.11 79.474)" fill="#421b36"/>
            <path id="Trazado_875460" data-name="Trazado 875460" d="M167.9,58.184a32.273,32.273,0,0,0-2.812,18.1c.895,6.532,3.87,12.095,7.918,17.209,4.344,5.486,9.225,10.491,11.962,17.047a36.937,36.937,0,0,1,2.2,21.328,37.633,37.633,0,0,1-11.011,19.824c-1.092,1.04.563,2.691,1.652,1.653a39.554,39.554,0,0,0,11.854-34.78,40.75,40.75,0,0,0-8.3-18.559c-4.236-5.47-9.442-10.418-12.093-16.937a29.851,29.851,0,0,1,.644-23.706c.632-1.354-1.382-2.543-2.018-1.18" transform="translate(72.628 25.377)" fill="#421b36"/>
            <path id="Trazado_875461" data-name="Trazado 875461" d="M116.366,37.643c-3.919,15.2-.846,30.815-1.776,46.25-.815,13.492-5.865,28.379-19.278,34.07-1.38.585-.19,2.6,1.18,2.018,12.621-5.354,18.542-18.914,20.058-31.769,1.958-16.613-2.158-33.544,2.072-49.948a1.17,1.17,0,0,0-2.255-.621" transform="translate(41.735 16.224)" fill="#421b36"/>
            <path id="Trazado_875462" data-name="Trazado 875462" d="M17.494,59.207a3.657,3.657,0,1,1-3.658-3.658,3.658,3.658,0,0,1,3.658,3.658" transform="translate(4.486 24.481)" fill="#421b36"/>
            <path id="Trazado_875463" data-name="Trazado 875463" d="M24.465,59.207a3.657,3.657,0,1,1-3.658-3.658,3.658,3.658,0,0,1,3.658,3.658" transform="translate(7.558 24.481)" fill="#421b36"/>
            <path id="Trazado_875464" data-name="Trazado 875464" d="M31.436,59.207a3.657,3.657,0,1,1-3.658-3.658,3.658,3.658,0,0,1,3.658,3.658" transform="translate(10.631 24.481)" fill="#421b36"/>
            <g id="Grupo_1106365" data-name="Grupo 1106365" transform="translate(84.61 266.724)" opacity="0.3">
              <g id="Grupo_1106364" data-name="Grupo 1106364">
                <g id="Grupo_1106363" data-name="Grupo 1106363" clip-path="url(#clip-path-6)">
                  <path id="Trazado_875465" data-name="Trazado 875465" d="M68.926,190.456c.287.932.6,1.942.925,3.018a2.324,2.324,0,0,1-.925-3.018M61.778,214.7c-.729-2.005.241-2.9-1.477-3l-1.17,4.687c1.239.769,2.737.452,2.647-1.689m6.564-11.8c.676,1.2.676,1.2,2.526,2.1a3.452,3.452,0,0,0,2.088-1.193q-.389-1.318-.779-2.625c-1.262-.919-3.27-.957-3.834,1.716m-9.615,20.686c.6.04,1.356.091,2.233.146a1.639,1.639,0,0,0-2.233-.146m8.532-37.5a3.767,3.767,0,0,0-.33-.949l-.73,2.932a2.015,2.015,0,0,0,1.06-1.982m2.609,25.751c-.016,1.215-1.676,1.9-.9,3.484l2.7,1.02A11.23,11.23,0,0,0,73.8,214.1c-1.361-.824-1.834-2.776-3.936-2.262m-6.178,6.132c-.079,1.148-.664,2.286.572,3.174-.086,1.057.808,1.481,1.8,1.164.549-.676,1.029-1.271,1.494-1.846-.016-2.491-1.6-3.426-3.863-2.492m3.822-22.076c-1.034-.3-2.039-.6-3.043-.9l-.683,2.743a3.9,3.9,0,0,1,.1,1.147c.811.135,1.629.274,2.4.4,1.243-.88,1.9-1.884,1.232-3.39m7.019,13.342-.314-1.093c-.112.088-.22.177-.344.267a3.8,3.8,0,0,0,.658.827M70.467,224.2c.851.027,1.673.046,2.443.058a2.708,2.708,0,0,0-2.443-.058m6.636-2.91c.167-.184.32-.356.468-.522-.18-.83-.411-1.8-.681-2.874-1.87.549-3.341,4,.213,3.4M64.222,207.193c-.213.428-.418.838-.656,1.318,4.286,4.619,6.485-4.247.656-1.318" transform="translate(-58.728 -185.133)" fill="#421b36"/>
                </g>
              </g>
            </g>
            <path id="Trazado_875466" data-name="Trazado 875466" d="M223.535,115.582s-1.194-5.468-5.578-5.5c-3.979-.035-5.355,5.067-7.219,11.432s-2.847,11.608-7.96,18.68-5.674,14.649-6.341,21.642,1.5,15.092,1.5,15.092L196.271,212.1c3.243-3.314,22.5-23.7,22.5-23.7l.681-9.378L240.269,154.4a28.552,28.552,0,0,0,4.826-6.565l21.311-39.876s1.6-4.508-7.428-1.069c0,0-6.91-7.554-12.15,7.5,0,0,.846-6.663-2.9-8.036s-6.98,1-7.591,8.834c0,0-8.977-4.217-8.889,8.731l.128,8.055s-2.716,8.329-3.449,8.943c-.157.133-.474.115-.874.009a4.554,4.554,0,0,1-3.083-5.6c1.575-5.929,4.384-17.336,3.364-19.736" transform="translate(86.5 46.272)" fill="#944d4d"/>
            <path id="Trazado_875467" data-name="Trazado 875467" d="M233.389,135.856a41.192,41.192,0,0,1-4.63-13.1,60.618,60.618,0,0,1-.573-6.773,6.556,6.556,0,0,0-1.591-4.505c-3.083-2.974-7.065.285-8.362,3.3a28.012,28.012,0,0,0-1.8,13.067,82.458,82.458,0,0,0,3.121,15.482,1.17,1.17,0,0,0,2.253-.622,77.515,77.515,0,0,1-3.056-15.136,30.086,30.086,0,0,1,.32-7.365c.4-2.237,1.023-5.359,2.923-6.83.991-.769,2.455-1.014,3.269.141a5.9,5.9,0,0,1,.611,3.119,50.834,50.834,0,0,0,.63,6.741,43.11,43.11,0,0,0,4.867,13.661c.732,1.315,2.75.137,2.018-1.18" transform="translate(95.339 48.612)" fill="#421b36"/>
            <path id="Trazado_875468" data-name="Trazado 875468" d="M199.6,156.4c-1.51-3.185-.343-6.94,1.827-9.526,2.338-2.788,5.852-4.259,9.268-5.236,3.263-.935,6.574-1.493,9.767-2.684a53.123,53.123,0,0,0,9.5-4.569c1.275-.792.1-2.815-1.18-2.018a49.934,49.934,0,0,1-11.046,5.067c-3.779,1.215-7.725,1.7-11.4,3.262a16.28,16.28,0,0,0-8.16,6.815,10.893,10.893,0,0,0-.586,10.069c.644,1.359,2.66.174,2.018-1.18" transform="translate(86.651 58.255)" fill="#421b36"/>
            <path id="Trazado_875469" data-name="Trazado 875469" d="M224.734,114c.741-2.547,3.2-6.028,6.123-6.24,4.224-.307,2.685,5.71,2.415,8.1A116.3,116.3,0,0,0,233,139.01c.13,1.487,2.468,1.5,2.338,0a116.947,116.947,0,0,1-.36-14.937q.156-3.812.565-7.607a32,32,0,0,0,.517-6.185,5.041,5.041,0,0,0-6.868-4.528c-3.255,1.119-5.78,4.422-6.712,7.624a1.17,1.17,0,0,0,2.255.621" transform="translate(98.027 46.463)" fill="#421b36"/>
            <path id="Trazado_875470" data-name="Trazado 875470" d="M241.027,106.542c-2.309,10.442-4.705,21.05-8.388,31.107-.517,1.415,1.74,2.024,2.255.621,3.682-10.056,6.078-20.664,8.388-31.107.324-1.465-1.929-2.092-2.255-.621" transform="translate(102.494 46.585)" fill="#421b36"/>
            <path id="Trazado_875471" data-name="Trazado 875471" d="M235.356,105.572a9.228,9.228,0,0,0,2.76,12.333,1.178,1.178,0,0,0,1.6-.419,1.193,1.193,0,0,0-.421-1.6,6.978,6.978,0,0,1-1.92-9.134,1.17,1.17,0,0,0-2.018-1.18" transform="translate(103.164 46.277)" fill="#421b36"/>
            <path id="Trazado_875472" data-name="Trazado 875472" d="M225.986,108.424a13.32,13.32,0,0,0,1.238,6.149c.951,1.719,3.09,3.487,5.112,2.338a1.169,1.169,0,0,0-1.18-2.018c-.032.019-.062.037-.1.055.1-.039.111-.046.033-.022-.169-.027.171.016,0,.009a2.088,2.088,0,0,1-.268-.007c.128.02.081.012-.011-.019.006,0-.282-.1-.177-.053s-.17-.094-.164-.091c-.068-.037-.131-.079-.193-.12-.174-.11.019.026-.078-.059a4.348,4.348,0,0,1-1.173-1.618c-.022-.048-.069-.166-.023-.05-.039-.092-.071-.186-.105-.28-.061-.17-.115-.34-.161-.513a9.452,9.452,0,0,1-.254-1.2c.014.082-.019-.153-.022-.179-.013-.117-.026-.233-.036-.35-.017-.212-.033-.424-.048-.634-.026-.447-.04-.895-.056-1.341a1.168,1.168,0,1,0-2.335,0" transform="translate(99.596 47.269)" fill="#421b36"/>
            <path id="Trazado_875473" data-name="Trazado 875473" d="M219.467,112.835a5.939,5.939,0,0,0,.694,5.514,6.068,6.068,0,0,0,4.946,2.51,1.169,1.169,0,0,0,0-2.338c-.184,0-.366-.014-.55-.02-.143-.006.189.039-.036-.006-.1-.02-.2-.037-.292-.061a4.954,4.954,0,0,1-.48-.143c-.027-.01-.282-.112-.14-.05s-.108-.053-.134-.066A5.048,5.048,0,0,1,223,117.9c-.069-.045-.138-.092-.206-.14-.262-.184.158.148-.078-.065-.124-.112-.248-.222-.363-.344-.069-.072-.134-.148-.2-.225-.14-.163.036.073-.03-.04-.086-.15-.192-.29-.275-.442-.042-.076-.079-.154-.118-.232-.147-.3.063.206-.045-.105-.056-.166-.111-.33-.154-.5-.025-.1-.045-.2-.066-.305-.048-.222,0,.088-.012-.052a5.792,5.792,0,0,1,0-1.095c-.02.171-.006.052.014-.05q.024-.127.056-.255a4.867,4.867,0,0,1,.2-.6,1.174,1.174,0,0,0-.817-1.438,1.2,1.2,0,0,0-1.438.817" transform="translate(96.553 49.353)" fill="#421b36"/>
            <path id="Trazado_875474" data-name="Trazado 875474" d="M192.64,196.442a238.287,238.287,0,0,0,21.02-19.918c6.529-6.817,13.256-13.894,18.312-21.913.805-1.276-1.217-2.451-2.018-1.18C224.9,161.446,218.135,168.5,211.6,175.3a236.815,236.815,0,0,1-20.608,19.49c-1.166.952.5,2.6,1.653,1.653" transform="translate(83.997 67.379)" fill="#421b36"/>
          </g>
        </g>
        <g id="Grupo_1106369" data-name="Grupo 1106369">
          <g id="Grupo_1106368" data-name="Grupo 1106368" clip-path="url(#clip-path)">
            <path id="Trazado_875475" data-name="Trazado 875475" d="M114.586,282.544c9.219-8.592,25.227-11.4,37.5-8.549a39.347,39.347,0,0,1,27.371,23.873,27.713,27.713,0,0,1,1.622,15.577c-1.118,5.174-4.383,10.013-9.151,12.309a31.878,31.878,0,0,0,9.424,6.845c1.549.738,1.592,3.34-.1,3.613-8.006,1.289-14.544.451-19.716-2.966-8.412,4.334-20.862,3.737-30.261,2.642s-18.577-6.3-23.04-14.646c-5.786-10.815-5.535-28.484,6.351-38.7" transform="translate(46.076 120.28)" fill="#a0d2f4"/>
            <path id="Trazado_875476" data-name="Trazado 875476" d="M163.63,307.188a19.845,19.845,0,0,1-12.991-13.007c-.7-2.325-1.029-5.476,1.229-7.075,2.242-1.586,5.079-.186,6.356,1.928,3.564,5.9-.2,15.557-4.922,19.761-5.1,4.541-12.455,4.262-16.764-1.178-3.172-4.007-6.186-15.62.448-18.065,6.751-2.488,7.333,7.979,6.063,11.887a14.17,14.17,0,0,1-14.854,9.98,12.982,12.982,0,0,1-11.758-11.944c-.248-2.982.539-6.98,3.018-8.94,2.557-2.018,5.009.071,5.495,2.781,1.4,7.843-5.519,14.5-12.974,14.721-1.586.048-1.585-2.418,0-2.465a10.766,10.766,0,0,0,10.354-8.222,9.718,9.718,0,0,0,.241-3.165c-.112-1.1.084-1.075-1.23-.987-1.372.094-.844-.088-1.392.661-1.259,1.723-1.279,4.648-.9,6.639,1.794,9.461,14.466,11.3,19.839,3.8,2.04-2.847,3.88-8.507,1.284-11.585a2.314,2.314,0,0,0-3.852.579,8.622,8.622,0,0,0-.609,4.386,15.274,15.274,0,0,0,1.978,7.28c2.59,4.237,7.518,5.914,11.97,3.442,4.087-2.268,6.372-7.136,7.157-11.578a11.164,11.164,0,0,0-.026-4.834,6.553,6.553,0,0,0-.471-1.262c-.382-.748-1.619-2.168-2.67-1.8-2.511.89-.262,5.871.419,7.218a17.394,17.394,0,0,0,10.22,8.66c1.5.483.862,2.863-.656,2.377" transform="translate(48.826 126.231)" fill="#fff"/>
          </g>
        </g>
        <g id="Grupo_1106371" data-name="Grupo 1106371">
          <g id="Grupo_1106370" data-name="Grupo 1106370" clip-path="url(#clip-path)">
            <path id="Trazado_875477" data-name="Trazado 875477" d="M192.177,51.892s-.791,9.053-1.225,14.685a1.871,1.871,0,0,0,3.073,1.573c2.948-2.482,7.012-5.959,8.594-7.568a1.869,1.869,0,0,1,1.837-.478c8.845,2.446,18.324,3.126,27.132.6,9.2-2.638,17.544-9.1,21.091-17.984,3.912-9.794,1.419-21.562-5.336-29.661S230.051.458,219.512.035a44.63,44.63,0,0,0-28.448,8.919C184.333,14.048,178.943,21.572,178.443,30s5.436,20.343,13.734,21.893" transform="translate(78.63 0)" fill="#a0d2f4"/>
            <path id="Trazado_875478" data-name="Trazado 875478" d="M187.764,31.9a20.1,20.1,0,0,0,13.188-13.253c.7-2.374,1.008-5.728-1.467-7.214-2.585-1.552-5.4.513-6.5,2.845-2.978,6.342.951,15.9,6.179,19.947a11.355,11.355,0,0,0,16.743-2.684c2.766-4.089,5.37-15.377-1.21-17.506-6.789-2.2-7.134,8.365-5.819,12.243a14.31,14.31,0,0,0,14.652,9.954A13.13,13.13,0,0,0,235.7,24.656c.362-3.125-.32-7.133-2.742-9.373-2.5-2.317-5.221-.235-5.705,2.595C225.9,25.8,232.8,32.545,240.377,32.757a1.169,1.169,0,0,0,0-2.337,11.03,11.03,0,0,1-10.6-8.356,8.564,8.564,0,0,1-.23-3.851c.553-1.859,2.513-.506,3.047.671a10.7,10.7,0,0,1,.621,6.565c-1.977,9.435-14.557,11.174-20.1,3.9-2.269-2.979-4.118-8.652-1.625-12.046a2.275,2.275,0,0,1,3.623-.291,5.635,5.635,0,0,1,1.2,3.716,17.453,17.453,0,0,1-1.144,7.237c-1.99,4.949-7.088,8.022-12.242,5.789-4.629-2-7.149-7-8.165-11.713-.562-2.6-.949-7.446,2.24-8.427,3.783-1.164,1.435,5.47.73,6.911a17.8,17.8,0,0,1-10.589,9.121c-1.428.455-.818,2.714.621,2.255" transform="translate(82.119 4.8)" fill="#fff"/>
          </g>
        </g>
      </g>
    </g>
  </g>
</svg>
