<svg xmlns="http://www.w3.org/2000/svg" width="90" height="90" viewBox="0 0 90 90">
  <g id="Grupo_1106376" data-name="Grupo 1106376" transform="translate(-755.5 -3264.025)">
    <rect id="Rectángulo_403021" data-name="Rectángulo 403021" width="90" height="90" rx="45" transform="translate(755.5 3264.025)" fill="#fff" opacity="0.859"/>
    <g id="chat" transform="translate(768.543 3277.292)">
      <path id="Trazado_874096" data-name="Trazado 874096" d="M272.027,36.137c-8.321,0-15.066,4.4-15.066,12.884a15.068,15.068,0,1,0,30.131,0C287.091,40.535,280.347,36.137,272.027,36.137Zm0,0" transform="translate(-225.108 -31.657)" fill="#fbc4ac"/>
      <path id="Trazado_874097" data-name="Trazado 874097" d="M259.939,31.5a15.254,15.254,0,0,1,13.578-15.289q-.734-.073-1.487-.075a15.366,15.366,0,0,0,0,30.727q.753,0,1.487-.075A15.253,15.253,0,0,1,259.939,31.5Zm0,0" transform="translate(-225.111 -14.137)" fill="#e3b098"/>
      <path id="Trazado_874098" data-name="Trazado 874098" d="M430.256,171.434h-2.127a.93.93,0,1,1,0-1.859h2.127a.93.93,0,0,1,0,1.859Zm0,0" transform="translate(-374.244 -148.554)" fill="#f98084"/>
      <path id="Trazado_874099" data-name="Trazado 874099" d="M300.689,171.434h-2.127a.93.93,0,0,1,0-1.859h2.127a.93.93,0,0,1,0,1.859Zm0,0" transform="translate(-260.738 -148.554)" fill="#f98084"/>
      <path id="Trazado_874100" data-name="Trazado 874100" d="M286.37,19.23c-1.035-12.6-6.113-10.656-14.344-10.656-6.222,0-9.21-.623-10.483-1.02a1.091,1.091,0,0,0-1.3.545c-1.016,1.994-3.284,7.39-3.284,15.838,0,0,3.6-6.489,15.066-6.489C277.359,17.449,276.913,19.23,286.37,19.23Zm0,0" transform="translate(-225.108 -6.575)" fill="#c86d5c"/>
      <path id="Trazado_874101" data-name="Trazado 874101" d="M263.219,8.1a1.1,1.1,0,0,1,.08-.13,15.041,15.041,0,0,1-1.756-.415,1.091,1.091,0,0,0-1.3.545c-1.016,1.994-3.284,7.39-3.284,15.838a10.917,10.917,0,0,1,3.083-3.137A33.418,33.418,0,0,1,263.219,8.1Zm0,0" transform="translate(-225.108 -6.575)" fill="#ad4f3d"/>
      <path id="Trazado_874102" data-name="Trazado 874102" d="M7.59,375.762v9.9a4.842,4.842,0,0,0,4.308,4.813l7.119.792Zm0,0" transform="translate(-6.649 -329.182)" fill="#3a484a"/>
      <path id="Trazado_874103" data-name="Trazado 874103" d="M169.723,375.762v9.9a4.843,4.843,0,0,1-4.308,4.813l-7.119.792Zm0,0" transform="translate(-138.674 -329.182)" fill="#3a484a"/>
      <path id="Trazado_874104" data-name="Trazado 874104" d="M37.619,293.561h0L22.23,281.93,7.513,293.563h0c-.007.2-.011.4-.011.595A15.216,15.216,0,0,0,22.565,309.52,15.216,15.216,0,0,0,37.63,294.156C37.63,293.957,37.627,293.759,37.619,293.561Zm0,0" transform="translate(-6.57 -246.982)" fill="#fbc4ac"/>
      <path id="Trazado_874105" data-name="Trazado 874105" d="M10,371.813a15.652,15.652,0,0,1-2.491.491h0c-.007.2-.011.4-.011.594A15.216,15.216,0,0,0,22.565,388.26c.43,0,.855-.019,1.276-.056C16.36,387.521,10.417,380.519,10,371.813Zm0,0" transform="translate(-6.57 -325.723)" fill="#e3b098"/>
      <path id="Trazado_874106" data-name="Trazado 874106" d="M51.228,411.918H49.1a.93.93,0,0,1,0-1.859h2.127a.93.93,0,0,1,0,1.859Zm0,0" transform="translate(-42.2 -359.228)" fill="#f98084"/>
      <path id="Trazado_874107" data-name="Trazado 874107" d="M180.795,411.918h-2.127a.93.93,0,0,1,0-1.859h2.127a.93.93,0,0,1,0,1.859Zm0,0" transform="translate(-155.706 -359.228)" fill="#f98084"/>
      <path id="Trazado_874108" data-name="Trazado 874108" d="M7.59,271.393h0c8.085-.894,15.052-8.7,15.052-8.7s6.967,7.81,15.053,8.7h0a15.2,15.2,0,0,0-15.054-14.768A15.2,15.2,0,0,0,7.59,271.393Zm0,0" transform="translate(-6.649 -224.814)" fill="#3a484a"/>
      <path id="Trazado_874109" data-name="Trazado 874109" d="M23.945,256.683c-.429-.037-.863-.058-1.3-.058A15.2,15.2,0,0,0,7.59,271.393h0a14.065,14.065,0,0,0,2.491-.491A15.393,15.393,0,0,1,23.945,256.683Zm0,0" transform="translate(-6.649 -224.814)" fill="#323e40"/>
      <path id="Trazado_874110" data-name="Trazado 874110" d="M31.895,68.364V59.077a6.007,6.007,0,0,0-6.007-6.007H13.507A6.007,6.007,0,0,0,7.5,59.077v8.486a6.007,6.007,0,0,0,6.007,6.007H34.772Zm0,0" transform="translate(-6.57 -46.492)" fill="#58b78c"/>
      <path id="Trazado_874111" data-name="Trazado 874111" d="M282.9,313.169v-9.287a6.006,6.006,0,0,1,6.007-6.007h12.381a6.007,6.007,0,0,1,6.007,6.007v8.486a6.006,6.006,0,0,1-6.007,6.007H280.02Zm0,0" transform="translate(-245.308 -260.951)" fill="#f2c42c"/>
      <path id="Trazado_874112" data-name="Trazado 874112" d="M436.707,141.889a.93.93,0,0,0,.93-.93V139.4a.93.93,0,1,0-1.859,0v1.561A.93.93,0,0,0,436.707,141.889Zm0,0" transform="translate(-381.758 -121.304)"/>
      <path id="Trazado_874113" data-name="Trazado 874113" d="M307.137,141.889a.929.929,0,0,0,.93-.93V139.4a.93.93,0,1,0-1.859,0v1.561A.93.93,0,0,0,307.137,141.889Zm0,0" transform="translate(-268.25 -121.304)"/>
      <path id="Trazado_874114" data-name="Trazado 874114" d="M363.821,163.97a.93.93,0,0,0-1.312.088,1.012,1.012,0,0,1-1.473,0,.93.93,0,1,0-1.4,1.224,2.871,2.871,0,0,0,4.273,0A.93.93,0,0,0,363.821,163.97Zm0,0" transform="translate(-314.854 -143.444)"/>
      <path id="Trazado_874115" data-name="Trazado 874115" d="M57.68,382.37a.93.93,0,0,0,.93-.93v-1.562a.93.93,0,0,0-1.859,0v1.562A.93.93,0,0,0,57.68,382.37Zm0,0" transform="translate(-49.715 -331.975)"/>
      <path id="Trazado_874116" data-name="Trazado 874116" d="M187.246,382.37a.93.93,0,0,0,.93-.93v-1.562a.93.93,0,0,0-1.859,0v1.562A.93.93,0,0,0,187.246,382.37Zm0,0" transform="translate(-163.221 -331.975)"/>
      <path id="Trazado_874117" data-name="Trazado 874117" d="M111.575,404.542a.93.93,0,0,0-1.4,1.224,2.87,2.87,0,0,0,4.273,0,.93.93,0,1,0-1.4-1.224,1.012,1.012,0,0,1-1.473,0Zm0,0" transform="translate(-96.317 -354.116)"/>
      <path id="Trazado_874118" data-name="Trazado 874118" d="M6.936,67.934H28.2a.939.939,0,0,0,.814-1.38l-2.761-5V52.511a6.944,6.944,0,0,0-6.936-6.936H6.936A6.945,6.945,0,0,0,0,52.511V61A6.945,6.945,0,0,0,6.936,67.934ZM1.859,52.511a5.083,5.083,0,0,1,5.077-5.077H19.318a5.083,5.083,0,0,1,5.077,5.077V61.8a.925.925,0,0,0,.116.45l2.115,3.827H6.936A5.083,5.083,0,0,1,1.859,61Zm0,0" transform="translate(0 -39.925)"/>
      <path id="Trazado_874119" data-name="Trazado 874119" d="M47.02,95.891H59.988a.93.93,0,0,0,0-1.859H47.02a.93.93,0,0,0,0,1.859Zm0,0" transform="translate(-40.377 -82.375)"/>
      <path id="Trazado_874120" data-name="Trazado 874120" d="M47.02,130.121H59.988a.93.93,0,1,0,0-1.859H47.02a.93.93,0,0,0,0,1.859Zm0,0" transform="translate(-40.377 -112.363)"/>
      <path id="Trazado_874121" data-name="Trazado 874121" d="M47.02,164.352h8.087a.93.93,0,1,0,0-1.859H47.02a.93.93,0,0,0,0,1.859Zm0,0" transform="translate(-40.377 -142.35)"/>
      <path id="Trazado_874122" data-name="Trazado 874122" d="M273.473,312.734h21.265a6.944,6.944,0,0,0,6.936-6.936v-8.486a6.945,6.945,0,0,0-6.936-6.936H282.357a6.945,6.945,0,0,0-6.936,6.936v9.047l-2.761,5A.939.939,0,0,0,273.473,312.734Zm3.691-5.686a.932.932,0,0,0,.116-.45v-9.286a5.083,5.083,0,0,1,5.077-5.077h12.382a5.083,5.083,0,0,1,5.077,5.077V305.8a5.083,5.083,0,0,1-5.077,5.077H275.049Zm0,0" transform="translate(-238.762 -254.38)"/>
      <path id="Trazado_874123" data-name="Trazado 874123" d="M342.746,340.7h12.968a.93.93,0,0,0,0-1.859H342.746a.93.93,0,1,0,0,1.859Zm0,0" transform="translate(-299.445 -296.834)"/>
      <path id="Trazado_874124" data-name="Trazado 874124" d="M356.644,373.992a.93.93,0,0,0-.93-.93H342.746a.93.93,0,1,0,0,1.859h12.968A.929.929,0,0,0,356.644,373.992Zm0,0" transform="translate(-299.445 -326.818)"/>
      <path id="Trazado_874125" data-name="Trazado 874125" d="M391.138,408.223a.93.93,0,0,0-.93-.93h-8.087a.93.93,0,1,0,0,1.859h8.087A.929.929,0,0,0,391.138,408.223Zm0,0" transform="translate(-333.939 -356.805)"/>
      <path id="Trazado_874126" data-name="Trazado 874126" d="M265.456,33.657A16.164,16.164,0,0,0,281.45,17.364a16.569,16.569,0,0,0-.732-4.878c-.458-5.444-1.7-8.582-4.006-10.167-2.181-1.5-5.051-1.408-8.375-1.306-.923.028-1.877.058-2.882.058-6.153,0-9.036-.613-10.206-.978a2.017,2.017,0,0,0-2.4,1.011,28.221,28.221,0,0,0-2.036,5.471.93.93,0,0,0,1.8.481,26.362,26.362,0,0,1,1.9-5.109.159.159,0,0,1,.194-.08c1.553.484,4.68,1.062,10.76,1.062,1.033,0,2-.03,2.938-.058,3.121-.1,5.586-.171,7.266.981s2.665,3.654,3.117,7.866a38.491,38.491,0,0,1-4.192-.244,29.663,29.663,0,0,1-3.98-.8,17.308,17.308,0,0,0-5.149-.734,26.392,26.392,0,0,0-6.372.741,18.789,18.789,0,0,0-5.09,2.075,15.133,15.133,0,0,0-2.563,1.924l-.032.03a40.825,40.825,0,0,1,.453-4.133.93.93,0,0,0-1.835-.3,44.261,44.261,0,0,0-.555,7.081A16.165,16.165,0,0,0,265.456,33.657Zm0-1.859a14.3,14.3,0,0,1-14.133-14.17c0-.009.02-.03.025-.037a11.327,11.327,0,0,1,3.389-3.089,20.272,20.272,0,0,1,12.613-2.6c2.084.23,4.072,1,6.147,1.3a40.468,40.468,0,0,0,5.445.378l.158,0a14.74,14.74,0,0,1,.491,3.782A14.3,14.3,0,0,1,265.456,31.8Zm0,0" transform="translate(-218.538 0)"/>
      <path id="Trazado_874127" data-name="Trazado 874127" d="M.016,274.727a5.767,5.767,0,0,0,5.135,5.737l7.071.786a15.732,15.732,0,0,0,7.557,0l7.071-.786a5.767,5.767,0,0,0,5.135-5.737V265.99c0-.4.014-.8,0-1.2A16.341,16.341,0,0,0,27.111,253.7a15.8,15.8,0,0,0-23.8,1.8.93.93,0,0,0,1.485,1.12,13.944,13.944,0,0,1,21.015-1.6,14.467,14.467,0,0,1,4.233,8.707q-.342-.066-.68-.149a22.573,22.573,0,0,1-7.511-3.617l-.007,0a35.47,35.47,0,0,1-4.073-3.367c-.3-.289-.6-.583-.883-.885a1.491,1.491,0,0,0-.6-.471.908.908,0,0,0-.579,0,1.858,1.858,0,0,0-.68.559c-.569.594-1.166,1.161-1.781,1.707a35.354,35.354,0,0,1-3.12,2.48,21.627,21.627,0,0,1-8.17,3.747,14.528,14.528,0,0,1,1.086-4.1.93.93,0,1,0-1.709-.733,16.429,16.429,0,0,0-1.32,5.888c-.015.4-.014.8,0,1.2Zm6.844,4.056-1.5-.167a3.909,3.909,0,0,1-3.481-3.889v-1.651a16.454,16.454,0,0,0,1.752,2.668,16.152,16.152,0,0,0,3.01,2.876C6.683,278.654,6.831,278.764,6.86,278.783Zm23.264-4.056a3.909,3.909,0,0,1-3.481,3.889l-1.5.167.225-.166a16.136,16.136,0,0,0,3.007-2.874,16.442,16.442,0,0,0,1.752-2.668ZM16.195,257.665a30.471,30.471,0,0,0,10.356,6.983,18.38,18.38,0,0,0,3.583.988c0,.1,0,.2-.008.3a.065.065,0,0,1,0,.01,14.583,14.583,0,0,1-5.133,10.6l-.014.012a13.88,13.88,0,0,1-17.969-.012,14.584,14.584,0,0,1-5.133-10.6.053.053,0,0,1,0-.009c0-.1-.006-.2-.008-.3.085-.014.17-.031.255-.047a19.542,19.542,0,0,0,2.606-.681,25.023,25.023,0,0,0,6.389-3.331l.005,0A35.023,35.023,0,0,0,16,257.47Zm0,0" transform="translate(-0.005 -218.244)"/>
    </g>
  </g>
</svg>
