<svg xmlns="http://www.w3.org/2000/svg" width="90" height="90" viewBox="0 0 90 90">
  <g id="Grupo_1106377" data-name="Grupo 1106377" transform="translate(-1175.051 -3264)">
    <rect id="Rectángulo_403023" data-name="Rectángulo 403023" width="90" height="90" rx="45" transform="translate(1175.051 3264)" fill="#fff" opacity="0.859"/>
    <g id="medios-de-comunicacion-social_1_" data-name="medios-de-comunicacion-social (1)" transform="translate(1186.051 3249.701)">
      <g id="Grupo_1099764" data-name="Grupo 1099764" transform="translate(5.365 29.341)">
        <g id="Grupo_1099763" data-name="Grupo 1099763" transform="translate(0 0)">
          <path id="Trazado_874128" data-name="Trazado 874128" d="M46.845,35.8H59.255a8.234,8.234,0,1,1,0,16.469H57.7a.464.464,0,0,0-.4.232l-1.986,3.44a.464.464,0,0,1-.8,0L52.52,52.5a.464.464,0,0,0-.4-.232H46.845a8.234,8.234,0,0,1,0-16.469Z" transform="translate(-38.611 -35.798)" fill="#97da7b"/>
        </g>
      </g>
      <g id="Grupo_1099766" data-name="Grupo 1099766" transform="translate(26.331 36.582)">
        <g id="Grupo_1099765" data-name="Grupo 1099765">
          <path id="Trazado_874129" data-name="Trazado 874129" d="M189.5,97.131a8.22,8.22,0,0,0,7.85-9.219A10.046,10.046,0,0,0,189.5,97.131Z" transform="translate(-189.504 -87.912)" fill="#80d261"/>
        </g>
      </g>
      <g id="Grupo_1099768" data-name="Grupo 1099768" transform="translate(1.042 53.67)">
        <g id="Grupo_1099767" data-name="Grupo 1099767" transform="translate(0 0)">
          <path id="Trazado_874130" data-name="Trazado 874130" d="M42.407,210.895H17.951a10.451,10.451,0,0,0,0,20.9h1.978a.588.588,0,0,1,.51.294l2.521,4.366a.588.588,0,0,0,1.019,0l2.521-4.366a.589.589,0,0,1,.51-.294h15.4a10.451,10.451,0,1,0,0-20.9Z" transform="translate(-7.5 -210.895)" fill="#99e6fc"/>
        </g>
      </g>
      <g id="Grupo_1099770" data-name="Grupo 1099770" transform="translate(14.927 74.573)">
        <g id="Grupo_1099769" data-name="Grupo 1099769">
          <path id="Trazado_874131" data-name="Trazado 874131" d="M108.371,361.622l-.946,1.638L109,365.988a.588.588,0,0,0,1.019,0l2.521-4.366a.589.589,0,0,1,.51-.294h-4.168A.588.588,0,0,0,108.371,361.622Z" transform="translate(-107.425 -361.328)" fill="#62dbfb"/>
        </g>
      </g>
      <g id="Grupo_1099772" data-name="Grupo 1099772" transform="translate(31.781 53.67)">
        <g id="Grupo_1099771" data-name="Grupo 1099771" transform="translate(0 0)">
          <path id="Trazado_874132" data-name="Trazado 874132" d="M232.891,210.895h-4.168a10.451,10.451,0,1,1,0,20.9h4.168a10.451,10.451,0,1,0,0-20.9Z" transform="translate(-228.723 -210.895)" fill="#62dbfb"/>
        </g>
      </g>
      <g id="Grupo_1099774" data-name="Grupo 1099774" transform="translate(41.222 38.52)">
        <g id="Grupo_1099773" data-name="Grupo 1099773">
          <path id="Trazado_874133" data-name="Trazado 874133" d="M315.922,101.86H304.9a8.234,8.234,0,0,0,0,16.469h1.558a.463.463,0,0,1,.4.232l1.986,3.44a.464.464,0,0,0,.8,0l1.986-3.44a.464.464,0,0,1,.4-.232h3.883a8.234,8.234,0,1,0,0-16.469Z" transform="translate(-296.668 -101.86)" fill="#d9b1ee"/>
        </g>
      </g>
      <g id="Grupo_1099776" data-name="Grupo 1099776" transform="translate(7.065 57.574)">
        <g id="Grupo_1099775" data-name="Grupo 1099775">
          <path id="Trazado_874134" data-name="Trazado 874134" d="M57.4,239.236l1.477,3.291a.422.422,0,0,0,.339.246l3.587.388a.422.422,0,0,1,.238.732l-2.674,2.422a.421.421,0,0,0-.13.4l.74,3.531a.422.422,0,0,1-.622.452l-3.13-1.795a.421.421,0,0,0-.419,0l-3.13,1.795a.422.422,0,0,1-.622-.452l.74-3.531a.422.422,0,0,0-.13-.4l-2.674-2.422a.422.422,0,0,1,.238-.732l3.587-.388a.422.422,0,0,0,.339-.246l1.477-3.291a.421.421,0,0,1,.769,0Z" transform="translate(-50.847 -238.987)" fill="#ffe177"/>
        </g>
      </g>
      <g id="Grupo_1099778" data-name="Grupo 1099778" transform="translate(29.068 37.387)">
        <g id="Grupo_1099777" data-name="Grupo 1099777" transform="translate(0 0)">
          <circle id="Elipse_11524" data-name="Elipse 11524" cx="10.044" cy="10.044" r="10.044" fill="#ffe177"/>
        </g>
      </g>
      <g id="Grupo_1099780" data-name="Grupo 1099780" transform="translate(29.279 65.1)">
        <g id="Grupo_1099779" data-name="Grupo 1099779">
          <path id="Trazado_874135" data-name="Trazado 874135" d="M220.438,293.151h17.185a9.719,9.719,0,1,1,0,19.438h-1.839a.547.547,0,0,0-.474.274l-2.344,4.06a.547.547,0,0,1-.948,0l-2.344-4.06a.547.547,0,0,0-.474-.274h-8.762a9.719,9.719,0,0,1,0-19.438Z" transform="translate(-210.719 -293.151)" fill="#feaee1"/>
        </g>
      </g>
      <g id="Grupo_1099782" data-name="Grupo 1099782" transform="translate(56.307 38.52)">
        <g id="Grupo_1099781" data-name="Grupo 1099781">
          <path id="Trazado_874136" data-name="Trazado 874136" d="M409.406,101.86h-4.168a8.234,8.234,0,0,1,.443,16.457v.012h3.725a8.234,8.234,0,0,0,0-16.469Z" transform="translate(-405.238 -101.86)" fill="#cb97e7"/>
        </g>
      </g>
      <g id="Grupo_1099784" data-name="Grupo 1099784" transform="translate(37.028 37.387)">
        <g id="Grupo_1099783" data-name="Grupo 1099783" transform="translate(0 0)">
          <path id="Trazado_874137" data-name="Trazado 874137" d="M268.57,93.7a10.078,10.078,0,0,0-2.084.218,10.045,10.045,0,0,1,0,19.651A10.044,10.044,0,1,0,268.57,93.7Z" transform="translate(-266.486 -93.703)" fill="#ffd15b"/>
        </g>
      </g>
      <g id="Grupo_1099786" data-name="Grupo 1099786" transform="translate(52.015 65.1)">
        <g id="Grupo_1099785" data-name="Grupo 1099785">
          <path id="Trazado_874138" data-name="Trazado 874138" d="M378.512,293.151h-4.168a9.719,9.719,0,0,1,2.334,19.154v.284h1.834a9.719,9.719,0,0,0,0-19.438Z" transform="translate(-374.344 -293.151)" fill="#fe93d3"/>
        </g>
      </g>
      <g id="Grupo_1099788" data-name="Grupo 1099788" transform="translate(40.238 69.498)">
        <g id="Grupo_1099787" data-name="Grupo 1099787">
          <path id="Trazado_874139" data-name="Trazado 874139" d="M299.179,324.806a3.9,3.9,0,0,0-2.836,1.218,3.914,3.914,0,1,0-5.618,5.45c.709.717,5.618,4.5,5.618,4.5s4.885-3.768,5.592-4.469a3.914,3.914,0,0,0-2.756-6.694Z" transform="translate(-289.592 -324.806)" fill="#fe646f"/>
        </g>
      </g>
      <g id="Grupo_1099789" data-name="Grupo 1099789" transform="translate(0 28.299)">
        <path id="Trazado_874140" data-name="Trazado 874140" d="M300.8,144.723a1.029,1.029,0,1,0-1.029-1.029A1.029,1.029,0,0,0,300.8,144.723Z" transform="translate(-258.123 -126.774)"/>
        <path id="Trazado_874141" data-name="Trazado 874141" d="M249.672,144.723a1.029,1.029,0,1,0-1.029-1.029A1.029,1.029,0,0,0,249.672,144.723Z" transform="translate(-214.094 -126.774)"/>
        <path id="Trazado_874142" data-name="Trazado 874142" d="M56.457,235.668l-3.233-.349-1.331-2.967a1.466,1.466,0,0,0-1.335-.864h0a1.465,1.465,0,0,0-1.335.864l-1.331,2.967-3.233.349a1.464,1.464,0,0,0-.825,2.54l2.41,2.183-.667,3.183a1.464,1.464,0,0,0,2.161,1.57l2.821-1.618,2.821,1.618a1.464,1.464,0,0,0,2.161-1.57l-.667-3.183,2.41-2.183a1.464,1.464,0,0,0-.825-2.54ZM49.991,233.2h0Zm3.218,5.879a1.469,1.469,0,0,0-.45,1.385l.456,2.177-1.93-1.107a1.469,1.469,0,0,0-1.456,0l-1.93,1.107.456-2.177a1.468,1.468,0,0,0-.45-1.385l-1.649-1.493,2.212-.239a1.468,1.468,0,0,0,1.178-.856l.911-2.03.911,2.03a1.469,1.469,0,0,0,1.178.856l2.212.239Z" transform="translate(-37.328 -203.254)"/>
        <path id="Trazado_874143" data-name="Trazado 874143" d="M289.886,330.555a1.041,1.041,0,0,0,.637-.217c.505-.39,4.957-3.828,5.69-4.555a4.957,4.957,0,0,0-6.326-7.586,4.906,4.906,0,0,0-2.836-.89,4.957,4.957,0,0,0-3.523,8.443c.738.745,5.215,4.2,5.723,4.588A1.042,1.042,0,0,0,289.886,330.555Zm-5.708-8.291a2.871,2.871,0,0,1,4.953-1.978,1.042,1.042,0,0,0,1.51,0,2.846,2.846,0,0,1,2.081-.894,2.872,2.872,0,0,1,2.023,4.912c-.43.427-2.986,2.44-4.859,3.892-1.88-1.456-4.447-3.477-4.877-3.912A2.854,2.854,0,0,1,284.177,322.264Z" transform="translate(-242.897 -277.15)"/>
        <path id="Trazado_874144" data-name="Trazado 874144" d="M46.677,55.607a9.276,9.276,0,0,0,2.779.424H50.68l1.819,3.15a1.51,1.51,0,0,0,1.3.753h0a1.51,1.51,0,0,0,1.3-.753l1.819-3.15h3.549a9.276,9.276,0,1,0,0-18.553H49.456a9.193,9.193,0,0,0-3.969.891,11.06,11.06,0,0,0-10.218-1.336A9.287,9.287,0,0,0,26.009,28.3H20.074a1.042,1.042,0,0,0,0,2.084h5.935A7.2,7.2,0,0,1,33.2,37.575c0,.165-.007.331-.018.5a11.129,11.129,0,0,0-4.714,6.267l-.025.007a7.174,7.174,0,0,1-2.435.422H24.451a1.511,1.511,0,0,0-1.3.753l-1.485,2.572-1.485-2.572a1.51,1.51,0,0,0-1.3-.753H13.6a7.192,7.192,0,1,1,0-14.385h2.306a1.042,1.042,0,0,0,0-2.084H13.6a9.276,9.276,0,1,0,0,18.553h4.939L20.357,50a1.51,1.51,0,0,0,1.3.753h0a1.51,1.51,0,0,0,1.3-.753l1.819-3.15h1.224a9.3,9.3,0,0,0,2.05-.229c-.019.267-.033.536-.033.807a11.015,11.015,0,0,0,1.3,5.2H11.493a11.493,11.493,0,0,0,0,22.986h1.716l2.39,4.139a1.63,1.63,0,0,0,2.824,0l2.39-4.139H28.27A10.773,10.773,0,0,0,39,85.58h.042a1.042,1.042,0,0,0,0-2.084H39a8.677,8.677,0,1,1,0-17.354H56.183a8.677,8.677,0,0,1,0,17.354H54.344a1.594,1.594,0,0,0-1.376.795l-1.915,3.317L49.137,84.29A1.594,1.594,0,0,0,47.76,83.5H43.209a1.042,1.042,0,1,0,0,2.084h4.266l2.2,3.812a1.589,1.589,0,0,0,2.753,0l2.2-3.812h1.554a10.761,10.761,0,0,0,0-21.522H47.441a11.379,11.379,0,0,0-2.558-7.165,11.154,11.154,0,0,0,1.731-1.308c.021.008.042.017.063.024Zm13.8-16.045a7.192,7.192,0,1,1,0,14.385H56.592a1.51,1.51,0,0,0-1.3.753L53.8,57.272,52.318,54.7a1.51,1.51,0,0,0-1.3-.753H49.456a7.249,7.249,0,0,1-1.3-.118,11.054,11.054,0,0,0-.91-13.919,7.153,7.153,0,0,1,2.209-.347h11.02Zm-15.119,24.5H39a10.775,10.775,0,0,0-10.681,9.473H20.551a1.634,1.634,0,0,0-1.412.815l-2.128,3.685-2.128-3.685a1.635,1.635,0,0,0-1.412-.815H11.493a9.409,9.409,0,0,1,0-18.818H30.764a11.069,11.069,0,0,0,12.181,3.12,9.317,9.317,0,0,1,2.412,6.225Zm-6.244-7.625a9,9,0,1,1,9-9A9.012,9.012,0,0,1,39.112,56.432Z" transform="translate(0 -28.299)"/>
        <path id="Trazado_874145" data-name="Trazado 874145" d="M256.474,167.668a1.042,1.042,0,0,0-1.042,1.042,2.528,2.528,0,0,1-5.056,0,1.042,1.042,0,0,0-2.084,0,4.612,4.612,0,0,0,9.225,0A1.042,1.042,0,0,0,256.474,167.668Z" transform="translate(-213.792 -148.303)"/>
        <path id="Trazado_874146" data-name="Trazado 874146" d="M108.389,72.841H97.162a1.042,1.042,0,1,0,0,2.084h11.227a1.042,1.042,0,1,0,0-2.084Z" transform="translate(-82.764 -66.652)"/>
        <path id="Trazado_874147" data-name="Trazado 874147" d="M108.389,104.36H97.162a1.042,1.042,0,0,0,0,2.084h11.227a1.042,1.042,0,0,0,0-2.084Z" transform="translate(-82.764 -93.791)"/>
        <path id="Trazado_874148" data-name="Trazado 874148" d="M378.5,141h7.8a1.042,1.042,0,0,0,0-2.084h-7.8a1.042,1.042,0,1,0,0,2.084Z" transform="translate(-325.014 -123.545)"/>
        <path id="Trazado_874149" data-name="Trazado 874149" d="M378.5,172.518h7.8a1.042,1.042,0,0,0,0-2.084h-7.8a1.042,1.042,0,1,0,0,2.084Z" transform="translate(-325.014 -150.685)"/>
        <path id="Trazado_874150" data-name="Trazado 874150" d="M165.955,241.46h3.807a1.042,1.042,0,0,0,0-2.084h-3.807a1.042,1.042,0,0,0,0,2.084Z" transform="translate(-141.999 -210.047)"/>
        <path id="Trazado_874151" data-name="Trazado 874151" d="M168.745,299.438h-2.79a1.042,1.042,0,0,0,0,2.084h2.79a1.042,1.042,0,0,0,0-2.084Z" transform="translate(-141.999 -261.764)"/>
        <path id="Trazado_874152" data-name="Trazado 874152" d="M174.574,270.669h-8.619a1.042,1.042,0,0,0,0,2.084h8.619a1.042,1.042,0,1,0,0-2.084Z" transform="translate(-141.999 -236.992)"/>
      </g>
    </g>
  </g>
</svg>
