<svg xmlns="http://www.w3.org/2000/svg" xmlns:xlink="http://www.w3.org/1999/xlink" width="224" height="351.17" viewBox="0 0 224 351.17">
  <defs>
    <clipPath id="clip-path">
      <rect id="Rectángulo_401592" data-name="Rectángulo 401592" width="90.269" height="79.26" fill="none"/>
    </clipPath>
    <clipPath id="clip-path-3">
      <rect id="Rectángulo_403109" data-name="Rectángulo 403109" width="148.418" height="320.17" fill="none"/>
    </clipPath>
  </defs>
  <g id="Grupo_1106444" data-name="Grupo 1106444" transform="translate(-328.32 -548)">
    <rect id="Rectángulo_403034" data-name="Rectángulo 403034" width="224" height="351" transform="translate(328.32 548)" fill="#f5eec2"/>
    <g id="Grupo_1106442" data-name="Grupo 1106442" transform="translate(350.051 776.708)">
      <g id="Grupo_1099721" data-name="Grupo 1099721" transform="translate(0 0)" clip-path="url(#clip-path)">
        <path id="Trazado_873643" data-name="Trazado 873643" d="M9.883,58.5,20.285,14A12.576,12.576,0,0,1,41.132,7.693L74.467,38.951A12.575,12.575,0,0,1,69.508,60.16L25.773,73.4A12.576,12.576,0,0,1,9.883,58.5" transform="translate(11.821 5.306)" fill="#7bb5f2"/>
        <path id="Trazado_873644" data-name="Trazado 873644" d="M1.342,55.218l10.4-44.5A12.577,12.577,0,0,1,32.591,4.41L65.924,35.668a12.575,12.575,0,0,1-4.959,21.209L17.229,70.118A12.575,12.575,0,0,1,1.342,55.218Z" transform="translate(1.24 1.238)" fill="none" stroke="#000" stroke-miterlimit="10" stroke-width="2"/>
      </g>
    </g>
    <g id="Grupo_1106443" data-name="Grupo 1106443" transform="translate(434.051 598.708)">
      <g id="Grupo_1099721-2" data-name="Grupo 1099721" transform="translate(0 0)" clip-path="url(#clip-path)">
        <path id="Trazado_873643-2" data-name="Trazado 873643" d="M78.105,58.5,67.7,14A12.576,12.576,0,0,0,46.857,7.693L13.521,38.951A12.575,12.575,0,0,0,18.481,60.16L62.216,73.4a12.576,12.576,0,0,0,15.89-14.9" transform="translate(-9.541 5.306)" fill="#7bb5f2"/>
        <path id="Trazado_873644-2" data-name="Trazado 873644" d="M69.562,55.218l-10.4-44.5A12.577,12.577,0,0,0,38.314,4.41L4.98,35.668A12.575,12.575,0,0,0,9.94,56.877L53.675,70.118A12.575,12.575,0,0,0,69.562,55.218Z" transform="translate(18.125 1.238)" fill="none" stroke="#000" stroke-miterlimit="10" stroke-width="2"/>
      </g>
    </g>
    <g id="Grupo_1106440" data-name="Grupo 1106440" transform="translate(366.32 579)">
      <g id="Grupo_1106439" data-name="Grupo 1106439" clip-path="url(#clip-path-3)">
        <path id="Trazado_875577" data-name="Trazado 875577" d="M91.238,8.134a3.045,3.045,0,0,1-1.047-4.593C91.6,1.763,94.111-.07,98.425,0c5.506.091,10.365,3.771,10.279,8.947-.06,3.6-2.777,5.755-6.326,7.2-1.258.53-1.312,1.557-1.332,2.769a2.055,2.055,0,0,1-2.09,2.021l-1.945-.032a2.056,2.056,0,0,1-2.021-2.091l.032-1.945c.027-1.615.123-2.936,1.792-3.973,2.263-1.394,4.357-1.469,4.4-4.075a2.924,2.924,0,0,0-2.923-3.06,4.041,4.041,0,0,0-3.3,1.552,3.069,3.069,0,0,1-3.756.818m10.844,19.138a4.2,4.2,0,1,1-4.151-4.292,4.193,4.193,0,0,1,4.151,4.292" transform="translate(-13.871 0)" fill="#ff9400"/>
        <path id="Trazado_875578" data-name="Trazado 875578" d="M130.494,27.075a3.044,3.044,0,0,1,.975-4.608c2.026-1.023,5.073-1.635,8.959.238,4.961,2.392,7.83,7.769,5.581,12.433-1.563,3.24-4.934,4.061-8.762,3.886-1.364-.046-1.843.864-2.37,1.956a2.057,2.057,0,0,1-2.745.959l-1.753-.846a2.055,2.055,0,0,1-.959-2.745l.845-1.753c.7-1.455,1.342-2.614,3.293-2.856,2.639-.317,4.572.494,5.7-1.855a2.925,2.925,0,0,0-1.372-4,4.04,4.04,0,0,0-3.645.026,3.068,3.068,0,0,1-3.752-.832M132.316,49a4.2,4.2,0,1,1-1.969-5.638A4.191,4.191,0,0,1,132.316,49" transform="translate(-19.258 -3.33)" fill="#ff9400"/>
        <path id="Trazado_875579" data-name="Trazado 875579" d="M49.042,26.426a3.044,3.044,0,0,1-3.628-3c.035-2.269.908-5.252,4.373-7.823,4.423-3.282,10.518-3.324,13.6.834,2.144,2.889,1.3,6.255-.63,9.564-.674,1.187-.091,2.034.631,3.007a2.057,2.057,0,0,1-.426,2.877L61.4,33.04a2.055,2.055,0,0,1-2.876-.426l-1.159-1.563c-.963-1.3-1.691-2.4-1-4.242.946-2.485,2.561-3.82,1.007-5.913a2.925,2.925,0,0,0-4.182-.646,4.038,4.038,0,0,0-1.67,3.239,3.069,3.069,0,0,1-2.48,2.937M69.3,35a4.2,4.2,0,1,1-5.907-.875A4.191,4.191,0,0,1,69.3,35" transform="translate(-7.034 -2.047)" fill="#ff9400"/>
        <path id="Trazado_875580" data-name="Trazado 875580" d="M52.911,343.327l-.849,12.489L40.009,365.8l2.313,3.408,22.645-4.018,1.825-21.035Z" transform="translate(-6.197 -53.181)" fill="#ffa78c"/>
        <path id="Trazado_875581" data-name="Trazado 875581" d="M46.284,362.139a15.244,15.244,0,0,0,9.966,4.121c1.967.052,8.083-1.838,8.083-1.838a22.634,22.634,0,0,1-.578,7.4c-.483,1.464-22.036,4.565-25.323,4.444s-4.139-.487-4.869-1.522-1.339-2.8,1.7-4.748,11.018-7.853,11.018-7.853" transform="translate(-5.107 -56.095)" fill="#00557f"/>
        <path id="Trazado_875582" data-name="Trazado 875582" d="M120.507,342.353l.849,12.489,12.053,9.983-2.313,3.409-22.645-4.018-1.826-21.036Z" transform="translate(-16.516 -53.03)" fill="#ffa78c"/>
        <path id="Trazado_875583" data-name="Trazado 875583" d="M126.28,361.165a15.244,15.244,0,0,1-9.966,4.121c-1.967.052-8.083-1.838-8.083-1.838a22.633,22.633,0,0,0,.578,7.4c.483,1.464,22.036,4.565,25.323,4.444s4.139-.487,4.87-1.522,1.339-2.8-1.7-4.748-11.018-7.853-11.018-7.853" transform="translate(-16.753 -55.944)" fill="#00557f"/>
        <path id="Trazado_875584" data-name="Trazado 875584" d="M58.384,183.327,50.957,319.371H70.8L82.807,205.147l2.665.517L95.882,319.371l18.956-.84-6.48-135.2Z" transform="translate(-7.893 -28.397)" fill="#00557f"/>
        <path id="Trazado_875585" data-name="Trazado 875585" d="M108.954,152.251V100.209a117.727,117.727,0,0,0-28.117-3.722s-15.221-.8-19.056,0L58.6,152.251l-3.8,22.7s21.766,3.785,26.879,3.42l3.653-5.3,3.1,5.321S102.5,178.1,112,174.949Z" transform="translate(-8.49 -14.891)" fill="#ffd07f"/>
        <path id="Trazado_875586" data-name="Trazado 875586" d="M97.827,98.7a22.812,22.812,0,0,0,.094,2.829L91.9,104.966l-7.593-5.3a21.878,21.878,0,0,0,1.1-3.971c.051-.281.1-.554.145-.818.085-.494.145-.963.188-1.389.128-1.15.171-2.01.179-2.343.008-.1.008-.153.008-.153l.887.188,11.871,2.488a8.625,8.625,0,0,0-.5,1.619,12.561,12.561,0,0,0-.281,1.943c-.043.512-.068,1.006-.068,1.475" transform="translate(-13.058 -14.094)" fill="#ffa78c"/>
        <path id="Trazado_875587" data-name="Trazado 875587" d="M41.017,122.463S52.684,97.405,59.644,96.545c8.947-1.1,2.314,21.5,2.314,21.5L50.878,137.679Z" transform="translate(-6.353 -14.949)" fill="#ffd07f"/>
        <path id="Trazado_875588" data-name="Trazado 875588" d="M135.64,125.678s-11.667-24.046-18.627-24.905c-8.947-1.105-2.314,21.5-2.314,21.5l11.079,18.018Z" transform="translate(-17.4 -15.603)" fill="#ffd07f"/>
        <path id="Trazado_875589" data-name="Trazado 875589" d="M44.89,133.154c-1.283-2.334-19.327-16.421-23.7-19.815l-1.2-1.652s-1.888-2.617-4.079-3.287a52.45,52.45,0,0,0-6.94-1.828c-1.339-.059,0,1.693,1.035,2.1s2.983,1.043,2.983,1.043l-7.975,3.56s-4.549,1.75-4.961,2.938,1.461.456,3.15-.229c1.253-.507,2.6-1.114,3.219-1.394l.136.128c-.553.218-4.509,1.806-4.891,2.91-.411,1.187,1.461.457,3.15-.228,1.214-.492,2.512-1.074,3.153-1.365l.255.24c-.873.349-4.406,1.82-4.766,2.86-.411,1.187,1.461.456,3.151-.228,1.144-.464,2.359-1.006,3.031-1.311l.21.2c-1.279.537-3.98,1.763-4.291,2.665-.411,1.187,1.461.456,3.151-.228.915-.372,1.874-.792,2.571-1.1,0,0,1.527-.478,3.327-1.225.741,1.134,16.581,25.2,24.069,25.2,7.67,0,7.67-7.286,6.209-9.943" transform="translate(0 -16.508)" fill="#ffa78c"/>
        <path id="Trazado_875590" data-name="Trazado 875590" d="M168.2,116.816c-.411-1.187-4.961-2.937-4.961-2.937l-7.975-3.56s1.948-.641,2.983-1.042,2.374-2.155,1.034-2.1a52.676,52.676,0,0,0-6.939,1.827c-2.191.669-4.078,3.287-4.078,3.287l-.837,1.154c-3.281,3.9-18.362,21.94-19.136,24.529-.869,2.9.666,10.028,8.164,8.413,6.284-1.354,14.848-21.338,17.457-27.777,1.683.684,3.061,1.115,3.061,1.115.7.311,1.655.732,2.571,1.1,1.689.685,3.561,1.416,3.151.228-.313-.9-3.014-2.129-4.293-2.665l.211-.2c.674.305,1.887.846,3.031,1.31,1.689.685,3.561,1.416,3.151.228-.36-1.039-3.894-2.51-4.767-2.86l.257-.24c.64.292,1.938.873,3.151,1.366,1.689.685,3.561,1.415,3.151.228-.382-1.1-4.338-2.692-4.892-2.911l.138-.128c.615.281,1.965.887,3.217,1.4,1.689.685,3.561,1.416,3.151.228" transform="translate(-19.838 -16.602)" fill="#ffa78c"/>
        <path id="Trazado_875591" data-name="Trazado 875591" d="M63.44,101.6a41.329,41.329,0,0,1-.28,21.176" transform="translate(-9.783 -15.738)" fill="none" stroke="#bf6d60" stroke-linecap="round" stroke-linejoin="round" stroke-width="1"/>
        <path id="Trazado_875592" data-name="Trazado 875592" d="M118.492,105.924s-3.292,11.844-1.646,19.619" transform="translate(-18.028 -16.407)" fill="none" stroke="#bf6d60" stroke-linecap="round" stroke-linejoin="round" stroke-width="1"/>
        <path id="Trazado_875593" data-name="Trazado 875593" d="M62.194,162.325,64.5,163.6l-1.494,2.374" transform="translate(-9.634 -25.144)" fill="none" stroke="#bf6d60" stroke-linecap="round" stroke-linejoin="round" stroke-width="1"/>
        <line id="Línea_619" data-name="Línea 619" x1="2.407" y2="1.826" transform="translate(97.004 139.008)" fill="none" stroke="#bf6d60" stroke-linecap="round" stroke-linejoin="round" stroke-width="1"/>
        <line id="Línea_620" data-name="Línea 620" x1="1.985" y2="67.312" transform="translate(76.849 90.872)" fill="none" stroke="#bf6d60" stroke-linecap="round" stroke-linejoin="round" stroke-width="1"/>
        <path id="Trazado_875594" data-name="Trazado 875594" d="M98.907,93.694a8.543,8.543,0,0,0-.5,1.619,12.666,12.666,0,0,0-.281,1.943c-.042.511-.068,1.006-.068,1.475a10.782,10.782,0,0,1-6.332-.724,24.7,24.7,0,0,1-5.949-3.1c.085-.494.145-.963.188-1.389.128-1.15.171-2.011.179-2.343l.894.034Z" transform="translate(-13.286 -14.122)" fill="#d88471"/>
        <path id="Trazado_875595" data-name="Trazado 875595" d="M79.628,61.568S78.254,74.45,78.505,79.029s6.837,10.11,12.048,11.541c4.43,1.217,12.422-3.6,14.381-6.989s4.8-20.067,4.8-20.067S94.419,42.622,79.628,61.568" transform="translate(-12.156 -8.306)" fill="#ffa78c"/>
        <path id="Trazado_875596" data-name="Trazado 875596" d="M79.258,72.048s-2.275-3.674-4.28-3.02-2.218,5.148-.453,7.957,3.84,2.172,3.84,2.172Z" transform="translate(-11.358 -10.68)" fill="#ffa78c"/>
        <path id="Trazado_875597" data-name="Trazado 875597" d="M111.793,76.129s3.2-2.9,4.947-1.722.712,5.561-1.761,7.772-4.29,1.028-4.29,1.028Z" transform="translate(-17.146 -11.482)" fill="#ffa78c"/>
        <path id="Trazado_875598" data-name="Trazado 875598" d="M88.09,44.775c-6.209,1.279-6.118,4.93-9.5,5.753A6.488,6.488,0,0,0,73.3,55.641c-.461,2.192.27,2.192.909,2.192h1s.079,2.134-.092,4.748,1.143,3.013,1.143,3.013,2.873,1.918,2.965,4.657a2.394,2.394,0,0,0,1.735-1.826,74.309,74.309,0,0,0,.548-7.579,15.526,15.526,0,0,0,6.665-1.918,5.186,5.186,0,0,0,3.379.914c2.374,0,9.313-2.283,11.231-1.1a8.055,8.055,0,0,0,2.831,3.744s-.852,6.209-.745,7.761a4.39,4.39,0,0,0,.913,2.463s1.476-2.98,3.942-3.223a19.015,19.015,0,0,0,2.556-6.362,1.73,1.73,0,0,0,1.644-2.009c-.183-1.918-.913-2.556-1.37-4.474s-2.009-3.926-3.1-4.018c0,0,1-1.552-3.926-4.931S94.3,43.5,88.09,44.775" transform="translate(-11.332 -6.847)" fill="#00557f"/>
        <path id="Trazado_875599" data-name="Trazado 875599" d="M85.258,93.94a13.5,13.5,0,0,0,1.371,5.742c1.278,2.44,4.785,5.742,4.785,5.742a13.051,13.051,0,0,0-4.663-1.05,10.924,10.924,0,0,0-4.078,1.05L81.211,96.1Z" transform="translate(-12.579 -14.551)" fill="#fffbdc"/>
        <path id="Trazado_875600" data-name="Trazado 875600" d="M99.563,96.074s-1.434,7.077-6.28,9.68a15.68,15.68,0,0,1,4.894,0,6.636,6.636,0,0,1,2.922,1.629s2.4-7.322,2.446-9.5Z" transform="translate(-14.449 -14.882)" fill="#fffbdc"/>
        <path id="Trazado_875601" data-name="Trazado 875601" d="M75.448,71.639a8.93,8.93,0,0,1,2.557,4.748" transform="translate(-11.687 -11.097)" fill="none" stroke="#bf6d60" stroke-linecap="round" stroke-linejoin="round" stroke-width="1"/>
        <path id="Trazado_875602" data-name="Trazado 875602" d="M76.312,76.457s.106-1.7,1-2.009" transform="translate(-11.821 -11.532)" fill="none" stroke="#bf6d60" stroke-linecap="round" stroke-linejoin="round" stroke-width="1"/>
        <path id="Trazado_875603" data-name="Trazado 875603" d="M116.042,76.825a8.659,8.659,0,0,0-3.708,4.261" transform="translate(-17.4 -11.9)" fill="none" stroke="#bf6d60" stroke-linecap="round" stroke-linejoin="round" stroke-width="1"/>
        <path id="Trazado_875604" data-name="Trazado 875604" d="M114.528,81.111a1.791,1.791,0,0,0,0-1.765" transform="translate(-17.74 -12.291)" fill="none" stroke="#bf6d60" stroke-linecap="round" stroke-linejoin="round" stroke-width="1"/>
        <path id="Trazado_875605" data-name="Trazado 875605" d="M90.009,73.661c-.11.863-.6,1.511-1.085,1.449s-.8-.812-.686-1.675.6-1.511,1.085-1.449.8.812.686,1.675" transform="translate(-13.664 -11.15)" fill="#00557f"/>
        <path id="Trazado_875606" data-name="Trazado 875606" d="M86.131,67.755s3.244.85,4.987-.206" transform="translate(-13.342 -10.463)" fill="none" stroke="#00557f" stroke-linecap="round" stroke-linejoin="round" stroke-width="1"/>
        <path id="Trazado_875607" data-name="Trazado 875607" d="M101.631,74.487c-.015.87.372,1.581.865,1.59s.905-.689.921-1.558-.372-1.581-.865-1.59-.905.689-.92,1.558" transform="translate(-15.742 -11.297)" fill="#00557f"/>
        <path id="Trazado_875608" data-name="Trazado 875608" d="M105.787,69.1s-3.333.374-4.9-.925" transform="translate(-15.626 -10.56)" fill="none" stroke="#00557f" stroke-linecap="round" stroke-linejoin="round" stroke-width="1"/>
        <path id="Trazado_875609" data-name="Trazado 875609" d="M95.395,73.3s-.248,3.456-.685,3.868a1.2,1.2,0,0,0-1.19,1.267A1.634,1.634,0,0,0,94.6,80.1" transform="translate(-14.485 -11.354)" fill="none" stroke="#bf6d60" stroke-linecap="round" stroke-linejoin="round" stroke-width="1"/>
        <path id="Trazado_875610" data-name="Trazado 875610" d="M92.808,86.127s2.044-1.339,3.517-1.1a2.957,2.957,0,0,1,2.015,1.1" transform="translate(-14.376 -13.167)" fill="none" stroke="#bf6d60" stroke-linecap="round" stroke-linejoin="round" stroke-width="1"/>
        <line id="Línea_621" data-name="Línea 621" x2="2.769" y2="1.429" transform="translate(12.993 93.202)" fill="none" stroke="#bf6d60" stroke-linecap="round" stroke-linejoin="round" stroke-width="1"/>
        <line id="Línea_622" data-name="Línea 622" x2="4.078" y2="3.653" transform="translate(6.053 97.675)" fill="none" stroke="#bf6d60" stroke-linecap="round" stroke-linejoin="round" stroke-width="1"/>
        <path id="Trazado_875611" data-name="Trazado 875611" d="M17.289,119.738s3.312-1.218,3.617-1.279" transform="translate(-2.678 -18.349)" fill="none" stroke="#bf6d60" stroke-linecap="round" stroke-linejoin="round" stroke-width="1"/>
        <line id="Línea_623" data-name="Línea 623" x1="2.438" y1="0.809" transform="translate(131.635 101.205)" fill="none" stroke="#bf6d60" stroke-linecap="round" stroke-linejoin="round" stroke-width="1"/>
        <line id="Línea_624" data-name="Línea 624" x1="4.2" y2="3.958" transform="translate(138.209 98.055)" fill="none" stroke="#bf6d60" stroke-linecap="round" stroke-linejoin="round" stroke-width="1"/>
        <path id="Trazado_875612" data-name="Trazado 875612" d="M159.776,110.894a14.524,14.524,0,0,1-2.571,2.193" transform="translate(-24.351 -17.177)" fill="none" stroke="#bf6d60" stroke-linecap="round" stroke-linejoin="round" stroke-width="1"/>
        <line id="Línea_625" data-name="Línea 625" x2="19.885" transform="translate(43.583 285.652)" fill="none" stroke="#004560" stroke-linecap="round" stroke-linejoin="round" stroke-width="1"/>
        <line id="Línea_626" data-name="Línea 626" y1="0.932" x2="19.525" transform="translate(87.42 283.825)" fill="none" stroke="#004560" stroke-linecap="round" stroke-linejoin="round" stroke-width="1"/>
        <path id="Trazado_875613" data-name="Trazado 875613" d="M67.581,199.349s-3.67,49.307-4.757,54.481,0,7.123,0,7.123a54.906,54.906,0,0,0-.483,5.844c.127.974-2.308,43.585-2.308,43.585" transform="translate(-9.299 -30.879)" fill="none" stroke="#004560" stroke-linecap="round" stroke-linejoin="round" stroke-width="1"/>
        <path id="Trazado_875614" data-name="Trazado 875614" d="M107.862,199.349s4.139,58.438,4.626,61.36a14.108,14.108,0,0,1,0,5.021,26.861,26.861,0,0,0,.216,3.989c.27,1.7,2.949,40.663,2.949,40.663" transform="translate(-16.708 -30.879)" fill="none" stroke="#004560" stroke-linecap="round" stroke-linejoin="round" stroke-width="1"/>
        <line id="Línea_627" data-name="Línea 627" x1="5.552" y1="5.235" transform="translate(69.362 171.514)" fill="none" stroke="#004560" stroke-linecap="round" stroke-linejoin="round" stroke-width="1"/>
        <line id="Línea_628" data-name="Línea 628" y1="2.587" x2="4.444" transform="translate(77.579 174.68)" fill="none" stroke="#004560" stroke-linecap="round" stroke-linejoin="round" stroke-width="1"/>
        <path id="Trazado_875615" data-name="Trazado 875615" d="M69.2,122.853l11.444,1.084s-.122,12.795-6.818,12.795S69.2,122.853,69.2,122.853" transform="translate(-10.672 -19.03)" fill="#f2bd70"/>
        <line id="Línea_629" data-name="Línea 629" x1="2.648" y2="1.52" transform="translate(94.934 46.511)" fill="none" stroke="#004560" stroke-linecap="round" stroke-linejoin="round" stroke-width="1"/>
        <path id="Trazado_875616" data-name="Trazado 875616" d="M80.345,63.24s6.21.853,8.949-1.7c0,0,2.246,1.8,6.389.472s7.613-1.019,8.221-.654c0,0,1.4,3.713,4.078,4.078s3.1-.548,3.1-.548" transform="translate(-12.445 -9.455)" fill="none" stroke="#004560" stroke-linecap="round" stroke-linejoin="round" stroke-width="1"/>
        <line id="Línea_630" data-name="Línea 630" x1="0.73" y2="0.852" transform="translate(100.164 54.82)" fill="none" stroke="#004560" stroke-linecap="round" stroke-linejoin="round" stroke-width="1"/>
        <path id="Trazado_875617" data-name="Trazado 875617" d="M77.492,61.059a5.037,5.037,0,0,1,1.255-2.313" transform="translate(-12.003 -9.1)" fill="none" stroke="#004560" stroke-linecap="round" stroke-linejoin="round" stroke-width="1"/>
        <path id="Trazado_875618" data-name="Trazado 875618" d="M113.556,52.527a3.806,3.806,0,0,0-1.877-1.7" transform="translate(-17.299 -7.872)" fill="none" stroke="#004560" stroke-linecap="round" stroke-linejoin="round" stroke-width="1"/>
        <path id="Trazado_875619" data-name="Trazado 875619" d="M83.227,51.295a32.683,32.683,0,0,0,3.1-2.922" transform="translate(-12.892 -7.493)" fill="none" stroke="#004560" stroke-linecap="round" stroke-linejoin="round" stroke-width="1"/>
        <path id="Trazado_875620" data-name="Trazado 875620" d="M91.367,59.142a5.565,5.565,0,0,1,2.191-1.765" transform="translate(-14.153 -8.888)" fill="none" stroke="#004560" stroke-linecap="round" stroke-linejoin="round" stroke-width="1"/>
      </g>
    </g>
  </g>
</svg>
