<svg xmlns="http://www.w3.org/2000/svg" xmlns:xlink="http://www.w3.org/1999/xlink" width="262.001" height="492.402" viewBox="0 0 262.001 492.402">
  <defs>
    <clipPath id="clip-path">
      <path id="path1509" d="M0-682.665H55.049v55.049H0Z" transform="translate(0 682.665)"/>
    </clipPath>
  </defs>
  <g id="Grupo_1106815" data-name="Grupo 1106815" transform="translate(2701.5 11151)">
    <path id="Trazado_876386" data-name="Trazado 876386" d="M-2656.156-10691.6h-75.085v-363.9h75.085" transform="translate(30.24 -33)" fill="none" stroke="#12263f" stroke-width="1"/>
    <path id="Trazado_876389" data-name="Trazado 876389" d="M10,0H213a10,10,0,0,1,10,10V63a10,10,0,0,1-10,10H10A10,10,0,0,1,0,63V10A10,10,0,0,1,10,0Z" transform="translate(-2675.76 -11124.663)" fill="#e5f0fc"/>
    <path id="Trazado_876390" data-name="Trazado 876390" d="M22.246,11.68a7.037,7.037,0,0,1-.562,2.918,4.261,4.261,0,0,1-1.594,1.9,4.4,4.4,0,0,1-6.4-1.887,6.752,6.752,0,0,1-.59-2.832v-.82a6.953,6.953,0,0,1,.57-2.9,4.218,4.218,0,0,1,4-2.594,4.41,4.41,0,0,1,2.41.66,4.253,4.253,0,0,1,1.605,1.914,7.071,7.071,0,0,1,.563,2.918Zm-1.492-.734a5.1,5.1,0,0,0-.812-3.105,2.68,2.68,0,0,0-2.273-1.082A2.651,2.651,0,0,0,15.43,7.84a5,5,0,0,0-.84,3v.836a5.107,5.107,0,0,0,.824,3.082,2.662,2.662,0,0,0,2.27,1.121,2.652,2.652,0,0,0,2.25-1.059,5.079,5.079,0,0,0,.82-3.035Zm7.6-1.1a4.331,4.331,0,0,0-.711-.055A1.9,1.9,0,0,0,25.715,11v6H24.27V8.547h1.406l.023.977a2.251,2.251,0,0,1,2.016-1.133,1.477,1.477,0,0,1,.641.109ZM29.34,12.7a4.968,4.968,0,0,1,.914-3.145,3.151,3.151,0,0,1,4.836-.074l.07-.937h1.32V16.8a3.439,3.439,0,0,1-.973,2.586,3.589,3.589,0,0,1-2.613.945,4.348,4.348,0,0,1-1.789-.391,3.08,3.08,0,0,1-1.336-1.07L30.52,18a2.826,2.826,0,0,0,2.273,1.148,2.214,2.214,0,0,0,1.645-.594,2.269,2.269,0,0,0,.59-1.672v-.727a2.971,2.971,0,0,1-2.367,1,2.887,2.887,0,0,1-2.4-1.2A5.224,5.224,0,0,1,29.34,12.7Zm1.453.164a3.79,3.79,0,0,0,.586,2.246,1.9,1.9,0,0,0,1.641.816,2.117,2.117,0,0,0,2.008-1.242V10.828a2.142,2.142,0,0,0-1.992-1.211,1.921,1.921,0,0,0-1.648.82A4.128,4.128,0,0,0,30.793,12.867ZM43.879,17a3.036,3.036,0,0,1-.2-.891,3.225,3.225,0,0,1-2.406,1.047,2.984,2.984,0,0,1-2.051-.707,2.287,2.287,0,0,1-.8-1.793,2.39,2.39,0,0,1,1-2.051,4.733,4.733,0,0,1,2.824-.73h1.406v-.664A1.623,1.623,0,0,0,43.2,10a1.821,1.821,0,0,0-1.336-.449,2.107,2.107,0,0,0-1.3.391,1.151,1.151,0,0,0-.523.945H38.59a2,2,0,0,1,.449-1.223,3.066,3.066,0,0,1,1.219-.934,4.1,4.1,0,0,1,1.691-.344,3.342,3.342,0,0,1,2.289.73,2.635,2.635,0,0,1,.859,2.012v3.891a4.757,4.757,0,0,0,.3,1.852V17Zm-2.4-1.1a2.54,2.54,0,0,0,1.289-.352,2.127,2.127,0,0,0,.883-.914V12.9H42.52q-2.656,0-2.656,1.555a1.316,1.316,0,0,0,.453,1.063A1.742,1.742,0,0,0,41.48,15.9Zm7.25-7.352.047,1.063a3.08,3.08,0,0,1,2.531-1.219q2.68,0,2.7,3.023V17H52.566V11.406a1.946,1.946,0,0,0-.418-1.352,1.675,1.675,0,0,0-1.277-.437,2.086,2.086,0,0,0-1.234.375,2.546,2.546,0,0,0-.828.984V17H47.363V8.547ZM57.762,17H56.316V8.547h1.445ZM56.2,6.3a.863.863,0,0,1,.215-.594.807.807,0,0,1,.637-.242.819.819,0,0,1,.641.242.854.854,0,0,1,.219.594.826.826,0,0,1-.219.586.834.834,0,0,1-.641.234.821.821,0,0,1-.637-.234A.834.834,0,0,1,56.2,6.3Zm5.234,9.516h4.945V17H59.668V15.938l4.664-6.2H59.738v-1.2h6.406V9.57ZM73.223,17a3.036,3.036,0,0,1-.2-.891,3.225,3.225,0,0,1-2.406,1.047,2.984,2.984,0,0,1-2.051-.707,2.288,2.288,0,0,1-.8-1.793,2.39,2.39,0,0,1,1-2.051,4.733,4.733,0,0,1,2.824-.73H73v-.664A1.623,1.623,0,0,0,72.543,10a1.821,1.821,0,0,0-1.336-.449,2.108,2.108,0,0,0-1.3.391,1.151,1.151,0,0,0-.523.945H67.934a2,2,0,0,1,.449-1.223A3.066,3.066,0,0,1,69.6,8.734a4.1,4.1,0,0,1,1.691-.344,3.342,3.342,0,0,1,2.289.73,2.635,2.635,0,0,1,.859,2.012v3.891a4.757,4.757,0,0,0,.3,1.852V17Zm-2.4-1.1a2.54,2.54,0,0,0,1.289-.352A2.127,2.127,0,0,0,73,14.633V12.9H71.863q-2.656,0-2.656,1.555a1.316,1.316,0,0,0,.453,1.063A1.742,1.742,0,0,0,70.824,15.9Zm9.273.078a2.082,2.082,0,0,0,1.352-.469,1.649,1.649,0,0,0,.641-1.172h1.367a2.621,2.621,0,0,1-.5,1.383,3.293,3.293,0,0,1-1.23,1.047,3.55,3.55,0,0,1-1.629.391A3.482,3.482,0,0,1,77.352,16a4.59,4.59,0,0,1-1.02-3.152v-.242a5.089,5.089,0,0,1,.453-2.2,3.451,3.451,0,0,1,1.3-1.492,3.7,3.7,0,0,1,2-.531,3.39,3.39,0,0,1,2.363.852,3.043,3.043,0,0,1,1,2.211H82.09a1.992,1.992,0,0,0-.621-1.348,1.932,1.932,0,0,0-1.379-.527,2.023,2.023,0,0,0-1.707.793,3.724,3.724,0,0,0-.605,2.293v.273a3.65,3.65,0,0,0,.6,2.25A2.033,2.033,0,0,0,80.1,15.977ZM86.652,17H85.207V8.547h1.445ZM85.09,6.3a.863.863,0,0,1,.215-.594.807.807,0,0,1,.637-.242.819.819,0,0,1,.641.242A.854.854,0,0,1,86.8,6.3a.826.826,0,0,1-.219.586.834.834,0,0,1-.641.234.821.821,0,0,1-.637-.234A.834.834,0,0,1,85.09,6.3ZM88.582,12.7a4.993,4.993,0,0,1,.488-2.234A3.643,3.643,0,0,1,90.43,8.93a3.7,3.7,0,0,1,1.988-.539,3.565,3.565,0,0,1,2.793,1.2,4.6,4.6,0,0,1,1.066,3.18v.1a5.036,5.036,0,0,1-.473,2.215,3.589,3.589,0,0,1-1.352,1.527,3.743,3.743,0,0,1-2.02.547,3.556,3.556,0,0,1-2.785-1.2A4.575,4.575,0,0,1,88.582,12.8Zm1.453.172a3.616,3.616,0,0,0,.652,2.258,2.211,2.211,0,0,0,3.5-.012,3.955,3.955,0,0,0,.648-2.418,3.61,3.61,0,0,0-.66-2.254,2.1,2.1,0,0,0-1.754-.863,2.075,2.075,0,0,0-1.727.852A3.925,3.925,0,0,0,90.035,12.867ZM93.074,5h1.75L92.73,7.3l-1.164,0Zm6.383,3.547L99.5,9.609a3.08,3.08,0,0,1,2.531-1.219q2.68,0,2.7,3.023V17h-1.445V11.406a1.946,1.946,0,0,0-.418-1.352,1.675,1.675,0,0,0-1.277-.437,2.086,2.086,0,0,0-1.234.375,2.546,2.546,0,0,0-.828.984V17H98.09V8.547ZM21.5,41.156a3.693,3.693,0,0,1-2.8-1.129,4.19,4.19,0,0,1-1.078-3.02v-.266a5.073,5.073,0,0,1,.48-2.246,3.748,3.748,0,0,1,1.344-1.547,3.378,3.378,0,0,1,1.871-.559,3.166,3.166,0,0,1,2.563,1.086,4.7,4.7,0,0,1,.914,3.109v.6H19.07a3,3,0,0,0,.73,2.02,2.3,2.3,0,0,0,1.777.77,2.517,2.517,0,0,0,1.3-.312,3.259,3.259,0,0,0,.93-.828l.883.688A3.55,3.55,0,0,1,21.5,41.156Zm-.18-7.578a1.928,1.928,0,0,0-1.469.637A3.1,3.1,0,0,0,19.117,36h4.234v-.109a2.753,2.753,0,0,0-.594-1.707A1.815,1.815,0,0,0,21.32,33.578Zm6.508-1.031.039.938a3.122,3.122,0,0,1,2.508-1.094,2.417,2.417,0,0,1,2.414,1.359,3.2,3.2,0,0,1,1.1-.984,3.242,3.242,0,0,1,1.6-.375q2.781,0,2.828,2.945V41H36.867V35.422a1.941,1.941,0,0,0-.414-1.355,1.823,1.823,0,0,0-1.391-.449,1.916,1.916,0,0,0-1.336.48,1.949,1.949,0,0,0-.617,1.293V41H31.656V35.461a1.613,1.613,0,0,0-1.8-1.844,1.934,1.934,0,0,0-1.945,1.211V41H26.461V32.547Zm19.8,4.32a5.062,5.062,0,0,1-.883,3.109,2.829,2.829,0,0,1-2.391,1.18,3.1,3.1,0,0,1-2.422-.977v4.07H40.492v-11.7h1.32l.07.938a2.977,2.977,0,0,1,2.453-1.094,2.882,2.882,0,0,1,2.41,1.148,5.117,5.117,0,0,1,.887,3.2ZM46.188,36.7a3.735,3.735,0,0,0-.609-2.258,1.963,1.963,0,0,0-1.672-.828,2.125,2.125,0,0,0-1.969,1.164V38.82a2.129,2.129,0,0,0,1.984,1.156,1.954,1.954,0,0,0,1.652-.824A4.077,4.077,0,0,0,46.188,36.7Zm7.367-2.859a4.331,4.331,0,0,0-.711-.055A1.9,1.9,0,0,0,50.914,35v6H49.469V32.547h1.406l.023.977a2.251,2.251,0,0,1,2.016-1.133,1.477,1.477,0,0,1,.641.109Zm4.836,7.313a3.693,3.693,0,0,1-2.8-1.129,4.19,4.19,0,0,1-1.078-3.02v-.266A5.073,5.073,0,0,1,55,34.5a3.748,3.748,0,0,1,1.344-1.547,3.378,3.378,0,0,1,1.871-.559,3.166,3.166,0,0,1,2.563,1.086,4.7,4.7,0,0,1,.914,3.109v.6H55.961a3,3,0,0,0,.73,2.02,2.3,2.3,0,0,0,1.777.77,2.517,2.517,0,0,0,1.3-.312,3.258,3.258,0,0,0,.93-.828l.883.688A3.55,3.55,0,0,1,58.391,41.156Zm-.18-7.578a1.928,1.928,0,0,0-1.469.637A3.1,3.1,0,0,0,56.008,36h4.234v-.109a2.753,2.753,0,0,0-.594-1.707A1.815,1.815,0,0,0,58.211,33.578Zm10.07,5.18a1.064,1.064,0,0,0-.441-.91,4.249,4.249,0,0,0-1.539-.559,7.277,7.277,0,0,1-1.742-.562,2.479,2.479,0,0,1-.953-.781,1.869,1.869,0,0,1-.309-1.078,2.193,2.193,0,0,1,.879-1.758,3.432,3.432,0,0,1,2.246-.719,3.532,3.532,0,0,1,2.332.742,2.357,2.357,0,0,1,.895,1.9H68.2a1.3,1.3,0,0,0-.5-1.023,1.888,1.888,0,0,0-1.27-.43,1.976,1.976,0,0,0-1.234.344,1.082,1.082,0,0,0-.445.9.877.877,0,0,0,.414.789,5.1,5.1,0,0,0,1.5.508,7.8,7.8,0,0,1,1.754.578,2.558,2.558,0,0,1,1,.809,1.988,1.988,0,0,1,.324,1.152,2.163,2.163,0,0,1-.906,1.816,3.8,3.8,0,0,1-2.352.684,4.257,4.257,0,0,1-1.8-.359,2.922,2.922,0,0,1-1.223-1,2.42,2.42,0,0,1-.441-1.395h1.445a1.5,1.5,0,0,0,.582,1.152,2.258,2.258,0,0,0,1.434.426,2.331,2.331,0,0,0,1.316-.332A1.02,1.02,0,0,0,68.281,38.758ZM76.828,41a3.036,3.036,0,0,1-.2-.891,3.225,3.225,0,0,1-2.406,1.047,2.984,2.984,0,0,1-2.051-.707,2.288,2.288,0,0,1-.8-1.793,2.39,2.39,0,0,1,1-2.051,4.733,4.733,0,0,1,2.824-.73H76.6v-.664A1.623,1.623,0,0,0,76.148,34a1.821,1.821,0,0,0-1.336-.449,2.107,2.107,0,0,0-1.3.391,1.151,1.151,0,0,0-.523.945H71.539a2,2,0,0,1,.449-1.223,3.066,3.066,0,0,1,1.219-.934,4.1,4.1,0,0,1,1.691-.344,3.342,3.342,0,0,1,2.289.73,2.635,2.635,0,0,1,.859,2.012v3.891a4.757,4.757,0,0,0,.3,1.852V41Zm-2.4-1.1a2.54,2.54,0,0,0,1.289-.352,2.127,2.127,0,0,0,.883-.914V36.9H75.469q-2.656,0-2.656,1.555a1.316,1.316,0,0,0,.453,1.063A1.742,1.742,0,0,0,74.43,39.9ZM84.4,33.844a4.331,4.331,0,0,0-.711-.055A1.9,1.9,0,0,0,81.758,35v6H80.313V32.547h1.406l.023.977a2.251,2.251,0,0,1,2.016-1.133,1.477,1.477,0,0,1,.641.109ZM87.3,41H85.852V32.547H87.3ZM85.734,30.3a.863.863,0,0,1,.215-.594.807.807,0,0,1,.637-.242.819.819,0,0,1,.641.242.854.854,0,0,1,.219.594.826.826,0,0,1-.219.586.834.834,0,0,1-.641.234.821.821,0,0,1-.637-.234A.834.834,0,0,1,85.734,30.3ZM94.828,41a3.036,3.036,0,0,1-.2-.891,3.225,3.225,0,0,1-2.406,1.047,2.984,2.984,0,0,1-2.051-.707,2.288,2.288,0,0,1-.8-1.793,2.39,2.39,0,0,1,1-2.051,4.733,4.733,0,0,1,2.824-.73H94.6v-.664A1.623,1.623,0,0,0,94.148,34a1.821,1.821,0,0,0-1.336-.449,2.107,2.107,0,0,0-1.3.391,1.151,1.151,0,0,0-.523.945H89.539a2,2,0,0,1,.449-1.223,3.066,3.066,0,0,1,1.219-.934,4.1,4.1,0,0,1,1.691-.344,3.342,3.342,0,0,1,2.289.73,2.635,2.635,0,0,1,.859,2.012v3.891a4.757,4.757,0,0,0,.3,1.852V41Zm-2.4-1.1a2.54,2.54,0,0,0,1.289-.352,2.127,2.127,0,0,0,.883-.914V36.9H93.469q-2.656,0-2.656,1.555a1.316,1.316,0,0,0,.453,1.063A1.742,1.742,0,0,0,92.43,39.9ZM99.883,41H98.438V29h1.445Z" transform="translate(-2583.76 -11109.663)" fill="#12263f"/>
    <g id="Grupo_1106495" data-name="Grupo 1106495" transform="translate(-3245.08 -11766)">
      <circle id="Elipse_11631" data-name="Elipse 11631" cx="39.5" cy="39.5" r="39.5" transform="translate(582.32 615)" fill="#7bb5f2"/>
      <g id="_x38_3_Negotiation" transform="translate(593.127 625.808)">
        <g id="Grupo_1106494" data-name="Grupo 1106494" transform="translate(3.193 3.192)">
          <path id="Trazado_875679" data-name="Trazado 875679" d="M182.209,314.809v9.276h-4.842l-4.875-.453-5.387,5.385a4.331,4.331,0,0,1-5.969.147l-2.639-2.39a4.331,4.331,0,0,1-.156-6.272l5.081-5.084,6.867-3.4h2.858a2.542,2.542,0,0,1,1.795.744l1.3,1.3a2.539,2.539,0,0,0,1.8.744Z" transform="translate(-141.495 -280.759)" fill="#ebd8ae"/>
          <path id="Trazado_875680" data-name="Trazado 875680" d="M216.577,339.548v9.276h-4.842l-4.875-.453-5.388,5.384a4.328,4.328,0,0,1-5.97.146l-.19-.174a29.775,29.775,0,0,0,18.213-14.179h3.052Z" transform="translate(-175.863 -305.496)" opacity="0.12"/>
          <path id="Trazado_875681" data-name="Trazado 875681" d="M127.1,308.945a3.111,3.111,0,0,1-3.448-.323L123,308.1a.939.939,0,0,0-.592-.21h-.932a6.4,6.4,0,0,0-5.448,3.134,18.677,18.677,0,0,1-5,5.217h-5.192V307.15h5.109a2.446,2.446,0,0,0,1.811-.8l1.152-1.269a4.357,4.357,0,0,1,3.234-1.435h4.547a4.374,4.374,0,0,1,3.1,1.289l2.526,2.542A.929.929,0,0,1,127.1,308.945Z" transform="translate(-95.447 -273.225)" fill="#f1b2a3"/>
          <path id="Trazado_875682" data-name="Trazado 875682" d="M127.1,308.959a3.112,3.112,0,0,1-3.448-.323L123,308.11a.924.924,0,0,0-.59-.21h-.934a6.391,6.391,0,0,0-5.449,3.133,18.637,18.637,0,0,1-5,5.218h-5.19v-2.5a15.578,15.578,0,0,0,13.771-10.1h2.082a4.375,4.375,0,0,1,3.1,1.289l2.526,2.542A.929.929,0,0,1,127.1,308.959Z" transform="translate(-95.446 -273.238)" opacity="0.12"/>
          <g id="Grupo_1106493" data-name="Grupo 1106493" transform="translate(24.282 38.728)">
            <path id="Trazado_875683" data-name="Trazado 875683" d="M245.665,454.2l1.979,1.979a1.531,1.531,0,1,1-2.165,2.165l-1.979-1.979a1.531,1.531,0,1,1,2.165-2.165Z" transform="translate(-243.052 -446.865)" fill="#f1b2a3"/>
            <path id="Trazado_875684" data-name="Trazado 875684" d="M263.2,428.965l3.128,3.129a1.531,1.531,0,1,1-2.165,2.165l-3.128-3.129a1.531,1.531,0,0,1,2.165-2.165Z" transform="translate(-258.814 -424.186)" fill="#f1b2a3"/>
            <path id="Trazado_875685" data-name="Trazado 875685" d="M280.93,403.922l3.982,3.983a1.531,1.531,0,0,1-2.165,2.165l-3.982-3.983a1.531,1.531,0,1,1,2.165-2.165Z" transform="translate(-274.747 -401.679)" fill="#f1b2a3"/>
            <path id="Trazado_875686" data-name="Trazado 875686" d="M305.973,386.195l2.368,2.369a1.531,1.531,0,1,1-2.165,2.165l-2.369-2.369a1.531,1.531,0,0,1,2.165-2.165Z" transform="translate(-297.255 -385.746)" fill="#f1b2a3"/>
          </g>
          <path id="Trazado_875687" data-name="Trazado 875687" d="M403.6,338.109h-9.64a1.617,1.617,0,0,1-1.617-1.617v-8.762a1.617,1.617,0,0,1,1.617-1.617h9.64Z" transform="translate(-352.945 -293.422)" fill="#0e9c4a"/>
          <path id="Trazado_875688" data-name="Trazado 875688" d="M18.867,335.909H8.458v-12H18.867a1.617,1.617,0,0,1,1.617,1.617v8.762A1.617,1.617,0,0,1,18.867,335.909Z" transform="translate(-7.925 -291.445)" fill="#f78721"/>
          <path id="Trazado_875689" data-name="Trazado 875689" d="M189.841,115.335c0,4.622,5.1,8.366,11.4,8.366a14.678,14.678,0,0,0,1.622-.086,15.043,15.043,0,0,0,7.634,1.924.818.818,0,0,0,.394-1.5,6.063,6.063,0,0,1-2.16-2.4,7.643,7.643,0,0,0,3.908-6.3c0-4.622-5.1-8.366-11.4-8.366s-11.4,3.745-11.4,8.366Z" transform="translate(-170.945 -96.463)" fill="#f14f4a"/>
          <path id="Trazado_875690" data-name="Trazado 875690" d="M215.561,146.66a15.043,15.043,0,0,1-7.634-1.924,14.676,14.676,0,0,1-1.622.086c-5.053,0-9.339-2.409-10.83-5.753a11.177,11.177,0,0,0,18.8-8.171c0-.141,0-.286-.009-.427a7.462,7.462,0,0,1,3.436,5.985,7.643,7.643,0,0,1-3.908,6.3,6.062,6.062,0,0,0,2.16,2.4A.818.818,0,0,1,215.561,146.66Z" transform="translate(-176.009 -117.586)" opacity="0.1"/>
          <path id="Trazado_875691" data-name="Trazado 875691" d="M330.64,179.409a1.151,1.151,0,1,0,1.152-1.149A1.152,1.152,0,0,0,330.64,179.409Z" transform="translate(-297.49 -160.537)" fill="#e8f1f8"/>
          <path id="Trazado_875692" data-name="Trazado 875692" d="M291.086,179.409a1.151,1.151,0,1,0,1.152-1.149A1.152,1.152,0,0,0,291.086,179.409Z" transform="translate(-261.941 -160.537)" fill="#e8f1f8"/>
          <path id="Trazado_875693" data-name="Trazado 875693" d="M251.533,179.409a1.151,1.151,0,1,0,1.152-1.149A1.152,1.152,0,0,0,251.533,179.409Z" transform="translate(-226.392 -160.537)" fill="#e8f1f8"/>
          <path id="Trazado_875694" data-name="Trazado 875694" d="M119.743,16.826c0,4.622-5.1,8.366-11.4,8.366a14.675,14.675,0,0,1-1.622-.086,15.043,15.043,0,0,1-7.634,1.924.818.818,0,0,1-.394-1.5,6.062,6.062,0,0,0,2.16-2.4,7.643,7.643,0,0,1-3.908-6.3c0-4.622,5.1-8.366,11.4-8.366S119.743,12.2,119.743,16.826Z" transform="translate(-87.452 -7.927)" fill="#475da9"/>
          <path id="Trazado_875695" data-name="Trazado 875695" d="M129.143,39.38c0,4.622-5.1,8.366-11.4,8.366a14.676,14.676,0,0,1-1.622-.086,15.043,15.043,0,0,1-7.634,1.924.818.818,0,0,1-.394-1.5,6.062,6.062,0,0,0,2.16-2.4,9.344,9.344,0,0,1-2.849-2.772,12.237,12.237,0,0,0,18.514-9.357A7.379,7.379,0,0,1,129.143,39.38Z" transform="translate(-96.852 -30.48)" opacity="0.1"/>
          <path id="Trazado_875696" data-name="Trazado 875696" d="M160.926,80.9a1.151,1.151,0,1,1-1.152-1.149A1.152,1.152,0,0,1,160.926,80.9Z" transform="translate(-142.89 -72)" fill="#e8f1f8"/>
          <path id="Trazado_875697" data-name="Trazado 875697" d="M200.479,80.9a1.151,1.151,0,1,1-1.152-1.149A1.152,1.152,0,0,1,200.479,80.9Z" transform="translate(-178.438 -72)" fill="#e8f1f8"/>
          <path id="Trazado_875698" data-name="Trazado 875698" d="M240.033,80.9a1.151,1.151,0,1,1-1.152-1.149A1.152,1.152,0,0,1,240.033,80.9Z" transform="translate(-213.988 -72)" fill="#e8f1f8"/>
          <path id="Trazado_875699" data-name="Trazado 875699" d="M327.059,172.994a1.682,1.682,0,1,0,1.682,1.682A1.686,1.686,0,0,0,327.059,172.994Zm0,2.3a.616.616,0,1,1,.616-.616A.618.618,0,0,1,327.059,175.292Z" transform="translate(-292.758 -155.804)"/>
          <path id="Trazado_875700" data-name="Trazado 875700" d="M287.506,172.994a1.682,1.682,0,1,0,1.682,1.682A1.686,1.686,0,0,0,287.506,172.994Zm0,2.3a.616.616,0,1,1,.616-.616A.618.618,0,0,1,287.506,175.292Z" transform="translate(-257.209 -155.804)"/>
          <path id="Trazado_875701" data-name="Trazado 875701" d="M247.949,172.994a1.682,1.682,0,1,0,1.682,1.682A1.686,1.686,0,0,0,247.949,172.994Zm0,2.3a.616.616,0,1,1,.616-.616A.618.618,0,0,1,247.949,175.292Z" transform="translate(-221.656 -155.804)"/>
          <path id="Trazado_875702" data-name="Trazado 875702" d="M155.041,74.483a1.682,1.682,0,1,0,1.685,1.682A1.684,1.684,0,0,0,155.041,74.483Zm0,2.3a.616.616,0,1,1,.619-.616A.617.617,0,0,1,155.041,76.781Z" transform="translate(-138.157 -67.266)"/>
          <path id="Trazado_875703" data-name="Trazado 875703" d="M196.28,76.166a1.684,1.684,0,1,0-1.685,1.682A1.686,1.686,0,0,0,196.28,76.166Zm-2.3,0a.618.618,0,1,1,.616.616A.617.617,0,0,1,193.978,76.166Z" transform="translate(-173.705 -67.267)"/>
          <path id="Trazado_875704" data-name="Trazado 875704" d="M234.146,77.849a1.682,1.682,0,1,0-1.682-1.682A1.686,1.686,0,0,0,234.146,77.849Zm0-2.3a.616.616,0,1,1-.616.616A.618.618,0,0,1,234.146,75.55Z" transform="translate(-209.253 -67.267)"/>
          <path id="Trazado_875705" data-name="Trazado 875705" d="M53.846,300.629H44.206a2.15,2.15,0,0,0-2,1.36H39.735a1.979,1.979,0,0,1-1.42-.592l-1.3-1.292a3.068,3.068,0,0,0-2.171-.9H32.184a4.9,4.9,0,0,0-2.744-.853H24.891a4.912,4.912,0,0,0-3.631,1.609c-.891.835-1.307,1.9-2.564,1.9H16.159a2.146,2.146,0,0,0-2.024-1.454H3.726a.533.533,0,0,0-.533.533v12a.533.533,0,0,0,.533.533H14.135a2.146,2.146,0,0,0,2.025-1.456h2.135a4.85,4.85,0,0,0,1.542,2.87l2.639,2.388a4.857,4.857,0,0,0,5.806.538l1.245,1.245A2.058,2.058,0,0,0,33,318.03a2.042,2.042,0,0,0,2.948-1.562,2.031,2.031,0,0,0,2.072-.5,2.064,2.064,0,0,0,.022-2.892,1.878,1.878,0,0,0,1.1-.764l3.069.019a2.149,2.149,0,0,0,2,1.36h9.641a.533.533,0,0,0,.533-.533v-12A.533.533,0,0,0,53.846,300.629Zm-38.628,10.69a1.085,1.085,0,0,1-1.084,1.083H4.259V301.473h9.876a1.085,1.085,0,0,1,1.084,1.084Zm1.066-.372v-8.019H18.7c1.861,0,2.552-1.53,3.354-2.249a3.844,3.844,0,0,1,2.841-1.26h4.548a3.84,3.84,0,0,1,2.274.756,37.282,37.282,0,0,1,2.972,2.92.4.4,0,0,1-.093.628,2.644,2.644,0,0,1-2.861-.271l-.638-.517a1.456,1.456,0,0,0-.934-.338h-.933a6.9,6.9,0,0,0-5.905,3.392,17.98,17.98,0,0,1-4.723,4.958ZM31.691,318.3a1,1,0,0,1-1.411,0L28.3,316.32a1,1,0,0,1,1.411-1.411l1.979,1.979A1,1,0,0,1,31.691,318.3Zm2.925-1.4a1,1,0,0,1-1.411,0l-3.128-3.129a1,1,0,1,1,1.411-1.41l3.128,3.128A1,1,0,0,1,34.616,316.894Zm2.649-1.681a1,1,0,0,1-1.411,0l-3.982-3.982a1,1,0,1,1,1.411-1.411l3.982,3.983A1,1,0,0,1,37.264,315.213Zm.921-3.409a1.021,1.021,0,0,1-1.411,0l-2.369-2.369a1,1,0,0,1,1.411-1.411l2.368,2.369a1,1,0,0,1,0,1.411Zm3.87-.537-2.529,0a2.051,2.051,0,0,0-.587-1.629l-2.368-2.369a2.066,2.066,0,0,0-2.919,0,2.044,2.044,0,0,0-.584,1.257,2.048,2.048,0,0,0-2.488,2.488,2.036,2.036,0,0,0-1.789,2.556,2.048,2.048,0,0,0-1.287,3.45,3.794,3.794,0,0,1-4.313-.542l-2.638-2.387a3.789,3.789,0,0,1-1.218-2.369,18.81,18.81,0,0,0,4.9-5.182,5.842,5.842,0,0,1,4.993-2.879h.933a.4.4,0,0,1,.257.095l.644.522a3.733,3.733,0,0,0,4.039.381,1.461,1.461,0,0,0,.344-2.317l-2.058-2.071h1.461a2,2,0,0,1,1.415.586l1.3,1.292a3.038,3.038,0,0,0,2.176.9h2.321v8.212Zm11.257,1.358H44.206a1.085,1.085,0,0,1-1.084-1.084v-8.762a1.085,1.085,0,0,1,1.084-1.083h9.108Z" transform="translate(-3.193 -268.471)"/>
          <path id="Trazado_875706" data-name="Trazado 875706" d="M124.943,22.063c0-4.28-3.973-7.869-9.525-8.707a6.707,6.707,0,0,0,.122-1.264c0-4.908-5.354-8.9-11.935-8.9s-11.931,3.992-11.931,8.9a8.025,8.025,0,0,0,3.739,6.474,5.637,5.637,0,0,1-1.747,1.777,1.351,1.351,0,0,0,.663,2.485A15.285,15.285,0,0,0,101.12,21.4c-.021.218-.042.437-.042.659,0,4.907,5.355,8.9,11.938,8.9.528,0,1.024-.023,1.51-.071a15.448,15.448,0,0,0,7.768,1.91,1.351,1.351,0,0,0,.662-2.484,5.612,5.612,0,0,1-1.751-1.781,8.013,8.013,0,0,0,3.738-6.473Zm-23.221-2.156a14.619,14.619,0,0,1-7.353,1.856.285.285,0,0,1-.124-.525,6.634,6.634,0,0,0,2.348-2.606.534.534,0,0,0-.191-.686,7.133,7.133,0,0,1-3.663-5.854c0-4.319,4.874-7.833,10.864-7.833s10.869,3.514,10.869,7.833-4.876,7.833-10.869,7.833a14.148,14.148,0,0,1-1.563-.083A.539.539,0,0,0,101.723,19.907Zm18.492,8.009a.533.533,0,0,0-.191.687,6.634,6.634,0,0,0,2.353,2.61.285.285,0,0,1-.126.523,14.635,14.635,0,0,1-7.354-1.857.532.532,0,0,0-.319-.065,14.156,14.156,0,0,1-1.563.082c-5.995,0-10.872-3.514-10.872-7.832a5.685,5.685,0,0,1,.124-1.131c.431.037.878.059,1.337.059,5.515,0,10.166-2.8,11.529-6.6,5.011.721,8.742,3.96,8.742,7.672a7.121,7.121,0,0,1-3.662,5.853Z" transform="translate(-82.717 -3.192)"/>
        </g>
      </g>
    </g>
    <path id="Trazado_876387" data-name="Trazado 876387" d="M-2516.323-10567.6h46.083v-251.074h-32.917" transform="translate(30.24 -157)" fill="none" stroke="#12263f" stroke-width="1"/>
    <path id="Trazado_876388" data-name="Trazado 876388" d="M-2594.5-10755.135v-47.276" transform="translate(30.24 -33)" fill="none" stroke="#12263f" stroke-width="1"/>
    <path id="Trazado_876391" data-name="Trazado 876391" d="M10,0H213a10,10,0,0,1,10,10V63a10,10,0,0,1-10,10H10A10,10,0,0,1,0,63V10A10,10,0,0,1,10,0Z" transform="translate(-2675.76 -11008.664)" fill="#e5f0fc"/>
    <path id="Trazado_876392" data-name="Trazado 876392" d="M17.5,13.391a4.185,4.185,0,0,1-1.332,2.785,4.365,4.365,0,0,1-2.98.98,4.008,4.008,0,0,1-3.23-1.445,5.815,5.815,0,0,1-1.215-3.867V10.75A6.481,6.481,0,0,1,9.3,7.961,4.231,4.231,0,0,1,10.91,6.113a4.47,4.47,0,0,1,2.406-.645A4.11,4.11,0,0,1,16.223,6.48a4.235,4.235,0,0,1,1.273,2.8H15.988a3.268,3.268,0,0,0-.848-1.975A2.565,2.565,0,0,0,13.316,6.7a2.684,2.684,0,0,0-2.254,1.063,4.882,4.882,0,0,0-.816,3.026v1.1a5.018,5.018,0,0,0,.773,2.948,2.5,2.5,0,0,0,2.164,1.095,2.886,2.886,0,0,0,1.918-.566,3.143,3.143,0,0,0,.887-1.973Zm1.438-.7a4.993,4.993,0,0,1,.488-2.234A3.643,3.643,0,0,1,20.781,8.93a3.7,3.7,0,0,1,1.988-.539,3.565,3.565,0,0,1,2.793,1.2,4.6,4.6,0,0,1,1.066,3.18v.1a5.036,5.036,0,0,1-.473,2.215A3.589,3.589,0,0,1,24.8,16.609a3.743,3.743,0,0,1-2.02.547A3.556,3.556,0,0,1,20,15.961,4.575,4.575,0,0,1,18.934,12.8Zm1.453.172a3.616,3.616,0,0,0,.652,2.258,2.211,2.211,0,0,0,3.5-.012,3.955,3.955,0,0,0,.648-2.418,3.61,3.61,0,0,0-.66-2.254,2.1,2.1,0,0,0-1.754-.863,2.075,2.075,0,0,0-1.727.852A3.925,3.925,0,0,0,20.387,12.867ZM29.8,8.547l.039.938a3.122,3.122,0,0,1,2.508-1.094A2.417,2.417,0,0,1,34.762,9.75a3.2,3.2,0,0,1,1.1-.984,3.242,3.242,0,0,1,1.6-.375q2.781,0,2.828,2.945V17H38.84V11.422a1.941,1.941,0,0,0-.414-1.355,1.823,1.823,0,0,0-1.391-.449,1.917,1.917,0,0,0-1.336.48,1.949,1.949,0,0,0-.617,1.293V17H33.629V11.461a1.613,1.613,0,0,0-1.8-1.844,1.934,1.934,0,0,0-1.945,1.211V17H28.434V8.547Zm17.883,7.617a3.07,3.07,0,0,1-2.477.992,2.628,2.628,0,0,1-2.059-.785,3.4,3.4,0,0,1-.715-2.324v-5.5h1.445v5.461q0,1.922,1.563,1.922a2.163,2.163,0,0,0,2.2-1.234V8.547H49.09V17H47.715Zm4.969-7.617L52.7,9.609A3.08,3.08,0,0,1,55.23,8.391q2.68,0,2.7,3.023V17H56.488V11.406a1.946,1.946,0,0,0-.418-1.352,1.675,1.675,0,0,0-1.277-.437,2.086,2.086,0,0,0-1.234.375,2.546,2.546,0,0,0-.828.984V17H51.285V8.547ZM61.684,17H60.238V8.547h1.445ZM60.121,6.3a.863.863,0,0,1,.215-.594.807.807,0,0,1,.637-.242.819.819,0,0,1,.641.242.854.854,0,0,1,.219.594.826.826,0,0,1-.219.586.834.834,0,0,1-.641.234.821.821,0,0,1-.637-.234A.834.834,0,0,1,60.121,6.3Zm7.266,9.672a2.082,2.082,0,0,0,1.352-.469,1.649,1.649,0,0,0,.641-1.172h1.367a2.621,2.621,0,0,1-.5,1.383,3.293,3.293,0,0,1-1.23,1.047,3.55,3.55,0,0,1-1.629.391A3.482,3.482,0,0,1,64.641,16a4.59,4.59,0,0,1-1.02-3.152v-.242a5.089,5.089,0,0,1,.453-2.2,3.451,3.451,0,0,1,1.3-1.492,3.7,3.7,0,0,1,2-.531,3.39,3.39,0,0,1,2.363.852,3.043,3.043,0,0,1,1,2.211H69.379a1.992,1.992,0,0,0-.621-1.348,1.932,1.932,0,0,0-1.379-.527,2.023,2.023,0,0,0-1.707.793,3.724,3.724,0,0,0-.605,2.293v.273a3.65,3.65,0,0,0,.6,2.25A2.033,2.033,0,0,0,67.387,15.977ZM77.59,17a3.036,3.036,0,0,1-.2-.891,3.225,3.225,0,0,1-2.406,1.047,2.984,2.984,0,0,1-2.051-.707,2.288,2.288,0,0,1-.8-1.793,2.39,2.39,0,0,1,1-2.051,4.733,4.733,0,0,1,2.824-.73h1.406v-.664A1.623,1.623,0,0,0,76.91,10a1.821,1.821,0,0,0-1.336-.449,2.108,2.108,0,0,0-1.3.391,1.151,1.151,0,0,0-.523.945H72.3a2,2,0,0,1,.449-1.223,3.066,3.066,0,0,1,1.219-.934,4.1,4.1,0,0,1,1.691-.344,3.342,3.342,0,0,1,2.289.73,2.635,2.635,0,0,1,.859,2.012v3.891a4.757,4.757,0,0,0,.3,1.852V17Zm-2.4-1.1a2.54,2.54,0,0,0,1.289-.352,2.127,2.127,0,0,0,.883-.914V12.9H76.23q-2.656,0-2.656,1.555a1.316,1.316,0,0,0,.453,1.063A1.742,1.742,0,0,0,75.191,15.9Zm9.273.078a2.082,2.082,0,0,0,1.352-.469,1.649,1.649,0,0,0,.641-1.172h1.367a2.621,2.621,0,0,1-.5,1.383,3.293,3.293,0,0,1-1.23,1.047,3.55,3.55,0,0,1-1.629.391A3.482,3.482,0,0,1,81.719,16a4.59,4.59,0,0,1-1.02-3.152v-.242a5.089,5.089,0,0,1,.453-2.2,3.451,3.451,0,0,1,1.3-1.492,3.7,3.7,0,0,1,2-.531,3.39,3.39,0,0,1,2.363.852,3.043,3.043,0,0,1,1,2.211H86.457a1.992,1.992,0,0,0-.621-1.348,1.932,1.932,0,0,0-1.379-.527,2.023,2.023,0,0,0-1.707.793,3.724,3.724,0,0,0-.605,2.293v.273a3.65,3.65,0,0,0,.6,2.25A2.033,2.033,0,0,0,84.465,15.977ZM91.02,17H89.574V8.547H91.02ZM89.457,6.3a.863.863,0,0,1,.215-.594.807.807,0,0,1,.637-.242.819.819,0,0,1,.641.242.854.854,0,0,1,.219.594.826.826,0,0,1-.219.586.834.834,0,0,1-.641.234.821.821,0,0,1-.637-.234A.834.834,0,0,1,89.457,6.3ZM92.949,12.7a4.993,4.993,0,0,1,.488-2.234A3.643,3.643,0,0,1,94.8,8.93a3.7,3.7,0,0,1,1.988-.539,3.565,3.565,0,0,1,2.793,1.2,4.6,4.6,0,0,1,1.066,3.18v.1a5.036,5.036,0,0,1-.473,2.215,3.589,3.589,0,0,1-1.352,1.527,3.743,3.743,0,0,1-2.02.547,3.556,3.556,0,0,1-2.785-1.2A4.575,4.575,0,0,1,92.949,12.8Zm1.453.172a3.616,3.616,0,0,0,.652,2.258,2.211,2.211,0,0,0,3.5-.012A3.955,3.955,0,0,0,99.2,12.7a3.61,3.61,0,0,0-.66-2.254,2.1,2.1,0,0,0-1.754-.863,2.075,2.075,0,0,0-1.727.852A3.925,3.925,0,0,0,94.4,12.867ZM97.441,5h1.75L97.1,7.3l-1.164,0Zm6.383,3.547.047,1.063A3.08,3.08,0,0,1,106.4,8.391q2.68,0,2.7,3.023V17H107.66V11.406a1.946,1.946,0,0,0-.418-1.352,1.675,1.675,0,0,0-1.277-.437,2.086,2.086,0,0,0-1.234.375,2.546,2.546,0,0,0-.828.984V17h-1.445V8.547ZM37.074,41.156a3.693,3.693,0,0,1-2.8-1.129,4.19,4.19,0,0,1-1.078-3.02v-.266a5.073,5.073,0,0,1,.48-2.246,3.748,3.748,0,0,1,1.344-1.547,3.378,3.378,0,0,1,1.871-.559,3.166,3.166,0,0,1,2.563,1.086,4.7,4.7,0,0,1,.914,3.109v.6H34.645a3,3,0,0,0,.73,2.02,2.3,2.3,0,0,0,1.777.77,2.517,2.517,0,0,0,1.3-.312,3.258,3.258,0,0,0,.93-.828l.883.688A3.55,3.55,0,0,1,37.074,41.156Zm-.18-7.578a1.928,1.928,0,0,0-1.469.637A3.1,3.1,0,0,0,34.691,36h4.234v-.109a2.753,2.753,0,0,0-.594-1.707A1.815,1.815,0,0,0,36.895,33.578Zm7.984,2.055,1.875-3.086h1.688l-2.766,4.18L48.527,41H46.855L44.9,37.836,42.949,41H41.27l2.852-4.273-2.766-4.18h1.672ZM51.934,30.5v2.047h1.578v1.117H51.934v5.249a1.173,1.173,0,0,0,.211.763.888.888,0,0,0,.719.254,3.5,3.5,0,0,0,.688-.094V41a4.215,4.215,0,0,1-1.109.155,1.8,1.8,0,0,1-1.461-.586,2.517,2.517,0,0,1-.492-1.664V33.664H48.949V32.547h1.539V30.5Zm6.773,10.656a3.693,3.693,0,0,1-2.8-1.129,4.19,4.19,0,0,1-1.078-3.02v-.266a5.073,5.073,0,0,1,.48-2.246,3.748,3.748,0,0,1,1.344-1.547,3.378,3.378,0,0,1,1.871-.559,3.166,3.166,0,0,1,2.563,1.086A4.7,4.7,0,0,1,62,36.586v.6H56.277a3,3,0,0,0,.73,2.02,2.3,2.3,0,0,0,1.777.77,2.517,2.517,0,0,0,1.3-.312,3.258,3.258,0,0,0,.93-.828l.883.688A3.55,3.55,0,0,1,58.707,41.156Zm-.18-7.578a1.928,1.928,0,0,0-1.469.637A3.1,3.1,0,0,0,56.324,36h4.234v-.109a2.753,2.753,0,0,0-.594-1.707A1.815,1.815,0,0,0,58.527,33.578Zm9.234.266a4.331,4.331,0,0,0-.711-.055A1.9,1.9,0,0,0,65.121,35v6H63.676V32.547h1.406l.023.977a2.251,2.251,0,0,1,2.016-1.133,1.477,1.477,0,0,1,.641.109Zm2.7-1.3.047,1.063a3.08,3.08,0,0,1,2.531-1.219q2.68,0,2.7,3.023V41H74.293V35.406a1.946,1.946,0,0,0-.418-1.352,1.675,1.675,0,0,0-1.277-.437,2.086,2.086,0,0,0-1.234.375,2.546,2.546,0,0,0-.828.984V41H69.09V32.547ZM83.137,41a3.036,3.036,0,0,1-.2-.891,3.225,3.225,0,0,1-2.406,1.047,2.984,2.984,0,0,1-2.051-.707,2.288,2.288,0,0,1-.8-1.793,2.39,2.39,0,0,1,1-2.051,4.733,4.733,0,0,1,2.824-.73H82.91v-.664A1.623,1.623,0,0,0,82.457,34a1.821,1.821,0,0,0-1.336-.449,2.107,2.107,0,0,0-1.3.391,1.151,1.151,0,0,0-.523.945H77.848a2,2,0,0,1,.449-1.223,3.066,3.066,0,0,1,1.219-.934,4.1,4.1,0,0,1,1.691-.344,3.342,3.342,0,0,1,2.289.73,2.635,2.635,0,0,1,.859,2.012v3.891a4.757,4.757,0,0,0,.3,1.852V41Zm-2.4-1.1a2.54,2.54,0,0,0,1.289-.352,2.127,2.127,0,0,0,.883-.914V36.9H81.777q-2.656,0-2.656,1.555a1.316,1.316,0,0,0,.453,1.063A1.742,1.742,0,0,0,80.738,39.9Z" transform="translate(-2580.76 -10986.664)" fill="#12263f"/>
    <g id="Grupo_1106496" data-name="Grupo 1106496" transform="translate(-3485.08 -11650)">
      <circle id="Elipse_11632" data-name="Elipse 11632" cx="39.5" cy="39.5" r="39.5" transform="translate(822.32 615)" fill="#7bb5f2"/>
      <g id="g1505" transform="translate(834.32 627)">
        <g id="g1507" clip-path="url(#clip-path)">
          <g id="g1513" transform="translate(13.848 8.448)">
            <path id="path1515" d="M0-46.521v11.777a5.338,5.338,0,0,0,5.338,5.338H14.7a5.338,5.338,0,0,0,5.338-5.338V-46.521a4.08,4.08,0,0,0-4.08-4.08H4.08A4.08,4.08,0,0,0,0-46.521" transform="translate(0 50.601)" fill="#fa9801"/>
          </g>
          <g id="g1517" transform="translate(24.716 8.448)">
            <path id="path1519" d="M-58.062,0h-.11a9.2,9.2,0,0,1,.356,2.532V15.858A5.338,5.338,0,0,1-63.155,21.2h3.835a5.338,5.338,0,0,0,5.338-5.338V4.08A4.08,4.08,0,0,0-58.062,0" transform="translate(63.155)" fill="#f88604"/>
          </g>
          <g id="g1521" transform="translate(7.939 38.112)">
            <path id="path1523" d="M-324.443,0h-25.6L-352.9,2.724v7.9h31.86v-7.9Z" transform="translate(352.9)" fill="#fff0dc"/>
          </g>
          <g id="g1525" transform="translate(35.964 38.112)">
            <path id="path1527" d="M-4.925,0h-.432V10.625h3.835v-7.9Z" transform="translate(5.357)" fill="#ffddce"/>
          </g>
          <g id="g1529" transform="translate(7.939 20.513)">
            <path id="path1531" d="M-310.194-79.858-317.6-81.6v-5.264h-7.735V-81.6l-7.41,1.741a5.824,5.824,0,0,0-4.653,5.73v7.588h4.831a1.957,1.957,0,0,1,1.957,1.957v5.944h18.284v-5.944a1.956,1.956,0,0,1,1.956-1.957h4.831v-7.588a5.824,5.824,0,0,0-4.653-5.73" transform="translate(337.402 86.862)" fill="#fff0dc"/>
          </g>
          <g id="g1533" transform="translate(23.901 20.513)">
            <path id="path1535" d="M-128.205-79.858l-7.41-1.741v-5.264h-3.835v5.7a2.292,2.292,0,0,0,1.768,2.232l5.642,1.325a5.825,5.825,0,0,1,4.653,5.73v5.339h3.835v-7.588a5.824,5.824,0,0,0-4.653-5.73" transform="translate(139.45 86.862)" fill="#ffddce"/>
          </g>
          <g id="g1537" transform="translate(7.939 26.622)">
            <path id="path1539" d="M-310.194-10.212l-3.813-.9A8.369,8.369,0,0,1-321.472-7a8.369,8.369,0,0,1-7.464-4.111l-3.813.9a5.824,5.824,0,0,0-4.653,5.73V3.106h4.831a1.957,1.957,0,0,1,1.957,1.957v5.944h18.284V5.062a1.956,1.956,0,0,1,1.956-1.957h4.831V-4.482a5.824,5.824,0,0,0-4.653-5.73" transform="translate(337.402 11.108)" fill="#fc90d2"/>
          </g>
          <g id="g1541" transform="translate(28.959 26.622)">
            <path id="path1543" d="M-70.536-10.213l-3.813-.9a7.334,7.334,0,0,1-2.374,2.593l2.352.553a5.825,5.825,0,0,1,4.653,5.73V3.1h3.835V-4.484a5.824,5.824,0,0,0-4.653-5.73" transform="translate(76.722 11.109)" fill="#fb74c4"/>
          </g>
          <g id="g1545" transform="translate(16.653 7.198)">
            <path id="path1547" d="M-.913-108.153a6.675,6.675,0,0,0,2.263,4.93c1.152.992,2.771,2.845,4.909,2.869,2.138-.024,3.757-1.878,4.909-2.869a6.675,6.675,0,0,0,2.263-4.93l.01-9.486H-.993Z" transform="translate(0.993 117.64)" fill="#fff0dc"/>
          </g>
          <g id="g1549" transform="translate(23.907 7.198)">
            <path id="path1551" d="M-38.1,0l-.008,11.385a6.674,6.674,0,0,1-2.263,4.929c-.321.276-.677.619-1.071.97,2.137-.025,3.755-1.878,4.906-2.869a6.675,6.675,0,0,0,2.263-4.929L-34.266,0Z" transform="translate(41.445)" fill="#ffddce"/>
          </g>
          <g id="g1553" transform="translate(13.848 1.782)">
            <path id="path1555" d="M-228.484-124.235a5.934,5.934,0,0,1-4.125-2.407,1.132,1.132,0,0,0-1.576-.323c-2.456,1.655-8.845,7.283-14.339,4.716v-3.684a9.2,9.2,0,0,1,9.2-9.2h1.645a9.2,9.2,0,0,1,9.2,9.2Z" transform="translate(248.525 135.132)" fill="#fba615"/>
          </g>
          <g id="g1557" transform="translate(21.951 1.782)">
            <path id="path1559" d="M-31.237,0h-1.645a9.272,9.272,0,0,0-1.1.067,9.2,9.2,0,0,1,8.095,8.8A6.042,6.042,0,0,0-22.039,10.9V9.2a9.2,9.2,0,0,0-9.2-9.2" transform="translate(33.977)" fill="#fa9801"/>
          </g>
          <g id="g1561" transform="translate(39.229 7.77)">
            <path id="path1563" d="M-170.933-85.467a7.5,7.5,0,0,1-7.5,7.5,7.5,7.5,0,0,1-7.5-7.5,7.5,7.5,0,0,1,7.5-7.5,7.5,7.5,0,0,1,7.5,7.5" transform="translate(185.926 92.964)" fill="#fbd307"/>
          </g>
          <g id="g1565" transform="translate(44.808 7.77)">
            <path id="path1567" d="M-21.861,0a7.506,7.506,0,0,0-1.917.248A7.5,7.5,0,0,1-18.2,7.5a7.5,7.5,0,0,1-5.579,7.248,7.5,7.5,0,0,0,1.917.249,7.5,7.5,0,0,0,7.5-7.5,7.5,7.5,0,0,0-7.5-7.5" transform="translate(23.779)" fill="#f9c301"/>
          </g>
          <g id="g1569" transform="translate(45.919 10.8)">
            <path id="path1571" d="M-7.244-2.777a.8.8,0,0,1-.57-.236l-1.95-1.95A.806.806,0,0,1-10-5.533v-3.66A.806.806,0,0,1-9.194-10a.806.806,0,0,1,.806.806v3.326l1.714,1.714a.806.806,0,0,1,0,1.14A.8.8,0,0,1-7.244-2.777Z" transform="translate(10 10)"/>
          </g>
          <g id="g1573" transform="translate(3.282 29.651)">
            <path id="path1575" d="M-276.285-193.444h-24.233v-15.449A1.518,1.518,0,0,1-299-210.411h21.2a1.518,1.518,0,0,1,1.518,1.518Z" transform="translate(300.518 210.411)" fill="#eff3f5"/>
          </g>
          <g id="g1577" transform="translate(22.182 29.652)">
            <path id="path1579" d="M-43.5,0h-3.815a1.518,1.518,0,0,1,1.518,1.518V16.967h3.815V1.518A1.518,1.518,0,0,0-43.5,0" transform="translate(47.311)" fill="#e5ecf1"/>
          </g>
          <g id="g1581" transform="translate(0.806 45.344)">
            <path id="path1583" d="M-318.753,0h-26.733a1.226,1.226,0,0,0-1.226,1.226,2.166,2.166,0,0,0,2.166,2.166h24.851a2.166,2.166,0,0,0,2.166-2.166A1.226,1.226,0,0,0-318.753,0" transform="translate(346.711)" fill="#e5ecf1"/>
          </g>
          <g id="g1585" transform="translate(0.806 48.243)">
            <path id="path1587" d="M-599.232-57.287h-51.683a.877.877,0,0,1-.877-.877v-3.271a.877.877,0,0,1,.877-.877h51.683a.877.877,0,0,1,.877.877v3.271a.877.877,0,0,1-.877.877" transform="translate(651.792 62.312)" fill="#f9c36e"/>
          </g>
          <g id="g1589" transform="translate(49.531 48.243)">
            <path id="path1591" d="M-43.721,0h-2.958V4.148a.877.877,0,0,1-.877.877h3.835a.877.877,0,0,0,.877-.877V.877A.877.877,0,0,0-43.721,0" transform="translate(47.556)" fill="#e7b467"/>
          </g>
          <g id="g1593" transform="translate(13.788 35.046)">
            <path id="path1595" d="M-48.394-24.2a2.122,2.122,0,0,1-2.122,2.122A2.122,2.122,0,0,1-52.639-24.2a2.122,2.122,0,0,1,2.122-2.122A2.122,2.122,0,0,1-48.394-24.2" transform="translate(52.639 26.319)" fill="#557981"/>
          </g>
          <g id="g1597" transform="translate(0 47.436)">
            <path id="path1599" d="M-608.426-65.674h-51.683a1.685,1.685,0,0,1-1.683-1.683v-3.271a1.685,1.685,0,0,1,1.683-1.683h51.683a1.685,1.685,0,0,1,1.683,1.683v3.271A1.685,1.685,0,0,1-608.426-65.674ZM-660.109-70.7a.071.071,0,0,0-.07.07v3.271a.071.071,0,0,0,.07.07h51.683a.071.071,0,0,0,.07-.07v-3.271a.071.071,0,0,0-.07-.07Z" transform="translate(661.792 72.312)"/>
          </g>
          <g id="g1601" transform="translate(12.982 34.239)">
            <path id="path1603" d="M-59.71-36.319a2.932,2.932,0,0,1,2.929,2.929,2.932,2.932,0,0,1-2.929,2.929,2.932,2.932,0,0,1-2.929-2.929A2.932,2.932,0,0,1-59.71-36.319Zm0,4.245a1.318,1.318,0,0,0,1.316-1.316,1.317,1.317,0,0,0-1.316-1.316,1.317,1.317,0,0,0-1.316,1.316A1.317,1.317,0,0,0-59.71-32.074Z" transform="translate(62.639 36.319)"/>
          </g>
          <g id="g1605" transform="translate(2.475 28.845)">
            <path id="path1607" d="M-309.711-66.82a.806.806,0,0,1-.806-.806V-81.8a2.327,2.327,0,0,1,2.324-2.324H-287a2.327,2.327,0,0,1,2.324,2.324v4.459a.806.806,0,0,1-.806.806.806.806,0,0,1-.806-.806V-81.8a.712.712,0,0,0-.712-.712h-21.2a.712.712,0,0,0-.712.712v14.175A.806.806,0,0,1-309.711-66.82Z" transform="translate(310.518 84.125)"/>
          </g>
          <g id="g1609" transform="translate(26.709 38.599)">
            <path id="path1611" d="M-9.194-76.1A.806.806,0,0,1-10-76.9v-5.939a.806.806,0,0,1,.806-.806.806.806,0,0,1,.806.806V-76.9A.806.806,0,0,1-9.194-76.1Z" transform="translate(10 83.648)"/>
          </g>
          <g id="g1613" transform="translate(0 44.538)">
            <path id="path1615" d="M-360.519-41.429a.8.8,0,0,1-.51-.182,2.963,2.963,0,0,1-1.091-2.3,2.034,2.034,0,0,1,2.032-2.032h26.733a2.034,2.034,0,0,1,2.032,2.032,2.965,2.965,0,0,1-1.083,2.295.806.806,0,0,1-1.135-.109.806.806,0,0,1,.109-1.135,1.357,1.357,0,0,0,.5-1.05.42.42,0,0,0-.419-.419h-26.733a.42.42,0,0,0-.419.419,1.356,1.356,0,0,0,.5,1.053.806.806,0,0,1,.113,1.135A.805.805,0,0,1-360.519-41.429Z" transform="translate(362.12 45.944)"/>
          </g>
          <g id="g1617" transform="translate(26.319 25.815)">
            <path id="path1619" d="M-76.295-254.886a.806.806,0,0,1-.806-.806v-5.45a2.766,2.766,0,0,1,2.763-2.763h4.025v-6.782a5,5,0,0,0-4.01-4.94l-3.256-.765a8.687,8.687,0,0,1-4.32,3.37.806.806,0,0,1-1.037-.475.806.806,0,0,1,.475-1.036,6.946,6.946,0,0,0,3.777-3.158.806.806,0,0,1,.9-.406l3.813.9a6.592,6.592,0,0,1,5.275,6.515v7.588a.806.806,0,0,1-.806.806h-4.832a1.151,1.151,0,0,0-1.15,1.15v5.45A.806.806,0,0,1-76.295-254.886Z" transform="translate(82.987 278.12)"/>
          </g>
          <g id="g1621" transform="translate(8.356 25.815)">
            <path id="path1623" d="M-127.026-42.929a.8.8,0,0,1-.383-.1,8.431,8.431,0,0,1-3.1-2.818l-3.235.76a5.076,5.076,0,0,0-2.978,1.845.806.806,0,0,1-1.132.14.806.806,0,0,1-.14-1.132,6.675,6.675,0,0,1,3.9-2.427l3.793-.891a.806.806,0,0,1,.9.406,6.689,6.689,0,0,0,2.765,2.7.806.806,0,0,1,.326,1.093A.806.806,0,0,1-127.026-42.929Z" transform="translate(138.167 47.571)"/>
          </g>
          <g id="g1625" transform="translate(26.93 21.783)">
            <path id="path1627" d="M-50.2-54.365a.809.809,0,0,1-.185-.022l-3.6-.845a.806.806,0,0,1-.622-.785V-59.2a.806.806,0,0,1,.806-.806.806.806,0,0,1,.806.806v2.549l2.975.7a.806.806,0,0,1,.6.969A.807.807,0,0,1-50.2-54.365Z" transform="translate(54.607 60.011)"/>
          </g>
          <g id="g1629" transform="translate(15.598 21.718)">
            <path id="path1631" d="M-53.8-4.29a.807.807,0,0,1-.784-.622.806.806,0,0,1,.6-.969l2.975-.7V-9.194A.806.806,0,0,1-50.206-10a.806.806,0,0,1,.806.806v3.252a.806.806,0,0,1-.622.785l-3.6.845A.809.809,0,0,1-53.8-4.29Z" transform="translate(54.61 10)"/>
          </g>
          <g id="g1633" transform="translate(15.915 10.806)">
            <path id="path1635" d="M-2-41.524c-2.128-.024-3.721-1.489-4.884-2.559-.2-.182-.385-.354-.56-.505a7.482,7.482,0,0,1-2.543-5.523L-10-51.483a.806.806,0,0,1,.8-.813.806.806,0,0,1,.813.8l.012,1.361A5.862,5.862,0,0,0-6.393-45.81c.188.162.388.346.6.541,1.025.943,2.3,2.116,3.792,2.133,1.474-.017,2.749-1.19,3.774-2.133.212-.2.412-.379.6-.541a5.868,5.868,0,0,0,1.983-4.336L4.36-55.2a.806.806,0,0,1,.807-.806.806.806,0,0,1,.806.807l-.005,5.071a7.491,7.491,0,0,1-2.543,5.54c-.176.151-.362.323-.56.505C1.7-43.013.109-41.548-2-41.524Z" transform="translate(10 56.007)"/>
          </g>
          <g id="g1637" transform="translate(13.042 0.975)">
            <path id="path1639" d="M-43.147-24.809a7.913,7.913,0,0,1-3.389-.741A.806.806,0,0,1-47-26.281v-3.684a9.938,9.938,0,0,1,.809-3.947.806.806,0,0,1,1.059-.422.806.806,0,0,1,.422,1.059,8.335,8.335,0,0,0-.678,3.31v3.148c4.265,1.577,9.228-2.05,11.939-4.031.439-.321.824-.6,1.143-.817a1.913,1.913,0,0,1,1.449-.292,1.945,1.945,0,0,1,1.249.837,4.819,4.819,0,0,0,2.648,1.862v-.707a8.4,8.4,0,0,0-8.392-8.392H-37a8.368,8.368,0,0,0-5.669,2.2.806.806,0,0,1-1.139-.049.806.806,0,0,1,.049-1.139A9.977,9.977,0,0,1-37-39.969h1.645a10.016,10.016,0,0,1,10,10v1.7a.806.806,0,0,1-.259.592.806.806,0,0,1-.611.212,6.727,6.727,0,0,1-4.732-2.764.343.343,0,0,0-.219-.149.307.307,0,0,0-.235.048c-.305.206-.673.475-1.093.782C-34.919-27.777-38.98-24.809-43.147-24.809Z" transform="translate(47.001 39.969)"/>
          </g>
          <g id="g1641" transform="translate(13.042 13.858)">
            <path id="path1643" d="M-8.437,3.994A.806.806,0,0,1-9.129,3.6,6.137,6.137,0,0,1-10,.448V-9.194A.806.806,0,0,1-9.194-10a.806.806,0,0,1,.806.806V.448a4.524,4.524,0,0,0,.641,2.325.806.806,0,0,1-.277,1.106A.8.8,0,0,1-8.437,3.994Z" transform="translate(10 10)"/>
          </g>
          <g id="g1645" transform="translate(32.327 11.872)">
            <path id="path1647" d="M-9.2-172.174a.8.8,0,0,1-.414-.115.806.806,0,0,1-.277-1.106,4.524,4.524,0,0,0,.641-2.325v-11.627a.806.806,0,0,1,.806-.806.806.806,0,0,1,.806.806v11.627a6.137,6.137,0,0,1-.871,3.153A.806.806,0,0,1-9.2-172.174Z" transform="translate(10.001 188.153)"/>
          </g>
          <g id="g1649" transform="translate(38.993 40.029)">
            <path id="path1651" d="M-9.194-92.833A.806.806,0,0,1-10-93.64v-7.407a.806.806,0,0,1,.806-.806.806.806,0,0,1,.806.806v7.407A.806.806,0,0,1-9.194-92.833Z" transform="translate(10 101.853)"/>
          </g>
          <g id="g1653" transform="translate(38.423 6.963)">
            <path id="path1655" d="M-187.623-102.964a8.312,8.312,0,0,1,8.3,8.3,8.312,8.312,0,0,1-8.3,8.3,8.312,8.312,0,0,1-8.3-8.3A8.312,8.312,0,0,1-187.623-102.964Zm0,14.993a6.7,6.7,0,0,0,6.69-6.69,6.7,6.7,0,0,0-6.69-6.69,6.7,6.7,0,0,0-6.69,6.69A6.7,6.7,0,0,0-187.623-87.971Z" transform="translate(195.926 102.964)"/>
          </g>
        </g>
      </g>
    </g>
    <path id="Trazado_876395" data-name="Trazado 876395" d="M10,0H158a10,10,0,0,1,10,10V122a10,10,0,0,1-10,10H10A10,10,0,0,1,0,122V10A10,10,0,0,1,10,0Z" transform="translate(-2647.76 -10790.598)" fill="#fed8cc"/>
    <path id="Trazado_876396" data-name="Trazado 876396" d="M7.817,16.627h5.37V19H4.732V6.2H7.817ZM19.708,19a3.344,3.344,0,0,1-.281-.853,2.754,2.754,0,0,1-2.285,1.028,3.374,3.374,0,0,1-2.285-.813,2.588,2.588,0,0,1-.94-2.043,2.66,2.66,0,0,1,1.143-2.338,5.821,5.821,0,0,1,3.322-.791H19.3v-.5q0-1.316-1.134-1.316a.927.927,0,0,0-1.055,1.042H14.145a2.655,2.655,0,0,1,1.173-2.239,4.931,4.931,0,0,1,2.993-.86,4.323,4.323,0,0,1,2.874.888,3.086,3.086,0,0,1,1.081,2.435v4.21a4.311,4.311,0,0,0,.4,2V19Zm-1.854-1.934a1.652,1.652,0,0,0,.918-.237,1.487,1.487,0,0,0,.523-.536V14.772h-.861q-1.547,0-1.547,1.389a.848.848,0,0,0,.272.655A.986.986,0,0,0,17.854,17.066Zm14.555-.176a1.317,1.317,0,0,0,.967-.338,1.241,1.241,0,0,0,.334-.945h2.777a3.288,3.288,0,0,1-1.121,2.566,4.168,4.168,0,0,1-2.887,1,4.22,4.22,0,0,1-3.27-1.3,5.125,5.125,0,0,1-1.2-3.6v-.123a5.792,5.792,0,0,1,.532-2.544,3.872,3.872,0,0,1,1.534-1.7,4.573,4.573,0,0,1,2.373-.593A4.116,4.116,0,0,1,35.4,10.343a3.647,3.647,0,0,1,1.09,2.786H33.709A1.626,1.626,0,0,0,33.349,12a1.244,1.244,0,0,0-.967-.4q-1.151,0-1.345,1.468a10.357,10.357,0,0,0-.062,1.283,4.068,4.068,0,0,0,.343,1.986A1.187,1.187,0,0,0,32.409,16.891Zm4.957-2.733a5.613,5.613,0,0,1,.554-2.536A3.96,3.96,0,0,1,39.51,9.912a4.791,4.791,0,0,1,2.435-.6,4.373,4.373,0,0,1,3.366,1.323,5.076,5.076,0,0,1,1.23,3.6v.105a4.925,4.925,0,0,1-1.235,3.529,4.384,4.384,0,0,1-3.344,1.305A4.434,4.434,0,0,1,38.7,17.958a4.761,4.761,0,0,1-1.327-3.3Zm2.962.185a3.538,3.538,0,0,0,.413,1.934,1.376,1.376,0,0,0,1.222.615q1.582,0,1.617-2.435v-.3q0-2.558-1.635-2.558-1.485,0-1.608,2.206ZM50.646,9.49l.1,1.116a3.27,3.27,0,0,1,2.716-1.292,2.407,2.407,0,0,1,2.435,1.433,3.165,3.165,0,0,1,2.795-1.433q2.892,0,2.971,3.5V19H58.688V13a1.813,1.813,0,0,0-.246-1.063,1.048,1.048,0,0,0-.9-.334,1.4,1.4,0,0,0-1.31.782l.009.123V19H53.274V13.015a1.906,1.906,0,0,0-.237-1.081,1.045,1.045,0,0,0-.905-.334,1.42,1.42,0,0,0-1.3.782V19H47.869V9.49Zm18.369,8.481a3.054,3.054,0,0,1-2.54,1.2,3,3,0,0,1-2.369-.91,3.826,3.826,0,0,1-.8-2.615V9.49h2.962v6.179a1.065,1.065,0,0,0,1.187,1.222,1.548,1.548,0,0,0,1.45-.729V9.49H71.88V19H69.1ZM76.222,9.49l.1,1.116a3.225,3.225,0,0,1,2.716-1.292,2.713,2.713,0,0,1,2.219.888,4.226,4.226,0,0,1,.76,2.672V19H79.043V13a1.6,1.6,0,0,0-.29-1.059A1.342,1.342,0,0,0,77.7,11.6a1.413,1.413,0,0,0-1.292.686V19H73.445V9.49ZM86.778,19H83.807V9.49h2.971ZM83.631,7.038A1.322,1.322,0,0,1,84.088,6a1.943,1.943,0,0,1,2.373,0,1.322,1.322,0,0,1,.457,1.037,1.322,1.322,0,0,1-.457,1.037,1.943,1.943,0,0,1-2.373,0A1.322,1.322,0,0,1,83.631,7.038Zm8.991,9.853a1.317,1.317,0,0,0,.967-.338,1.241,1.241,0,0,0,.334-.945H96.7a3.288,3.288,0,0,1-1.121,2.566,4.168,4.168,0,0,1-2.887,1,4.22,4.22,0,0,1-3.27-1.3,5.125,5.125,0,0,1-1.2-3.6v-.123A5.792,5.792,0,0,1,88.76,11.6a3.872,3.872,0,0,1,1.534-1.7,4.573,4.573,0,0,1,2.373-.593,4.116,4.116,0,0,1,2.944,1.028,3.647,3.647,0,0,1,1.09,2.786H93.923A1.626,1.626,0,0,0,93.563,12a1.244,1.244,0,0,0-.967-.4q-1.151,0-1.345,1.468a10.357,10.357,0,0,0-.062,1.283,4.068,4.068,0,0,0,.343,1.986A1.187,1.187,0,0,0,92.623,16.891ZM103.31,19a3.344,3.344,0,0,1-.281-.853,2.754,2.754,0,0,1-2.285,1.028,3.374,3.374,0,0,1-2.285-.813,2.588,2.588,0,0,1-.94-2.043,2.66,2.66,0,0,1,1.143-2.338,5.821,5.821,0,0,1,3.322-.791h.914v-.5q0-1.316-1.134-1.316a.927.927,0,0,0-1.055,1.042H97.747a2.655,2.655,0,0,1,1.173-2.239,4.931,4.931,0,0,1,2.993-.86,4.323,4.323,0,0,1,2.874.888,3.086,3.086,0,0,1,1.081,2.435v4.21a4.311,4.311,0,0,0,.4,2V19Zm-1.854-1.934a1.652,1.652,0,0,0,.918-.237,1.487,1.487,0,0,0,.523-.536V14.772h-.861q-1.547,0-1.547,1.389a.848.848,0,0,0,.272.655A.986.986,0,0,0,101.456,17.066Zm10.072-.176a1.317,1.317,0,0,0,.967-.338,1.241,1.241,0,0,0,.334-.945h2.777a3.288,3.288,0,0,1-1.121,2.566,4.168,4.168,0,0,1-2.887,1,4.22,4.22,0,0,1-3.27-1.3,5.125,5.125,0,0,1-1.2-3.6v-.123a5.792,5.792,0,0,1,.532-2.544,3.872,3.872,0,0,1,1.534-1.7,4.573,4.573,0,0,1,2.373-.593,4.116,4.116,0,0,1,2.944,1.028,3.647,3.647,0,0,1,1.09,2.786h-2.777a1.626,1.626,0,0,0-.36-1.134,1.244,1.244,0,0,0-.967-.4q-1.151,0-1.345,1.468a10.357,10.357,0,0,0-.062,1.283,4.068,4.068,0,0,0,.343,1.986A1.187,1.187,0,0,0,111.528,16.891ZM119.983,19h-2.971V9.49h2.971ZM116.836,7.038A1.322,1.322,0,0,1,117.293,6a1.943,1.943,0,0,1,2.373,0,1.322,1.322,0,0,1,.457,1.037,1.322,1.322,0,0,1-.457,1.037,1.943,1.943,0,0,1-2.373,0A1.322,1.322,0,0,1,116.836,7.038Zm4.6,7.119a5.613,5.613,0,0,1,.554-2.536,3.96,3.96,0,0,1,1.591-1.709,4.791,4.791,0,0,1,2.435-.6,4.373,4.373,0,0,1,3.366,1.323,5.076,5.076,0,0,1,1.23,3.6v.105a4.925,4.925,0,0,1-1.235,3.529,4.384,4.384,0,0,1-3.344,1.305,4.434,4.434,0,0,1-3.261-1.217,4.761,4.761,0,0,1-1.327-3.3Zm2.962.185a3.538,3.538,0,0,0,.413,1.934,1.376,1.376,0,0,0,1.222.615q1.582,0,1.617-2.435v-.3q0-2.558-1.635-2.558-1.485,0-1.608,2.206ZM126.417,5.5h3.129L127.1,8.26l-2.417,0Zm8.218,3.99.1,1.116a3.225,3.225,0,0,1,2.716-1.292,2.713,2.713,0,0,1,2.219.888,4.226,4.226,0,0,1,.76,2.672V19h-2.971V13a1.6,1.6,0,0,0-.29-1.059,1.342,1.342,0,0,0-1.055-.338,1.413,1.413,0,0,0-1.292.686V19h-2.962V9.49Z" transform="translate(-2635.76 -10691.598)" fill="#12263f"/>
    <g id="Grupo_1106492" data-name="Grupo 1106492" transform="translate(-3485.08 -11557.935)">
      <circle id="Elipse_11630" data-name="Elipse 11630" cx="39.5" cy="39.5" r="39.5" transform="translate(882.32 780)" fill="#fd9f81"/>
      <g id="reunion" transform="translate(894.317 792.93)">
        <g id="Grupo_1106490" data-name="Grupo 1106490" transform="translate(0.803 0.864)">
          <g id="Grupo_1106480" data-name="Grupo 1106480" transform="translate(0 5.407)">
            <g id="Grupo_1106460" data-name="Grupo 1106460" transform="translate(2.048 16.204)">
              <path id="Trazado_875641" data-name="Trazado 875641" d="M39.356,220.262H26.935v-5.386a3.011,3.011,0,0,1,3.011-3.011h6.4a3.011,3.011,0,0,1,3.011,3.011v5.386Z" transform="translate(-26.935 -211.865)" fill="#fff6e0"/>
              <path id="Trazado_875642" data-name="Trazado 875642" d="M380.211,220.262H367.79v-5.386a3.011,3.011,0,0,1,3.011-3.011h6.4a3.011,3.011,0,0,1,3.011,3.011v5.386Z" transform="translate(-331.733 -211.865)" fill="#fff6e0"/>
            </g>
            <g id="Grupo_1106468" data-name="Grupo 1106468" transform="translate(5.559)">
              <g id="Grupo_1106463" data-name="Grupo 1106463" transform="translate(0 1.126)">
                <g id="Grupo_1106462" data-name="Grupo 1106462">
                  <g id="Grupo_1106461" data-name="Grupo 1106461">
                    <path id="Trazado_875643" data-name="Trazado 875643" d="M73.251,172.671H60.125v-4.955a5,5,0,0,1,5-5h3.117a5,5,0,0,1,5,5Z" transform="translate(-60.125 -152.833)" fill="#8affb3"/>
                    <path id="Trazado_875644" data-name="Trazado 875644" d="M87.891,80.875h-.009a4.051,4.051,0,0,1-4.051-4.051V73.38a4.051,4.051,0,0,1,4.051-4.051h.009a4.051,4.051,0,0,1,4.051,4.051v3.445A4.051,4.051,0,0,1,87.891,80.875Z" transform="translate(-81.323 -69.329)" fill="#ffcab9"/>
                    <path id="Trazado_875645" data-name="Trazado 875645" d="M104.285,69.329h-.009a4.031,4.031,0,0,0-2.111.593A4.048,4.048,0,0,1,104.1,73.38v3.445a4.048,4.048,0,0,1-1.939,3.457,4.031,4.031,0,0,0,2.111.593h.009a4.051,4.051,0,0,0,4.051-4.051V73.38A4.051,4.051,0,0,0,104.285,69.329Z" transform="translate(-97.718 -69.329)" fill="#fabba7"/>
                  </g>
                </g>
                <path id="Trazado_875646" data-name="Trazado 875646" d="M83.831,75.1V73.388a4.055,4.055,0,1,1,8.11,0Z" transform="translate(-81.323 -69.329)" fill="#828cb3"/>
                <path id="Trazado_875647" data-name="Trazado 875647" d="M104.1,73.388v.894l4.231-.894a4.055,4.055,0,0,0-6.171-3.463A4.057,4.057,0,0,1,104.1,73.388Z" transform="translate(-97.718 -69.329)" fill="#717eb3"/>
              </g>
              <g id="Grupo_1106467" data-name="Grupo 1106467" transform="translate(28.331)">
                <path id="Trazado_875648" data-name="Trazado 875648" d="M412.775,72.586a2.481,2.481,0,0,1-2.481-2.481V61.167a2.481,2.481,0,1,1,4.963,0V70.1A2.481,2.481,0,0,1,412.775,72.586Z" transform="translate(-401.582 -58.686)" fill="#828cb3"/>
                <g id="Grupo_1106466" data-name="Grupo 1106466" transform="translate(0 1.126)">
                  <g id="Grupo_1106465" data-name="Grupo 1106465" transform="translate(0 4.051)">
                    <g id="Grupo_1106464" data-name="Grupo 1106464">
                      <path id="Trazado_875649" data-name="Trazado 875649" d="M341.067,172.671H327.941v-4.955a5,5,0,0,1,5-5h3.117a5,5,0,0,1,5,5v4.955Z" transform="translate(-327.941 -156.884)" fill="#ffea00"/>
                      <path id="Trazado_875650" data-name="Trazado 875650" d="M359.758,107.621v3.445a4.051,4.051,0,0,1-4.051,4.051H355.7a4.051,4.051,0,0,1-4.051-4.051v-3.445Z" transform="translate(-349.14 -107.621)" fill="#ffcab9"/>
                      <path id="Trazado_875651" data-name="Trazado 875651" d="M371.921,107.62v3.445a4.048,4.048,0,0,1-1.939,3.457,4.031,4.031,0,0,0,2.111.593h.009a4.051,4.051,0,0,0,4.051-4.051V107.62h-4.231Z" transform="translate(-365.535 -107.62)" fill="#fabba7"/>
                    </g>
                  </g>
                  <path id="Trazado_875652" data-name="Trazado 875652" d="M351.648,75.1V73.388a4.055,4.055,0,1,1,8.11,0Z" transform="translate(-349.14 -69.329)" fill="#828cb3"/>
                  <path id="Trazado_875653" data-name="Trazado 875653" d="M371.921,73.388v.894l4.231-.894a4.055,4.055,0,0,0-6.171-3.463A4.057,4.057,0,0,1,371.921,73.388Z" transform="translate(-365.535 -69.329)" fill="#717eb3"/>
                </g>
              </g>
            </g>
            <ellipse id="Elipse_11646" data-name="Elipse 11646" cx="26.288" cy="11.375" rx="26.288" ry="11.375" transform="translate(0 16.694)" fill="#cc8b66"/>
            <g id="Grupo_1106479" data-name="Grupo 1106479" transform="translate(2.048 22.9)">
              <g id="Grupo_1106475" data-name="Grupo 1106475" transform="translate(3.511)">
                <g id="Grupo_1106471" data-name="Grupo 1106471">
                  <g id="Grupo_1106470" data-name="Grupo 1106470">
                    <g id="Grupo_1106469" data-name="Grupo 1106469">
                      <path id="Trazado_875654" data-name="Trazado 875654" d="M73.251,378.084l-13.126,4.854v-9.385a5,5,0,0,1,5-5h3.117a5,5,0,0,1,5,5Z" transform="translate(-60.125 -358.67)" fill="#ff59ac"/>
                      <path id="Trazado_875655" data-name="Trazado 875655" d="M87.891,291.663h-.009a4.051,4.051,0,0,1-4.051-4.051v-8.4a4.051,4.051,0,0,1,4.051-4.051h.009a4.051,4.051,0,0,1,4.051,4.051v8.4A4.051,4.051,0,0,1,87.891,291.663Z" transform="translate(-81.323 -275.166)" fill="#828cb3"/>
                      <path id="Trazado_875656" data-name="Trazado 875656" d="M104.285,275.167h-.009a4.031,4.031,0,0,0-2.111.593,4.048,4.048,0,0,1,1.939,3.457v8.4a4.048,4.048,0,0,1-1.939,3.457,4.031,4.031,0,0,0,2.111.593h.009a4.051,4.051,0,0,0,4.051-4.051v-8.4A4.051,4.051,0,0,0,104.285,275.167Z" transform="translate(-97.718 -275.167)" fill="#717eb3"/>
                    </g>
                  </g>
                </g>
                <g id="Grupo_1106474" data-name="Grupo 1106474" transform="translate(28.331)">
                  <g id="Grupo_1106473" data-name="Grupo 1106473">
                    <g id="Grupo_1106472" data-name="Grupo 1106472">
                      <path id="Trazado_875657" data-name="Trazado 875657" d="M341.068,373.554a5,5,0,0,0-5-5h-3.117a5,5,0,0,0-5,5v6.266h13.126Z" transform="translate(-327.942 -358.671)" fill="#87dbff"/>
                      <path id="Trazado_875658" data-name="Trazado 875658" d="M355.708,286.712H355.7a4.051,4.051,0,0,1-4.051-4.051v-3.445a4.051,4.051,0,0,1,4.051-4.051h.009a4.051,4.051,0,0,1,4.051,4.051v3.445A4.051,4.051,0,0,1,355.708,286.712Z" transform="translate(-349.14 -275.166)" fill="#828cb3"/>
                      <path id="Trazado_875659" data-name="Trazado 875659" d="M372.1,275.167h-.009a4.031,4.031,0,0,0-2.111.593,4.048,4.048,0,0,1,1.939,3.457v3.445a4.048,4.048,0,0,1-1.939,3.457,4.031,4.031,0,0,0,2.111.593h.009a4.051,4.051,0,0,0,4.051-4.051v-3.445A4.051,4.051,0,0,0,372.1,275.167Z" transform="translate(-365.535 -275.167)" fill="#717eb3"/>
                    </g>
                  </g>
                </g>
              </g>
              <g id="Grupo_1106478" data-name="Grupo 1106478" transform="translate(0 15.078)">
                <path id="Trazado_875660" data-name="Trazado 875660" d="M39.356,426.892H28.915a1.98,1.98,0,0,1-1.98-1.98v-4.2a3.011,3.011,0,0,1,3.011-3.011h6.4a3.011,3.011,0,0,1,3.011,3.011v6.178Z" transform="translate(-26.935 -417.703)" fill="#fff6e0"/>
                <path id="Trazado_875661" data-name="Trazado 875661" d="M80.12,417.7H75.889a3.011,3.011,0,0,1,3.011,3.011v6.178h4.231v-6.178A3.011,3.011,0,0,0,80.12,417.7Z" transform="translate(-70.71 -417.703)" fill="#fff0cc"/>
                <g id="Grupo_1106476" data-name="Grupo 1106476" transform="translate(12.39 2.574)">
                  <path id="Trazado_875662" data-name="Trazado 875662" d="M144.058,444.943l4.247-2.65a1.552,1.552,0,1,1,1.7,2.6l-5.946,3.762Z" transform="translate(-144.058 -442.036)" fill="#fff6e0"/>
                </g>
                <g id="Grupo_1106477" data-name="Grupo 1106477" transform="translate(29.409 2.574)">
                  <path id="Trazado_875663" data-name="Trazado 875663" d="M311.589,444.943l-4.247-2.65a1.552,1.552,0,1,0-1.7,2.6l5.946,3.762Z" transform="translate(-304.941 -442.036)" fill="#fff6e0"/>
                </g>
                <path id="Trazado_875664" data-name="Trazado 875664" d="M378.231,426.892H367.79v-6.178A3.011,3.011,0,0,1,370.8,417.7h6.4a3.011,3.011,0,0,1,3.011,3.011v4.2A1.98,1.98,0,0,1,378.231,426.892Z" transform="translate(-331.733 -417.703)" fill="#fff6e0"/>
                <path id="Trazado_875665" data-name="Trazado 875665" d="M420.975,417.7h-4.231a3.011,3.011,0,0,1,3.011,3.011v4.2a1.98,1.98,0,0,1-1.98,1.98h4.231a1.98,1.98,0,0,0,1.98-1.98v-4.2A3.011,3.011,0,0,0,420.975,417.7Z" transform="translate(-375.508 -417.703)" fill="#fff0cc"/>
              </g>
            </g>
          </g>
          <g id="Grupo_1106483" data-name="Grupo 1106483" transform="translate(23.738 27.475)">
            <g id="Grupo_1106482" data-name="Grupo 1106482">
              <g id="Grupo_1106481" data-name="Grupo 1106481">
                <path id="Trazado_875666" data-name="Trazado 875666" d="M241.929,272.277a4.976,4.976,0,1,0-3.994,4.882l2.3,1.348v-2.489A4.966,4.966,0,0,0,241.929,272.277Z" transform="translate(-231.97 -267.297)" fill="#fff6e0"/>
              </g>
            </g>
          </g>
          <g id="Grupo_1106489" data-name="Grupo 1106489" transform="translate(18.712)">
            <g id="Grupo_1106486" data-name="Grupo 1106486" transform="translate(0 6.601)">
              <g id="Grupo_1106485" data-name="Grupo 1106485">
                <g id="Grupo_1106484" data-name="Grupo 1106484">
                  <path id="Trazado_875667" data-name="Trazado 875667" d="M184.457,74.95a4.976,4.976,0,1,1,3.994,4.882l-2.3,1.348V78.69A4.967,4.967,0,0,1,184.457,74.95Z" transform="translate(-184.457 -69.97)" fill="#fff6e0"/>
                </g>
              </g>
            </g>
            <g id="Grupo_1106488" data-name="Grupo 1106488" transform="translate(6.673)">
              <g id="Grupo_1106487" data-name="Grupo 1106487">
                <path id="Trazado_875668" data-name="Trazado 875668" d="M257.5,12.552a4.976,4.976,0,1,0-3.994,4.882l2.3,1.348V16.292A4.966,4.966,0,0,0,257.5,12.552Z" transform="translate(-247.542 -7.572)" fill="#ff59ac"/>
              </g>
            </g>
          </g>
        </g>
        <g id="Grupo_1106491" data-name="Grupo 1106491" transform="translate(0.002 0.071)">
          <path id="Trazado_875669" data-name="Trazado 875669" d="M48.582,89.237a5.787,5.787,0,0,0-.342-1.457c5.7-3.182,7.917-7.839,3.884-12.382V71.257a3.809,3.809,0,0,0-3.542-3.795,5.782,5.782,0,0,0-.42-1.649,3.29,3.29,0,0,0,1-2.354V54.523a3.28,3.28,0,0,0-6.029-1.771,4.864,4.864,0,0,0-6.724,4.466v3.445a4.813,4.813,0,0,0,.566,2.269A5.949,5.949,0,0,0,33.9,68.323q-1.437-.164-2.919-.259a.794.794,0,0,0-.1,1.584,41.232,41.232,0,0,1,15.683,3.7c7.467,3.632,8.159,9.055.918,13.035a5.791,5.791,0,0,0-1.942-1.68,4.814,4.814,0,0,0,.565-2.268V78.993a4.849,4.849,0,0,0-9.7,0v3.445a4.813,4.813,0,0,0,.566,2.268A6,6,0,0,0,33.9,90.3a59.4,59.4,0,0,1-13.618,0,5.953,5.953,0,0,0-2.508-5.246V78.993a4.849,4.849,0,0,0-9.7,0v6.061A5.811,5.811,0,0,0,6.7,86.386C-.763,82.27.271,76.725,8.066,73.135a44.448,44.448,0,0,1,16.664-3.56.794.794,0,0,0-.062-1.586c-1.488.058-2.952.17-4.38.333a5.986,5.986,0,0,0-3.08-5.39,4.813,4.813,0,0,0,.566-2.269V57.218a4.849,4.849,0,0,0-9.7.008v3.436a4.812,4.812,0,0,0,.566,2.268A5.805,5.805,0,0,0,5.6,67.463a3.809,3.809,0,0,0-3.542,3.795v4.138C-1.974,79.935.243,84.6,5.942,87.78a5.785,5.785,0,0,0-.34,1.457,3.809,3.809,0,0,0-3.543,3.795v4.2A2.777,2.777,0,0,0,4.832,100H15.241a.669.669,0,0,0,.583-.223l5.789-3.663A2.366,2.366,0,0,0,21.286,92a61.518,61.518,0,0,0,11.569,0,2.366,2.366,0,0,0-.316,4.109l5.946,3.762a.8.8,0,0,0,.424.123H49.35A2.775,2.775,0,0,0,52.116,97.4a.794.794,0,0,0-1.584-.094,1.186,1.186,0,0,1-1.182,1.115H39.7c0-1.34,0-4.055,0-5.385a2.221,2.221,0,0,1,2.218-2.218q3.2,0,6.4,0a2.272,2.272,0,0,1,2.218,2.324.794.794,0,0,0,1.587,0,3.847,3.847,0,0,0-3.542-3.9Zm1.955-17.98v2.688a17.632,17.632,0,0,0-1.924-1.291V69.061A2.22,2.22,0,0,1,50.537,71.257Zm-4.65-18.422a1.69,1.69,0,0,1,1.688,1.688V63.46a1.675,1.675,0,0,1-.273.922,5.793,5.793,0,0,0-1.763-1.45,4.813,4.813,0,0,0,.566-2.269V57.218A4.829,4.829,0,0,0,44.474,53.6,1.687,1.687,0,0,1,45.886,52.835Zm-7.892,7.828V59.584l6.523-1.379v2.458a3.261,3.261,0,0,1-3.257,3.257h-.009A3.261,3.261,0,0,1,37.995,60.663Zm2.191-6.521a3.266,3.266,0,0,1,1.073-.181,3.311,3.311,0,0,1,3.2,2.635l-6.463,1.366v-.735a3.271,3.271,0,0,1,2.192-3.084Zm-4.7,14.385a4.364,4.364,0,0,1,2.474-4.315,4.869,4.869,0,0,0,6.591,0,4.222,4.222,0,0,1,2.474,3.837v3.761A40.139,40.139,0,0,0,35.487,68.528ZM9.664,60.663V59.584l6.523-1.379v2.458A3.261,3.261,0,0,1,12.93,63.92h-.009a3.261,3.261,0,0,1-3.257-3.257Zm2.192-6.521a3.265,3.265,0,0,1,1.073-.181,3.311,3.311,0,0,1,3.2,2.635L9.664,57.962a3.539,3.539,0,0,1,2.192-3.82ZM9.63,64.213a4.869,4.869,0,0,0,6.591,0,4.47,4.47,0,0,1,2.485,4.312,39.37,39.37,0,0,0-11.55,3.287V68.051A4.215,4.215,0,0,1,9.63,64.213ZM5.569,69.061v3.593a17.671,17.671,0,0,0-1.924,1.29V71.257A2.22,2.22,0,0,1,5.569,69.061ZM18.695,89.825V92.41l-2.629,1.64a5.6,5.6,0,0,0-.382-2.679,4.873,4.873,0,0,0,2.089-3.983C18.163,87.519,18.695,88.924,18.695,89.825ZM9.664,78.993a3.262,3.262,0,0,1,6.523,0v8.4a3.277,3.277,0,0,1-1.482,2.73,3.787,3.787,0,0,0-2.444-.892H10.233a3.217,3.217,0,0,1-.569-1.838ZM8.441,89.227H7.2A4.186,4.186,0,0,1,8.077,87.2,5.287,5.287,0,0,0,8.441,89.227Zm-4.8,8v-4.2a2.221,2.221,0,0,1,2.218-2.218h6.4a2.221,2.221,0,0,1,2.218,2.218v5.385H4.832a1.188,1.188,0,0,1-1.187-1.187Zm17.113-2.449-4.691,2.968V95.921l3.842-2.4C20.68,93.034,21.66,94.182,20.757,94.781ZM37.995,78.993a3.262,3.262,0,0,1,6.523,0v3.445a3.261,3.261,0,0,1-3.257,3.257h-.009a3.261,3.261,0,0,1-3.257-3.257ZM33.054,94.149a.772.772,0,0,1,1.188-.626l3.874,2.417v1.828l-4.723-2.988a.756.756,0,0,1-.339-.632Zm5.062-1.117V94.07l-2.629-1.64v-2.6a4.208,4.208,0,0,1,2.474-3.837,4.869,4.869,0,0,0,6.59,0,4.213,4.213,0,0,1,2.431,3.239H41.92A3.809,3.809,0,0,0,38.115,93.032Z" transform="translate(-0.002 -45.841)"/>
          <path id="Trazado_875670" data-name="Trazado 875670" d="M224.469,265.571a5.791,5.791,0,0,0,6.607,5.712l2.049,1.2a.8.8,0,0,0,1.195-.685v-2.145a5.772,5.772,0,1,0-9.851-4.084Zm5.773-4.186A4.2,4.2,0,0,1,233,268.716a.794.794,0,0,0-.27.6v1.1l-1.1-.648c-.388-.227-1.023-.011-1.387-.011a4.186,4.186,0,0,1,0-8.372Z" transform="translate(-200.724 -232.323)"/>
          <path id="Trazado_875671" data-name="Trazado 875671" d="M250.194,309.159a.794.794,0,0,0,0-1.587A.794.794,0,0,0,250.194,309.159Z" transform="translate(-223.042 -275.043)"/>
          <path id="Trazado_875672" data-name="Trazado 875672" d="M272.565,309.159a.794.794,0,0,0,0-1.587A.794.794,0,0,0,272.565,309.159Z" transform="translate(-243.047 -275.043)"/>
          <path id="Trazado_875673" data-name="Trazado 875673" d="M294.935,309.159a.794.794,0,0,0,0-1.587A.794.794,0,0,0,294.935,309.159Z" transform="translate(-263.05 -275.043)"/>
          <path id="Trazado_875674" data-name="Trazado 875674" d="M178.64,18.674a.8.8,0,0,0,1.195.685l2.049-1.2a5.8,5.8,0,0,0,6.535-6.624,5.746,5.746,0,0,0,1.807.023l2.049,1.2a.8.8,0,0,0,1.195-.685V9.928a5.772,5.772,0,1,0-9.779-3.173,5.782,5.782,0,0,0-5.052,9.774v2.145ZM189.392,1.658a4.2,4.2,0,0,1,2.761,7.331.794.794,0,0,0-.27.6v1.1l-1.1-.648a2.65,2.65,0,0,0-1.387-.011,4.186,4.186,0,0,1,0-8.372Zm-10.86,10.787a4.205,4.205,0,0,1,5.773-3.874,5.814,5.814,0,0,0,2.3,2.329,4.2,4.2,0,0,1-3.891,5.731,2.65,2.65,0,0,0-1.387.011l-1.1.648v-1.1a.793.793,0,0,0-.27-.6A4.188,4.188,0,0,1,178.532,12.445Z" transform="translate(-158.226 -0.071)"/>
          <path id="Trazado_875675" data-name="Trazado 875675" d="M202.681,111.832a.794.794,0,0,0,0-1.587A.794.794,0,0,0,202.681,111.832Z" transform="translate(-180.556 -98.59)"/>
          <path id="Trazado_875676" data-name="Trazado 875676" d="M225.051,111.832a.794.794,0,0,0,0-1.587A.794.794,0,0,0,225.051,111.832Z" transform="translate(-200.559 -98.59)"/>
          <path id="Trazado_875677" data-name="Trazado 875677" d="M247.421,111.832a.794.794,0,0,0,0-1.587A.794.794,0,0,0,247.421,111.832Z" transform="translate(-220.563 -98.59)"/>
          <path id="Trazado_875678" data-name="Trazado 875678" d="M275.069,39.079a.793.793,0,0,0,1.122,0l.736-.736.736.736a.794.794,0,0,0,1.122-1.122l-.736-.736.736-.736a.794.794,0,0,0-1.122-1.122l-.736.736-.736-.736a.794.794,0,0,0-1.122,1.122l.736.736-.736.736A.793.793,0,0,0,275.069,39.079Z" transform="translate(-245.761 -31.42)"/>
        </g>
      </g>
    </g>
    <path id="Trazado_876393" data-name="Trazado 876393" d="M10,0H213a10,10,0,0,1,10,10V63a10,10,0,0,1-10,10H10A10,10,0,0,1,0,63V10A10,10,0,0,1,10,0Z" transform="translate(-2675.76 -10893)" fill="#e5f0fc"/>
    <path id="Trazado_876394" data-name="Trazado 876394" d="M17.5,13.391a4.185,4.185,0,0,1-1.332,2.785,4.365,4.365,0,0,1-2.98.98,4.008,4.008,0,0,1-3.23-1.445,5.815,5.815,0,0,1-1.215-3.867V10.75A6.481,6.481,0,0,1,9.3,7.961,4.231,4.231,0,0,1,10.91,6.113a4.47,4.47,0,0,1,2.406-.645A4.11,4.11,0,0,1,16.223,6.48a4.235,4.235,0,0,1,1.273,2.8H15.988a3.268,3.268,0,0,0-.848-1.975A2.565,2.565,0,0,0,13.316,6.7a2.684,2.684,0,0,0-2.254,1.063,4.882,4.882,0,0,0-.816,3.026v1.1a5.018,5.018,0,0,0,.773,2.948,2.5,2.5,0,0,0,2.164,1.095,2.886,2.886,0,0,0,1.918-.566,3.143,3.143,0,0,0,.887-1.973Zm1.438-.7a4.993,4.993,0,0,1,.488-2.234A3.643,3.643,0,0,1,20.781,8.93a3.7,3.7,0,0,1,1.988-.539,3.565,3.565,0,0,1,2.793,1.2,4.6,4.6,0,0,1,1.066,3.18v.1a5.036,5.036,0,0,1-.473,2.215A3.589,3.589,0,0,1,24.8,16.609a3.743,3.743,0,0,1-2.02.547A3.556,3.556,0,0,1,20,15.961,4.575,4.575,0,0,1,18.934,12.8Zm1.453.172a3.616,3.616,0,0,0,.652,2.258,2.211,2.211,0,0,0,3.5-.012,3.955,3.955,0,0,0,.648-2.418,3.61,3.61,0,0,0-.66-2.254,2.1,2.1,0,0,0-1.754-.863,2.075,2.075,0,0,0-1.727.852A3.925,3.925,0,0,0,20.387,12.867ZM29.8,8.547l.039.938a3.122,3.122,0,0,1,2.508-1.094A2.417,2.417,0,0,1,34.762,9.75a3.2,3.2,0,0,1,1.1-.984,3.242,3.242,0,0,1,1.6-.375q2.781,0,2.828,2.945V17H38.84V11.422a1.941,1.941,0,0,0-.414-1.355,1.823,1.823,0,0,0-1.391-.449,1.917,1.917,0,0,0-1.336.48,1.949,1.949,0,0,0-.617,1.293V17H33.629V11.461a1.613,1.613,0,0,0-1.8-1.844,1.934,1.934,0,0,0-1.945,1.211V17H28.434V8.547Zm17.883,7.617a3.07,3.07,0,0,1-2.477.992,2.628,2.628,0,0,1-2.059-.785,3.4,3.4,0,0,1-.715-2.324v-5.5h1.445v5.461q0,1.922,1.563,1.922a2.163,2.163,0,0,0,2.2-1.234V8.547H49.09V17H47.715Zm4.969-7.617L52.7,9.609A3.08,3.08,0,0,1,55.23,8.391q2.68,0,2.7,3.023V17H56.488V11.406a1.946,1.946,0,0,0-.418-1.352,1.675,1.675,0,0,0-1.277-.437,2.086,2.086,0,0,0-1.234.375,2.546,2.546,0,0,0-.828.984V17H51.285V8.547ZM61.684,17H60.238V8.547h1.445ZM60.121,6.3a.863.863,0,0,1,.215-.594.807.807,0,0,1,.637-.242.819.819,0,0,1,.641.242.854.854,0,0,1,.219.594.826.826,0,0,1-.219.586.834.834,0,0,1-.641.234.821.821,0,0,1-.637-.234A.834.834,0,0,1,60.121,6.3Zm7.266,9.672a2.082,2.082,0,0,0,1.352-.469,1.649,1.649,0,0,0,.641-1.172h1.367a2.621,2.621,0,0,1-.5,1.383,3.293,3.293,0,0,1-1.23,1.047,3.55,3.55,0,0,1-1.629.391A3.482,3.482,0,0,1,64.641,16a4.59,4.59,0,0,1-1.02-3.152v-.242a5.089,5.089,0,0,1,.453-2.2,3.451,3.451,0,0,1,1.3-1.492,3.7,3.7,0,0,1,2-.531,3.39,3.39,0,0,1,2.363.852,3.043,3.043,0,0,1,1,2.211H69.379a1.992,1.992,0,0,0-.621-1.348,1.932,1.932,0,0,0-1.379-.527,2.023,2.023,0,0,0-1.707.793,3.724,3.724,0,0,0-.605,2.293v.273a3.65,3.65,0,0,0,.6,2.25A2.033,2.033,0,0,0,67.387,15.977ZM77.59,17a3.036,3.036,0,0,1-.2-.891,3.225,3.225,0,0,1-2.406,1.047,2.984,2.984,0,0,1-2.051-.707,2.288,2.288,0,0,1-.8-1.793,2.39,2.39,0,0,1,1-2.051,4.733,4.733,0,0,1,2.824-.73h1.406v-.664A1.623,1.623,0,0,0,76.91,10a1.821,1.821,0,0,0-1.336-.449,2.108,2.108,0,0,0-1.3.391,1.151,1.151,0,0,0-.523.945H72.3a2,2,0,0,1,.449-1.223,3.066,3.066,0,0,1,1.219-.934,4.1,4.1,0,0,1,1.691-.344,3.342,3.342,0,0,1,2.289.73,2.635,2.635,0,0,1,.859,2.012v3.891a4.757,4.757,0,0,0,.3,1.852V17Zm-2.4-1.1a2.54,2.54,0,0,0,1.289-.352,2.127,2.127,0,0,0,.883-.914V12.9H76.23q-2.656,0-2.656,1.555a1.316,1.316,0,0,0,.453,1.063A1.742,1.742,0,0,0,75.191,15.9Zm9.273.078a2.082,2.082,0,0,0,1.352-.469,1.649,1.649,0,0,0,.641-1.172h1.367a2.621,2.621,0,0,1-.5,1.383,3.293,3.293,0,0,1-1.23,1.047,3.55,3.55,0,0,1-1.629.391A3.482,3.482,0,0,1,81.719,16a4.59,4.59,0,0,1-1.02-3.152v-.242a5.089,5.089,0,0,1,.453-2.2,3.451,3.451,0,0,1,1.3-1.492,3.7,3.7,0,0,1,2-.531,3.39,3.39,0,0,1,2.363.852,3.043,3.043,0,0,1,1,2.211H86.457a1.992,1.992,0,0,0-.621-1.348,1.932,1.932,0,0,0-1.379-.527,2.023,2.023,0,0,0-1.707.793,3.724,3.724,0,0,0-.605,2.293v.273a3.65,3.65,0,0,0,.6,2.25A2.033,2.033,0,0,0,84.465,15.977ZM91.02,17H89.574V8.547H91.02ZM89.457,6.3a.863.863,0,0,1,.215-.594.807.807,0,0,1,.637-.242.819.819,0,0,1,.641.242.854.854,0,0,1,.219.594.826.826,0,0,1-.219.586.834.834,0,0,1-.641.234.821.821,0,0,1-.637-.234A.834.834,0,0,1,89.457,6.3ZM92.949,12.7a4.993,4.993,0,0,1,.488-2.234A3.643,3.643,0,0,1,94.8,8.93a3.7,3.7,0,0,1,1.988-.539,3.565,3.565,0,0,1,2.793,1.2,4.6,4.6,0,0,1,1.066,3.18v.1a5.036,5.036,0,0,1-.473,2.215,3.589,3.589,0,0,1-1.352,1.527,3.743,3.743,0,0,1-2.02.547,3.556,3.556,0,0,1-2.785-1.2A4.575,4.575,0,0,1,92.949,12.8Zm1.453.172a3.616,3.616,0,0,0,.652,2.258,2.211,2.211,0,0,0,3.5-.012A3.955,3.955,0,0,0,99.2,12.7a3.61,3.61,0,0,0-.66-2.254,2.1,2.1,0,0,0-1.754-.863,2.075,2.075,0,0,0-1.727.852A3.925,3.925,0,0,0,94.4,12.867ZM97.441,5h1.75L97.1,7.3l-1.164,0Zm6.383,3.547.047,1.063A3.08,3.08,0,0,1,106.4,8.391q2.68,0,2.7,3.023V17H107.66V11.406a1.946,1.946,0,0,0-.418-1.352,1.675,1.675,0,0,0-1.277-.437,2.086,2.086,0,0,0-1.234.375,2.546,2.546,0,0,0-.828.984V17h-1.445V8.547ZM36.984,41H35.539V32.547h1.445ZM35.422,30.3a.863.863,0,0,1,.215-.594.807.807,0,0,1,.637-.242.819.819,0,0,1,.641.242.854.854,0,0,1,.219.594.826.826,0,0,1-.219.586.834.834,0,0,1-.641.234.821.821,0,0,1-.637-.234A.834.834,0,0,1,35.422,30.3Zm5.242,2.242.047,1.063a3.08,3.08,0,0,1,2.531-1.219q2.68,0,2.7,3.023V41H44.5V35.406a1.946,1.946,0,0,0-.418-1.352,1.675,1.675,0,0,0-1.277-.437,2.086,2.086,0,0,0-1.234.375,2.546,2.546,0,0,0-.828.984V41H39.3V32.547ZM50.086,30.5v2.047h1.578v1.117H50.086v5.249a1.173,1.173,0,0,0,.211.763.888.888,0,0,0,.719.254,3.5,3.5,0,0,0,.688-.094V41a4.215,4.215,0,0,1-1.109.155,1.8,1.8,0,0,1-1.461-.586,2.517,2.517,0,0,1-.492-1.664V33.664H47.1V32.547h1.539V30.5Zm6.773,10.656a3.693,3.693,0,0,1-2.8-1.129,4.19,4.19,0,0,1-1.078-3.02v-.266a5.073,5.073,0,0,1,.48-2.246,3.748,3.748,0,0,1,1.344-1.547,3.378,3.378,0,0,1,1.871-.559,3.166,3.166,0,0,1,2.563,1.086,4.7,4.7,0,0,1,.914,3.109v.6H54.43a3,3,0,0,0,.73,2.02,2.3,2.3,0,0,0,1.777.77,2.517,2.517,0,0,0,1.3-.312,3.258,3.258,0,0,0,.93-.828l.883.688A3.55,3.55,0,0,1,56.859,41.156Zm-.18-7.578a1.928,1.928,0,0,0-1.469.637A3.1,3.1,0,0,0,54.477,36h4.234v-.109a2.753,2.753,0,0,0-.594-1.707A1.815,1.815,0,0,0,56.68,33.578Zm9.234.266a4.331,4.331,0,0,0-.711-.055A1.9,1.9,0,0,0,63.273,35v6H61.828V32.547h1.406l.023.977a2.251,2.251,0,0,1,2.016-1.133,1.477,1.477,0,0,1,.641.109Zm2.7-1.3.047,1.063a3.08,3.08,0,0,1,2.531-1.219q2.68,0,2.7,3.023V41H72.445V35.406a1.946,1.946,0,0,0-.418-1.352,1.675,1.675,0,0,0-1.277-.437,2.086,2.086,0,0,0-1.234.375,2.546,2.546,0,0,0-.828.984V41H67.242V32.547ZM81.289,41a3.036,3.036,0,0,1-.2-.891,3.225,3.225,0,0,1-2.406,1.047,2.984,2.984,0,0,1-2.051-.707,2.288,2.288,0,0,1-.8-1.793,2.39,2.39,0,0,1,1-2.051,4.733,4.733,0,0,1,2.824-.73h1.406v-.664A1.623,1.623,0,0,0,80.609,34a1.821,1.821,0,0,0-1.336-.449,2.107,2.107,0,0,0-1.3.391,1.151,1.151,0,0,0-.523.945H76a2,2,0,0,1,.449-1.223,3.066,3.066,0,0,1,1.219-.934,4.1,4.1,0,0,1,1.691-.344,3.342,3.342,0,0,1,2.289.73,2.635,2.635,0,0,1,.859,2.012v3.891a4.757,4.757,0,0,0,.3,1.852V41Zm-2.4-1.1a2.54,2.54,0,0,0,1.289-.352,2.127,2.127,0,0,0,.883-.914V36.9H79.93q-2.656,0-2.656,1.555a1.316,1.316,0,0,0,.453,1.063A1.742,1.742,0,0,0,78.891,39.9Z" transform="translate(-2581.76 -10871)" fill="#12263f"/>
    <g id="Grupo_1106498" data-name="Grupo 1106498" transform="translate(-3737.08 -11534.337)">
      <circle id="Elipse_11633" data-name="Elipse 11633" cx="39.5" cy="39.5" r="39.5" transform="translate(1074.32 615.337)" fill="#7bb5f2"/>
      <g id="social_media" data-name="social media" transform="translate(1089.483 630.163)">
        <path id="Trazado_875707" data-name="Trazado 875707" d="M52.3,57l.746,3.045H47.09L47.836,57Z" transform="translate(-10.766 -13.132)" fill="#898890"/>
        <rect id="Rectngulo_403110" data-name="Rectngulo 403110" width="9" height="15" rx="2" transform="translate(34.837 2.836)" fill="#00d7df"/>
        <path id="Trazado_875708" data-name="Trazado 875708" d="M56.225,53v1.522A1.527,1.527,0,0,1,54.7,56.045H42.522A1.527,1.527,0,0,1,41,54.522V53Z" transform="translate(-9.312 -12.177)" fill="#57a4ff"/>
        <path id="Trazado_875709" data-name="Trazado 875709" d="M56.225,44.522v6.09H41v-6.09A1.527,1.527,0,0,1,42.522,43H54.7A1.527,1.527,0,0,1,56.225,44.522Z" transform="translate(-9.312 -9.79)" fill="#00d7df"/>
        <g id="Grupo_1106497" data-name="Grupo 1106497" transform="translate(2.761 10.374)">
          <path id="Trazado_875710" data-name="Trazado 875710" d="M40.658,30.25H37.1a12.367,12.367,0,0,0-.723-4.324,7.468,7.468,0,0,0,1.835-1.256A7.55,7.55,0,0,1,40.658,30.25Z" transform="translate(-10.97 -15.786)" fill="#57a4ff"/>
          <path id="Trazado_875711" data-name="Trazado 875711" d="M37.1,32h3.555a7.55,7.55,0,0,1-2.444,5.58,7.468,7.468,0,0,0-1.835-1.256A12.367,12.367,0,0,0,37.1,32Z" transform="translate(-10.97 -17.537)" fill="#57a4ff"/>
          <path id="Trazado_875712" data-name="Trazado 875712" d="M36.057,30.644H32V27.089a7.532,7.532,0,0,0,3.334-.769,12.367,12.367,0,0,1,.723,4.324Z" transform="translate(-9.924 -16.18)" fill="#57a4ff"/>
          <path id="Trazado_875713" data-name="Trazado 875713" d="M32,32h4.057a12.367,12.367,0,0,1-.723,4.324A7.532,7.532,0,0,0,32,35.555Z" transform="translate(-9.924 -17.537)" fill="#57a4ff"/>
          <path id="Trazado_875714" data-name="Trazado 875714" d="M37.236,24.035A7.468,7.468,0,0,1,35.4,25.291c-.685-1.888-1.827-3.151-3.121-3.281A7.522,7.522,0,0,1,37.236,24.035Z" transform="translate(-9.991 -15.151)" fill="#57a4ff"/>
          <path id="Trazado_875715" data-name="Trazado 875715" d="M35.4,37.68a7.468,7.468,0,0,1,1.835,1.256,7.522,7.522,0,0,1-4.956,2.025c1.294-.129,2.436-1.393,3.121-3.281Z" transform="translate(-9.991 -18.893)" fill="#57a4ff"/>
          <path id="Trazado_875716" data-name="Trazado 875716" d="M35.334,25.288A7.532,7.532,0,0,1,32,26.057V22a2.067,2.067,0,0,1,.213.008c1.294.129,2.436,1.393,3.121,3.281Z" transform="translate(-9.924 -15.149)" fill="#57a4ff"/>
          <path id="Trazado_875717" data-name="Trazado 875717" d="M32,36.67a7.532,7.532,0,0,1,3.334.769c-.685,1.888-1.827,3.151-3.121,3.281a2.067,2.067,0,0,1-.213.008Z" transform="translate(-9.924 -18.652)" fill="#57a4ff"/>
          <path id="Trazado_875718" data-name="Trazado 875718" d="M30.954,36.67v4.057a2.067,2.067,0,0,1-.213-.008c-1.294-.129-2.436-1.393-3.121-3.281a7.532,7.532,0,0,1,3.334-.769Z" transform="translate(-8.879 -18.652)" fill="#57a4ff"/>
          <path id="Trazado_875719" data-name="Trazado 875719" d="M30.727,32v3.555a7.532,7.532,0,0,0-3.334.769A12.367,12.367,0,0,1,26.67,32Z" transform="translate(-8.651 -17.537)" fill="#57a4ff"/>
          <path id="Trazado_875720" data-name="Trazado 875720" d="M30.727,27.089v3.555H26.67a12.367,12.367,0,0,1,.723-4.324,7.532,7.532,0,0,0,3.334.769Z" transform="translate(-8.651 -16.18)" fill="#57a4ff"/>
          <path id="Trazado_875721" data-name="Trazado 875721" d="M30.954,22v4.057a7.532,7.532,0,0,1-3.334-.769c.685-1.888,1.827-3.151,3.121-3.281A2.067,2.067,0,0,1,30.954,22Z" transform="translate(-8.879 -15.149)" fill="#57a4ff"/>
          <path id="Trazado_875722" data-name="Trazado 875722" d="M30.166,22.01c-1.294.129-2.436,1.393-3.121,3.281a7.468,7.468,0,0,1-1.835-1.256,7.522,7.522,0,0,1,4.956-2.025Z" transform="translate(-8.303 -15.151)" fill="#57a4ff"/>
          <path id="Trazado_875723" data-name="Trazado 875723" d="M27.045,37.68c.685,1.888,1.827,3.151,3.121,3.281a7.522,7.522,0,0,1-4.956-2.025,7.468,7.468,0,0,1,1.835-1.256Z" transform="translate(-8.303 -18.893)" fill="#57a4ff"/>
          <path id="Trazado_875724" data-name="Trazado 875724" d="M26.278,25.926a12.367,12.367,0,0,0-.723,4.324H22a7.55,7.55,0,0,1,2.444-5.58A7.468,7.468,0,0,0,26.278,25.926Z" transform="translate(-7.537 -15.786)" fill="#57a4ff"/>
          <path id="Trazado_875725" data-name="Trazado 875725" d="M25.555,32a12.367,12.367,0,0,0,.723,4.324,7.468,7.468,0,0,0-1.835,1.256A7.55,7.55,0,0,1,22,32Z" transform="translate(-7.537 -17.537)" fill="#57a4ff"/>
          <path id="Trazado_875726" data-name="Trazado 875726" d="M18.225,13v1.522A1.527,1.527,0,0,1,16.7,16.045H4.522A1.527,1.527,0,0,1,3,14.522V13Z" transform="translate(-3 -13)" fill="#57a4ff"/>
        </g>
        <path id="Trazado_875727" data-name="Trazado 875727" d="M18.225,4.522v6.09H3V4.522A1.527,1.527,0,0,1,4.522,3H16.7a1.527,1.527,0,0,1,1.522,1.522Z" transform="translate(-0.239 -0.239)" fill="#00d7df"/>
        <rect id="Rectngulo_403111" data-name="Rectngulo 403111" width="9" height="15" rx="2" transform="translate(5.837 31.836)" fill="#00d7df"/>
        <path id="Trazado_875728" data-name="Trazado 875728" d="M17.567,42.522V54.7a1.527,1.527,0,0,1-1.522,1.522H13A1.527,1.527,0,0,0,14.522,54.7V42.522A1.527,1.527,0,0,0,13,41h3.045a1.527,1.527,0,0,1,1.522,1.522Z" transform="translate(-2.626 -9.312)" fill="#009698"/>
        <path id="Trazado_875729" data-name="Trazado 875729" d="M55.567,4.522V16.7a1.527,1.527,0,0,1-1.522,1.522H51A1.527,1.527,0,0,0,52.522,16.7V4.522A1.527,1.527,0,0,0,51,3h3.045a1.527,1.527,0,0,1,1.522,1.522Z" transform="translate(-11.7 -0.239)" fill="#009698"/>
        <path id="Trazado_875730" data-name="Trazado 875730" d="M14.567,41v.761a1.527,1.527,0,0,1-1.522,1.522H11.522A1.527,1.527,0,0,1,10,41.761V41Z" transform="translate(-1.91 -9.312)" fill="#ffde55"/>
        <path id="Trazado_875731" data-name="Trazado 875731" d="M52.567,3v.761a1.527,1.527,0,0,1-1.522,1.522H49.522A1.527,1.527,0,0,1,48,3.761V3Z" transform="translate(-10.983 -0.239)" fill="#ffde55"/>
        <path id="Trazado_875732" data-name="Trazado 875732" d="M59.567,53v1.522a1.527,1.527,0,0,1-1.522,1.522H55a1.527,1.527,0,0,0,1.522-1.522V53Z" transform="translate(-12.655 -12.177)" fill="#006df0"/>
        <path id="Trazado_875733" data-name="Trazado 875733" d="M59.567,44.522v6.09H56.522v-6.09A1.527,1.527,0,0,0,55,43h3.045A1.527,1.527,0,0,1,59.567,44.522Z" transform="translate(-12.655 -9.79)" fill="#009698"/>
        <path id="Trazado_875734" data-name="Trazado 875734" d="M53.96,60.045H51.676L50.93,57h2.284Z" transform="translate(-11.683 -13.132)" fill="#2d2d30"/>
        <path id="Trazado_875735" data-name="Trazado 875735" d="M14.3,17l.746,3.045H9.09L9.836,17Z" transform="translate(-1.693 -3.582)" fill="#898890"/>
        <path id="Trazado_875736" data-name="Trazado 875736" d="M21.567,13v1.522a1.527,1.527,0,0,1-1.522,1.522H17a1.527,1.527,0,0,0,1.522-1.522V13Z" transform="translate(-3.582 -2.626)" fill="#006df0"/>
        <path id="Trazado_875737" data-name="Trazado 875737" d="M21.567,4.522v6.09H18.522V4.522A1.527,1.527,0,0,0,17,3h3.045a1.527,1.527,0,0,1,1.522,1.522Z" transform="translate(-3.582 -0.239)" fill="#009698"/>
        <path id="Trazado_875738" data-name="Trazado 875738" d="M15.96,20.045H13.676L12.93,17h2.284Z" transform="translate(-2.61 -3.582)" fill="#2d2d30"/>
        <path id="Trazado_875739" data-name="Trazado 875739" d="M14.374,40H8.284A2.291,2.291,0,0,0,6,42.284v12.18a2.291,2.291,0,0,0,2.284,2.284h6.09a2.291,2.291,0,0,0,2.284-2.284V42.284A2.291,2.291,0,0,0,14.374,40Zm-1.522,1.522a.761.761,0,0,1-.761.761H10.567a.761.761,0,0,1-.761-.761Zm2.284,12.941a.761.761,0,0,1-.761.761H8.284a.761.761,0,0,1-.761-.761V42.284a.761.761,0,0,1,.761-.761,2.291,2.291,0,0,0,2.284,2.284H12.09a2.291,2.291,0,0,0,2.284-2.284.761.761,0,0,1,.761.761Z" transform="translate(-0.955 -9.073)"/>
        <path id="Trazado_875740" data-name="Trazado 875740" d="M52.374,2h-6.09A2.291,2.291,0,0,0,44,4.284v12.18a2.291,2.291,0,0,0,2.284,2.284h6.09a2.291,2.291,0,0,0,2.284-2.284V4.284A2.291,2.291,0,0,0,52.374,2ZM50.851,3.522a.761.761,0,0,1-.761.761H48.567a.761.761,0,0,1-.761-.761Zm2.284,12.941a.761.761,0,0,1-.761.761h-6.09a.761.761,0,0,1-.761-.761V4.284a.761.761,0,0,1,.761-.761,2.291,2.291,0,0,0,2.284,2.284H50.09a2.291,2.291,0,0,0,2.284-2.284.761.761,0,0,1,.761.761Z" transform="translate(-10.028 0)"/>
        <path id="Trazado_875741" data-name="Trazado 875741" d="M54.463,42H42.284A2.291,2.291,0,0,0,40,44.284V51.9a2.291,2.291,0,0,0,2.284,2.284h2.885l-.51,2.1a.748.748,0,0,0,.137.655.761.761,0,0,0,.6.289H51.35a.761.761,0,0,0,.6-.289.748.748,0,0,0,.137-.655l-.51-2.1h2.885A2.291,2.291,0,0,0,56.747,51.9V44.284A2.291,2.291,0,0,0,54.463,42Zm-8.1,13.7.373-1.522H50.01l.373,1.522ZM55.225,51.9a.761.761,0,0,1-.761.761H42.284a.761.761,0,0,1-.761-.761v-.761h13.7Zm0-2.284h-13.7V44.284a.761.761,0,0,1,.761-.761h12.18a.761.761,0,0,1,.761.761Z" transform="translate(-9.073 -9.551)"/>
        <path id="Trazado_875742" data-name="Trazado 875742" d="M16.463,2H4.284A2.291,2.291,0,0,0,2,4.284V11.9A2.291,2.291,0,0,0,4.284,14.18H7.169l-.51,2.1a.748.748,0,0,0,.137.655.761.761,0,0,0,.6.289H13.35a.761.761,0,0,0,.6-.289.748.748,0,0,0,.137-.655l-.51-2.1h2.885A2.291,2.291,0,0,0,18.747,11.9V4.284A2.291,2.291,0,0,0,16.463,2Zm-8.1,13.7.373-1.522H12.01l.373,1.522ZM17.225,11.9a.761.761,0,0,1-.761.761H4.284a.761.761,0,0,1-.761-.761v-.761h13.7Zm0-2.284H3.522V4.284a.761.761,0,0,1,.761-.761h12.18a.761.761,0,0,1,.761.761Z"/>
        <path id="Trazado_875743" data-name="Trazado 875743" d="M17.329,27.806H14.284a.761.761,0,0,1-.761-.761V24H12v3.045a2.284,2.284,0,0,0,2.284,2.284h3.045Z" transform="translate(-2.388 -5.253)"/>
        <path id="Trazado_875744" data-name="Trazado 875744" d="M12,35.284v1.522h1.522V35.284a.761.761,0,0,1,.761-.761h3.045V33H14.284A2.284,2.284,0,0,0,12,35.284Z" transform="translate(-2.388 -7.402)"/>
        <path id="Trazado_875745" data-name="Trazado 875745" d="M50.329,38.329V35.284A2.284,2.284,0,0,0,48.045,33H45v1.522h3.045a.761.761,0,0,1,.761.761v3.045Z" transform="translate(-10.267 -7.402)"/>
        <path id="Trazado_875746" data-name="Trazado 875746" d="M50.329,26H48.806v1.522a.761.761,0,0,1-.761.761H45v1.522h3.045a2.284,2.284,0,0,0,2.284-2.284Z" transform="translate(-10.267 -5.73)"/>
        <path id="Trazado_875747" data-name="Trazado 875747" d="M29.374,21a8.374,8.374,0,1,0,8.374,8.374A8.374,8.374,0,0,0,29.374,21Zm6.806,7.612H34.173a13.419,13.419,0,0,0-.533-3.2,8.363,8.363,0,0,0,.853-.575A6.821,6.821,0,0,1,36.18,28.612Zm-6.045-5.869a4.207,4.207,0,0,1,1.573,1.9,6.813,6.813,0,0,1-1.573.367Zm2.68.716c.177.1.349.213.515.332-.083.059-.166.12-.251.175-.084-.175-.172-.345-.264-.507Zm-4.2-.716v2.27a6.813,6.813,0,0,1-1.573-.368,4.207,4.207,0,0,1,1.573-1.9Zm-2.944,1.226c-.085-.056-.168-.116-.251-.175.167-.119.339-.228.515-.332C25.84,23.621,25.752,23.791,25.668,23.969Zm2.944,2.578v2.066H26.1a11.863,11.863,0,0,1,.41-2.542,8.3,8.3,0,0,0,2.1.476Zm0,3.588V32.2a8.3,8.3,0,0,0-2.106.476,11.863,11.863,0,0,1-.406-2.542Zm0,3.6V36a4.207,4.207,0,0,1-1.573-1.9,6.813,6.813,0,0,1,1.573-.367Zm-2.68,1.554c-.177-.1-.349-.213-.515-.332.083-.059.166-.12.251-.175C25.752,34.956,25.84,35.126,25.932,35.288Zm4.2.716v-2.27a6.813,6.813,0,0,1,1.573.368A4.207,4.207,0,0,1,30.135,36Zm2.944-1.226c.085.056.168.116.251.175-.167.119-.339.228-.515.332.092-.159.18-.329.264-.507ZM30.135,32.2V30.135h2.516a11.863,11.863,0,0,1-.41,2.542,8.3,8.3,0,0,0-2.106-.476Zm0-3.588V26.546a8.3,8.3,0,0,0,2.106-.476,11.863,11.863,0,0,1,.41,2.542Zm-5.877-3.78a8.363,8.363,0,0,0,.853.575,13.42,13.42,0,0,0-.533,3.2h-2.01A6.821,6.821,0,0,1,24.258,24.832Zm-1.691,5.3h2.01a13.42,13.42,0,0,0,.533,3.2,8.363,8.363,0,0,0-.853.575,6.821,6.821,0,0,1-1.691-3.78Zm11.922,3.78a8.364,8.364,0,0,0-.853-.575,13.42,13.42,0,0,0,.533-3.2h2.007A6.821,6.821,0,0,1,34.489,33.915Z" transform="translate(-4.537 -4.537)"/>
      </g>
    </g>
  </g>
</svg>
