<svg xmlns="http://www.w3.org/2000/svg" xmlns:xlink="http://www.w3.org/1999/xlink" width="398.444" height="459.218" viewBox="0 0 398.444 459.218">
  <defs>
    <clipPath id="clip-path">
      <rect id="Rectángulo_35205" data-name="Rectángulo 35205" width="398.444" height="457.208" transform="translate(181.32 1070.412)" fill="#f6de44"/>
    </clipPath>
    <clipPath id="clip-path-2">
      <rect id="Rectángulo_403107" data-name="Rectángulo 403107" width="145.76" height="127.984" fill="none"/>
    </clipPath>
    <clipPath id="clip-path-4">
      <rect id="Rectángulo_403092" data-name="Rectángulo 403092" width="328.16" height="441.62" fill="none"/>
    </clipPath>
    <clipPath id="clip-path-5">
      <path id="Trazado_875488" data-name="Trazado 875488" d="M201.875,353.092h12.464c8.716-60.859,2.513-88.718,2.513-88.718L190.1,260.439Z" transform="translate(-190.103 -260.439)" fill="none"/>
    </clipPath>
    <clipPath id="clip-path-7">
      <path id="Trazado_875492" data-name="Trazado 875492" d="M215.13,257.884l39.843,85.2,11.089-4.1c-9.955-60.668-24.236-85.381-24.236-85.381Z" transform="translate(-215.13 -253.606)" fill="none"/>
    </clipPath>
    <clipPath id="clip-path-9">
      <path id="Trazado_875495" data-name="Trazado 875495" d="M9.238,333.881v19.4H65.155c0-7.045-38.161-19.4-38.161-19.4Z" transform="translate(-9.238 -333.881)" fill="none"/>
    </clipPath>
    <clipPath id="clip-path-11">
      <path id="Trazado_875498" data-name="Trazado 875498" d="M61.871,340.214l53.5,16.269c2.049-6.739-30.865-29.667-30.865-29.667l-16.987-5.165Z" transform="translate(-61.871 -321.651)" fill="none"/>
    </clipPath>
    <clipPath id="clip-path-13">
      <path id="Trazado_875502" data-name="Trazado 875502" d="M7.752,172.413v99.623L1.714,377.7H36.935s8.05-69.435,13.585-113.711,4.528-54.34,4.528-54.34l26.164,65.409-6.492,91.327,37.233,6.039s9.511-74.222,8.506-97.366-30.191-108.68-30.191-108.68Z" transform="translate(-1.714 -166.375)" fill="none"/>
    </clipPath>
    <clipPath id="clip-path-15">
      <path id="Trazado_875506" data-name="Trazado 875506" d="M207.772,60.623S188.894,59.49,183.291,87.5c-2.863,14.319-4.525,36.325-5.393,60.771,37.784,7.6,54.794-2.212,54.794-2.212s28.143-85.8-19.284-85.805a45.452,45.452,0,0,0-5.635.367" transform="translate(-177.898 -60.256)" fill="none"/>
    </clipPath>
    <clipPath id="clip-path-17">
      <path id="Trazado_875510" data-name="Trazado 875510" d="M178.062,130.482c-.828,23.376-.931,48.983-.659,72.259.56,47.618,1.514,87.049,1.514,87.049s32.493,21.751,84.914-3.4c1.122-119.885-30.976-158.121-30.976-158.121s-17.01,9.814-54.794,2.212" transform="translate(-177.269 -128.27)" fill="none"/>
    </clipPath>
    <clipPath id="clip-path-19">
      <path id="Trazado_875521" data-name="Trazado 875521" d="M36.375,50.721S0,55.964,0,81.121s2.162,132.62,2.162,132.62,43.271,13.081,97.611-6.038C81.957,81.012,76.791,50.7,38.324,50.7c-.642,0-1.288.009-1.949.025" transform="translate(0 -50.696)" fill="none"/>
    </clipPath>
    <clipPath id="clip-path-21">
      <path id="Trazado_875525" data-name="Trazado 875525" d="M25.687,37.087,21.316,58.956s12.722,12.864,25.046,0c-.315-.187,2.876-21.869,2.876-21.869Z" transform="translate(-21.316 -37.087)" fill="none"/>
    </clipPath>
    <clipPath id="clip-path-23">
      <path id="Trazado_875538" data-name="Trazado 875538" d="M36.067,1.57C20.088,4.138,10.42,20.583,16.073,33.944,21.711,47.272,32.518,57.6,46.481,57.584c13.461-.015,18.926-10.792,15.232-33.918-3.394-21.237-22.186-22.1-25.23-22.1-.27,0-.416.008-.416.008" transform="translate(-14.447 -1.562)" fill="none"/>
    </clipPath>
    <clipPath id="clip-path-25">
      <path id="Trazado_875541" data-name="Trazado 875541" d="M187.153,45.93s8.21,27.463,9.758,32.767c8.835-5.509,20.713-14.617,20.713-14.617l-7.109-21.138Z" transform="translate(-187.153 -42.943)" fill="none"/>
    </clipPath>
    <clipPath id="clip-path-27">
      <path id="Trazado_875554" data-name="Trazado 875554" d="M180.329,28.092c-7.129,38.582,4.8,41.472,18.152,39.78,13.853-1.755,23.261-13.371,27.163-27.307,3.912-13.972-7.764-29.057-23.94-29.578,0,0-17.287.618-21.375,17.1" transform="translate(-178.195 -10.988)" fill="none"/>
    </clipPath>
    <clipPath id="clip-path-29">
      <path id="Trazado_875559" data-name="Trazado 875559" d="M194.888,75.633l5.477-1.225,7.609,1.225,11.7-13.913-6.216-7.062Z" transform="translate(-194.888 -54.658)" fill="none"/>
    </clipPath>
  </defs>
  <g id="Grupo_1106553" data-name="Grupo 1106553" transform="translate(-181.32 -1068.402)">
    <g id="Grupo_1106438" data-name="Grupo 1106438">
      <g id="Grupo_1105934" data-name="Grupo 1105934" transform="translate(181.32 1068.402)">
        <rect id="Rectángulo_35205-2" data-name="Rectángulo 35205" width="398.444" height="457.208" rx="31" transform="translate(0 0)" fill="#f6f0ca"/>
      </g>
      <g id="Enmascarar_grupo_1099796" data-name="Enmascarar grupo 1099796" clip-path="url(#clip-path)">
        <g id="Grupo_1106434" data-name="Grupo 1106434" transform="translate(-174.456 -5505.252)">
          <path id="Trazado_113538" data-name="Trazado 113538" d="M280.4,42.811c-12.784,0-19.1-10.306-24.165-18.59C251.1,15.839,247.625,10.7,241.079,10.7s-10.018,5.138-15.141,13.519c-5.069,8.285-11.38,18.59-24.159,18.59s-19.1-10.306-24.165-18.59c-5.13-8.382-8.607-13.519-15.147-13.519s-10.012,5.138-15.142,13.519c-5.069,8.285-11.38,18.59-24.158,18.59s-19.089-10.306-24.152-18.59C93.886,15.839,90.414,10.7,83.88,10.7S73.874,15.839,68.745,24.221c-5.069,8.285-11.374,18.59-24.153,18.59S25.509,32.505,20.44,24.221C15.31,15.839,11.838,10.7,5.3,10.7A5.351,5.351,0,0,1,5.3,0C18.077,0,24.388,10.312,29.457,18.6c5.123,8.376,8.6,13.513,15.135,13.513S54.6,26.972,59.727,18.6C64.8,10.312,71.107,0,83.88,0s19.083,10.312,24.146,18.59c5.13,8.382,8.6,13.52,15.141,13.52s10.012-5.138,15.141-13.52C143.378,10.312,149.689,0,162.468,0s19.089,10.312,24.164,18.59c5.123,8.382,8.6,13.52,15.147,13.52s10.012-5.138,15.141-13.52C221.984,10.312,228.3,0,241.079,0s19.1,10.312,24.171,18.59c5.136,8.382,8.613,13.52,15.153,13.52s10.024-5.138,15.159-13.52C300.632,10.312,306.949,0,319.733,0a5.324,5.324,0,0,1,5.3,5.351,5.321,5.321,0,0,1-5.3,5.351c-6.546,0-10.024,5.138-15.159,13.519C299.5,32.505,293.194,42.811,280.4,42.811Z" transform="translate(502.776 6786.944) rotate(180)" fill="#f6de44"/>
          <path id="Trazado_126936" data-name="Trazado 126936" d="M280.4,42.811c-12.784,0-19.1-10.306-24.165-18.59C251.1,15.839,247.625,10.7,241.079,10.7s-10.018,5.138-15.141,13.519c-5.069,8.285-11.38,18.59-24.159,18.59s-19.1-10.306-24.165-18.59c-5.13-8.382-8.607-13.519-15.147-13.519s-10.012,5.138-15.142,13.519c-5.069,8.285-11.38,18.59-24.158,18.59s-19.089-10.306-24.152-18.59C93.886,15.839,90.414,10.7,83.88,10.7S73.874,15.839,68.745,24.221c-5.069,8.285-11.374,18.59-24.153,18.59S25.509,32.505,20.44,24.221C15.31,15.839,11.838,10.7,5.3,10.7A5.351,5.351,0,0,1,5.3,0C18.077,0,24.388,10.312,29.457,18.6c5.123,8.376,8.6,13.513,15.135,13.513S54.6,26.972,59.727,18.6C64.8,10.312,71.107,0,83.88,0s19.083,10.312,24.146,18.59c5.13,8.382,8.6,13.52,15.141,13.52s10.012-5.138,15.141-13.52C143.378,10.312,149.689,0,162.468,0s19.089,10.312,24.164,18.59c5.123,8.382,8.6,13.52,15.147,13.52s10.012-5.138,15.141-13.52C221.984,10.312,228.3,0,241.079,0s19.1,10.312,24.171,18.59c5.136,8.382,8.613,13.52,15.153,13.52s10.024-5.138,15.159-13.52C300.632,10.312,306.949,0,319.733,0a5.324,5.324,0,0,1,5.3,5.351,5.321,5.321,0,0,1-5.3,5.351c-6.546,0-10.024,5.138-15.159,13.519C299.5,32.505,293.194,42.811,280.4,42.811Z" transform="translate(502.776 6932.252) rotate(180)" fill="#f6de44"/>
          <path id="Trazado_126924" data-name="Trazado 126924" d="M280.4,42.811c-12.784,0-19.1-10.306-24.165-18.59C251.1,15.839,247.625,10.7,241.079,10.7s-10.018,5.138-15.141,13.519c-5.069,8.285-11.38,18.59-24.159,18.59s-19.1-10.306-24.165-18.59c-5.13-8.382-8.607-13.519-15.147-13.519s-10.012,5.138-15.142,13.519c-5.069,8.285-11.38,18.59-24.158,18.59s-19.089-10.306-24.152-18.59C93.886,15.839,90.414,10.7,83.88,10.7S73.874,15.839,68.745,24.221c-5.069,8.285-11.374,18.59-24.153,18.59S25.509,32.505,20.44,24.221C15.31,15.839,11.838,10.7,5.3,10.7A5.351,5.351,0,0,1,5.3,0C18.077,0,24.388,10.312,29.457,18.6c5.123,8.376,8.6,13.513,15.135,13.513S54.6,26.972,59.727,18.6C64.8,10.312,71.107,0,83.88,0s19.083,10.312,24.146,18.59c5.13,8.382,8.6,13.52,15.141,13.52s10.012-5.138,15.141-13.52C143.378,10.312,149.689,0,162.468,0s19.089,10.312,24.164,18.59c5.123,8.382,8.6,13.52,15.147,13.52s10.012-5.138,15.141-13.52C221.984,10.312,228.3,0,241.079,0s19.1,10.312,24.171,18.59c5.136,8.382,8.613,13.52,15.153,13.52s10.024-5.138,15.159-13.52C300.632,10.312,306.949,0,319.733,0a5.324,5.324,0,0,1,5.3,5.351,5.321,5.321,0,0,1-5.3,5.351c-6.546,0-10.024,5.138-15.159,13.519C299.5,32.505,293.194,42.811,280.4,42.811Z" transform="translate(502.776 6687.522) rotate(180)" fill="#f6de44"/>
          <path id="Trazado_126938" data-name="Trazado 126938" d="M280.4,42.811c-12.784,0-19.1-10.306-24.165-18.59C251.1,15.839,247.625,10.7,241.079,10.7s-10.018,5.138-15.141,13.519c-5.069,8.285-11.38,18.59-24.159,18.59s-19.1-10.306-24.165-18.59c-5.13-8.382-8.607-13.519-15.147-13.519s-10.012,5.138-15.142,13.519c-5.069,8.285-11.38,18.59-24.158,18.59s-19.089-10.306-24.152-18.59C93.886,15.839,90.414,10.7,83.88,10.7S73.874,15.839,68.745,24.221c-5.069,8.285-11.374,18.59-24.153,18.59S25.509,32.505,20.44,24.221C15.31,15.839,11.838,10.7,5.3,10.7A5.351,5.351,0,0,1,5.3,0C18.077,0,24.388,10.312,29.457,18.6c5.123,8.376,8.6,13.513,15.135,13.513S54.6,26.972,59.727,18.6C64.8,10.312,71.107,0,83.88,0s19.083,10.312,24.146,18.59c5.13,8.382,8.6,13.52,15.141,13.52s10.012-5.138,15.141-13.52C143.378,10.312,149.689,0,162.468,0s19.089,10.312,24.164,18.59c5.123,8.382,8.6,13.52,15.147,13.52s10.012-5.138,15.141-13.52C221.984,10.312,228.3,0,241.079,0s19.1,10.312,24.171,18.59c5.136,8.382,8.613,13.52,15.153,13.52s10.024-5.138,15.159-13.52C300.632,10.312,306.949,0,319.733,0a5.324,5.324,0,0,1,5.3,5.351,5.321,5.321,0,0,1-5.3,5.351c-6.546,0-10.024,5.138-15.159,13.519C299.5,32.505,293.194,42.811,280.4,42.811Z" transform="translate(502.776 6832.831) rotate(180)" fill="#f6de44"/>
          <path id="Trazado_113539" data-name="Trazado 113539" d="M280.4,42.811c-12.784,0-19.1-10.306-24.165-18.59C251.1,15.839,247.625,10.7,241.079,10.7s-10.018,5.138-15.141,13.519c-5.069,8.285-11.38,18.59-24.159,18.59s-19.1-10.306-24.165-18.59c-5.13-8.382-8.607-13.519-15.147-13.519s-10.012,5.138-15.142,13.519c-5.069,8.285-11.38,18.59-24.158,18.59s-19.089-10.306-24.152-18.59C93.886,15.839,90.414,10.7,83.88,10.7S73.874,15.839,68.745,24.221c-5.069,8.285-11.374,18.59-24.153,18.59S25.509,32.505,20.44,24.221C15.31,15.839,11.838,10.7,5.3,10.7A5.351,5.351,0,0,1,5.3,0C18.077,0,24.388,10.312,29.457,18.6c5.123,8.376,8.6,13.513,15.135,13.513S54.6,26.972,59.727,18.6C64.8,10.312,71.107,0,83.88,0s19.083,10.312,24.146,18.59c5.13,8.382,8.6,13.52,15.141,13.52s10.012-5.138,15.141-13.52C143.378,10.312,149.689,0,162.468,0s19.089,10.312,24.164,18.59c5.123,8.382,8.6,13.52,15.147,13.52s10.012-5.138,15.141-13.52C221.984,10.312,228.3,0,241.079,0s19.1,10.312,24.171,18.59c5.136,8.382,8.613,13.52,15.153,13.52s10.024-5.138,15.159-13.52C300.632,10.312,306.949,0,319.733,0a5.324,5.324,0,0,1,5.3,5.351,5.321,5.321,0,0,1-5.3,5.351c-6.546,0-10.024,5.138-15.159,13.519C299.5,32.505,293.194,42.811,280.4,42.811Z" transform="translate(502.776 6737.233) rotate(180)" fill="#f6de44"/>
          <path id="Trazado_126937" data-name="Trazado 126937" d="M280.4,42.811c-12.784,0-19.1-10.306-24.165-18.59C251.1,15.839,247.625,10.7,241.079,10.7s-10.018,5.138-15.141,13.519c-5.069,8.285-11.38,18.59-24.159,18.59s-19.1-10.306-24.165-18.59c-5.13-8.382-8.607-13.519-15.147-13.519s-10.012,5.138-15.142,13.519c-5.069,8.285-11.38,18.59-24.158,18.59s-19.089-10.306-24.152-18.59C93.886,15.839,90.414,10.7,83.88,10.7S73.874,15.839,68.745,24.221c-5.069,8.285-11.374,18.59-24.153,18.59S25.509,32.505,20.44,24.221C15.31,15.839,11.838,10.7,5.3,10.7A5.351,5.351,0,0,1,5.3,0C18.077,0,24.388,10.312,29.457,18.6c5.123,8.376,8.6,13.513,15.135,13.513S54.6,26.972,59.727,18.6C64.8,10.312,71.107,0,83.88,0s19.083,10.312,24.146,18.59c5.13,8.382,8.6,13.52,15.141,13.52s10.012-5.138,15.141-13.52C143.378,10.312,149.689,0,162.468,0s19.089,10.312,24.164,18.59c5.123,8.382,8.6,13.52,15.147,13.52s10.012-5.138,15.141-13.52C221.984,10.312,228.3,0,241.079,0s19.1,10.312,24.171,18.59c5.136,8.382,8.613,13.52,15.153,13.52s10.024-5.138,15.159-13.52C300.632,10.312,306.949,0,319.733,0a5.324,5.324,0,0,1,5.3,5.351,5.321,5.321,0,0,1-5.3,5.351c-6.546,0-10.024,5.138-15.159,13.519C299.5,32.505,293.194,42.811,280.4,42.811Z" transform="translate(502.776 6882.542) rotate(180)" fill="#f6de44"/>
          <path id="Trazado_126923" data-name="Trazado 126923" d="M280.4,42.811c-12.784,0-19.1-10.306-24.165-18.59C251.1,15.839,247.625,10.7,241.079,10.7s-10.018,5.138-15.141,13.519c-5.069,8.285-11.38,18.59-24.159,18.59s-19.1-10.306-24.165-18.59c-5.13-8.382-8.607-13.519-15.147-13.519s-10.012,5.138-15.142,13.519c-5.069,8.285-11.38,18.59-24.158,18.59s-19.089-10.306-24.152-18.59C93.886,15.839,90.414,10.7,83.88,10.7S73.874,15.839,68.745,24.221c-5.069,8.285-11.374,18.59-24.153,18.59S25.509,32.505,20.44,24.221C15.31,15.839,11.838,10.7,5.3,10.7A5.351,5.351,0,0,1,5.3,0C18.077,0,24.388,10.312,29.457,18.6c5.123,8.376,8.6,13.513,15.135,13.513S54.6,26.972,59.727,18.6C64.8,10.312,71.107,0,83.88,0s19.083,10.312,24.146,18.59c5.13,8.382,8.6,13.52,15.141,13.52s10.012-5.138,15.141-13.52C143.378,10.312,149.689,0,162.468,0s19.089,10.312,24.164,18.59c5.123,8.382,8.6,13.52,15.147,13.52s10.012-5.138,15.141-13.52C221.984,10.312,228.3,0,241.079,0s19.1,10.312,24.171,18.59c5.136,8.382,8.613,13.52,15.153,13.52s10.024-5.138,15.159-13.52C300.632,10.312,306.949,0,319.733,0a5.324,5.324,0,0,1,5.3,5.351,5.321,5.321,0,0,1-5.3,5.351c-6.546,0-10.024,5.138-15.159,13.519C299.5,32.505,293.194,42.811,280.4,42.811Z" transform="translate(502.776 6637.812) rotate(180)" fill="#f6de44"/>
        </g>
        <g id="Grupo_1106435" data-name="Grupo 1106435" transform="translate(199.791 -5339.252)">
          <path id="Trazado_113538-2" data-name="Trazado 113538" d="M280.4,42.811c-12.784,0-19.1-10.306-24.165-18.59C251.1,15.839,247.625,10.7,241.079,10.7s-10.018,5.138-15.141,13.519c-5.069,8.285-11.38,18.59-24.159,18.59s-19.1-10.306-24.165-18.59c-5.13-8.382-8.607-13.519-15.147-13.519s-10.012,5.138-15.142,13.519c-5.069,8.285-11.38,18.59-24.158,18.59s-19.089-10.306-24.152-18.59C93.886,15.839,90.414,10.7,83.88,10.7S73.874,15.839,68.745,24.221c-5.069,8.285-11.374,18.59-24.153,18.59S25.509,32.505,20.44,24.221C15.31,15.839,11.838,10.7,5.3,10.7A5.351,5.351,0,0,1,5.3,0C18.077,0,24.388,10.312,29.457,18.6c5.123,8.376,8.6,13.513,15.135,13.513S54.6,26.972,59.727,18.6C64.8,10.312,71.107,0,83.88,0s19.083,10.312,24.146,18.59c5.13,8.382,8.6,13.52,15.141,13.52s10.012-5.138,15.141-13.52C143.378,10.312,149.689,0,162.468,0s19.089,10.312,24.164,18.59c5.123,8.382,8.6,13.52,15.147,13.52s10.012-5.138,15.141-13.52C221.984,10.312,228.3,0,241.079,0s19.1,10.312,24.171,18.59c5.136,8.382,8.613,13.52,15.153,13.52s10.024-5.138,15.159-13.52C300.632,10.312,306.949,0,319.733,0a5.324,5.324,0,0,1,5.3,5.351,5.321,5.321,0,0,1-5.3,5.351c-6.546,0-10.024,5.138-15.159,13.519C299.5,32.505,293.194,42.811,280.4,42.811Z" transform="translate(502.776 6786.944) rotate(180)" fill="#f6de44"/>
          <path id="Trazado_126936-2" data-name="Trazado 126936" d="M280.4,42.811c-12.784,0-19.1-10.306-24.165-18.59C251.1,15.839,247.625,10.7,241.079,10.7s-10.018,5.138-15.141,13.519c-5.069,8.285-11.38,18.59-24.159,18.59s-19.1-10.306-24.165-18.59c-5.13-8.382-8.607-13.519-15.147-13.519s-10.012,5.138-15.142,13.519c-5.069,8.285-11.38,18.59-24.158,18.59s-19.089-10.306-24.152-18.59C93.886,15.839,90.414,10.7,83.88,10.7S73.874,15.839,68.745,24.221c-5.069,8.285-11.374,18.59-24.153,18.59S25.509,32.505,20.44,24.221C15.31,15.839,11.838,10.7,5.3,10.7A5.351,5.351,0,0,1,5.3,0C18.077,0,24.388,10.312,29.457,18.6c5.123,8.376,8.6,13.513,15.135,13.513S54.6,26.972,59.727,18.6C64.8,10.312,71.107,0,83.88,0s19.083,10.312,24.146,18.59c5.13,8.382,8.6,13.52,15.141,13.52s10.012-5.138,15.141-13.52C143.378,10.312,149.689,0,162.468,0s19.089,10.312,24.164,18.59c5.123,8.382,8.6,13.52,15.147,13.52s10.012-5.138,15.141-13.52C221.984,10.312,228.3,0,241.079,0s19.1,10.312,24.171,18.59c5.136,8.382,8.613,13.52,15.153,13.52s10.024-5.138,15.159-13.52C300.632,10.312,306.949,0,319.733,0a5.324,5.324,0,0,1,5.3,5.351,5.321,5.321,0,0,1-5.3,5.351c-6.546,0-10.024,5.138-15.159,13.519C299.5,32.505,293.194,42.811,280.4,42.811Z" transform="translate(502.776 6932.252) rotate(180)" fill="#f6de44"/>
          <path id="Trazado_126924-2" data-name="Trazado 126924" d="M280.4,42.811c-12.784,0-19.1-10.306-24.165-18.59C251.1,15.839,247.625,10.7,241.079,10.7s-10.018,5.138-15.141,13.519c-5.069,8.285-11.38,18.59-24.159,18.59s-19.1-10.306-24.165-18.59c-5.13-8.382-8.607-13.519-15.147-13.519s-10.012,5.138-15.142,13.519c-5.069,8.285-11.38,18.59-24.158,18.59s-19.089-10.306-24.152-18.59C93.886,15.839,90.414,10.7,83.88,10.7S73.874,15.839,68.745,24.221c-5.069,8.285-11.374,18.59-24.153,18.59S25.509,32.505,20.44,24.221C15.31,15.839,11.838,10.7,5.3,10.7A5.351,5.351,0,0,1,5.3,0C18.077,0,24.388,10.312,29.457,18.6c5.123,8.376,8.6,13.513,15.135,13.513S54.6,26.972,59.727,18.6C64.8,10.312,71.107,0,83.88,0s19.083,10.312,24.146,18.59c5.13,8.382,8.6,13.52,15.141,13.52s10.012-5.138,15.141-13.52C143.378,10.312,149.689,0,162.468,0s19.089,10.312,24.164,18.59c5.123,8.382,8.6,13.52,15.147,13.52s10.012-5.138,15.141-13.52C221.984,10.312,228.3,0,241.079,0s19.1,10.312,24.171,18.59c5.136,8.382,8.613,13.52,15.153,13.52s10.024-5.138,15.159-13.52C300.632,10.312,306.949,0,319.733,0a5.324,5.324,0,0,1,5.3,5.351,5.321,5.321,0,0,1-5.3,5.351c-6.546,0-10.024,5.138-15.159,13.519C299.5,32.505,293.194,42.811,280.4,42.811Z" transform="translate(502.776 6687.522) rotate(180)" fill="#f6de44"/>
          <path id="Trazado_126938-2" data-name="Trazado 126938" d="M280.4,42.811c-12.784,0-19.1-10.306-24.165-18.59C251.1,15.839,247.625,10.7,241.079,10.7s-10.018,5.138-15.141,13.519c-5.069,8.285-11.38,18.59-24.159,18.59s-19.1-10.306-24.165-18.59c-5.13-8.382-8.607-13.519-15.147-13.519s-10.012,5.138-15.142,13.519c-5.069,8.285-11.38,18.59-24.158,18.59s-19.089-10.306-24.152-18.59C93.886,15.839,90.414,10.7,83.88,10.7S73.874,15.839,68.745,24.221c-5.069,8.285-11.374,18.59-24.153,18.59S25.509,32.505,20.44,24.221C15.31,15.839,11.838,10.7,5.3,10.7A5.351,5.351,0,0,1,5.3,0C18.077,0,24.388,10.312,29.457,18.6c5.123,8.376,8.6,13.513,15.135,13.513S54.6,26.972,59.727,18.6C64.8,10.312,71.107,0,83.88,0s19.083,10.312,24.146,18.59c5.13,8.382,8.6,13.52,15.141,13.52s10.012-5.138,15.141-13.52C143.378,10.312,149.689,0,162.468,0s19.089,10.312,24.164,18.59c5.123,8.382,8.6,13.52,15.147,13.52s10.012-5.138,15.141-13.52C221.984,10.312,228.3,0,241.079,0s19.1,10.312,24.171,18.59c5.136,8.382,8.613,13.52,15.153,13.52s10.024-5.138,15.159-13.52C300.632,10.312,306.949,0,319.733,0a5.324,5.324,0,0,1,5.3,5.351,5.321,5.321,0,0,1-5.3,5.351c-6.546,0-10.024,5.138-15.159,13.519C299.5,32.505,293.194,42.811,280.4,42.811Z" transform="translate(502.776 6832.831) rotate(180)" fill="#f6de44"/>
          <path id="Trazado_113539-2" data-name="Trazado 113539" d="M280.4,42.811c-12.784,0-19.1-10.306-24.165-18.59C251.1,15.839,247.625,10.7,241.079,10.7s-10.018,5.138-15.141,13.519c-5.069,8.285-11.38,18.59-24.159,18.59s-19.1-10.306-24.165-18.59c-5.13-8.382-8.607-13.519-15.147-13.519s-10.012,5.138-15.142,13.519c-5.069,8.285-11.38,18.59-24.158,18.59s-19.089-10.306-24.152-18.59C93.886,15.839,90.414,10.7,83.88,10.7S73.874,15.839,68.745,24.221c-5.069,8.285-11.374,18.59-24.153,18.59S25.509,32.505,20.44,24.221C15.31,15.839,11.838,10.7,5.3,10.7A5.351,5.351,0,0,1,5.3,0C18.077,0,24.388,10.312,29.457,18.6c5.123,8.376,8.6,13.513,15.135,13.513S54.6,26.972,59.727,18.6C64.8,10.312,71.107,0,83.88,0s19.083,10.312,24.146,18.59c5.13,8.382,8.6,13.52,15.141,13.52s10.012-5.138,15.141-13.52C143.378,10.312,149.689,0,162.468,0s19.089,10.312,24.164,18.59c5.123,8.382,8.6,13.52,15.147,13.52s10.012-5.138,15.141-13.52C221.984,10.312,228.3,0,241.079,0s19.1,10.312,24.171,18.59c5.136,8.382,8.613,13.52,15.153,13.52s10.024-5.138,15.159-13.52C300.632,10.312,306.949,0,319.733,0a5.324,5.324,0,0,1,5.3,5.351,5.321,5.321,0,0,1-5.3,5.351c-6.546,0-10.024,5.138-15.159,13.519C299.5,32.505,293.194,42.811,280.4,42.811Z" transform="translate(502.776 6737.233) rotate(180)" fill="#f6de44"/>
          <path id="Trazado_126937-2" data-name="Trazado 126937" d="M280.4,42.811c-12.784,0-19.1-10.306-24.165-18.59C251.1,15.839,247.625,10.7,241.079,10.7s-10.018,5.138-15.141,13.519c-5.069,8.285-11.38,18.59-24.159,18.59s-19.1-10.306-24.165-18.59c-5.13-8.382-8.607-13.519-15.147-13.519s-10.012,5.138-15.142,13.519c-5.069,8.285-11.38,18.59-24.158,18.59s-19.089-10.306-24.152-18.59C93.886,15.839,90.414,10.7,83.88,10.7S73.874,15.839,68.745,24.221c-5.069,8.285-11.374,18.59-24.153,18.59S25.509,32.505,20.44,24.221C15.31,15.839,11.838,10.7,5.3,10.7A5.351,5.351,0,0,1,5.3,0C18.077,0,24.388,10.312,29.457,18.6c5.123,8.376,8.6,13.513,15.135,13.513S54.6,26.972,59.727,18.6C64.8,10.312,71.107,0,83.88,0s19.083,10.312,24.146,18.59c5.13,8.382,8.6,13.52,15.141,13.52s10.012-5.138,15.141-13.52C143.378,10.312,149.689,0,162.468,0s19.089,10.312,24.164,18.59c5.123,8.382,8.6,13.52,15.147,13.52s10.012-5.138,15.141-13.52C221.984,10.312,228.3,0,241.079,0s19.1,10.312,24.171,18.59c5.136,8.382,8.613,13.52,15.153,13.52s10.024-5.138,15.159-13.52C300.632,10.312,306.949,0,319.733,0a5.324,5.324,0,0,1,5.3,5.351,5.321,5.321,0,0,1-5.3,5.351c-6.546,0-10.024,5.138-15.159,13.519C299.5,32.505,293.194,42.811,280.4,42.811Z" transform="translate(502.776 6882.542) rotate(180)" fill="#f6de44"/>
          <path id="Trazado_126923-2" data-name="Trazado 126923" d="M280.4,42.811c-12.784,0-19.1-10.306-24.165-18.59C251.1,15.839,247.625,10.7,241.079,10.7s-10.018,5.138-15.141,13.519c-5.069,8.285-11.38,18.59-24.159,18.59s-19.1-10.306-24.165-18.59c-5.13-8.382-8.607-13.519-15.147-13.519s-10.012,5.138-15.142,13.519c-5.069,8.285-11.38,18.59-24.158,18.59s-19.089-10.306-24.152-18.59C93.886,15.839,90.414,10.7,83.88,10.7S73.874,15.839,68.745,24.221c-5.069,8.285-11.374,18.59-24.153,18.59S25.509,32.505,20.44,24.221C15.31,15.839,11.838,10.7,5.3,10.7A5.351,5.351,0,0,1,5.3,0C18.077,0,24.388,10.312,29.457,18.6c5.123,8.376,8.6,13.513,15.135,13.513S54.6,26.972,59.727,18.6C64.8,10.312,71.107,0,83.88,0s19.083,10.312,24.146,18.59c5.13,8.382,8.6,13.52,15.141,13.52s10.012-5.138,15.141-13.52C143.378,10.312,149.689,0,162.468,0s19.089,10.312,24.164,18.59c5.123,8.382,8.6,13.52,15.147,13.52s10.012-5.138,15.141-13.52C221.984,10.312,228.3,0,241.079,0s19.1,10.312,24.171,18.59c5.136,8.382,8.613,13.52,15.153,13.52s10.024-5.138,15.159-13.52C300.632,10.312,306.949,0,319.733,0a5.324,5.324,0,0,1,5.3,5.351,5.321,5.321,0,0,1-5.3,5.351c-6.546,0-10.024,5.138-15.159,13.519C299.5,32.505,293.194,42.811,280.4,42.811Z" transform="translate(502.776 6637.812) rotate(180)" fill="#f6de44"/>
        </g>
      </g>
      <g id="Grupo_1106436" data-name="Grupo 1106436" transform="translate(360.051 1390.016)" clip-path="url(#clip-path-2)">
        <path id="Trazado_875573" data-name="Trazado 875573" d="M120.254,91.831l-16.8-71.85A20.307,20.307,0,0,0,69.8,9.79L15.968,60.263A20.306,20.306,0,0,0,23.976,94.51L94.6,115.891a20.307,20.307,0,0,0,25.657-24.06" transform="translate(-9.54 11.2)" fill="#7bb5f2"/>
        <path id="Trazado_875574" data-name="Trazado 875574" d="M111.709,88.548,94.916,16.7A20.309,20.309,0,0,0,61.251,6.507L7.427,56.98a20.306,20.306,0,0,0,8.008,34.247l70.621,21.381A20.305,20.305,0,0,0,111.709,88.548Z" transform="translate(29.883 2.614)" fill="none" stroke="#000" stroke-miterlimit="10" stroke-width="2"/>
      </g>
      <g id="Grupo_1106437" data-name="Grupo 1106437" transform="matrix(0.616, -0.788, 0.788, 0.616, 232.968, 1183.263)" clip-path="url(#clip-path-2)">
        <path id="Trazado_875575" data-name="Trazado 875575" d="M120.254,91.831l-16.8-71.85A20.307,20.307,0,0,0,69.8,9.79L15.968,60.263A20.306,20.306,0,0,0,23.976,94.51L94.6,115.891a20.307,20.307,0,0,0,25.657-24.06" transform="translate(-9.54 11.2)" fill="#fd9f81"/>
        <path id="Trazado_875576" data-name="Trazado 875576" d="M111.709,88.548,94.916,16.7A20.309,20.309,0,0,0,61.251,6.507L7.427,56.98a20.306,20.306,0,0,0,8.008,34.247l70.621,21.381A20.305,20.305,0,0,0,111.709,88.548Z" transform="translate(29.883 2.614)" fill="none" stroke="#000" stroke-miterlimit="10" stroke-width="2"/>
      </g>
      <g id="Grupo_1106433" data-name="Grupo 1106433" transform="translate(216.32 1086)">
        <g id="Grupo_1106380" data-name="Grupo 1106380" transform="translate(0)">
          <g id="Grupo_1106379" data-name="Grupo 1106379" clip-path="url(#clip-path-4)">
            <path id="Trazado_875479" data-name="Trazado 875479" d="M127.6,105.625c-8.724-5.035-22.49-1.023-22.49-1.023l1.865,13.774c23.855,5.1,32.23-2.189,32.23-2.189s-2.88-5.527-11.6-10.562" transform="translate(27.494 27.26)" fill="#dca37c"/>
            <path id="Trazado_875480" data-name="Trazado 875480" d="M140.888,103.341s-9.838-3.674-17.841-2.439c-5.828.9-9.266,2.645-11.049,4.824a1.839,1.839,0,0,0,1.823,2.971c2.986-.679,7.132-2.791,10.166-2.208,3.816,1.458,7.588,5.772,9.838,8.735a6.118,6.118,0,0,0,6.45,2.265,16.425,16.425,0,0,0,4.383-1.859c.381-5.828-3.77-12.289-3.77-12.289" transform="translate(29.184 26.616)" fill="#ca7168"/>
            <path id="Trazado_875481" data-name="Trazado 875481" d="M109.626,115.782s3.532-4.049,8.747-2.939,10.12,3.215,8.5,5.78-18.557,1.358-17.25-2.841" transform="translate(28.657 29.79)" fill="#ca7168"/>
            <path id="Trazado_875482" data-name="Trazado 875482" d="M180.189,21.341s1.718,26.021-8.794,38.053c10.5,5.486,18.448,1.8,18.448,1.8s10.505-32.739-9.654-39.854" transform="translate(44.833 5.643)"/>
            <path id="Trazado_875483" data-name="Trazado 875483" d="M134.466,111.311l48.272,5.447S196.081,83.8,203.393,69.366s27.227-11.054,18.519,21.3-21.411,49.61-30.391,49.727-59-11.786-59-11.786Z" transform="translate(34.665 16.19)" fill="#fff"/>
            <path id="Trazado_875484" data-name="Trazado 875484" d="M205.858,333.881s-30.986,12.388-30.986,19.447h43.451V333.881Z" transform="translate(45.743 88.292)" fill="#fff"/>
            <path id="Trazado_875485" data-name="Trazado 875485" d="M173.648,123.188a6.975,6.975,0,0,0-2.817-11.844c-.063-.016-.127-.033-.193-.048-6.478-1.593-18.656-.284-19.23,1.312s9.834,3.108,9.834,3.108-20.371,4.058-21.679,6.442,6.469,4.694,26.734,1.349l1.074,2.2a9.421,9.421,0,0,0,6.278-2.519" transform="translate(36.47 29.24)" fill="#ca7168"/>
            <path id="Trazado_875486" data-name="Trazado 875486" d="M216.852,264.382,190.1,260.439,201.874,353.3h12.466c8.716-61,2.513-88.921,2.513-88.921" transform="translate(49.727 68.871)" fill="#ca7168"/>
          </g>
        </g>
        <g id="Grupo_1106382" data-name="Grupo 1106382" transform="translate(239.83 329.564)">
          <g id="Grupo_1106381" data-name="Grupo 1106381" clip-path="url(#clip-path-5)">
            <path id="Trazado_875487" data-name="Trazado 875487" d="M191.02,268.427s40.514,8.837,60.379-9.818c-39.087-3.32-62.559,1.235-62.559,1.235Z" transform="translate(-190.433 -261.235)"/>
          </g>
        </g>
        <g id="Grupo_1106384" data-name="Grupo 1106384" transform="translate(0)">
          <g id="Grupo_1106383" data-name="Grupo 1106383" clip-path="url(#clip-path-4)">
            <path id="Trazado_875489" data-name="Trazado 875489" d="M251.5,325.388s-25.074,20.895-22.959,27.629l39.873-13.183-5.825-18.549Z" transform="translate(59.748 84.961)" fill="#fff"/>
            <path id="Trazado_875490" data-name="Trazado 875490" d="M241.826,253.607l-26.7,4.286,39.843,85.392,11.089-4.1c-9.955-60.807-24.236-85.575-24.236-85.575" transform="translate(56.273 67.064)" fill="#ca7168"/>
          </g>
        </g>
        <g id="Grupo_1106386" data-name="Grupo 1106386" transform="translate(271.404 320.944)">
          <g id="Grupo_1106385" data-name="Grupo 1106385" clip-path="url(#clip-path-7)">
            <path id="Trazado_875491" data-name="Trazado 875491" d="M218.156,270.629s18.183-.9,33.24-16.881l-38.071,9.461Z" transform="translate(-215.602 -253.569)"/>
          </g>
        </g>
        <g id="Grupo_1106388" data-name="Grupo 1106388" transform="translate(0)">
          <g id="Grupo_1106387" data-name="Grupo 1106387" clip-path="url(#clip-path-4)">
            <path id="Trazado_875493" data-name="Trazado 875493" d="M26.993,333.881s38.161,12.388,38.161,19.447H9.238V333.881Z" transform="translate(2.416 88.292)" fill="#8cacf7"/>
          </g>
        </g>
        <g id="Grupo_1106390" data-name="Grupo 1106390" transform="translate(11.655 422.217)">
          <g id="Grupo_1106389" data-name="Grupo 1106389" clip-path="url(#clip-path-9)">
            <path id="Trazado_875494" data-name="Trazado 875494" d="M4.6,344.841l37.369-7.715-4.6-5.772L1.713,329.068Z" transform="translate(-11.206 -335.14)"/>
          </g>
        </g>
        <g id="Grupo_1106392" data-name="Grupo 1106392" transform="translate(0)">
          <g id="Grupo_1106391" data-name="Grupo 1106391" clip-path="url(#clip-path-4)">
            <path id="Trazado_875496" data-name="Trazado 875496" d="M84.5,326.828s32.915,22.98,30.865,29.735l-53.5-16.306,5.646-18.606Z" transform="translate(16.184 85.058)" fill="#8cacf7"/>
          </g>
        </g>
        <g id="Grupo_1106394" data-name="Grupo 1106394" transform="translate(78.055 406.788)">
          <g id="Grupo_1106393" data-name="Grupo 1106393" clip-path="url(#clip-path-11)">
            <path id="Trazado_875497" data-name="Trazado 875497" d="M60.177,333.3l42.887.04L61,321.285l-1.041,15.207" transform="translate(-62.371 -321.747)"/>
          </g>
        </g>
        <g id="Grupo_1106396" data-name="Grupo 1106396" transform="translate(0)">
          <g id="Grupo_1106395" data-name="Grupo 1106395" clip-path="url(#clip-path-4)">
            <path id="Trazado_875499" data-name="Trazado 875499" d="M113.806,84.614a9.706,9.706,0,0,1,1.96-10.593c4.7-4.748,15.765-10,17.087-8.941s-6.771,7.8-6.771,7.8,19.49-7.195,21.848-5.846.246,7.991-18.781,15.737L118.709,87.8Z" transform="translate(29.562 17.173)" fill="#dca37c"/>
            <path id="Trazado_875500" data-name="Trazado 875500" d="M7.752,172.426v99.849l-6.038,105.9H36.935s8.05-69.591,13.585-113.969,4.529-54.463,4.529-54.463L81.211,275.3l-6.492,91.535,37.233,6.052s9.511-74.39,8.506-97.587-30.19-108.927-30.19-108.927Z" transform="translate(0.448 43.996)" fill="#7a94f0"/>
          </g>
        </g>
        <g id="Grupo_1106398" data-name="Grupo 1106398" transform="translate(2.162 210.895)">
          <g id="Grupo_1106397" data-name="Grupo 1106397" clip-path="url(#clip-path-13)">
            <path id="Trazado_875501" data-name="Trazado 875501" d="M4.509,192.761s53.914,8.142,94.217-17.613c-96.57.27-94.721.357-94.721.357Z" transform="translate(-1.115 -164.08)"/>
          </g>
        </g>
        <g id="Grupo_1106400" data-name="Grupo 1106400" transform="translate(0)">
          <g id="Grupo_1106399" data-name="Grupo 1106399" clip-path="url(#clip-path-4)">
            <path id="Trazado_875503" data-name="Trazado 875503" d="M232.692,146.256s30.288-92.542-24.92-85.632c0,0-18.878-1.135-24.48,26.939-2.864,14.351-4.527,36.407-5.393,60.909,37.783,7.62,54.793-2.217,54.793-2.217" transform="translate(46.535 15.934)" fill="#d9e5f8"/>
          </g>
        </g>
        <g id="Grupo_1106402" data-name="Grupo 1106402" transform="translate(224.432 76.235)">
          <g id="Grupo_1106401" data-name="Grupo 1106401" clip-path="url(#clip-path-15)">
            <path id="Trazado_875504" data-name="Trazado 875504" d="M159.412,125.207h48.577s13.91-33.263,19.565-48.389S249.047,61.9,244,94.956s-15.738,51.582-24.65,52.7-59.943-5.084-59.943-5.084Z" transform="translate(-182.734 -58.453)"/>
            <path id="Trazado_875505" data-name="Trazado 875505" d="M199.858,64.518s-10.08,21.919-13.678,87.27" transform="translate(-175.732 -59.141)" fill="none" stroke="#000" stroke-linecap="round" stroke-linejoin="round" stroke-width="1"/>
            <rect id="Rectángulo_403098" data-name="Rectángulo 403098" width="5.801" height="16.44" transform="translate(23.732 40.588) rotate(-84.102)" fill="none" stroke="#000" stroke-linecap="round" stroke-linejoin="round" stroke-width="1"/>
          </g>
        </g>
        <g id="Grupo_1106404" data-name="Grupo 1106404" transform="translate(0)">
          <g id="Grupo_1106403" data-name="Grupo 1106403" clip-path="url(#clip-path-4)">
            <path id="Trazado_875507" data-name="Trazado 875507" d="M232.857,128.27s-17.01,9.836-54.793,2.217c-.83,23.429-.934,49.094-.66,72.423.56,47.726,1.514,87.246,1.514,87.246s32.493,21.8,84.916-3.405c1.12-120.159-30.977-158.481-30.977-158.481" transform="translate(46.37 33.92)" fill="#839ec1"/>
          </g>
        </g>
        <g id="Grupo_1106406" data-name="Grupo 1106406" transform="translate(223.639 162.421)">
          <g id="Grupo_1106405" data-name="Grupo 1106405" clip-path="url(#clip-path-17)">
            <path id="Trazado_875508" data-name="Trazado 875508" d="M207.58,125.507s19.426,35.635,23.99,97.655S236,308.948,236,308.948" transform="translate(-169.341 -128.993)" fill="none" stroke="#000" stroke-linecap="round" stroke-linejoin="round" stroke-width="1"/>
            <path id="Trazado_875509" data-name="Trazado 875509" d="M242.582,136.834s-43.33,10.206-77.231-13.971c78.318-3.443,76.823-3.285,76.823-3.285Z" transform="translate(-180.387 -130.544)"/>
          </g>
        </g>
        <g id="Grupo_1106408" data-name="Grupo 1106408" transform="translate(0)">
          <g id="Grupo_1106407" data-name="Grupo 1106407" clip-path="url(#clip-path-4)">
            <path id="Trazado_875511" data-name="Trazado 875511" d="M93.847,93.492S65.17,63.064,54.24,55.971,22.721,63.742,46.583,97.7,89.1,128.939,99.39,125.809s48.447-35.254,48.447-35.254L132.713,75.436Z" transform="translate(9.294 14.343)" fill="#7a94f0"/>
            <path id="Trazado_875512" data-name="Trazado 875512" d="M160.725,121.763H209.3s9.58-34.251,15.235-49.411,25.823-14.038,20.781,19.091-15.738,51.7-24.65,52.822-59.943-5.1-59.943-5.1Z" transform="translate(42.042 16.654)" fill="#fff"/>
            <path id="Trazado_875513" data-name="Trazado 875513" d="M36.376,50.72S0,55.976,0,81.191,2.162,214.11,2.162,214.11s43.271,13.112,97.611-6.052C81.659,78.96,76.628,49.711,36.376,50.72" transform="translate(0 13.406)" fill="#8cacf7"/>
          </g>
        </g>
        <g id="Grupo_1106410" data-name="Grupo 1106410" transform="translate(0 63.957)">
          <g id="Grupo_1106409" data-name="Grupo 1106409" clip-path="url(#clip-path-19)">
            <path id="Trazado_875514" data-name="Trazado 875514" d="M57.794,122.025S31.321,78.683,21.206,70.484,3.5,74.731,6.641,104.257c20.126,36.226,42.713,44.958,53.405,46.136,17.492,1.926,50.251-5.112,50.251-5.112L99.726,115.47Z" transform="translate(1.55 -46.166)"/>
            <path id="Trazado_875515" data-name="Trazado 875515" d="M45.451,74.813S55.464,110.132,66.344,214.45" transform="translate(11.889 -44.388)" fill="none" stroke="#000" stroke-linecap="round" stroke-linejoin="round" stroke-width="1"/>
            <path id="Trazado_875516" data-name="Trazado 875516" d="M45.5,80.332a1.66,1.66,0,1,0-1.66,1.661,1.66,1.66,0,0,0,1.66-1.661" transform="translate(11.032 -43.378)"/>
            <path id="Trazado_875517" data-name="Trazado 875517" d="M54.81,137.538a1.66,1.66,0,1,0-1.66,1.66,1.66,1.66,0,0,0,1.66-1.66" transform="translate(13.469 -28.414)"/>
            <path id="Trazado_875518" data-name="Trazado 875518" d="M48.466,99.4a1.66,1.66,0,1,0-1.66,1.66,1.66,1.66,0,0,0,1.66-1.66" transform="translate(11.809 -38.39)"/>
            <path id="Trazado_875519" data-name="Trazado 875519" d="M57.4,156.607a1.66,1.66,0,1,0-1.66,1.66,1.66,1.66,0,0,0,1.66-1.66" transform="translate(14.146 -23.426)"/>
            <path id="Trazado_875520" data-name="Trazado 875520" d="M59.554,175.676a1.66,1.66,0,1,0-1.661,1.66,1.66,1.66,0,0,0,1.661-1.66" transform="translate(14.71 -18.438)"/>
          </g>
        </g>
        <g id="Grupo_1106412" data-name="Grupo 1106412" transform="translate(0)">
          <g id="Grupo_1106411" data-name="Grupo 1106411" clip-path="url(#clip-path-4)">
            <line id="Línea_615" data-name="Línea 615" x1="3.085" y1="126.657" transform="translate(15.415 105.237)" fill="none" stroke="#000" stroke-linecap="round" stroke-linejoin="round" stroke-width="1"/>
            <path id="Trazado_875522" data-name="Trazado 875522" d="M66.96,115.967S30.345,73.292,20.228,65.076s-32.164,4.37-12.038,40.678,49.641,40.457,60.379,41.088c11.329.665,74.183-9.911,68.168-10.666l-3.377-22.694Z" transform="translate(0 16.571)" fill="#7a94f0"/>
            <path id="Trazado_875523" data-name="Trazado 875523" d="M21.317,59.005s12.72,12.893,25.045,0c-.314-.187,2.876-21.919,2.876-21.919H25.687Z" transform="translate(5.576 9.807)" fill="#dca37c"/>
          </g>
        </g>
        <g id="Grupo_1106414" data-name="Grupo 1106414" transform="translate(26.892 46.788)">
          <g id="Grupo_1106413" data-name="Grupo 1106413" clip-path="url(#clip-path-21)">
            <path id="Trazado_875524" data-name="Trazado 875524" d="M42.84,6.908s21.953-1.028,25.647,22.1-1.771,33.9-15.231,33.918c-13.964.016-24.771-10.312-30.409-23.639C17.193,25.923,26.861,9.478,42.84,6.908" transform="translate(-21.341 -44.983)"/>
          </g>
        </g>
        <g id="Grupo_1106416" data-name="Grupo 1106416" transform="translate(0)">
          <g id="Grupo_1106415" data-name="Grupo 1106415" clip-path="url(#clip-path-4)">
            <path id="Trazado_875526" data-name="Trazado 875526" d="M36.067,1.568S58.019.538,61.713,23.716,59.942,57.694,46.482,57.711c-13.964.016-24.77-10.336-30.409-23.693C10.42,20.626,20.088,4.144,36.067,1.568" transform="translate(3.779 0.413)" fill="#dca37c"/>
          </g>
        </g>
        <g id="Grupo_1106418" data-name="Grupo 1106418" transform="translate(18.226 1.971)">
          <g id="Grupo_1106417" data-name="Grupo 1106417" clip-path="url(#clip-path-23)">
            <path id="Trazado_875527" data-name="Trazado 875527" d="M62.3,35.383a6.845,6.845,0,1,1-6.844-6.844A6.844,6.844,0,0,1,62.3,35.383" transform="translate(-5.511 5.495)" fill="#d68c72"/>
            <path id="Trazado_875528" data-name="Trazado 875528" d="M41.282,35.383a6.845,6.845,0,1,1-6.844-6.844,6.844,6.844,0,0,1,6.844,6.844" transform="translate(-11.008 5.495)" fill="#d68c72"/>
            <path id="Trazado_875529" data-name="Trazado 875529" d="M23.757,29.394s2.379-.386,3.434,3.13a1.607,1.607,0,0,0-1.718,2.109" transform="translate(-12.012 5.715)" fill="none" stroke="#000" stroke-linecap="round" stroke-linejoin="round" stroke-width="1"/>
            <path id="Trazado_875530" data-name="Trazado 875530" d="M51.293,27.5a2.89,2.89,0,0,0-4.1,0" transform="translate(-5.882 4.989)" fill="none" stroke="#000" stroke-linecap="round" stroke-linejoin="round" stroke-width="1"/>
            <path id="Trazado_875531" data-name="Trazado 875531" d="M47.88,29.285c0-1.332.529-1.991,1.181-1.991s1.18.659,1.18,1.991-.529,1.993-1.18,1.993-1.181-.659-1.181-1.993" transform="translate(-5.702 5.169)"/>
            <path id="Trazado_875532" data-name="Trazado 875532" d="M40.715,27.5a2.89,2.89,0,0,0-4.1,0" transform="translate(-8.649 4.989)" fill="none" stroke="#000" stroke-linecap="round" stroke-linejoin="round" stroke-width="1"/>
            <path id="Trazado_875533" data-name="Trazado 875533" d="M37.3,29.285c0-1.332.529-1.991,1.181-1.991s1.18.659,1.18,1.991-.529,1.993-1.18,1.993S37.3,30.62,37.3,29.285" transform="translate(-8.469 5.169)"/>
            <path id="Trazado_875534" data-name="Trazado 875534" d="M46.48,37.1a6.329,6.329,0,0,1-6.269-1.572" transform="translate(-7.708 7.323)" fill="none" stroke="#000" stroke-linecap="round" stroke-linejoin="round" stroke-width="1"/>
            <path id="Trazado_875535" data-name="Trazado 875535" d="M44.16,28.538s.361,2.658,1.73,3.883.5,2.736-.865,2.664" transform="translate(-6.675 5.494)" fill="none" stroke="#000" stroke-linecap="round" stroke-linejoin="round" stroke-width="1"/>
            <path id="Trazado_875536" data-name="Trazado 875536" d="M47.189,24.535c0-.7.918-1.258,2.053-1.258s2.051.563,2.051,1.258-.443.67-1.577.67-2.527.026-2.527-.67" transform="translate(-5.882 4.118)"/>
            <path id="Trazado_875537" data-name="Trazado 875537" d="M36.611,24.535c0-.7.918-1.258,2.053-1.258s2.051.563,2.051,1.258-.443.67-1.577.67-2.527.026-2.527-.67" transform="translate(-8.649 4.118)"/>
          </g>
        </g>
        <g id="Grupo_1106420" data-name="Grupo 1106420" transform="translate(0)">
          <g id="Grupo_1106419" data-name="Grupo 1106419" clip-path="url(#clip-path-4)">
            <path id="Trazado_875539" data-name="Trazado 875539" d="M217.624,64.129s-11.879,9.128-20.713,14.65c-1.548-5.317-9.758-32.84-9.758-32.84l23.361-3Z" transform="translate(48.955 11.356)" fill="#ca7168"/>
          </g>
        </g>
        <g id="Grupo_1106422" data-name="Grupo 1106422" transform="translate(236.108 54.176)">
          <g id="Grupo_1106421" data-name="Grupo 1106421" clip-path="url(#clip-path-25)">
            <path id="Trazado_875540" data-name="Trazado 875540" d="M195.357,15.789s-21.9,1.766-22.635,25.174,6.058,33.4,19.412,31.71c13.853-1.755,23.261-13.37,27.163-27.307,3.912-13.969-7.764-29.055-23.94-29.576" transform="translate(-190.942 -50.046)"/>
          </g>
        </g>
        <g id="Grupo_1106424" data-name="Grupo 1106424" transform="translate(0)">
          <g id="Grupo_1106423" data-name="Grupo 1106423" clip-path="url(#clip-path-4)">
            <path id="Trazado_875542" data-name="Trazado 875542" d="M201.7,10.988s-17.287.62-21.374,17.143C173.2,66.8,185.127,69.7,198.481,68c13.853-1.759,23.261-13.4,27.163-27.369,3.912-14-7.764-29.121-23.94-29.644" transform="translate(46.612 2.906)" fill="#ca7168"/>
          </g>
        </g>
        <g id="Grupo_1106426" data-name="Grupo 1106426" transform="translate(224.808 13.862)">
          <g id="Grupo_1106425" data-name="Grupo 1106425" clip-path="url(#clip-path-27)">
            <path id="Trazado_875543" data-name="Trazado 875543" d="M170.648,44.188a6.845,6.845,0,1,0,7.181-6.491,6.845,6.845,0,0,0-7.181,6.491" transform="translate(-180.172 -4.004)" fill="#c45853"/>
            <path id="Trazado_875544" data-name="Trazado 875544" d="M191.638,45.248a6.845,6.845,0,1,0,7.181-6.491,6.845,6.845,0,0,0-7.181,6.491" transform="translate(-174.682 -3.727)" fill="#c45853"/>
            <path id="Trazado_875545" data-name="Trazado 875545" d="M207.279,40.079s-2.358-.5-3.588,2.952a1.606,1.606,0,0,1,1.609,2.194" transform="translate(-171.526 -3.385)" fill="none" stroke="#000" stroke-linecap="round" stroke-linejoin="round" stroke-width="1"/>
            <path id="Trazado_875546" data-name="Trazado 875546" d="M179.988,36.814a2.89,2.89,0,0,1,4.1.207" transform="translate(-177.727 -4.438)" fill="none" stroke="#000" stroke-linecap="round" stroke-linejoin="round" stroke-width="1"/>
            <path id="Trazado_875547" data-name="Trazado 875547" d="M182.958,38.764c.067-1.331-.428-2.016-1.079-2.049s-1.212.6-1.279,1.93.428,2.016,1.079,2.049,1.212-.6,1.279-1.93" transform="translate(-177.568 -4.259)"/>
            <path id="Trazado_875548" data-name="Trazado 875548" d="M190.552,37.348a2.889,2.889,0,0,1,4.1.207" transform="translate(-174.963 -4.298)" fill="none" stroke="#000" stroke-linecap="round" stroke-linejoin="round" stroke-width="1"/>
            <path id="Trazado_875549" data-name="Trazado 875549" d="M193.523,39.3c.066-1.331-.429-2.016-1.08-2.049s-1.212.6-1.279,1.93.428,2.016,1.079,2.049,1.212-.6,1.281-1.93" transform="translate(-174.805 -4.119)"/>
            <path id="Trazado_875550" data-name="Trazado 875550" d="M184.766,46.626a6.327,6.327,0,0,0,6.339-1.254" transform="translate(-176.477 -1.994)" fill="none" stroke="#000" stroke-linecap="round" stroke-linejoin="round" stroke-width="1"/>
            <path id="Trazado_875551" data-name="Trazado 875551" d="M186.756,38.193s-.493,2.635-1.923,3.79-.642,2.709.729,2.706" transform="translate(-176.658 -3.872)" fill="none" stroke="#000" stroke-linecap="round" stroke-linejoin="round" stroke-width="1"/>
            <path id="Trazado_875552" data-name="Trazado 875552" d="M184.24,34.065c.035-.694-.854-1.3-1.986-1.36s-2.078.459-2.113,1.153.41.69,1.542.747,2.522.154,2.557-.54" transform="translate(-177.687 -5.308)"/>
            <path id="Trazado_875553" data-name="Trazado 875553" d="M194.8,34.6c.035-.694-.854-1.3-1.986-1.36s-2.078.459-2.113,1.153.409.69,1.542.747,2.522.154,2.557-.54" transform="translate(-174.924 -5.169)"/>
          </g>
        </g>
        <g id="Grupo_1106428" data-name="Grupo 1106428" transform="translate(0)">
          <g id="Grupo_1106427" data-name="Grupo 1106427" clip-path="url(#clip-path-4)">
            <path id="Trazado_875555" data-name="Trazado 875555" d="M231.876,30.477c-5.181-14.231-19.822-23.057-34.648-20.11a28.121,28.121,0,0,0-5.553,1.7C182.582,15.937,179.2,22.208,177.95,26.33a4.354,4.354,0,0,0,3.115,5.5c4.157,1.048,12.08,2.137,25.662,1,1.244,24.172-6.678,31.456-6.678,31.456s16.788,6.892,30.833-3.653c7.659-5.749,5-19.15.994-30.148" transform="translate(46.498 2.592)"/>
            <path id="Trazado_875556" data-name="Trazado 875556" d="M55.258,4.2C41-5.257,25.363,4.2,25.363,4.2,3.65,9.566,11.2,35.112,26.96,52.853a21.943,21.943,0,0,0,3.27-6.048,6.8,6.8,0,0,1-.886.089,6.714,6.714,0,1,1,3.7-12.307,104.508,104.508,0,0,0,.814-14.612s12.805.315,17.84-.316S69.515,13.666,55.258,4.2" transform="translate(3.114 0)"/>
            <path id="Trazado_875557" data-name="Trazado 875557" d="M194.888,75.681l18.574-21.024,6.217,7.078-11.7,13.946-7.609-1.228Z" transform="translate(50.978 14.454)" fill="#fff"/>
          </g>
        </g>
        <g id="Grupo_1106430" data-name="Grupo 1106430" transform="translate(245.867 69.12)">
          <g id="Grupo_1106429" data-name="Grupo 1106429" clip-path="url(#clip-path-29)">
            <path id="Trazado_875558" data-name="Trazado 875558" d="M204.653,69.282l-5.424,1.3,7.61,1.225Z" transform="translate(-193.753 -50.833)"/>
          </g>
        </g>
        <g id="Grupo_1106432" data-name="Grupo 1106432" transform="translate(0)">
          <g id="Grupo_1106431" data-name="Grupo 1106431" clip-path="url(#clip-path-4)">
            <path id="Trazado_875560" data-name="Trazado 875560" d="M196.686,74.544l-4.619-15.588L188.013,64.9Z" transform="translate(49.18 15.59)" fill="#fff"/>
            <path id="Trazado_875561" data-name="Trazado 875561" d="M23.532,52l-7.775,4.115L55.674,89.19,48.543,49.145,43.678,59.221Z" transform="translate(4.122 12.996)" fill="#d9e5f8"/>
            <path id="Trazado_875562" data-name="Trazado 875562" d="M15.757,55.147l15,27.527,25.552,8.6,4.47-20.016L49.564,52.805,54.7,86.69Z" transform="translate(4.122 13.964)" fill="#7a94f0"/>
            <path id="Trazado_875563" data-name="Trazado 875563" d="M21.779,59.647,40.848,68.44l4.2-9.682-29.291-4.1Z" transform="translate(4.122 14.454)"/>
            <path id="Trazado_875564" data-name="Trazado 875564" d="M48.7,55.223l-4.484,9.768L37.889,59.67l4.157-8.463Z" transform="translate(9.911 13.541)"/>
            <path id="Trazado_875565" data-name="Trazado 875565" d="M22.771,48.02l22.994,11.5-4.916,9.363L15.758,56.412Z" transform="translate(4.122 12.699)" fill="#fff"/>
            <path id="Trazado_875566" data-name="Trazado 875566" d="M42.945,48.02l-5.056,11.5,6.331,4.594L48.7,53.89Z" transform="translate(9.911 12.699)" fill="#fff"/>
            <line id="Línea_616" data-name="Línea 616" x2="15.087" y2="17.674" transform="translate(135.032 93.019)" fill="none" stroke="#000" stroke-linecap="round" stroke-linejoin="round" stroke-width="1"/>
            <path id="Trazado_875567" data-name="Trazado 875567" d="M107.229,118.806a1.757,1.757,0,1,1-1.756-1.76,1.758,1.758,0,0,1,1.756,1.76" transform="translate(27.13 30.952)"/>
            <path id="Trazado_875568" data-name="Trazado 875568" d="M120.593,82.552a1.757,1.757,0,1,1-2.286-.975,1.763,1.763,0,0,1,2.286.975" transform="translate(30.659 21.538)"/>
            <line id="Línea_617" data-name="Línea 617" y1="187.623" x2="1.938" transform="translate(15.02 234.55)" fill="none" stroke="#000" stroke-linecap="round" stroke-linejoin="round" stroke-width="1"/>
            <path id="Trazado_875569" data-name="Trazado 875569" d="M70.8,359.666l7.123-96.517L49.977,200.89" transform="translate(13.073 53.124)" fill="none" stroke="#000" stroke-linecap="round" stroke-linejoin="round" stroke-width="1"/>
            <path id="Trazado_875570" data-name="Trazado 875570" d="M43.989,201.976l2.7,6.777,14.4-13.007Z" transform="translate(11.507 51.764)"/>
            <path id="Trazado_875571" data-name="Trazado 875571" d="M207.044,121.657s-1.683-9.558-6.864-11.371a12.141,12.141,0,0,1,.349,9.788" transform="translate(52.363 29.164)" fill="none" stroke="#000" stroke-linecap="round" stroke-linejoin="round" stroke-width="1"/>
            <path id="Trazado_875572" data-name="Trazado 875572" d="M47.924,117.433s1.682-9.558,6.863-11.371a12.141,12.141,0,0,0-.349,9.788" transform="translate(12.536 28.047)" fill="none" stroke="#000" stroke-linecap="round" stroke-linejoin="round" stroke-width="1"/>
            <line id="Línea_618" data-name="Línea 618" x2="3.349" y2="24.63" transform="translate(126.275 130.318)" fill="none" stroke="#000" stroke-linecap="round" stroke-linejoin="round" stroke-width="1"/>
          </g>
        </g>
      </g>
    </g>
  </g>
</svg>
