<svg xmlns="http://www.w3.org/2000/svg" width="85" height="85" viewBox="0 0 85 85">
  <g id="Grupo_1106530" data-name="Grupo 1106530" transform="translate(-310 -1097)">
    <g id="Grupo_1106195" data-name="Grupo 1106195" transform="translate(-0.051 -1)">
      <circle id="Elipse_11624" data-name="Elipse 11624" cx="42.5" cy="42.5" r="42.5" transform="translate(310.051 1098)" fill="#c5b236"/>
    </g>
    <g id="discusion" transform="translate(321.999 1109)">
      <g id="Grupo_1106528" data-name="Grupo 1106528" transform="translate(0.885 0.885)">
        <g id="Grupo_1106527" data-name="Grupo 1106527">
          <path id="Trazado_875773" data-name="Trazado 875773" d="M22.874,433.067H8.214a.714.714,0,0,1-.7-.837l1.16-6.645a2.5,2.5,0,0,1,2.464-2.071h8.819a2.5,2.5,0,0,1,2.464,2.071l1.16,6.645A.714.714,0,0,1,22.874,433.067Z" transform="translate(-7.499 -374.44)" fill="#ffe177"/>
          <path id="Trazado_875774" data-name="Trazado 875774" d="M109.06,432.23l-1.16-6.645a2.5,2.5,0,0,0-2.464-2.071h-2.359a2.5,2.5,0,0,1,2.464,2.071l1.16,6.645a.714.714,0,0,1-.7.837h2.359A.714.714,0,0,0,109.06,432.23Z" transform="translate(-91.802 -374.44)" fill="#ffc344"/>
          <path id="Trazado_875775" data-name="Trazado 875775" d="M61.921,383.739a2.511,2.511,0,0,1-2.511-2.511V374.3h5.022v6.93A2.511,2.511,0,0,1,61.921,383.739Z" transform="translate(-53.287 -331.03)" fill="#f6a96c"/>
          <path id="Trazado_875776" data-name="Trazado 875776" d="M42.557,323.62a5.161,5.161,0,0,1-1.18-.019,5.1,5.1,0,0,1-3.92-4.963v-2.025c0-2.411,1.672-3.251,3.92-3.784.379-.09.774-1.2,1.18-1.2a4.9,4.9,0,0,1,4.982,4.982v2.025A4.9,4.9,0,0,1,42.557,323.62Z" transform="translate(-33.923 -275.754)" fill="#fed2a4"/>
          <path id="Trazado_875777" data-name="Trazado 875777" d="M71.875,320.63a5.114,5.114,0,0,0-1.18.139c1.984.47,3.52.918,3.853,2.951a5.13,5.13,0,0,1,.067.831v2.025a5.1,5.1,0,0,1-3.921,4.962,5.1,5.1,0,0,0,6.28-4.962v-2.025a5.082,5.082,0,0,0-.461-2.122C75.709,320.671,73.934,320.63,71.875,320.63Z" transform="translate(-63.24 -283.693)" fill="#ffbd86"/>
          <path id="Trazado_875778" data-name="Trazado 875778" d="M46.351,314.292c-.805-1.758-1.734-2.86-3.794-2.86a5.16,5.16,0,0,0-1.18.019,5.1,5.1,0,0,0-3.92,4.963s3,1.831,7.774-.831C45.856,315.235,45.668,314.808,46.351,314.292Z" transform="translate(-33.923 -275.556)" fill="#a79ba7"/>
          <path id="Trazado_875779" data-name="Trazado 875779" d="M71.875,310.63a5.11,5.11,0,0,0-1.18.139,5.105,5.105,0,0,1,3.853,4.13,16.918,16.918,0,0,0,1.965-1.29A5.1,5.1,0,0,0,71.875,310.63Z" transform="translate(-63.24 -274.872)" fill="#918291"/>
          <path id="Trazado_875780" data-name="Trazado 875780" d="M373.484,433.067h-14.66a.714.714,0,0,1-.7-.837l1.16-6.645a2.5,2.5,0,0,1,2.464-2.071h8.819a2.5,2.5,0,0,1,2.464,2.071l1.16,6.645A.714.714,0,0,1,373.484,433.067Z" transform="translate(-316.751 -374.44)" fill="#cb97e7"/>
          <path id="Trazado_875781" data-name="Trazado 875781" d="M459.67,432.23l-1.16-6.645a2.5,2.5,0,0,0-2.464-2.071h-2.359a2.5,2.5,0,0,1,2.464,2.071l1.16,6.645a.714.714,0,0,1-.7.837h2.359A.714.714,0,0,0,459.67,432.23Z" transform="translate(-401.054 -374.44)" fill="#af66da"/>
          <path id="Trazado_875782" data-name="Trazado 875782" d="M412.531,383.739a2.511,2.511,0,0,1-2.511-2.511V374.3h5.022v6.93A2.511,2.511,0,0,1,412.531,383.739Z" transform="translate(-362.538 -331.03)" fill="#f6a96c"/>
          <path id="Trazado_875783" data-name="Trazado 875783" d="M393.167,323.62a5.161,5.161,0,0,1-1.18-.019,5.1,5.1,0,0,1-3.92-4.963v-2.025c0-2.411,1.672-3.251,3.92-3.784.379-.09.774-1.2,1.18-1.2a4.9,4.9,0,0,1,4.982,4.982v2.025A4.9,4.9,0,0,1,393.167,323.62Z" transform="translate(-343.175 -275.754)" fill="#fed2a4"/>
          <path id="Trazado_875784" data-name="Trazado 875784" d="M422.485,320.63a5.114,5.114,0,0,0-1.18.139c1.984.47,3.52.918,3.853,2.951a5.128,5.128,0,0,1,.067.831v2.025a5.1,5.1,0,0,1-3.921,4.962,5.1,5.1,0,0,0,6.28-4.962v-2.025a5.082,5.082,0,0,0-.461-2.122C426.319,320.671,424.544,320.63,422.485,320.63Z" transform="translate(-372.492 -283.693)" fill="#ffbd86"/>
          <path id="Trazado_875785" data-name="Trazado 875785" d="M396.961,314.292c-.805-1.758-1.734-2.86-3.794-2.86a5.16,5.16,0,0,0-1.18.019,5.1,5.1,0,0,0-3.92,4.963s3,1.831,7.774-.831C396.466,315.235,396.278,314.808,396.961,314.292Z" transform="translate(-343.175 -275.556)" fill="#a79ba7"/>
          <path id="Trazado_875786" data-name="Trazado 875786" d="M422.485,310.63a5.111,5.111,0,0,0-1.18.139,5.105,5.105,0,0,1,3.853,4.13,16.922,16.922,0,0,0,1.965-1.29A5.1,5.1,0,0,0,422.485,310.63Z" transform="translate(-372.492 -274.872)" fill="#918291"/>
          <path id="Trazado_875787" data-name="Trazado 875787" d="M22.874,129.937H8.214a.714.714,0,0,1-.7-.837l1.16-6.645a2.5,2.5,0,0,1,2.464-2.071h8.819a2.5,2.5,0,0,1,2.464,2.071l1.16,6.645A.714.714,0,0,1,22.874,129.937Z" transform="translate(-7.499 -107.068)" fill="#fe73c5"/>
          <path id="Trazado_875788" data-name="Trazado 875788" d="M109.06,129.1l-1.16-6.645a2.5,2.5,0,0,0-2.464-2.071h-2.359a2.5,2.5,0,0,1,2.464,2.071l1.16,6.645a.714.714,0,0,1-.7.837h2.359A.714.714,0,0,0,109.06,129.1Z" transform="translate(-91.802 -107.069)" fill="#fe2aa8"/>
          <path id="Trazado_875789" data-name="Trazado 875789" d="M61.921,80.609A2.511,2.511,0,0,1,59.41,78.1v-6.93h5.022V78.1A2.511,2.511,0,0,1,61.921,80.609Z" transform="translate(-53.287 -63.658)" fill="#f6a96c"/>
          <path id="Trazado_875790" data-name="Trazado 875790" d="M42.557,20.49a5.162,5.162,0,0,1-1.18-.019,5.1,5.1,0,0,1-3.92-4.963V13.482c0-2.411,1.672-3.251,3.92-3.784.379-.09.774-1.2,1.18-1.2a4.9,4.9,0,0,1,4.982,4.982v2.025A4.9,4.9,0,0,1,42.557,20.49Z" transform="translate(-33.923 -8.382)" fill="#fed2a4"/>
          <path id="Trazado_875791" data-name="Trazado 875791" d="M71.875,17.5a5.114,5.114,0,0,0-1.18.139c1.984.47,3.52.918,3.853,2.951a5.13,5.13,0,0,1,.067.831v2.025A5.1,5.1,0,0,1,70.7,28.407a5.1,5.1,0,0,0,6.28-4.962V21.421a5.082,5.082,0,0,0-.461-2.122C75.709,17.541,73.934,17.5,71.875,17.5Z" transform="translate(-63.24 -16.32)" fill="#ffbd86"/>
          <path id="Trazado_875792" data-name="Trazado 875792" d="M46.351,11.163C45.546,9.4,44.617,8.3,42.557,8.3a5.162,5.162,0,0,0-1.18.019,5.1,5.1,0,0,0-3.92,4.963s3,1.831,7.774-.831C45.856,12.106,45.668,11.679,46.351,11.163Z" transform="translate(-33.923 -8.185)" fill="#a79ba7"/>
          <path id="Trazado_875793" data-name="Trazado 875793" d="M71.875,7.5a5.114,5.114,0,0,0-1.18.139,5.105,5.105,0,0,1,3.853,4.13,16.934,16.934,0,0,0,1.965-1.29A5.1,5.1,0,0,0,71.875,7.5Z" transform="translate(-63.24 -7.5)" fill="#918291"/>
          <path id="Trazado_875794" data-name="Trazado 875794" d="M373.484,129.937h-14.66a.714.714,0,0,1-.7-.837l1.16-6.645a2.5,2.5,0,0,1,2.464-2.071h8.819a2.5,2.5,0,0,1,2.464,2.071l1.16,6.645A.714.714,0,0,1,373.484,129.937Z" transform="translate(-316.751 -107.068)" fill="#62dbfb"/>
          <path id="Trazado_875795" data-name="Trazado 875795" d="M459.67,129.1l-1.16-6.645a2.5,2.5,0,0,0-2.464-2.071h-2.359a2.5,2.5,0,0,1,2.464,2.071l1.16,6.645a.714.714,0,0,1-.7.837h2.359A.714.714,0,0,0,459.67,129.1Z" transform="translate(-401.054 -107.069)" fill="#01c0fa"/>
          <path id="Trazado_875796" data-name="Trazado 875796" d="M412.531,80.609A2.511,2.511,0,0,1,410.02,78.1v-6.93h5.022V78.1A2.511,2.511,0,0,1,412.531,80.609Z" transform="translate(-362.538 -63.658)" fill="#f6a96c"/>
          <path id="Trazado_875797" data-name="Trazado 875797" d="M393.167,20.49a5.162,5.162,0,0,1-1.18-.019,5.1,5.1,0,0,1-3.92-4.963V13.482c0-2.411,1.672-3.251,3.92-3.784.379-.09.774-1.2,1.18-1.2a4.9,4.9,0,0,1,4.982,4.982v2.025A4.9,4.9,0,0,1,393.167,20.49Z" transform="translate(-343.175 -8.382)" fill="#fed2a4"/>
          <path id="Trazado_875798" data-name="Trazado 875798" d="M422.485,17.5a5.115,5.115,0,0,0-1.18.139c1.984.47,3.52.918,3.853,2.951a5.128,5.128,0,0,1,.067.831v2.025a5.1,5.1,0,0,1-3.921,4.962,5.1,5.1,0,0,0,6.28-4.962V21.421a5.082,5.082,0,0,0-.461-2.122C426.319,17.541,424.544,17.5,422.485,17.5Z" transform="translate(-372.492 -16.32)" fill="#ffbd86"/>
          <path id="Trazado_875799" data-name="Trazado 875799" d="M396.961,11.163c-.805-1.758-1.734-2.86-3.794-2.86a5.162,5.162,0,0,0-1.18.019,5.1,5.1,0,0,0-3.92,4.963s3,1.831,7.774-.831C396.466,12.106,396.278,11.679,396.961,11.163Z" transform="translate(-343.175 -8.185)" fill="#a79ba7"/>
          <path id="Trazado_875800" data-name="Trazado 875800" d="M422.485,7.5a5.115,5.115,0,0,0-1.18.139,5.105,5.105,0,0,1,3.853,4.13,16.938,16.938,0,0,0,1.965-1.29A5.1,5.1,0,0,0,422.485,7.5Z" transform="translate(-372.492 -7.5)" fill="#918291"/>
          <path id="Trazado_875801" data-name="Trazado 875801" d="M198.42,175.88c0-4.8-2.7-8.571-7.494-8.589A8.637,8.637,0,0,0,187.76,184a1.181,1.181,0,0,1,.6.511l.763,1.321,1.259,1.318a.59.59,0,0,0,1.022,0l.842-2.64a1.178,1.178,0,0,1,.6-.51,8.708,8.708,0,0,0,5.578-8.125Z" transform="translate(-161.578 -148.428)" fill="#bbec6c"/>
          <path id="Trazado_875802" data-name="Trazado 875802" d="M242.8,166.4a8.637,8.637,0,0,0-1.793.182,8.708,8.708,0,0,1,1.35,16.651,1.178,1.178,0,0,0-.6.51L241,185.064l1.259,2.18a.59.59,0,0,0,1.022,0l2.021-3.5a1.179,1.179,0,0,1,.6-.51,8.707,8.707,0,0,0-3.1-16.833Z" transform="translate(-213.456 -147.656)" fill="#97d729"/>
        </g>
      </g>
      <g id="Grupo_1106529" data-name="Grupo 1106529" transform="translate(0.001)">
        <path id="Trazado_875803" data-name="Trazado 875803" d="M59.213,51.878a3.38,3.38,0,0,0-3.336-2.8h-1.6v-.381a5.982,5.982,0,0,0,2.59-4.925V41.743A5.993,5.993,0,0,0,51.6,35.8a22.246,22.246,0,0,0,.012-11.164H58.8a1.6,1.6,0,0,0,1.575-1.874l-.463-2.652a.885.885,0,1,0-1.743.3l.428,2.453H43.161l1.125-6.445a1.614,1.614,0,0,1,1.592-1.339h1.6v.239a3.4,3.4,0,0,0,6.791,0v-.239h1.6a1.614,1.614,0,0,1,1.593,1.339.885.885,0,1,0,1.743-.3,3.38,3.38,0,0,0-3.336-2.8h-1.6v-.381a5.982,5.982,0,0,0,2.59-4.925V5.985a5.985,5.985,0,1,0-11.97,0V8.01a5.982,5.982,0,0,0,2.59,4.925v.381h-1.6a3.389,3.389,0,0,0-1.157.2,22.116,22.116,0,0,0-29.046,0,3.391,3.391,0,0,0-1.157-.2h-1.6v-.381A5.982,5.982,0,0,0,15.5,8.01V5.985a5.985,5.985,0,0,0-11.97,0V8.01a5.982,5.982,0,0,0,2.59,4.925v.381H4.52a3.38,3.38,0,0,0-3.336,2.8L.025,22.765A1.6,1.6,0,0,0,1.6,24.639H8.788A22.245,22.245,0,0,0,8.8,35.8a5.993,5.993,0,0,0-5.265,5.94v2.025a5.982,5.982,0,0,0,2.59,4.925v.381H4.52a3.38,3.38,0,0,0-3.336,2.8L.025,58.523A1.6,1.6,0,0,0,1.6,60.4H17.44a1.6,1.6,0,0,0,1.575-1.874l-1.16-6.645a3.38,3.38,0,0,0-3.335-2.8h-1.6v-.381a6.022,6.022,0,0,0,2.055-2.457,22.042,22.042,0,0,0,13.178,5.986c.028,0,.055,0,.082,0a.885.885,0,0,0,.08-1.766,20.287,20.287,0,0,1-12.826-6.21c.013-.159.021-.319.021-.481V41.743a5.994,5.994,0,0,0-4.853-5.876,20.473,20.473,0,0,1-.031-11.228H17.44a1.6,1.6,0,0,0,1.575-1.874l-1.16-6.645a3.38,3.38,0,0,0-.7-1.54,20.345,20.345,0,0,1,26.081,0,3.38,3.38,0,0,0-.7,1.54l-1.16,6.645a1.6,1.6,0,0,0,1.575,1.874h6.818a20.472,20.472,0,0,1-.031,11.228,5.994,5.994,0,0,0-4.853,5.876v2.025c0,.162.008.322.021.481a20.3,20.3,0,0,1-12.773,6.205.885.885,0,0,0,.082,1.766c.028,0,.056,0,.084,0a22.058,22.058,0,0,0,13.119-5.981,6.023,6.023,0,0,0,2.055,2.458v.381h-1.6a3.38,3.38,0,0,0-3.336,2.8l-1.16,6.645A1.6,1.6,0,0,0,42.958,60.4H58.8a1.6,1.6,0,0,0,1.575-1.874ZM52.5,15.325a1.626,1.626,0,1,1-3.252,0V13.769a5.954,5.954,0,0,0,3.252,0ZM50.878,1.769a4.214,4.214,0,0,1,3.48,1.84C50.473,6.292,47.746,5.8,46.7,5.43a4.221,4.221,0,0,1,4.178-3.661ZM46.662,7.258a7.764,7.764,0,0,0,1.9.229,11.759,11.759,0,0,0,6.471-2.2,4.223,4.223,0,0,1,.059.7V8.01a4.216,4.216,0,0,1-8.431,0V7.258ZM11.146,51.083a1.626,1.626,0,1,1-3.252,0V49.526a5.954,5.954,0,0,0,3.252,0Zm3.373-.239a1.614,1.614,0,0,1,1.592,1.339l1.125,6.445H1.8l1.125-6.445A1.614,1.614,0,0,1,4.52,50.843h1.6v.239a3.4,3.4,0,1,0,6.791,0v-.239h1.6Zm-.784-7.076a4.216,4.216,0,0,1-8.431,0v-.752a7.764,7.764,0,0,0,1.9.229,11.758,11.758,0,0,0,6.471-2.2,4.223,4.223,0,0,1,.059.7ZM13,39.367c-3.886,2.683-6.612,2.189-7.658,1.821A4.213,4.213,0,0,1,13,39.367Zm-5.106-25.6a5.954,5.954,0,0,0,3.252,0v1.556a1.626,1.626,0,1,1-3.252,0Zm1.626-12A4.214,4.214,0,0,1,13,3.609C9.114,6.292,6.387,5.8,5.341,5.43A4.221,4.221,0,0,1,9.52,1.769ZM5.3,7.258a7.764,7.764,0,0,0,1.9.229,11.759,11.759,0,0,0,6.471-2.2,4.223,4.223,0,0,1,.059.7V8.01a4.216,4.216,0,0,1-8.431,0V7.258ZM1.8,22.869l1.125-6.445A1.614,1.614,0,0,1,4.52,15.085h1.6v.239a3.4,3.4,0,1,0,6.791,0v-.239h1.6a1.614,1.614,0,0,1,1.592,1.339l1.125,6.445ZM49.252,49.526a5.954,5.954,0,0,0,3.252,0v1.556a1.626,1.626,0,1,1-3.252,0Zm1.626-12a4.214,4.214,0,0,1,3.48,1.84c-3.886,2.683-6.612,2.189-7.658,1.821A4.221,4.221,0,0,1,50.878,37.527Zm-4.216,5.489a7.764,7.764,0,0,0,1.9.229,11.758,11.758,0,0,0,6.471-2.2,4.223,4.223,0,0,1,.059.7v2.025a4.216,4.216,0,1,1-8.431,0Zm-3.5,15.611,1.125-6.445a1.614,1.614,0,0,1,1.592-1.339h1.6v.239a3.4,3.4,0,1,0,6.791,0v-.239h1.6a1.614,1.614,0,0,1,1.593,1.339L58.6,58.627Z" transform="translate(-0.001 0)"/>
        <path id="Trazado_875804" data-name="Trazado 875804" d="M221.045,233.6a.885.885,0,1,0-.885.885A.885.885,0,0,0,221.045,233.6Z" transform="translate(-193.41 -205.264)"/>
        <path id="Trazado_875805" data-name="Trazado 875805" d="M250.269,233.6a.885.885,0,1,0-.885.885A.885.885,0,0,0,250.269,233.6Z" transform="translate(-219.187 -205.264)"/>
        <path id="Trazado_875806" data-name="Trazado 875806" d="M278.609,234.485a.885.885,0,1,0-.885-.885A.885.885,0,0,0,278.609,234.485Z" transform="translate(-244.963 -205.264)"/>
        <path id="Trazado_875807" data-name="Trazado 875807" d="M189.041,177.571a.3.3,0,0,1,.149-.127A9.592,9.592,0,0,0,185.78,158.9h-.036a9.669,9.669,0,0,0-9.351,7.451.885.885,0,0,0,1.724.4,7.886,7.886,0,0,1,7.627-6.078h.029a7.823,7.823,0,0,1,2.781,15.122,2.069,2.069,0,0,0-1.046.893l-1.766,3.059-1.766-3.059a2.074,2.074,0,0,0-1.047-.894,7.8,7.8,0,0,1-4.833-5.64.885.885,0,0,0-1.73.374,9.56,9.56,0,0,0,5.926,6.917.3.3,0,0,1,.152.128l2.021,3.5a1.459,1.459,0,0,0,1.277.737h0a1.459,1.459,0,0,0,1.277-.737Z" transform="translate(-155.544 -140.158)"/>
      </g>
    </g>
  </g>
</svg>
