<svg xmlns="http://www.w3.org/2000/svg" xmlns:xlink="http://www.w3.org/1999/xlink" width="396.751" height="639.993" viewBox="0 0 396.751 639.993">
  <defs>
    <clipPath id="clip-path">
      <rect id="Rectángulo_403124" data-name="Rectángulo 403124" width="158.938" height="104.946" fill="none"/>
    </clipPath>
    <clipPath id="clip-path-2">
      <rect id="Rectángulo_403125" data-name="Rectángulo 403125" width="163.751" height="74.425" fill="none"/>
    </clipPath>
    <clipPath id="clip-path-3">
      <rect id="Rectángulo_401592" data-name="Rectángulo 401592" width="73.027" height="64.121" fill="none"/>
    </clipPath>
    <clipPath id="clip-path-5">
      <rect id="Rectángulo_403121" data-name="Rectángulo 403121" width="396.443" height="342.208" fill="none"/>
    </clipPath>
  </defs>
  <g id="Grupo_1106555" data-name="Grupo 1106555" transform="translate(-1021.051 -1221.215)">
    <rect id="Rectángulo_35205" data-name="Rectángulo 35205" width="252.179" height="457.104" rx="126" transform="translate(1085.487 1233)" fill="#7bb5f2"/>
    <g id="Grupo_1106435" data-name="Grupo 1106435" transform="translate(849.292 -5373.785)">
      <path id="Trazado_113538" data-name="Trazado 113538" d="M165.841,25.32c-7.561,0-11.294-6.1-14.292-10.995-3.037-4.957-5.094-8-8.966-8s-5.925,3.039-8.955,8c-3,4.9-6.731,10.995-14.288,10.995s-11.294-6.1-14.292-10.995c-3.034-4.957-5.091-8-8.959-8s-5.921,3.039-8.955,8c-3,4.9-6.731,10.995-14.288,10.995s-11.29-6.1-14.285-10.995c-3.034-4.957-5.087-8-8.952-8s-5.918,3.039-8.952,8c-3,4.9-6.727,10.995-14.285,10.995s-11.287-6.1-14.285-10.995c-3.034-4.957-5.087-8-8.952-8A3.165,3.165,0,0,1,3.137,0c7.554,0,11.287,6.1,14.285,11,3.03,4.954,5.087,7.992,8.952,7.992S32.291,15.952,35.325,11c3-4.9,6.731-11,14.285-11S60.9,6.1,63.891,10.995c3.034,4.957,5.087,8,8.955,8s5.921-3.039,8.955-8C84.8,6.1,88.532,0,96.09,0s11.29,6.1,14.292,10.995c3.03,4.957,5.087,8,8.959,8s5.921-3.039,8.955-8C131.29,6.1,135.026,0,142.584,0s11.3,6.1,14.3,10.995c3.037,4.957,5.094,8,8.962,8s5.929-3.039,8.966-8C177.805,6.1,181.541,0,189.1,0a3.149,3.149,0,0,1,3.134,3.165A3.147,3.147,0,0,1,189.1,6.329c-3.872,0-5.929,3.039-8.966,8C177.139,19.225,173.406,25.32,165.841,25.32Z" transform="translate(369.98 6708.523) rotate(180)" fill="#fff"/>
      <path id="Trazado_126936" data-name="Trazado 126936" d="M165.841,25.32c-7.561,0-11.294-6.1-14.292-10.995-3.037-4.957-5.094-8-8.966-8s-5.925,3.039-8.955,8c-3,4.9-6.731,10.995-14.288,10.995s-11.294-6.1-14.292-10.995c-3.034-4.957-5.091-8-8.959-8s-5.921,3.039-8.955,8c-3,4.9-6.731,10.995-14.288,10.995s-11.29-6.1-14.285-10.995c-3.034-4.957-5.087-8-8.952-8s-5.918,3.039-8.952,8c-3,4.9-6.727,10.995-14.285,10.995s-11.287-6.1-14.285-10.995c-3.034-4.957-5.087-8-8.952-8A3.165,3.165,0,0,1,3.137,0c7.554,0,11.287,6.1,14.285,11,3.03,4.954,5.087,7.992,8.952,7.992S32.291,15.952,35.325,11c3-4.9,6.731-11,14.285-11S60.9,6.1,63.891,10.995c3.034,4.957,5.087,8,8.955,8s5.921-3.039,8.955-8C84.8,6.1,88.532,0,96.09,0s11.29,6.1,14.292,10.995c3.03,4.957,5.087,8,8.959,8s5.921-3.039,8.955-8C131.29,6.1,135.026,0,142.584,0s11.3,6.1,14.3,10.995c3.037,4.957,5.094,8,8.962,8s5.929-3.039,8.966-8C177.805,6.1,181.541,0,189.1,0a3.149,3.149,0,0,1,3.134,3.165A3.147,3.147,0,0,1,189.1,6.329c-3.872,0-5.929,3.039-8.966,8C177.139,19.225,173.406,25.32,165.841,25.32Z" transform="translate(369.98 6794.464) rotate(180)" fill="#fff"/>
      <path id="Trazado_126924" data-name="Trazado 126924" d="M165.841,25.32c-7.561,0-11.294-6.1-14.292-10.995-3.037-4.957-5.094-8-8.966-8s-5.925,3.039-8.955,8c-3,4.9-6.731,10.995-14.288,10.995s-11.294-6.1-14.292-10.995c-3.034-4.957-5.091-8-8.959-8s-5.921,3.039-8.955,8c-3,4.9-6.731,10.995-14.288,10.995s-11.29-6.1-14.285-10.995c-3.034-4.957-5.087-8-8.952-8s-5.918,3.039-8.952,8c-3,4.9-6.727,10.995-14.285,10.995s-11.287-6.1-14.285-10.995c-3.034-4.957-5.087-8-8.952-8A3.165,3.165,0,0,1,3.137,0c7.554,0,11.287,6.1,14.285,11,3.03,4.954,5.087,7.992,8.952,7.992S32.291,15.952,35.325,11c3-4.9,6.731-11,14.285-11S60.9,6.1,63.891,10.995c3.034,4.957,5.087,8,8.955,8s5.921-3.039,8.955-8C84.8,6.1,88.532,0,96.09,0s11.29,6.1,14.292,10.995c3.03,4.957,5.087,8,8.959,8s5.921-3.039,8.955-8C131.29,6.1,135.026,0,142.584,0s11.3,6.1,14.3,10.995c3.037,4.957,5.094,8,8.962,8s5.929-3.039,8.966-8C177.805,6.1,181.541,0,189.1,0a3.149,3.149,0,0,1,3.134,3.165A3.147,3.147,0,0,1,189.1,6.329c-3.872,0-5.929,3.039-8.966,8C177.139,19.225,173.406,25.32,165.841,25.32Z" transform="translate(369.98 6649.721) rotate(180)" fill="#fff"/>
      <path id="Trazado_126938" data-name="Trazado 126938" d="M165.841,25.32c-7.561,0-11.294-6.1-14.292-10.995-3.037-4.957-5.094-8-8.966-8s-5.925,3.039-8.955,8c-3,4.9-6.731,10.995-14.288,10.995s-11.294-6.1-14.292-10.995c-3.034-4.957-5.091-8-8.959-8s-5.921,3.039-8.955,8c-3,4.9-6.731,10.995-14.288,10.995s-11.29-6.1-14.285-10.995c-3.034-4.957-5.087-8-8.952-8s-5.918,3.039-8.952,8c-3,4.9-6.727,10.995-14.285,10.995s-11.287-6.1-14.285-10.995c-3.034-4.957-5.087-8-8.952-8A3.165,3.165,0,0,1,3.137,0c7.554,0,11.287,6.1,14.285,11,3.03,4.954,5.087,7.992,8.952,7.992S32.291,15.952,35.325,11c3-4.9,6.731-11,14.285-11S60.9,6.1,63.891,10.995c3.034,4.957,5.087,8,8.955,8s5.921-3.039,8.955-8C84.8,6.1,88.532,0,96.09,0s11.29,6.1,14.292,10.995c3.03,4.957,5.087,8,8.959,8s5.921-3.039,8.955-8C131.29,6.1,135.026,0,142.584,0s11.3,6.1,14.3,10.995c3.037,4.957,5.094,8,8.962,8s5.929-3.039,8.966-8C177.805,6.1,181.541,0,189.1,0a3.149,3.149,0,0,1,3.134,3.165A3.147,3.147,0,0,1,189.1,6.329c-3.872,0-5.929,3.039-8.966,8C177.139,19.225,173.406,25.32,165.841,25.32Z" transform="translate(369.98 6735.663) rotate(180)" fill="#fff"/>
      <path id="Trazado_113539" data-name="Trazado 113539" d="M165.841,25.32c-7.561,0-11.294-6.1-14.292-10.995-3.037-4.957-5.094-8-8.966-8s-5.925,3.039-8.955,8c-3,4.9-6.731,10.995-14.288,10.995s-11.294-6.1-14.292-10.995c-3.034-4.957-5.091-8-8.959-8s-5.921,3.039-8.955,8c-3,4.9-6.731,10.995-14.288,10.995s-11.29-6.1-14.285-10.995c-3.034-4.957-5.087-8-8.952-8s-5.918,3.039-8.952,8c-3,4.9-6.727,10.995-14.285,10.995s-11.287-6.1-14.285-10.995c-3.034-4.957-5.087-8-8.952-8A3.165,3.165,0,0,1,3.137,0c7.554,0,11.287,6.1,14.285,11,3.03,4.954,5.087,7.992,8.952,7.992S32.291,15.952,35.325,11c3-4.9,6.731-11,14.285-11S60.9,6.1,63.891,10.995c3.034,4.957,5.087,8,8.955,8s5.921-3.039,8.955-8C84.8,6.1,88.532,0,96.09,0s11.29,6.1,14.292,10.995c3.03,4.957,5.087,8,8.959,8s5.921-3.039,8.955-8C131.29,6.1,135.026,0,142.584,0s11.3,6.1,14.3,10.995c3.037,4.957,5.094,8,8.962,8s5.929-3.039,8.966-8C177.805,6.1,181.541,0,189.1,0a3.149,3.149,0,0,1,3.134,3.165A3.147,3.147,0,0,1,189.1,6.329c-3.872,0-5.929,3.039-8.966,8C177.139,19.225,173.406,25.32,165.841,25.32Z" transform="translate(369.98 6679.123) rotate(180)" fill="#fff"/>
      <path id="Trazado_126937" data-name="Trazado 126937" d="M165.841,25.32c-7.561,0-11.294-6.1-14.292-10.995-3.037-4.957-5.094-8-8.966-8s-5.925,3.039-8.955,8c-3,4.9-6.731,10.995-14.288,10.995s-11.294-6.1-14.292-10.995c-3.034-4.957-5.091-8-8.959-8s-5.921,3.039-8.955,8c-3,4.9-6.731,10.995-14.288,10.995s-11.29-6.1-14.285-10.995c-3.034-4.957-5.087-8-8.952-8s-5.918,3.039-8.952,8c-3,4.9-6.727,10.995-14.285,10.995s-11.287-6.1-14.285-10.995c-3.034-4.957-5.087-8-8.952-8A3.165,3.165,0,0,1,3.137,0c7.554,0,11.287,6.1,14.285,11,3.03,4.954,5.087,7.992,8.952,7.992S32.291,15.952,35.325,11c3-4.9,6.731-11,14.285-11S60.9,6.1,63.891,10.995c3.034,4.957,5.087,8,8.955,8s5.921-3.039,8.955-8C84.8,6.1,88.532,0,96.09,0s11.29,6.1,14.292,10.995c3.03,4.957,5.087,8,8.959,8s5.921-3.039,8.955-8C131.29,6.1,135.026,0,142.584,0s11.3,6.1,14.3,10.995c3.037,4.957,5.094,8,8.962,8s5.929-3.039,8.966-8C177.805,6.1,181.541,0,189.1,0a3.149,3.149,0,0,1,3.134,3.165A3.147,3.147,0,0,1,189.1,6.329c-3.872,0-5.929,3.039-8.966,8C177.139,19.225,173.406,25.32,165.841,25.32Z" transform="translate(369.98 6765.063) rotate(180)" fill="#fff"/>
      <path id="Trazado_126923" data-name="Trazado 126923" d="M165.841,25.32c-7.561,0-11.294-6.1-14.292-10.995-3.037-4.957-5.094-8-8.966-8s-5.925,3.039-8.955,8c-3,4.9-6.731,10.995-14.288,10.995s-11.294-6.1-14.292-10.995c-3.034-4.957-5.091-8-8.959-8s-5.921,3.039-8.955,8c-3,4.9-6.731,10.995-14.288,10.995s-11.29-6.1-14.285-10.995c-3.034-4.957-5.087-8-8.952-8s-5.918,3.039-8.952,8c-3,4.9-6.727,10.995-14.285,10.995s-11.287-6.1-14.285-10.995c-3.034-4.957-5.087-8-8.952-8A3.165,3.165,0,0,1,3.137,0c7.554,0,11.287,6.1,14.285,11,3.03,4.954,5.087,7.992,8.952,7.992S32.291,15.952,35.325,11c3-4.9,6.731-11,14.285-11S60.9,6.1,63.891,10.995c3.034,4.957,5.087,8,8.955,8s5.921-3.039,8.955-8C84.8,6.1,88.532,0,96.09,0s11.29,6.1,14.292,10.995c3.03,4.957,5.087,8,8.959,8s5.921-3.039,8.955-8C131.29,6.1,135.026,0,142.584,0s11.3,6.1,14.3,10.995c3.037,4.957,5.094,8,8.962,8s5.929-3.039,8.966-8C177.805,6.1,181.541,0,189.1,0a3.149,3.149,0,0,1,3.134,3.165A3.147,3.147,0,0,1,189.1,6.329c-3.872,0-5.929,3.039-8.966,8C177.139,19.225,173.406,25.32,165.841,25.32Z" transform="translate(369.98 6620.32) rotate(180)" fill="#fff"/>
    </g>
    <g id="Grupo_1106537" data-name="Grupo 1106537" transform="translate(1021.051 1331.054)">
      <rect id="Rectángulo_403122" data-name="Rectángulo 403122" width="157.703" height="104.276" transform="translate(0.741 0.084)" fill="#daeada"/>
      <rect id="Rectángulo_403123" data-name="Rectángulo 403123" width="157.703" height="6.745" transform="translate(0.741 0.001)" fill="#6f9185"/>
      <g id="Grupo_1106536" data-name="Grupo 1106536">
        <g id="Grupo_1106535" data-name="Grupo 1106535" clip-path="url(#clip-path)">
          <path id="Trazado_875925" data-name="Trazado 875925" d="M9.112,4.123A1.688,1.688,0,1,0,7.424,5.811,1.688,1.688,0,0,0,9.112,4.123" transform="translate(-1.98 -0.841)" fill="#a31c1c"/>
          <path id="Trazado_875926" data-name="Trazado 875926" d="M17.7,4.123a1.688,1.688,0,1,0-1.688,1.688A1.688,1.688,0,0,0,17.7,4.123" transform="translate(-4.947 -0.841)" fill="#ebb37b"/>
          <path id="Trazado_875927" data-name="Trazado 875927" d="M26.728,4.123A1.688,1.688,0,1,0,25.04,5.811a1.688,1.688,0,0,0,1.688-1.688" transform="translate(-8.063 -0.841)" fill="#9da7a0"/>
          <path id="Trazado_875928" data-name="Trazado 875928" d="M133.853,59.885A39.492,39.492,0,1,0,94.361,99.377a39.492,39.492,0,0,0,39.492-39.492" transform="translate(-18.944 -7.041)" fill="#bad6cb"/>
          <path id="Trazado_875929" data-name="Trazado 875929" d="M97.371,44.132l38.974,26.95L95.713,93.471s.622-50.376,1.658-49.339" transform="translate(-33.046 -15.231)" fill="#fff"/>
          <path id="Trazado_875930" data-name="Trazado 875930" d="M70.6,118.79H.495A.5.5,0,0,1,0,118.295V40.855a.495.495,0,0,1,.99,0V117.8H70.6a.495.495,0,1,1,0,.989" transform="translate(0 -13.935)" fill="#251d1b"/>
          <path id="Trazado_875931" data-name="Trazado 875931" d="M231.512,133.452H212.129a.495.495,0,0,1,0-.99h18.888v-49.4a.495.495,0,1,1,.99,0v49.9a.5.5,0,0,1-.495.495" transform="translate(-73.069 -28.505)" fill="#251d1b"/>
          <path id="Trazado_875932" data-name="Trazado 875932" d="M95.762,68.067h-.031a.5.5,0,0,1-.464-.524L96.722,43.85a.5.5,0,0,1,.771-.38l23.6,15.96a.494.494,0,1,1-.553.819L97.658,44.776,96.257,67.6a.5.5,0,0,1-.495.465" transform="translate(-32.891 -14.979)" fill="#251d1b"/>
          <path id="Trazado_875933" data-name="Trazado 875933" d="M105.209,102.538a.494.494,0,0,1-.234-.93l33.616-18.056-2.47-2.169a.5.5,0,0,1,.653-.744l3.005,2.639a.5.5,0,0,1-.092.808l-34.245,18.393a.49.49,0,0,1-.234.059" transform="translate(-36.154 -27.799)" fill="#251d1b"/>
        </g>
      </g>
    </g>
    <g id="Grupo_1106539" data-name="Grupo 1106539" transform="translate(1254.051 1435.287)">
      <g id="Grupo_1106538" data-name="Grupo 1106538" clip-path="url(#clip-path-2)">
        <path id="Trazado_875934" data-name="Trazado 875934" d="M150.658.785H12.633A12.561,12.561,0,0,0,.073,13.346V50.464a12.561,12.561,0,0,0,12.56,12.561H90.076l13.507,11.308,13.131-11.308h33.944a12.562,12.562,0,0,0,12.561-12.561V13.346A12.561,12.561,0,0,0,150.658.785" transform="translate(-0.031 -0.338)" fill="#f9edd0"/>
        <path id="Trazado_875935" data-name="Trazado 875935" d="M67.535,39.368A20.283,20.283,0,1,0,47.251,59.652,20.283,20.283,0,0,0,67.535,39.368" transform="translate(-11.619 -8.222)" fill="#bad6cb"/>
        <path id="Trazado_875936" data-name="Trazado 875936" d="M64.747,65.224H40.8s3.651-12.267,12.122-12.267S64.747,65.224,64.747,65.224" transform="translate(-17.576 -22.816)" fill="#fff"/>
        <path id="Trazado_875937" data-name="Trazado 875937" d="M63.715,33.456a6.5,6.5,0,1,0-6.5,6.5,6.5,6.5,0,0,0,6.5-6.5" transform="translate(-21.85 -11.614)" fill="#fff"/>
        <path id="Trazado_875938" data-name="Trazado 875938" d="M155.3,22.205H114.227a1.832,1.832,0,0,1,0-3.664H155.3a1.832,1.832,0,0,1,0,3.664" transform="translate(-48.423 -7.988)" fill="#93ad93"/>
        <path id="Trazado_875939" data-name="Trazado 875939" d="M151.306,42.913H112.894a1.832,1.832,0,0,1,0-3.664h38.412a1.832,1.832,0,0,1,0,3.664" transform="translate(-47.849 -16.91)" fill="#bad6cb"/>
        <path id="Trazado_875940" data-name="Trazado 875940" d="M233.285,42.913H191.069a1.832,1.832,0,0,1,0-3.664h42.216a1.832,1.832,0,0,1,0,3.664" transform="translate(-81.529 -16.91)" fill="#bad6cb"/>
        <path id="Trazado_875941" data-name="Trazado 875941" d="M180.115,56.945H113.56a1.832,1.832,0,0,1,0-3.664h66.555a1.832,1.832,0,0,1,0,3.664" transform="translate(-48.136 -22.955)" fill="#bad6cb"/>
        <path id="Trazado_875942" data-name="Trazado 875942" d="M195.709,72.323H113.56a1.832,1.832,0,0,1,0-3.664h82.149a1.832,1.832,0,0,1,0,3.664" transform="translate(-48.136 -29.58)" fill="#bad6cb"/>
        <path id="Trazado_875943" data-name="Trazado 875943" d="M149.31,87.687H113.56a1.832,1.832,0,0,1,0-3.664h35.75a1.832,1.832,0,0,1,0,3.664" transform="translate(-48.136 -36.2)" fill="#bad6cb"/>
        <path id="Trazado_875944" data-name="Trazado 875944" d="M242.607,63.792H222.588a.43.43,0,0,1,0-.861h20.019a13.435,13.435,0,0,0,13.42-13.419V14.28A13.435,13.435,0,0,0,242.607.861h-26a.43.43,0,1,1,0-.861h26a14.3,14.3,0,0,1,14.28,14.28V49.512a14.3,14.3,0,0,1-14.28,14.28" transform="translate(-93.136 0)" fill="#251d1b"/>
        <path id="Trazado_875945" data-name="Trazado 875945" d="M142.91,121.323a.429.429,0,0,1-.275-.1l-13.387-11.208H91.786a.43.43,0,1,1,0-.86H129.4a.431.431,0,0,1,.275.1l13.227,11.074,12.854-11.069a.428.428,0,0,1,.258-.1l5.967-.3a.4.4,0,0,1,.452.408.43.43,0,0,1-.408.45l-5.82.291L143.19,121.219a.428.428,0,0,1-.281.1" transform="translate(-39.359 -46.898)" fill="#251d1b"/>
        <path id="Trazado_875946" data-name="Trazado 875946" d="M.43,38.949a.431.431,0,0,1-.43-.43V11.428a11.013,11.013,0,0,1,11-11H64.577a.43.43,0,1,1,0,.86H11A10.151,10.151,0,0,0,.861,11.428V38.519a.431.431,0,0,1-.43.43" transform="translate(0 -0.184)" fill="#251d1b"/>
      </g>
    </g>
    <g id="correo-de-propaganda" transform="translate(1251.951 1257.367)">
      <g id="Grupo_1106543" data-name="Grupo 1106543" transform="translate(27.653 25.445)">
        <path id="Trazado_875963" data-name="Trazado 875963" d="M60.5,11.744a4.881,4.881,0,0,0-6.779,0L12,49.552V83.189h90.48V49.552Z" transform="translate(-11.739 -10.375)" fill="#e0ae55"/>
        <path id="Trazado_875964" data-name="Trazado 875964" d="M78.419,13.5H22.358A6.345,6.345,0,0,0,16.1,19.758V79.991a6.345,6.345,0,0,0,6.258,6.258H78.419a6.345,6.345,0,0,0,6.258-6.258V19.758A6.177,6.177,0,0,0,78.419,13.5Z" transform="translate(-5.149 -5.352)" fill="#e6e6e6"/>
        <path id="Trazado_875965" data-name="Trazado 875965" d="M58.574,56.168l-1.3.782L45.537,64.773,14.768,85.111l-.261-.261A8.374,8.374,0,0,1,11.9,79.114V25.4L52.316,52.257l4.693,3.129Z" transform="translate(-11.9 13.777)" fill="#fc6"/>
        <path id="Trazado_875966" data-name="Trazado 875966" d="M75.213,25.4V79.114a7.471,7.471,0,0,1-2.607,5.736l-.261.261L41.837,64.773,30.1,56.951l-1.3-.782,1.3-.782L34.8,52.257Z" transform="translate(15.266 13.777)" fill="#fc6"/>
        <path id="Trazado_875967" data-name="Trazado 875967" d="M98.165,69.78l-.261.261a8.4,8.4,0,0,1-5.215,1.825H18.376a8.4,8.4,0,0,1-5.215-1.825L12.9,69.78,36.107,49.7,50.969,36.926l1.043-.782a5.906,5.906,0,0,1,7.562,0l1.043.782L75.48,49.7Z" transform="translate(-10.293 28.848)" fill="#e7b95d"/>
        <g id="Grupo_1106542" data-name="Grupo 1106542" transform="translate(23.467 18.057)">
          <path id="Trazado_875968" data-name="Trazado 875968" d="M20.9,17.3H63.141v3.911H20.9Z" transform="translate(-20.9 -17.3)" fill="#ccc"/>
          <path id="Trazado_875969" data-name="Trazado 875969" d="M20.9,21.3H63.141v3.911H20.9Z" transform="translate(-20.9 -10.87)" fill="#ccc"/>
          <path id="Trazado_875970" data-name="Trazado 875970" d="M20.9,25.4H63.141v3.911H20.9Z" transform="translate(-20.9 -4.279)" fill="#ccc"/>
        </g>
      </g>
      <g id="Grupo_1106546" data-name="Grupo 1106546" transform="translate(85.539 1)">
        <path id="Trazado_875971" data-name="Trazado 875971" d="M70.083,4.129V21.078a3.206,3.206,0,0,1-1.825,2.868c-.261,0-.261.261-.521.261s-.521.261-1.043.261H44.53l-3.39,5.215a.833.833,0,0,1-1.564-.521V24.207H37.229A3.013,3.013,0,0,1,34.1,21.078V4.129A3.171,3.171,0,0,1,37.229,1H66.954a3.171,3.171,0,0,1,3.129,3.129Z" transform="translate(-34.1 -1)" fill="#88c057"/>
        <g id="Grupo_1106544" data-name="Grupo 1106544" transform="translate(7.301 9.387)">
          <path id="Trazado_875972" data-name="Trazado 875972" d="M55.294,11.74v3.39A3.206,3.206,0,0,1,53.469,18L43.3,8.09,47.733,4.7Z" transform="translate(-26.612 -4.439)" fill="#638b3f" opacity="0.2"/>
          <path id="Trazado_875973" data-name="Trazado 875973" d="M58.092,18c-.261,0-.521.261-1.043.261H50.53L40.1,7.829,44.793,4.7Z" transform="translate(-31.756 -4.439)" fill="#638b3f" opacity="0.2"/>
          <path id="Trazado_875974" data-name="Trazado 875974" d="M55.152,18.42H47.33L36.9,7.99,41.333,4.6Z" transform="translate(-36.9 -4.6)" fill="#638b3f" opacity="0.2"/>
        </g>
        <g id="Grupo_1106545" data-name="Grupo 1106545" transform="translate(6.779 8.083)">
          <circle id="Elipse_11648" data-name="Elipse 11648" cx="2.868" cy="2.868" r="2.868" transform="translate(0 0)" fill="#fff"/>
          <circle id="Elipse_11649" data-name="Elipse 11649" cx="2.868" cy="2.868" r="2.868" transform="translate(8.344 0)" fill="#fff"/>
          <circle id="Elipse_11650" data-name="Elipse 11650" cx="2.868" cy="2.868" r="2.868" transform="translate(16.688 0)" fill="#fff"/>
        </g>
      </g>
      <g id="Grupo_1106547" data-name="Grupo 1106547" transform="translate(2.1 3.086)">
        <path id="Trazado_875975" data-name="Trazado 875975" d="M31.3,31.786l5.476,13.3L25.828,35.176a1.568,1.568,0,0,1-1.043.261C14.094,39.348,2.1,31,2.1,19.27A17.471,17.471,0,0,1,19.57,1.8C34.954,1.8,42.777,20.835,31.3,31.786Z" transform="translate(-2.1 -1.8)" fill="#f06eaa"/>
        <path id="Trazado_875976" data-name="Trazado 875976" d="M28.581,35.118,17.63,25.209a1.568,1.568,0,0,1-1.043.261L7.2,16.083,17.369,8l9.387,9.387a18.229,18.229,0,0,1-3.39,4.433Z" transform="translate(6.098 8.166)" fill="#ef5ea7"/>
        <path id="Trazado_875977" data-name="Trazado 875977" d="M17.851,11.729l-8.6-5.736A1.468,1.468,0,0,0,6.9,7.3V18.508a1.537,1.537,0,0,0,2.347,1.3l8.344-5.736a1.362,1.362,0,0,0,.261-2.347Z" transform="translate(5.616 4.438)" fill="#fff"/>
      </g>
    </g>
    <g id="Grupo_1106551" data-name="Grupo 1106551" transform="translate(1081.757 1467)">
      <g id="Grupo_1099721" data-name="Grupo 1099721" transform="translate(0 0)" clip-path="url(#clip-path-3)">
        <path id="Trazado_873643" data-name="Trazado 873643" d="M9.818,48.145l8.415-36A10.174,10.174,0,0,1,35.1,7.042L62.066,32.329a10.173,10.173,0,0,1-4.012,17.158L22.672,60.2A10.174,10.174,0,0,1,9.818,48.145" transform="translate(7.741 3.474)" fill="#e5f0fc"/>
        <path id="Trazado_873644" data-name="Trazado 873644" d="M1.277,44.862l8.413-36A10.175,10.175,0,0,1,26.557,3.759L53.523,29.046A10.173,10.173,0,0,1,49.511,46.2L14.13,56.916A10.173,10.173,0,0,1,1.277,44.862Z" transform="translate(0.812 0.811)" fill="none" stroke="#000" stroke-miterlimit="10" stroke-width="2"/>
      </g>
    </g>
    <g id="Grupo_1106552" data-name="Grupo 1106552" transform="translate(1097.27 1233)">
      <g id="Grupo_1099721-2" data-name="Grupo 1099721" transform="translate(0 0)" clip-path="url(#clip-path-3)">
        <path id="Trazado_873643-2" data-name="Trazado 873643" d="M65.009,48.145l-8.415-36A10.174,10.174,0,0,0,39.729,7.042L12.761,32.329a10.173,10.173,0,0,0,4.012,17.158L52.155,60.2A10.174,10.174,0,0,0,65.009,48.145" transform="translate(-9.541 3.474)" fill="#fed8cc"/>
        <path id="Trazado_873644-2" data-name="Trazado 873644" d="M56.467,44.862l-8.413-36A10.175,10.175,0,0,0,31.187,3.759L4.22,29.046A10.173,10.173,0,0,0,8.232,46.2L43.614,56.916A10.173,10.173,0,0,0,56.467,44.862Z" transform="translate(14.472 0.811)" fill="none" stroke="#000" stroke-miterlimit="10" stroke-width="2"/>
      </g>
    </g>
    <g id="Grupo_1106554" data-name="Grupo 1106554" transform="translate(993.228 -5095.939)">
      <path id="Trazado_113538-2" data-name="Trazado 113538" d="M174.7,26.672c-7.965,0-11.9-6.421-15.055-11.582-3.2-5.222-5.366-8.423-9.445-8.423s-6.241,3.2-9.433,8.423c-3.158,5.161-7.09,11.582-15.051,11.582s-11.9-6.421-15.055-11.582c-3.2-5.222-5.363-8.423-9.437-8.423s-6.238,3.2-9.433,8.423c-3.158,5.161-7.09,11.582-15.051,11.582S64.843,20.251,61.688,15.09c-3.2-5.222-5.359-8.423-9.43-8.423s-6.234,3.2-9.43,8.423c-3.158,5.161-7.086,11.582-15.048,11.582S15.892,20.251,12.734,15.09C9.538,9.868,7.375,6.667,3.3,6.667A3.334,3.334,0,0,1,3.3,0c7.957,0,11.889,6.424,15.048,11.586C21.544,16.8,23.711,20,27.782,20s6.234-3.2,9.43-8.419C40.37,6.424,44.3,0,52.259,0S64.148,6.424,67.3,11.582C70.5,16.8,72.661,20,76.736,20s6.238-3.2,9.433-8.423C89.327,6.424,93.259,0,101.221,0s11.893,6.424,15.055,11.582C119.468,16.8,121.634,20,125.713,20s6.238-3.2,9.433-8.423C138.3,6.424,142.236,0,150.2,0s11.9,6.424,15.059,11.582C168.456,16.8,170.622,20,174.7,20s6.245-3.2,9.445-8.423C187.3,6.424,191.235,0,199.2,0a3.317,3.317,0,0,1,3.3,3.334,3.315,3.315,0,0,1-3.3,3.334c-4.078,0-6.245,3.2-9.445,8.423C186.6,20.251,182.666,26.672,174.7,26.672Z" transform="translate(380.245 6714.585) rotate(180)" fill="#fff"/>
      <path id="Trazado_126936-2" data-name="Trazado 126936" d="M174.7,26.672c-7.965,0-11.9-6.421-15.055-11.582-3.2-5.222-5.366-8.423-9.445-8.423s-6.241,3.2-9.433,8.423c-3.158,5.161-7.09,11.582-15.051,11.582s-11.9-6.421-15.055-11.582c-3.2-5.222-5.363-8.423-9.437-8.423s-6.238,3.2-9.433,8.423c-3.158,5.161-7.09,11.582-15.051,11.582S64.843,20.251,61.688,15.09c-3.2-5.222-5.359-8.423-9.43-8.423s-6.234,3.2-9.43,8.423c-3.158,5.161-7.086,11.582-15.048,11.582S15.892,20.251,12.734,15.09C9.538,9.868,7.375,6.667,3.3,6.667A3.334,3.334,0,0,1,3.3,0c7.957,0,11.889,6.424,15.048,11.586C21.544,16.8,23.711,20,27.782,20s6.234-3.2,9.43-8.419C40.37,6.424,44.3,0,52.259,0S64.148,6.424,67.3,11.582C70.5,16.8,72.661,20,76.736,20s6.238-3.2,9.433-8.423C89.327,6.424,93.259,0,101.221,0s11.893,6.424,15.055,11.582C119.468,16.8,121.634,20,125.713,20s6.238-3.2,9.433-8.423C138.3,6.424,142.236,0,150.2,0s11.9,6.424,15.059,11.582C168.456,16.8,170.622,20,174.7,20s6.245-3.2,9.445-8.423C187.3,6.424,191.235,0,199.2,0a3.317,3.317,0,0,1,3.3,3.334,3.315,3.315,0,0,1-3.3,3.334c-4.078,0-6.245,3.2-9.445,8.423C186.6,20.251,182.666,26.672,174.7,26.672Z" transform="translate(380.245 6805.115) rotate(180)" fill="#fff"/>
      <path id="Trazado_126924-2" data-name="Trazado 126924" d="M174.7,26.672c-7.965,0-11.9-6.421-15.055-11.582-3.2-5.222-5.366-8.423-9.445-8.423s-6.241,3.2-9.433,8.423c-3.158,5.161-7.09,11.582-15.051,11.582s-11.9-6.421-15.055-11.582c-3.2-5.222-5.363-8.423-9.437-8.423s-6.238,3.2-9.433,8.423c-3.158,5.161-7.09,11.582-15.051,11.582S64.843,20.251,61.688,15.09c-3.2-5.222-5.359-8.423-9.43-8.423s-6.234,3.2-9.43,8.423c-3.158,5.161-7.086,11.582-15.048,11.582S15.892,20.251,12.734,15.09C9.538,9.868,7.375,6.667,3.3,6.667A3.334,3.334,0,0,1,3.3,0c7.957,0,11.889,6.424,15.048,11.586C21.544,16.8,23.711,20,27.782,20s6.234-3.2,9.43-8.419C40.37,6.424,44.3,0,52.259,0S64.148,6.424,67.3,11.582C70.5,16.8,72.661,20,76.736,20s6.238-3.2,9.433-8.423C89.327,6.424,93.259,0,101.221,0s11.893,6.424,15.055,11.582C119.468,16.8,121.634,20,125.713,20s6.238-3.2,9.433-8.423C138.3,6.424,142.236,0,150.2,0s11.9,6.424,15.059,11.582C168.456,16.8,170.622,20,174.7,20s6.245-3.2,9.445-8.423C187.3,6.424,191.235,0,199.2,0a3.317,3.317,0,0,1,3.3,3.334,3.315,3.315,0,0,1-3.3,3.334c-4.078,0-6.245,3.2-9.445,8.423C186.6,20.251,182.666,26.672,174.7,26.672Z" transform="translate(380.245 6652.643) rotate(180)" fill="#fff"/>
      <path id="Trazado_126938-2" data-name="Trazado 126938" d="M174.7,26.672c-7.965,0-11.9-6.421-15.055-11.582-3.2-5.222-5.366-8.423-9.445-8.423s-6.241,3.2-9.433,8.423c-3.158,5.161-7.09,11.582-15.051,11.582s-11.9-6.421-15.055-11.582c-3.2-5.222-5.363-8.423-9.437-8.423s-6.238,3.2-9.433,8.423c-3.158,5.161-7.09,11.582-15.051,11.582S64.843,20.251,61.688,15.09c-3.2-5.222-5.359-8.423-9.43-8.423s-6.234,3.2-9.43,8.423c-3.158,5.161-7.086,11.582-15.048,11.582S15.892,20.251,12.734,15.09C9.538,9.868,7.375,6.667,3.3,6.667A3.334,3.334,0,0,1,3.3,0c7.957,0,11.889,6.424,15.048,11.586C21.544,16.8,23.711,20,27.782,20s6.234-3.2,9.43-8.419C40.37,6.424,44.3,0,52.259,0S64.148,6.424,67.3,11.582C70.5,16.8,72.661,20,76.736,20s6.238-3.2,9.433-8.423C89.327,6.424,93.259,0,101.221,0s11.893,6.424,15.055,11.582C119.468,16.8,121.634,20,125.713,20s6.238-3.2,9.433-8.423C138.3,6.424,142.236,0,150.2,0s11.9,6.424,15.059,11.582C168.456,16.8,170.622,20,174.7,20s6.245-3.2,9.445-8.423C187.3,6.424,191.235,0,199.2,0a3.317,3.317,0,0,1,3.3,3.334,3.315,3.315,0,0,1-3.3,3.334c-4.078,0-6.245,3.2-9.445,8.423C186.6,20.251,182.666,26.672,174.7,26.672Z" transform="translate(380.245 6743.174) rotate(180)" fill="#fff"/>
      <path id="Trazado_113539-2" data-name="Trazado 113539" d="M174.7,26.672c-7.965,0-11.9-6.421-15.055-11.582-3.2-5.222-5.366-8.423-9.445-8.423s-6.241,3.2-9.433,8.423c-3.158,5.161-7.09,11.582-15.051,11.582s-11.9-6.421-15.055-11.582c-3.2-5.222-5.363-8.423-9.437-8.423s-6.238,3.2-9.433,8.423c-3.158,5.161-7.09,11.582-15.051,11.582S64.843,20.251,61.688,15.09c-3.2-5.222-5.359-8.423-9.43-8.423s-6.234,3.2-9.43,8.423c-3.158,5.161-7.086,11.582-15.048,11.582S15.892,20.251,12.734,15.09C9.538,9.868,7.375,6.667,3.3,6.667A3.334,3.334,0,0,1,3.3,0c7.957,0,11.889,6.424,15.048,11.586C21.544,16.8,23.711,20,27.782,20s6.234-3.2,9.43-8.419C40.37,6.424,44.3,0,52.259,0S64.148,6.424,67.3,11.582C70.5,16.8,72.661,20,76.736,20s6.238-3.2,9.433-8.423C89.327,6.424,93.259,0,101.221,0s11.893,6.424,15.055,11.582C119.468,16.8,121.634,20,125.713,20s6.238-3.2,9.433-8.423C138.3,6.424,142.236,0,150.2,0s11.9,6.424,15.059,11.582C168.456,16.8,170.622,20,174.7,20s6.245-3.2,9.445-8.423C187.3,6.424,191.235,0,199.2,0a3.317,3.317,0,0,1,3.3,3.334,3.315,3.315,0,0,1-3.3,3.334c-4.078,0-6.245,3.2-9.445,8.423C186.6,20.251,182.666,26.672,174.7,26.672Z" transform="translate(380.245 6683.614) rotate(180)" fill="#fff"/>
      <path id="Trazado_126937-2" data-name="Trazado 126937" d="M174.7,26.672c-7.965,0-11.9-6.421-15.055-11.582-3.2-5.222-5.366-8.423-9.445-8.423s-6.241,3.2-9.433,8.423c-3.158,5.161-7.09,11.582-15.051,11.582s-11.9-6.421-15.055-11.582c-3.2-5.222-5.363-8.423-9.437-8.423s-6.238,3.2-9.433,8.423c-3.158,5.161-7.09,11.582-15.051,11.582S64.843,20.251,61.688,15.09c-3.2-5.222-5.359-8.423-9.43-8.423s-6.234,3.2-9.43,8.423c-3.158,5.161-7.086,11.582-15.048,11.582S15.892,20.251,12.734,15.09C9.538,9.868,7.375,6.667,3.3,6.667A3.334,3.334,0,0,1,3.3,0c7.957,0,11.889,6.424,15.048,11.586C21.544,16.8,23.711,20,27.782,20s6.234-3.2,9.43-8.419C40.37,6.424,44.3,0,52.259,0S64.148,6.424,67.3,11.582C70.5,16.8,72.661,20,76.736,20s6.238-3.2,9.433-8.423C89.327,6.424,93.259,0,101.221,0s11.893,6.424,15.055,11.582C119.468,16.8,121.634,20,125.713,20s6.238-3.2,9.433-8.423C138.3,6.424,142.236,0,150.2,0s11.9,6.424,15.059,11.582C168.456,16.8,170.622,20,174.7,20s6.245-3.2,9.445-8.423C187.3,6.424,191.235,0,199.2,0a3.317,3.317,0,0,1,3.3,3.334,3.315,3.315,0,0,1-3.3,3.334c-4.078,0-6.245,3.2-9.445,8.423C186.6,20.251,182.666,26.672,174.7,26.672Z" transform="translate(380.245 6774.145) rotate(180)" fill="#fff"/>
      <path id="Trazado_126923-2" data-name="Trazado 126923" d="M174.7,26.672c-7.965,0-11.9-6.421-15.055-11.582-3.2-5.222-5.366-8.423-9.445-8.423s-6.241,3.2-9.433,8.423c-3.158,5.161-7.09,11.582-15.051,11.582s-11.9-6.421-15.055-11.582c-3.2-5.222-5.363-8.423-9.437-8.423s-6.238,3.2-9.433,8.423c-3.158,5.161-7.09,11.582-15.051,11.582S64.843,20.251,61.688,15.09c-3.2-5.222-5.359-8.423-9.43-8.423s-6.234,3.2-9.43,8.423c-3.158,5.161-7.086,11.582-15.048,11.582S15.892,20.251,12.734,15.09C9.538,9.868,7.375,6.667,3.3,6.667A3.334,3.334,0,0,1,3.3,0c7.957,0,11.889,6.424,15.048,11.586C21.544,16.8,23.711,20,27.782,20s6.234-3.2,9.43-8.419C40.37,6.424,44.3,0,52.259,0S64.148,6.424,67.3,11.582C70.5,16.8,72.661,20,76.736,20s6.238-3.2,9.433-8.423C89.327,6.424,93.259,0,101.221,0s11.893,6.424,15.055,11.582C119.468,16.8,121.634,20,125.713,20s6.238-3.2,9.433-8.423C138.3,6.424,142.236,0,150.2,0s11.9,6.424,15.059,11.582C168.456,16.8,170.622,20,174.7,20s6.245-3.2,9.445-8.423C187.3,6.424,191.235,0,199.2,0a3.317,3.317,0,0,1,3.3,3.334,3.315,3.315,0,0,1-3.3,3.334c-4.078,0-6.245,3.2-9.445,8.423C186.6,20.251,182.666,26.672,174.7,26.672Z" transform="translate(380.245 6621.672) rotate(180)" fill="#fff"/>
    </g>
    <g id="Grupo_1106534" data-name="Grupo 1106534" transform="translate(1021.051 1519)">
      <g id="Grupo_1106533" data-name="Grupo 1106533" clip-path="url(#clip-path-5)">
        <path id="Trazado_875837" data-name="Trazado 875837" d="M597.18,436.5c-5.655-22.439-12.463-42.748-12.75-43.6l-45.352,15.252a503.333,503.333,0,0,1,15.2,55.23,420.013,420.013,0,0,1,49.355,4.862A294.726,294.726,0,0,0,597.18,436.5" transform="translate(-276.741 -201.697)" fill="#e48c68"/>
        <path id="Trazado_875838" data-name="Trazado 875838" d="M343.864,219.664a1.127,1.127,0,0,0,.551-.144c.425-.237,10.391-5.9,8.466-12.63-.358-1.257-.767-2.465-1.164-3.636-1.472-4.339-2.633-7.766-.633-11.362a18.043,18.043,0,0,1,3.215-4.144,17.5,17.5,0,0,0,4.8-7.957,1.133,1.133,0,1,0-2.159-.69,15.218,15.218,0,0,1-4.273,7.071,20.46,20.46,0,0,0-3.569,4.618c-2.485,4.474-1.051,8.709.469,13.19.385,1.137.784,2.312,1.133,3.533,1.188,4.16-4.934,8.65-7.394,10.028a1.133,1.133,0,0,0,.555,2.122" transform="translate(-175.944 -91.539)" fill="#493a32"/>
        <path id="Trazado_875839" data-name="Trazado 875839" d="M528.662,232.456a1.114,1.114,0,0,0,.17-.013,3.99,3.99,0,0,0,3.193-2.357c1.914-4.186-1.677-13.083-6.085-20.045-2.9-4.58-2.086-5.976-.3-9.034a25.69,25.69,0,0,0,3.571-9.129,1.134,1.134,0,1,0-2.23-.412,23.681,23.681,0,0,1-3.3,8.4c-1.916,3.277-3.3,5.645.339,11.391,4.675,7.379,7.229,15.071,5.941,17.889a1.742,1.742,0,0,1-1.469,1.06,1.133,1.133,0,0,0,.166,2.253" transform="translate(-267.849 -97.817)" fill="#493a32"/>
        <path id="Trazado_875840" data-name="Trazado 875840" d="M227.4,571.725a47.139,47.139,0,0,1-15.6,2.612,54.678,54.678,0,0,1-7.876-.584,33.35,33.35,0,0,1-17.5-8.075c13.658-1.582,27.315,1.41,40.973,6.047" transform="translate(-95.707 -290.178)" fill="#db704a"/>
        <path id="Trazado_875841" data-name="Trazado 875841" d="M198.439,416.6a68.8,68.8,0,0,0,4.726-6.92c5.625-9.233,11.732-22.25,19.465-38.731q2.7-5.75,5.634-11.973l43.347,20.512q-2.91,6.148-5.568,11.831c-10.643,22.682-19.048,40.6-28.686,53.339-8.018,10.6-17.128,17.659-27.227,21.174-13.658-4.637-27.315-7.629-40.973-6.046-5.267-4.607-12.913-8.426-16.374-43.032,13.03-11.372,30.8,3.694,43.876-8.033.587,2.925,1.187,5.591,1.78,7.88" transform="translate(-78.433 -184.283)" fill="#e48c68"/>
        <path id="Trazado_875842" data-name="Trazado 875842" d="M314.778,409.186c-6.752-.466-16.3-10.128-17.928-13.388s21.3,3.26,21.3,3.26Z" transform="translate(-152.349 -202.719)" fill="#251d1b"/>
        <path id="Trazado_875843" data-name="Trazado 875843" d="M558.193,462.855l2.763,10.167s26.8-10.827,36.234-21.3l-27.416.873Z" transform="translate(-286.555 -231.895)" fill="#251d1b"/>
        <path id="Trazado_875844" data-name="Trazado 875844" d="M328.377,569.466a80.325,80.325,0,0,1,3.325-7.9c35.083,1.223,70.167,7.524,105.25,8.1l5.111,9.968c-38.519,1.767-76.187-5.725-113.686-10.167" transform="translate(-168.576 -288.287)" fill="#3c251d"/>
        <path id="Trazado_875845" data-name="Trazado 875845" d="M422.976,587.963l26.08,50.863H291.2s10.5-40.638,18.094-61.03c37.5,4.443,75.167,11.934,113.686,10.167" transform="translate(-149.489 -296.618)" fill="#c2afa0"/>
        <path id="Trazado_875846" data-name="Trazado 875846" d="M403.507,642.068a.343.343,0,0,0,.343-.332l1.864-56.578a.343.343,0,0,0-.332-.353h-.011a.343.343,0,0,0-.343.332l-1.864,56.578a.342.342,0,0,0,.332.353Z" transform="translate(-206.969 -300.216)" fill="#251d1b"/>
        <path id="Trazado_875847" data-name="Trazado 875847" d="M426.474,643.211a.343.343,0,0,0,.343-.329l2.1-54.134a.345.345,0,0,0-.329-.356.374.374,0,0,0-.356.329l-2.1,54.134a.345.345,0,0,0,.329.356Z" transform="translate(-218.76 -302.058)" fill="#251d1b"/>
        <path id="Trazado_875848" data-name="Trazado 875848" d="M314.517,602.875l.039,0c18.471-2.09,28.8-20.246,28.9-20.429a.343.343,0,1,0-.6-.335c-.1.18-10.261,18.033-28.378,20.084a.342.342,0,0,0,.039.682" transform="translate(-161.286 -298.742)" fill="#251d1b"/>
        <path id="Trazado_875849" data-name="Trazado 875849" d="M547.688,655.854a.359.359,0,0,0,.1-.015.342.342,0,0,0,.229-.427c-.085-.277-8.482-27.763-15.764-38.166a.343.343,0,1,0-.562.393c7.22,10.314,15.587,37.7,15.669,37.971a.343.343,0,0,0,.328.243" transform="translate(-272.918 -316.796)" fill="#251d1b"/>
        <path id="Trazado_875850" data-name="Trazado 875850" d="M566.4,163.426c13.861-.866,27.722-7.8,41.295,10.685s-2.6,35.519,7.508,47.359,23.1-2.6,41.872,5.2,31.476,44.182-2.6,58.91-83.456-19.348-91.542-36.1-10.4-18.77-2.022-32.632,14.728-12.417,12.417-25.123S558.6,175.555,558.6,175.555Z" transform="translate(-285.246 -82.878)" fill="#493a32"/>
        <path id="Trazado_875851" data-name="Trazado 875851" d="M436.508,4.978s11.454-1.243,19.54,4.244,25.123,36.1,18.77,62.664-31.476,30.032-36.963,41.872L372.58,71.016s-6.631-28.3-2.3-42.736,37.158-38.809,66.227-23.3" transform="translate(-189.334 0)" fill="#493a32"/>
        <path id="Trazado_875852" data-name="Trazado 875852" d="M415.238,433.558l.416.811c-35.084-.572-70.167-6.873-105.251-8.1a15.226,15.226,0,0,1,1.632-2.668l.349-39.814s-6.461-8.557-5.763-14.843a67.76,67.76,0,0,1,3.667-13.97s-7.509-.524-13.1-4.366-10.3-6.636-10.3-6.636,18.51-30.384,25.844-35.623c5.161-3.686,28.637-8.061,42.106-10.332,5.7,12.11,28.858,12.172,39.015,1.166,17.264,5.826,40.343,12.933,51.593,24.183,12.223,12.223,21.653,47.5,21.653,47.5s-11.874,6.287-20.606,9.081-19.674,5.821-22.818,7.218a47.945,47.945,0,0,1-6.985,2.328Z" transform="translate(-147.278 -152.992)" fill="#f1d79f"/>
        <path id="Trazado_875853" data-name="Trazado 875853" d="M409.919,298.394c7.765-.956,13.118-1.542,13.118-1.542l34.342,1.222c1.91.487,3.9.983,5.947,1.486-13.9,11.006-45.6,10.944-53.407-1.166" transform="translate(-210.437 -152.392)" fill="#a31c1c"/>
        <path id="Trazado_875854" data-name="Trazado 875854" d="M364.875,138.731s-10.65-11.128-19.74-7.98-10.533,22.66-.842,26.568,21.46-3.579,21.46-3.579Z" transform="translate(-173.334 -66.834)" fill="#db704a"/>
        <path id="Trazado_875855" data-name="Trazado 875855" d="M351.889,159.535a.39.39,0,0,1-.117-.032,8.489,8.489,0,0,1-4.407-10.141c.8-2.967,1.993-4.788,3.751-5.73,2.206-1.18,5.179-.965,10.262.739a.4.4,0,0,1-.254.755c-4.789-1.608-7.669-1.844-9.634-.793-1.551.831-2.618,2.495-3.358,5.236a7.566,7.566,0,0,0,3.964,9.206.4.4,0,0,1-.207.759" transform="translate(-178.132 -73.355)" fill="#251d1b"/>
        <path id="Trazado_875856" data-name="Trazado 875856" d="M420.708,241.72c.765-7.952,1.314-16.689,1.314-16.689L460.87,213.16c-6.813,16.1-23.047,22.768-40.162,28.56" transform="translate(-215.975 -109.428)" fill="#251d1b"/>
        <path id="Trazado_875857" data-name="Trazado 875857" d="M416.838,252.13a85.337,85.337,0,0,0,1.749-12.107c17.115-5.792,33.349-12.464,40.162-28.56l5.265-1.609s-5.456,37.356-.87,42.823-50.824,13.572-46.306-.547" transform="translate(-213.854 -107.731)" fill="#e48c68"/>
        <path id="Trazado_875858" data-name="Trazado 875858" d="M371.694,39.9c-2.91,7.329-.117,18.573-2.774,33.872s-3.8,46.072,17.906,52.137a61.252,61.252,0,0,0,40.82-3.1c6.279-2.939,13.829-14.725,16.9-25.4l13.3-33.555c6.422-22.345-6.629-45.994-29.183-51.64q-.78-.2-1.584-.368C382.824,2.335,371.694,39.9,371.694,39.9" transform="translate(-188.666 -5.287)" fill="#e48c68"/>
        <path id="Trazado_875859" data-name="Trazado 875859" d="M465.138,142.045c.172-2.045-.362-3.76-1.191-3.83s-1.642,1.532-1.815,3.577.362,3.76,1.192,3.83,1.642-1.532,1.814-3.577" transform="translate(-237.224 -70.953)" fill="#251d1b"/>
        <path id="Trazado_875860" data-name="Trazado 875860" d="M396.232,139.891c.172-2.045-.362-3.76-1.192-3.83s-1.642,1.532-1.814,3.577.362,3.76,1.192,3.83,1.642-1.532,1.814-3.577" transform="translate(-201.851 -69.847)" fill="#251d1b"/>
        <path id="Trazado_875861" data-name="Trazado 875861" d="M466.116,127.614a1.587,1.587,0,0,1-1.048-.444c-.151-.142-3.377-3.1-9.37-2.245a1.591,1.591,0,0,1-.452-3.15c7.624-1.094,11.86,2.937,12.036,3.109a1.591,1.591,0,0,1-1.166,2.73" transform="translate(-233.005 -62.418)" fill="#251d1b"/>
        <path id="Trazado_875862" data-name="Trazado 875862" d="M392.875,120.206a1.586,1.586,0,0,1-1.136-.075c-.19-.084-4.208-1.82-9.587.959a1.591,1.591,0,1,1-1.462-2.827c6.841-3.538,12.166-1.123,12.389-1.018a1.591,1.591,0,0,1-.2,2.962" transform="translate(-194.99 -59.726)" fill="#251d1b"/>
        <path id="Trazado_875863" data-name="Trazado 875863" d="M410.283,186.2c-2.137.265-4.264.2-6.4.358-2.277.17-4.078,1.458-3.7,3.9,1.518,9.822,15.1,9.745,22.339,7.5a10.52,10.52,0,0,0,4.613-2.619c2.356-2.475,3.013-7.337.156-9.714-2.439-2.028-6.154-1.413-9.019-.932-2.458.413-4.879,1.028-7.341,1.416q-.324.051-.648.091" transform="translate(-205.414 -94.57)" fill="#fff"/>
        <path id="Trazado_875864" data-name="Trazado 875864" d="M443.407,82.1S425.979,67.666,408.28,33.9c0,0-24.507,17.972-30.225,20.422s-8.714,12.254-8.714,12.254a71.482,71.482,0,0,1-.817-28.863c3.54-18.517,35.4-37.033,65.08-25.6s31.859,46.019,31.859,46.019l-8.986,24.78Z" transform="translate(-188.618 -4.413)" fill="#493a32"/>
        <path id="Trazado_875865" data-name="Trazado 875865" d="M450.738,34.137a.6.6,0,0,0,.554-.353c.072-.144,6.982-14.381,26.957-24.774a.606.606,0,0,0,.265-.826.625.625,0,0,0-.827-.265c-20.376,10.6-27.439,25.192-27.5,25.336a.607.607,0,0,0,.289.819.645.645,0,0,0,.265.064" transform="translate(-231.075 -4.032)" fill="#fff"/>
        <path id="Trazado_875866" data-name="Trazado 875866" d="M363.264,137.812l.141-1.093-6.749-.889-.141,1.093Z" transform="translate(-183.021 -69.73)" fill="#382621"/>
        <path id="Trazado_875867" data-name="Trazado 875867" d="M439.544,122.842c.165-8.9,6.489-16.034,14.1-15.893s13.668,7.5,13.5,16.405-6.493,16.029-14.1,15.888-13.664-7.5-13.5-16.4m1.1.02c-.154,8.294,5.414,15.146,12.415,15.276s12.823-6.51,12.977-14.8-5.418-15.151-12.418-15.28-12.82,6.515-12.973,14.809" transform="translate(-225.644 -54.903)" fill="#382621"/>
        <path id="Trazado_875868" data-name="Trazado 875868" d="M355.953,121.29c.165-8.9,6.494-16.034,14.1-15.893s13.668,7.5,13.5,16.405-6.493,16.029-14.1,15.888-13.668-7.5-13.5-16.4m1.1.02c-.154,8.294,5.418,15.146,12.419,15.276s12.823-6.51,12.977-14.8-5.418-15.15-12.418-15.28-12.824,6.515-12.978,14.809" transform="translate(-182.731 -54.106)" fill="#382621"/>
        <path id="Trazado_875869" data-name="Trazado 875869" d="M425.214,139.4l.621-.911c-8.868-6-14.771-1.043-14.837-.987l.722.834c.215-.182,5.342-4.44,13.494,1.065" transform="translate(-210.991 -69.574)" fill="#382621"/>
        <path id="Trazado_875870" data-name="Trazado 875870" d="M524.661,149.17l.1-1.1-29.51-2.731-.1,1.1Z" transform="translate(-254.192 -74.61)" fill="#382621"/>
        <path id="Trazado_875871" data-name="Trazado 875871" d="M417.49,162.443a.377.377,0,0,0,.178-.7,7.932,7.932,0,0,1-3.329-6.143c-.073-1.562.642-2.549,1.724-4.042a28.345,28.345,0,0,0,2.571-4.1.377.377,0,0,0-.673-.341,27.738,27.738,0,0,1-2.51,3.993c-1.133,1.564-1.951,2.693-1.867,4.519a8.606,8.606,0,0,0,3.694,6.755.379.379,0,0,0,.212.054" transform="translate(-212.315 -75.421)" fill="#3c251d"/>
        <path id="Trazado_875872" data-name="Trazado 875872" d="M510.962,151.186s11.056-11.553,20.494-8.286,10.935,23.525.875,27.583-22.279-3.716-22.279-3.716Z" transform="translate(-261.841 -73.061)" fill="#e48c68"/>
        <path id="Trazado_875873" data-name="Trazado 875873" d="M539.174,172.785a.435.435,0,0,0,.122-.033,8.814,8.814,0,0,0,4.575-10.528c-.832-3.08-2.069-4.971-3.894-5.948-2.29-1.225-5.377-1-10.654.767a.414.414,0,0,0,.263.784c4.971-1.67,7.961-1.915,10-.823,1.61.863,2.718,2.59,3.487,5.437A7.855,7.855,0,0,1,538.959,172a.413.413,0,0,0,.215.787" transform="translate(-271.589 -79.83)" fill="#251d1b"/>
        <path id="Trazado_875874" data-name="Trazado 875874" d="M548.843,458.465a.435.435,0,0,0,.055,0,.345.345,0,0,0,.284-.394l-4.191-26.076a.343.343,0,1,0-.677.109l4.19,26.077a.343.343,0,0,0,.339.288" transform="translate(-279.427 -221.62)" fill="#251d1b"/>
        <path id="Trazado_875875" data-name="Trazado 875875" d="M542.844,443.6a.343.343,0,0,0,0-.685c-.994,0-3.142-4.951-4.561-9.537a.343.343,0,0,0-.656.2c.728,2.35,3.254,10.019,5.217,10.019" transform="translate(-275.989 -222.357)" fill="#251d1b"/>
        <path id="Trazado_875876" data-name="Trazado 875876" d="M550.872,370.428a.342.342,0,0,0,.284-.151c7.54-11.2,21.367-17.279,21.506-17.339a.343.343,0,1,0-.273-.629c-.14.061-14.151,6.225-21.8,17.586a.343.343,0,0,0,.284.534" transform="translate(-282.621 -180.847)" fill="#251d1b"/>
        <path id="Trazado_875877" data-name="Trazado 875877" d="M334.612,402.824a.343.343,0,0,0,.325-.233,66.03,66.03,0,0,0,2.576-11.654.341.341,0,0,0-.3-.379.335.335,0,0,0-.379.3,65.4,65.4,0,0,1-2.546,11.512.342.342,0,0,0,.325.452" transform="translate(-171.601 -200.496)" fill="#251d1b"/>
        <path id="Trazado_875878" data-name="Trazado 875878" d="M340.73,334.747a.343.343,0,0,0,.343-.343c0-1.914-3.6-9.82-3.756-10.154a.342.342,0,0,0-.623.284c1.027,2.249,3.694,8.4,3.694,9.87a.343.343,0,0,0,.343.343" transform="translate(-172.829 -166.354)" fill="#251d1b"/>
        <path id="Trazado_875879" data-name="Trazado 875879" d="M464.348,471.634c8.563,0,13.749-3.535,13.831-3.593a.342.342,0,0,0-.393-.561c-.128.091-12.987,8.822-31.766-1.763a.343.343,0,1,0-.337.6,37.791,37.791,0,0,0,18.665,5.32" transform="translate(-228.707 -239.058)" fill="#251d1b"/>
        <path id="Trazado_875880" data-name="Trazado 875880" d="M392.561,572.994l1.082-12.527a2.1,2.1,0,0,1,2.268-1.907l21.225,1.835a2.1,2.1,0,0,1,1.908,2.268l-1.083,12.526a2.1,2.1,0,0,1-2.268,1.907l-21.225-1.835a2.1,2.1,0,0,1-1.907-2.268m22.127-8.6-17.049-1.474-.722,8.351,17.049,1.474Z" transform="translate(-201.521 -286.739)" fill="#ecb57b"/>
        <rect id="Rectángulo_403112" data-name="Rectángulo 403112" width="1.396" height="7.727" transform="translate(194.254 280.736) rotate(-83.94)" fill="#ecb57b"/>
        <path id="Trazado_875881" data-name="Trazado 875881" d="M685.518,271.069a1.129,1.129,0,0,0,.807-.339c10.639-10.807,13.781-24.808,8.62-38.414-4.452-11.734-14.639-21.05-23.7-21.667a114.637,114.637,0,0,0-14.031.117c-6.359.329-11.391.593-13.645-1.476a5.357,5.357,0,0,1-1.478-3.97c-.31-8.61-2.8-27.475-10.042-37.264-6.844-9.262-17.031-16.772-45.015-9.105a1.133,1.133,0,0,0,.6,2.186c26.672-7.309,36.231-.345,42.594,8.264,6.409,8.668,9.252,26.278,9.6,36a7.492,7.492,0,0,0,2.213,5.56c2.958,2.708,8.412,2.419,15.294,2.069a111.2,111.2,0,0,1,13.758-.119c8.236.562,17.58,9.249,21.738,20.209,2.839,7.49,5.563,22.126-8.119,36.022a1.133,1.133,0,0,0,.808,1.927" transform="translate(-300.933 -79.973)" fill="#493a32"/>
        <path id="Trazado_875882" data-name="Trazado 875882" d="M248.642,485.488a.316.316,0,0,0,.1-.015.342.342,0,0,0,.23-.426l-2.4-8.123a.334.334,0,0,0-.425-.23.341.341,0,0,0-.23.425l2.4,8.124a.341.341,0,0,0,.328.245" transform="translate(-126.235 -244.708)" fill="#251d1b"/>
        <path id="Trazado_875883" data-name="Trazado 875883" d="M169.047,311.186c7.626,3.588,10.765,26.465,13.906,41.268s12.516,51.562,12.516,51.562L173.761,419.59l-25.011.944-14.242-75.7Z" transform="translate(-69.051 -159.751)" fill="#e48c68"/>
        <path id="Trazado_875884" data-name="Trazado 875884" d="M261.64,214.417s6.387,2.889,2.907,17.817-15.583,14.936-15.583,14.936l-9.765-.949c6.888-11.022,7.9-25.885,7.929-39.11Z" transform="translate(-122.796 -106.323)" fill="#a31c1c"/>
        <path id="Trazado_875885" data-name="Trazado 875885" d="M96.943,192.326l7.634-17.645-1.064-25.2.009-6.332,61.825,31.126c-.029,13.225-1.041,28.088-7.93,39.111L79.893,205.85Z" transform="translate(-41.014 -73.488)" fill="#daeada"/>
        <path id="Trazado_875886" data-name="Trazado 875886" d="M8.411,145.47c5.263-21.046,22.3-34.914,38.045-30.975S70.7,138.687,65.44,159.733s-22.3,34.913-38.045,30.975S3.147,166.515,8.411,145.47" transform="translate(-3.518 -58.434)" fill="#93ad93"/>
        <path id="Trazado_875887" data-name="Trazado 875887" d="M23.07,190.426c-8.66-2.165-15.632-8.609-19.634-18.146-3.861-9.2-4.492-20.258-1.771-31.129,4.577-18.3,18.053-32.278,32.771-33.987a25.912,25.912,0,0,1,9.31.59c17.5,4.376,27.107,26.483,21.406,49.275-4.577,18.3-18.054,32.276-32.774,33.985h0a25.9,25.9,0,0,1-9.306-.589M8.123,142.767C5.75,152.253,6.266,161.818,9.575,169.7c3.169,7.555,8.537,12.62,15.11,14.264a19.314,19.314,0,0,0,6.922.434h0c12.026-1.4,23.163-13.316,27.083-28.987,4.809-19.23-2.62-37.713-16.562-41.2a19.286,19.286,0,0,0-6.927-.435c-12.025,1.4-23.161,13.318-27.08,28.989" transform="translate(0 -54.923)" fill="#a31c1c"/>
        <path id="Trazado_875888" data-name="Trazado 875888" d="M31.346,190.969c-6.662-1.666-12.094-6.79-15.3-14.425-3.333-7.942-3.853-17.57-1.467-27.112,3.948-15.783,15.181-27.788,27.318-29.2a19.578,19.578,0,0,1,7.027.441c14.09,3.524,21.611,22.159,16.765,41.538-3.947,15.78-15.182,27.786-27.322,29.2a19.614,19.614,0,0,1-7.022-.439m-16.225-41.4c-2.359,9.428-1.848,18.932,1.439,26.762,3.135,7.472,8.434,12.482,14.921,14.1a19.035,19.035,0,0,0,6.826.427c11.915-1.384,22.953-13.218,26.845-28.778,4.772-19.085-2.566-37.415-16.359-40.864a18.984,18.984,0,0,0-6.829-.429C30.05,122.169,19.012,134,15.121,149.566" transform="translate(-6.728 -61.654)"/>
        <path id="Trazado_875889" data-name="Trazado 875889" d="M54.765,175.092c1.4-6.264,4.87-10.82,7.74-10.176s4.059,6.243,2.655,12.507-4.87,10.82-7.74,10.177-4.059-6.243-2.655-12.507" transform="translate(-27.811 -84.63)" fill="#fff"/>
        <path id="Trazado_875890" data-name="Trazado 875890" d="M57.727,187.647a2.729,2.729,0,0,1-.6-.067c-1.481-.332-2.584-1.867-3.1-4.323A20.506,20.506,0,0,1,54.3,174.8c1.332-5.938,4.519-10.417,7.413-10.417a2.758,2.758,0,0,1,.6.066c2.989.672,4.258,6.405,2.829,12.782-1.332,5.938-4.519,10.417-7.413,10.417m3.983-22.806c-2.641,0-5.7,4.419-6.965,10.058a20.049,20.049,0,0,0-.275,8.263c.481,2.269,1.46,3.679,2.756,3.97a2.274,2.274,0,0,0,.5.056c2.641,0,5.7-4.419,6.965-10.058,1.375-6.13.262-11.617-2.481-12.233a2.3,2.3,0,0,0-.5-.055" transform="translate(-27.567 -84.387)"/>
        <path id="Trazado_875891" data-name="Trazado 875891" d="M84.26,222.172a.237.237,0,0,1-.094-.019L60.506,211.56a.23.23,0,1,1,.188-.419l23.659,10.593a.229.229,0,0,1-.094.439" transform="translate(-30.992 -108.382)"/>
        <path id="Trazado_875892" data-name="Trazado 875892" d="M96.253,167.12h-.019l-25.2-2.156a.229.229,0,0,1-.209-.248.219.219,0,0,1,.248-.209l25.2,2.156a.229.229,0,0,1-.019.458" transform="translate(-36.357 -84.45)"/>
        <path id="Trazado_875893" data-name="Trazado 875893" d="M149.927,266.061s-2.656,41.273-8.879,55.03,19.275,15.265,26.634,8.08,12.2-52.064,10.8-64.19-28.55,1.08-28.55,1.08" transform="translate(-71.911 -133.401)" fill="#daeada"/>
        <path id="Trazado_875894" data-name="Trazado 875894" d="M188.785,282.867h-.02l-29.344-2.551a.229.229,0,0,1-.209-.248.222.222,0,0,1,.248-.209l29.344,2.551a.229.229,0,0,1-.019.458" transform="translate(-81.733 -143.667)"/>
        <path id="Trazado_875895" data-name="Trazado 875895" d="M226.827,260.186h-.02l-10.912-.968a.23.23,0,0,1-.208-.249.211.211,0,0,1,.249-.208l10.911.968a.229.229,0,0,1-.02.458" transform="translate(-110.725 -132.835)"/>
        <path id="Trazado_875896" data-name="Trazado 875896" d="M225.253,266.394h-.02l-10.912-.967a.23.23,0,0,1-.208-.249.213.213,0,0,1,.249-.208l10.911.967a.229.229,0,0,1-.02.458" transform="translate(-109.917 -136.023)"/>
        <path id="Trazado_875897" data-name="Trazado 875897" d="M223.144,272.954h-.02l-10.912-.968a.23.23,0,0,1-.208-.249.217.217,0,0,1,.249-.208l10.911.968a.229.229,0,0,1-.02.458" transform="translate(-108.834 -139.391)"/>
        <path id="Trazado_875898" data-name="Trazado 875898" d="M129.932,288.669,148.754,291c3.361.419,5.765,3.844,5.379,7.654a6.647,6.647,0,0,1-5.113,6.063,7.289,7.289,0,0,1,.473,12.782,7.243,7.243,0,0,1,2.646,6.485,6.633,6.633,0,0,1-5.221,6.086,6.485,6.485,0,0,1,2.422,5.853c-.346,3.415-3.065,5.881-6.075,5.509l-16.874-2.093a5.007,5.007,0,0,1-2.144-.8,6.467,6.467,0,0,1-2.678-6.065,6.163,6.163,0,0,1,3.5-5.1,5.7,5.7,0,0,1-.924-.471,7.212,7.212,0,0,1-2.988-6.766,6.953,6.953,0,0,1,3.537-5.517,7.229,7.229,0,0,1-2.665-6.476,6.647,6.647,0,0,1,5.109-6.062,5.748,5.748,0,0,1-1-.51,7.211,7.211,0,0,1-2.987-6.765c.385-3.809,3.419-6.56,6.776-6.145" transform="translate(-62.179 -148.17)" fill="#e48c68"/>
        <path id="Trazado_875899" data-name="Trazado 875899" d="M155.167,318.9a.274.274,0,0,0-.018-.528l-21.878-2.63a.248.248,0,0,0-.261.237.26.26,0,0,0,.208.294L155.1,318.9a.2.2,0,0,0,.071,0" transform="translate(-68.281 -162.09)" fill="#3c251d"/>
        <path id="Trazado_875900" data-name="Trazado 875900" d="M165.134,345.6a.259.259,0,0,0,.189-.223.263.263,0,0,0-.2-.3l-13.351-2.217a.243.243,0,0,0-.268.226.264.264,0,0,0,.2.3l13.351,2.217a.207.207,0,0,0,.079,0" transform="translate(-77.775 -176.008)" fill="#3c251d"/>
        <path id="Trazado_875901" data-name="Trazado 875901" d="M146.9,369.87a.256.256,0,0,0,.188-.221.263.263,0,0,0-.194-.306l-15.11-2.7a.237.237,0,0,0-.271.222.263.263,0,0,0,.195.306l15.11,2.7a.187.187,0,0,0,.082,0" transform="translate(-67.514 -188.218)" fill="#3c251d"/>
        <path id="Trazado_875902" data-name="Trazado 875902" d="M171.708,373.254a.253.253,0,0,0,.186-.208.268.268,0,0,0-.182-.317l-2.1-.495a.24.24,0,0,0-.28.207.269.269,0,0,0,.182.317l2.1.495a.21.21,0,0,0,.094,0" transform="translate(-86.924 -191.088)" fill="#3c251d"/>
        <path id="Trazado_875903" data-name="Trazado 875903" d="M167.248,304.984a.235.235,0,0,0,.066.029l4.829,1.3a.219.219,0,0,0,.206-.051,7.958,7.958,0,0,0,2.382-5.412.27.27,0,0,0-.233-.288.26.26,0,0,0-.256.265,7.581,7.581,0,0,1-2.1,4.912l-4.6-1.239c-1.62-3.522.359-7,.815-7.724l4.02,1.011a.245.245,0,0,0,.292-.21.279.279,0,0,0-.183-.33l-4.174-1.05a.23.23,0,0,0-.245.1c-.03.043-2.969,4.285-.9,8.583a.269.269,0,0,0,.091.106" transform="translate(-85.435 -152.053)" fill="#3c251d"/>
        <path id="Trazado_875904" data-name="Trazado 875904" d="M167.488,332.452a.236.236,0,0,0,.068.023l4.9.878a.221.221,0,0,0,.2-.068,8.119,8.119,0,0,0,2.012-5.6.247.247,0,1,0-.49.02,7.726,7.726,0,0,1-1.767,5.078l-4.675-.837c-1.853-3.37-.112-7.007.293-7.769l4.077.659a.25.25,0,0,0,.277-.235.273.273,0,0,0-.2-.313l-4.235-.685a.233.233,0,0,0-.238.117c-.027.046-2.674,4.528-.325,8.633a.262.262,0,0,0,.1.1" transform="translate(-85.433 -166.124)" fill="#3c251d"/>
        <path id="Trazado_875905" data-name="Trazado 875905" d="M163.966,358.434a.225.225,0,0,0,.068.023l4.9.878a.221.221,0,0,0,.2-.068,8.119,8.119,0,0,0,2.012-5.6.247.247,0,1,0-.49.02,7.724,7.724,0,0,1-1.767,5.078l-4.675-.837c-1.852-3.37-.112-7.007.294-7.769l4.077.659a.25.25,0,0,0,.278-.235.274.274,0,0,0-.205-.313l-4.234-.685a.234.234,0,0,0-.238.117c-.026.046-2.674,4.528-.324,8.633a.252.252,0,0,0,.1.1" transform="translate(-83.625 -179.462)" fill="#3c251d"/>
        <path id="Trazado_875906" data-name="Trazado 875906" d="M158.523,384.1a.229.229,0,0,0,.064.022l4.646.832a.208.208,0,0,0,.192-.065,7.686,7.686,0,0,0,1.906-5.3.234.234,0,1,0-.464.019,7.317,7.317,0,0,1-1.674,4.809l-4.428-.793c-1.755-3.192-.107-6.636.278-7.358l3.862.624a.238.238,0,0,0,.263-.222.259.259,0,0,0-.195-.3l-4.01-.649a.222.222,0,0,0-.225.111c-.025.043-2.533,4.289-.307,8.177a.244.244,0,0,0,.092.092" transform="translate(-80.86 -192.878)" fill="#3c251d"/>
        <path id="Trazado_875907" data-name="Trazado 875907" d="M537.88,553.555c5.159-3.44,10.32-6.181,16.6-5.98-.164-1.6-.359-3.252-.6-4.987a420.033,420.033,0,0,0-49.355-4.861c1.2,5.846,2.063,10.961,2.5,14.981-12.711,1.663-37.282,1.382-59.875-.972l-4.985,47.587c.805.085,19.982,2.071,40.734,2.257,1.065.009,2.112.014,3.148.014,16.354,0,29.044-1.2,38.873-3.813-3.413-15.552-.631-33.359,12.952-44.225" transform="translate(-226.994 -276.048)" fill="#e48c68"/>
        <path id="Trazado_875908" data-name="Trazado 875908" d="M623.78,563.933c-13.583,10.867-16.365,28.673-12.952,44.225,11.249-2.995,18.748-7.85,23.69-14.911s7.79-16.628,5.866-35.294c-6.284-.2-11.445,2.54-16.6,5.98" transform="translate(-312.895 -286.426)" fill="#db704a"/>
        <rect id="Rectángulo_403113" data-name="Rectángulo 403113" width="7.14" height="2.708" transform="translate(296.457 308.388)" fill="#3c251d"/>
        <rect id="Rectángulo_403114" data-name="Rectángulo 403114" width="7.14" height="2.708" transform="translate(287.471 308.388)" fill="#3c251d"/>
        <rect id="Rectángulo_403115" data-name="Rectángulo 403115" width="7.14" height="2.708" transform="translate(278.546 308.388)" fill="#3c251d"/>
        <rect id="Rectángulo_403116" data-name="Rectángulo 403116" width="7.14" height="2.708" transform="translate(269.929 308.388)" fill="#3c251d"/>
        <rect id="Rectángulo_403117" data-name="Rectángulo 403117" width="7.14" height="2.708" transform="translate(260.757 308.388)" fill="#3c251d"/>
        <rect id="Rectángulo_403118" data-name="Rectángulo 403118" width="7.14" height="2.708" transform="translate(252.14 308.388)" fill="#3c251d"/>
        <path id="Trazado_875909" data-name="Trazado 875909" d="M270.563,481.1l104.009,1.386a3.9,3.9,0,0,1,3.788,3.216l13.048,73.226a3.9,3.9,0,0,1-3.823,4.584l-103.326.438a3.9,3.9,0,0,1-3.853-3.2L266.674,485.7a3.9,3.9,0,0,1,3.888-4.6" transform="translate(-136.867 -246.976)" fill="#c6bcc6"/>
        <path id="Trazado_875910" data-name="Trazado 875910" d="M263.986,481.1l104.009,1.386a3.9,3.9,0,0,1,3.788,3.216l13.048,73.226a3.9,3.9,0,0,1-3.823,4.584l-103.325.438a3.9,3.9,0,0,1-3.853-3.2L260.1,485.7a3.9,3.9,0,0,1,3.888-4.6" transform="translate(-133.491 -246.976)" fill="#bad6cb"/>
        <path id="Trazado_875911" data-name="Trazado 875911" d="M395.013,558.756,381.964,485.53a3.9,3.9,0,0,0-3.787-3.215l-104.009-1.386a3.674,3.674,0,0,0-.376.037l101.184,1.348a3.9,3.9,0,0,1,3.788,3.215l13.048,73.226a3.9,3.9,0,0,1-3.823,4.584l-100.277.425a.606.606,0,0,1,.1.013l103.377-.438a3.9,3.9,0,0,0,3.823-4.584" transform="translate(-140.554 -246.89)" fill="#739485"/>
        <path id="Trazado_875912" data-name="Trazado 875912" d="M544.169,643.85l-82.221-1.1.094-7.082,82.165,1.094a.273.273,0,0,1,.27.277l-.088,6.593a.217.217,0,0,1-.22.215" transform="translate(-237.146 -326.33)" fill="#bad6cb"/>
        <rect id="Rectángulo_403119" data-name="Rectángulo 403119" width="8.494" height="2.339" transform="translate(260.264 311.896)" fill="#3c251d"/>
        <rect id="Rectángulo_403120" data-name="Rectángulo 403120" width="8.494" height="0.923" transform="translate(260.264 312.204)" fill="#fff"/>
        <path id="Trazado_875913" data-name="Trazado 875913" d="M617.684,643.057a1.252,1.252,0,1,0-1.252,1.252,1.252,1.252,0,0,0,1.252-1.252" transform="translate(-315.81 -329.478)" fill="#3c251d"/>
        <path id="Trazado_875914" data-name="Trazado 875914" d="M609.505,643.057a1.252,1.252,0,1,0-1.252,1.252,1.252,1.252,0,0,0,1.252-1.252" transform="translate(-311.612 -329.478)" fill="#3c251d"/>
        <path id="Trazado_875915" data-name="Trazado 875915" d="M363.49,557.525a9.082,9.082,0,0,0,7.874-.073c3.7-1.744,7.285-6.006,6.65-10.327-.615-4.183-4.649-6.929-8.561-7.708a10.1,10.1,0,0,0-7.987,1.663c-5.222,3.948-3.665,13.3,1.819,16.336.068.037.136.073.2.109" transform="translate(-183.918 -276.809)" fill="#fff"/>
        <path id="Trazado_875916" data-name="Trazado 875916" d="M373.951,641.861l-4.627-18.551C368.5,620,371,617.289,374.9,617.252a9.278,9.278,0,0,1,7.871,4.315c.084-2.646,2.374-4.636,5.714-4.668a9.518,9.518,0,0,1,6.735,2.825c.71-1.916,2.713-3.249,5.43-3.275a9.26,9.26,0,0,1,7.934,4.417c.618-1.746,2.427-2.964,4.888-2.987,3.5-.034,6.937,2.343,7.678,5.31l4.148,16.632a4.287,4.287,0,0,1,0,2.17c-.512,1.9-2.412,3.236-5,3.261a8.5,8.5,0,0,1-6.328-2.855,4.5,4.5,0,0,1-.125.949c-.571,2.115-2.691,3.609-5.581,3.637a9.518,9.518,0,0,1-6.752-2.842c-.707,1.918-2.694,3.266-5.414,3.292a9.277,9.277,0,0,1-7.868-4.31,4.52,4.52,0,0,1-.135,1.026c-.571,2.115-2.691,3.609-5.581,3.637-3.9.038-7.738-2.614-8.565-5.923" transform="translate(-189.516 -316.461)" fill="#e48c68"/>
        <path id="Trazado_875917" data-name="Trazado 875917" d="M397.075,626.651a.363.363,0,0,0-.3-.16c-.151,0-.245.107-.213.235l5.46,21.554a.344.344,0,0,0,.331.228c.151,0,.245-.107.213-.235l-5.46-21.554a.243.243,0,0,0-.029-.069" transform="translate(-203.576 -321.616)" fill="#3c251d"/>
        <path id="Trazado_875918" data-name="Trazado 875918" d="M422.658,622.862a.361.361,0,0,0-.29-.159c-.153,0-.254.1-.228.226l2.728,13.22a.337.337,0,0,0,.322.236c.153,0,.254-.1.228-.226l-2.728-13.22a.231.231,0,0,0-.032-.077" transform="translate(-216.708 -319.672)" fill="#3c251d"/>
        <path id="Trazado_875919" data-name="Trazado 875919" d="M453.159,636.1a.36.36,0,0,0-.288-.159c-.151-.005-.255.094-.23.222l2.9,14.983a.327.327,0,0,0,.319.239c.151,0,.255-.095.23-.222l-2.9-14.983a.205.205,0,0,0-.032-.08" transform="translate(-232.367 -326.467)" fill="#3c251d"/>
        <path id="Trazado_875920" data-name="Trazado 875920" d="M450.118,625.208a.359.359,0,0,0-.274-.159c-.153-.011-.262.083-.246.211l.286,2.1a.331.331,0,0,0,.309.25c.153.011.262-.084.246-.211l-.286-2.1a.236.236,0,0,0-.035-.091" transform="translate(-230.805 -320.876)" fill="#3c251d"/>
        <path id="Trazado_875921" data-name="Trazado 875921" d="M383.493,630.59a.2.2,0,0,0,0-.068L383,625.687a.278.278,0,0,0-.126-.2,10.479,10.479,0,0,0-6.222-1.73.2.2,0,0,0-.2.258.36.36,0,0,0,.356.22,9.884,9.884,0,0,1,5.626,1.512l.471,4.609c-2.882,1.956-7.045.409-7.928.044l-.482-4.017a.336.336,0,0,0-.315-.261c-.159-.014-.274.087-.259.214l.5,4.171a.307.307,0,0,0,.186.228c.054.024,5.325,2.423,8.81-.051a.182.182,0,0,0,.071-.1" transform="translate(-191.958 -320.205)" fill="#3c251d"/>
        <path id="Trazado_875922" data-name="Trazado 875922" d="M410.256,627.444a.191.191,0,0,0,0-.069l-.939-4.863a.3.3,0,0,0-.142-.19,10.327,10.327,0,0,0-6.271-1.35.2.2,0,0,0-.171.274.365.365,0,0,0,.371.2,9.715,9.715,0,0,1,5.665,1.168l.9,4.636c-2.647,2.166-6.879.868-7.78.555l-.851-4.035a.347.347,0,0,0-.334-.244c-.157,0-.261.106-.234.234l.883,4.19a.322.322,0,0,0,.2.219c.055.021,5.457,2.11,8.646-.62a.181.181,0,0,0,.06-.106" transform="translate(-205.58 -318.744)" fill="#3c251d"/>
        <path id="Trazado_875923" data-name="Trazado 875923" d="M437.213,628.056a.193.193,0,0,0,0-.069l-.939-4.863a.3.3,0,0,0-.142-.19,10.326,10.326,0,0,0-6.271-1.35.2.2,0,0,0-.171.274.365.365,0,0,0,.371.2,9.715,9.715,0,0,1,5.665,1.168l.895,4.636c-2.646,2.166-6.878.868-7.78.555l-.851-4.035a.347.347,0,0,0-.334-.244c-.158,0-.261.106-.234.234l.883,4.19a.321.321,0,0,0,.2.218c.055.021,5.457,2.11,8.646-.619a.181.181,0,0,0,.06-.106" transform="translate(-219.419 -319.058)" fill="#3c251d"/>
        <path id="Trazado_875924" data-name="Trazado 875924" d="M464.645,631.044a.193.193,0,0,0,0-.065l-.89-4.607a.28.28,0,0,0-.134-.18,9.784,9.784,0,0,0-5.94-1.278.186.186,0,0,0-.161.259.345.345,0,0,0,.351.189,9.2,9.2,0,0,1,5.366,1.107l.848,4.391c-2.507,2.051-6.515.822-7.369.526l-.805-3.822a.329.329,0,0,0-.316-.232c-.149,0-.248.1-.221.221l.836,3.969a.305.305,0,0,0,.193.207c.052.02,5.168,2,8.188-.586a.169.169,0,0,0,.057-.1" transform="translate(-233.768 -320.77)" fill="#3c251d"/>
      </g>
    </g>
  </g>
</svg>
