<svg xmlns="http://www.w3.org/2000/svg" width="104" height="104" viewBox="0 0 104 104">
  <g id="Grupo_1106541" data-name="Grupo 1106541" transform="translate(-224.051 -1421)">
    <circle id="Elipse_11634" data-name="Elipse 11634" cx="52" cy="52" r="52" transform="translate(224.051 1421)" fill="#fd9f81"/>
    <g id="correo-electronico_1_" data-name="correo-electronico (1)" transform="translate(242.051 1439)">
      <path id="Trazado_875947" data-name="Trazado 875947" d="M18.766,163,10,170.039v32.539a5.445,5.445,0,0,0,5.445,5.445H69.9a5.445,5.445,0,0,0,5.445-5.445V170.039l-8.766-6.826" transform="translate(-8.672 -141.352)" fill="#72d8ff"/>
      <rect id="Rectángulo_403126" data-name="Rectángulo 403126" width="46.75" height="50.61" transform="translate(10.625 1.328)" fill="#edf2fa"/>
      <path id="Trazado_875948" data-name="Trazado 875948" d="M51.57,239.852H33.047L10,216v32.539a5.445,5.445,0,0,0,5.445,5.445H69.9a5.445,5.445,0,0,0,5.445-5.445V216Z" transform="translate(-8.672 -187.313)" fill="#feda9b"/>
      <path id="Trazado_875949" data-name="Trazado 875949" d="M44.055,358.347l19.256-17.493a13.226,13.226,0,0,1,17.786,0l19.256,17.493Z" transform="translate(-38.204 -292.605)" fill="#ffb954"/>
      <g id="Grupo_1106540" data-name="Grupo 1106540" transform="translate(18.466 9.908)">
        <path id="Trazado_875950" data-name="Trazado 875950" d="M317.846,81.97a4.317,4.317,0,1,0-6.105-6.105Z" transform="translate(-288.804 -74.6)" fill="#ff5d5d"/>
        <path id="Trazado_875951" data-name="Trazado 875951" d="M154.007,198.4l-5,5a5.839,5.839,0,0,1-8.257,0h0a5.839,5.839,0,0,1,0-8.257l5-5Z" transform="translate(-139.04 -174.798)" fill="#ff5d5d"/>
      </g>
      <path id="Trazado_875952" data-name="Trazado 875952" d="M228.529,252.336l5.851,5.851-3.553,3.553-5.853-5.853Z" transform="translate(-195.095 -218.823)" fill="#6a80ff"/>
      <path id="Trazado_875953" data-name="Trazado 875953" d="M197.818,59.6l-8.259-8.26,9.051-21.258,20.458,20.458Z" transform="translate(-164.383 -26.091)" fill="#4dbaf6"/>
      <path id="Trazado_875954" data-name="Trazado 875954" d="M257.545,52.87,263,50.545,242.541,30.087l-2.323,5.456Z" transform="translate(-208.314 -26.091)" fill="#fff"/>
      <path id="Trazado_875955" data-name="Trazado 875955" d="M188.389,56.389a1.327,1.327,0,1,0,.939-.389A1.338,1.338,0,0,0,188.389,56.389Z" transform="translate(-163.031 -48.563)"/>
      <path id="Trazado_875956" data-name="Trazado 875956" d="M112.2,58.656h5.335a1.328,1.328,0,0,0,0-2.656H112.2a1.328,1.328,0,0,0,0,2.656Z" transform="translate(-96.149 -48.563)"/>
      <path id="Trazado_875957" data-name="Trazado 875957" d="M112.2,114.656h6.4a1.328,1.328,0,0,0,0-2.656h-6.4a1.328,1.328,0,0,0,0,2.656Z" transform="translate(-96.149 -97.125)"/>
      <path id="Trazado_875958" data-name="Trazado 875958" d="M67.487,27.641h0l-8.766-6.826L58.7,20.8V19.391a1.328,1.328,0,0,0-2.656,0V37.409c0,.008,0,.016,0,.024l-10.99,10.99-1.272-1.156a14.521,14.521,0,0,0-7.009-3.514L40.225,40.3a1.328,1.328,0,0,0,0-1.878l-4.461-4.461,19.442-8.289a1.328,1.328,0,0,0,.418-2.161l-6.348-6.348A5.647,5.647,0,0,0,41.514,9.4L35.166,3.057A1.328,1.328,0,0,0,33,3.475L24.054,24.5l-4.817,4.817A7.167,7.167,0,1,0,29.373,39.449l.507-.507,4.549,4.549c-.143,0-.286-.007-.429-.007a14.525,14.525,0,0,0-9.786,3.781l-1.272,1.156-10.99-10.99c0-.008,0-.016,0-.024V2.656H26.826a1.328,1.328,0,0,0,0-2.656h-16.2A1.328,1.328,0,0,0,9.3,1.328v19.26l-.035.025L.5,27.652h0A1.325,1.325,0,0,0,0,28.688V61.227A6.781,6.781,0,0,0,6.773,68H61.227A6.781,6.781,0,0,0,68,61.227V28.688A1.325,1.325,0,0,0,67.487,27.641ZM32.356,11.781,46.9,26.328,33.74,31.94l-6.991-6.991Zm12.1-.545a2.985,2.985,0,0,1,2.831,3.942L43.5,11.394A2.99,2.99,0,0,1,44.456,11.236Zm-9.777-4.91,5.784,5.784,0,0,0,0,6.1,6.1h0L52.356,24l-2.82,1.2L33.477,9.146ZM24.305,38.892a4.511,4.511,0,0,1-3.19-7.7l4.06-4.06,6.379,6.38-4.06,4.06A4.481,4.481,0,0,1,24.305,38.892Zm9.128-3.5,3.975,3.975L35.733,41.04l-3.975-3.975ZM58.7,24.165l5.966,4.646L58.7,34.778ZM26,49.233a11.852,11.852,0,0,1,16,0L59.735,65.344H8.265l4.386-3.984H22.4a1.328,1.328,0,0,0,0-2.656H15.575ZM9.3,23.992V34.778L3.315,28.8ZM2.656,61.227V31.894L20.973,50.211,4.958,64.759a1.358,1.358,0,0,0-.105.108A4.12,4.12,0,0,1,2.656,61.227Zm60.491,3.64a1.335,1.335,0,0,0-.105-.108L47.027,50.211,65.344,31.894V61.227A4.12,4.12,0,0,1,63.147,64.867Z"/>
      <path id="Trazado_875959" data-name="Trazado 875959" d="M383.328,8.417a1.324,1.324,0,0,0,.939-.389l5.365-5.365A1.328,1.328,0,0,0,387.754.785L382.389,6.15a1.328,1.328,0,0,0,.939,2.267Z" transform="translate(-331.266 -0.343)"/>
      <path id="Trazado_875960" data-name="Trazado 875960" d="M345.74,5.324A1.328,1.328,0,0,0,347.068,4V1.328a1.328,1.328,0,0,0-2.656,0V4A1.328,1.328,0,0,0,345.74,5.324Z" transform="translate(-298.67)"/>
      <path id="Trazado_875961" data-name="Trazado 875961" d="M406.014,77.521h-2.757a1.328,1.328,0,0,0,0,2.656h2.757a1.328,1.328,0,0,0,0-2.656Z" transform="translate(-348.548 -67.225)"/>
      <path id="Trazado_875962" data-name="Trazado 875962" d="M200.988,444.656a1.327,1.327,0,1,0-.94-.389A1.34,1.34,0,0,0,200.988,444.656Z" transform="translate(-173.143 -383.297)"/>
    </g>
  </g>
</svg>
