<svg xmlns="http://www.w3.org/2000/svg" width="104" height="104" viewBox="0 0 104 104">
  <g id="Grupo_1106550" data-name="Grupo 1106550" transform="translate(-224.051 -1691)">
    <circle id="Elipse_11636" data-name="Elipse 11636" cx="52" cy="52" r="52" transform="translate(224.051 1691)" fill="#fd9f81"/>
    <g id="intranet_1_" data-name="intranet (1)" transform="translate(240.051 1671.031)">
      <path id="Trazado_876011" data-name="Trazado 876011" d="M76.986,107.417H8.6a1.1,1.1,0,0,1-1.1-1.1V51.387a2.918,2.918,0,0,1,2.918-2.918H75.168a2.918,2.918,0,0,1,2.918,2.918v54.93A1.1,1.1,0,0,1,76.986,107.417Z" transform="translate(-6.436 -6.435)" fill="#fdfcfc"/>
      <path id="Trazado_876012" data-name="Trazado 876012" d="M78.084,57.174V51.387a2.918,2.918,0,0,0-2.918-2.918H10.418A2.918,2.918,0,0,0,7.5,51.387v5.787Z" transform="translate(-6.435 -6.435)" fill="#bed9fd"/>
      <path id="Trazado_876013" data-name="Trazado 876013" d="M458.216,48.469h-4.261a2.918,2.918,0,0,1,2.918,2.918v54.93a1.1,1.1,0,0,1-1.1,1.1h4.261a1.1,1.1,0,0,0,1.1-1.1V51.387A2.918,2.918,0,0,0,458.216,48.469Z" transform="translate(-389.484 -6.435)" fill="#e3e0e4"/>
      <path id="Trazado_876014" data-name="Trazado 876014" d="M458.216,48.469h-4.261a2.918,2.918,0,0,1,2.918,2.918v5.787h4.261V51.387A2.918,2.918,0,0,0,458.216,48.469Z" transform="translate(-389.484 -6.435)" fill="#80b6fc"/>
      <path id="Trazado_876015" data-name="Trazado 876015" d="M281.057,140.382h23.609a.774.774,0,0,1,.774.774v7.522a.774.774,0,0,1-.774.774h-3.617a.774.774,0,0,0-.658.367l-.723,1.171a.774.774,0,0,1-1.317,0l-.723-1.171a.774.774,0,0,0-.658-.367H281.057a.774.774,0,0,1-.774-.774v-7.522A.774.774,0,0,1,281.057,140.382Z" transform="translate(-240.477 -85.294)" fill="#f9c8dc"/>
      <path id="Trazado_876016" data-name="Trazado 876016" d="M281.057,248.555h23.609a.774.774,0,0,1,.774.774v7.522a.774.774,0,0,1-.774.774h-3.617a.774.774,0,0,0-.658.367l-.723,1.171a.774.774,0,0,1-1.317,0l-.723-1.171a.773.773,0,0,0-.658-.367H281.057a.774.774,0,0,1-.774-.774v-7.522A.774.774,0,0,1,281.057,248.555Z" transform="translate(-240.477 -178.104)" fill="#ffebab"/>
      <path id="Trazado_876017" data-name="Trazado 876017" d="M281.057,356.729h23.609a.774.774,0,0,1,.774.774v7.522a.774.774,0,0,1-.774.774h-3.617a.774.774,0,0,0-.658.367l-.723,1.171a.774.774,0,0,1-1.317,0l-.723-1.171a.774.774,0,0,0-.658-.367H281.057a.774.774,0,0,1-.774-.774V357.5A.774.774,0,0,1,281.057,356.729Z" transform="translate(-240.477 -270.915)" fill="#80b6fc"/>
      <path id="Trazado_876018" data-name="Trazado 876018" d="M426.23,140.382h-4.261a.774.774,0,0,1,.774.774v7.522a.77.77,0,0,1-.179.495v.282c.016,0,.033,0,.049,0h3.617a.774.774,0,0,0,.774-.774v-7.522A.774.774,0,0,0,426.23,140.382Z" transform="translate(-362.04 -85.294)" fill="#faafd1"/>
      <path id="Trazado_876019" data-name="Trazado 876019" d="M429.822,248.555h-3.666v.279a.77.77,0,0,1,.179.495v7.522a.771.771,0,0,1-.179.495v.282c.016,0,.033,0,.049,0h3.617a.774.774,0,0,0,.774-.774v-7.522A.774.774,0,0,0,429.822,248.555Z" transform="translate(-365.633 -178.104)" fill="#ffe07d"/>
      <path id="Trazado_876020" data-name="Trazado 876020" d="M429.822,356.728h-3.666v.279a.77.77,0,0,1,.179.495v7.522a.77.77,0,0,1-.179.495v.282c.016,0,.033,0,.049,0h3.617a.774.774,0,0,0,.774-.774V357.5A.774.774,0,0,0,429.822,356.728Z" transform="translate(-365.633 -270.915)" fill="#62a4fb"/>
      <path id="Trazado_876021" data-name="Trazado 876021" d="M69.693,396.2a17.053,17.053,0,0,0-.716-2.009,3.49,3.49,0,0,0-1.927-1.871l-6.1-2.4a.873.873,0,0,1-.552-.812v-4.05H53.722v4.05a.873.873,0,0,1-.552.812l-6.1,2.4a3.49,3.49,0,0,0-1.927,1.871,17.071,17.071,0,0,0-.716,2.009Z" transform="translate(-38.121 -295.219)" fill="#ddebfd"/>
      <path id="Trazado_876022" data-name="Trazado 876022" d="M146.58,411.367a3.49,3.49,0,0,0-1.927-1.871l-6.1-2.4a.872.872,0,0,1-.552-.812v-1.207H134.88V407.7a.873.873,0,0,0,.552.812l6.1,2.4a3.49,3.49,0,0,1,1.927,1.871c.084.195.162.391.238.589h3.6A17.074,17.074,0,0,0,146.58,411.367Z" transform="translate(-115.724 -312.394)" fill="#bed9fd"/>
      <circle id="Elipse_11651" data-name="Elipse 11651" cx="9.952" cy="9.952" r="9.952" transform="translate(9.142 68.243)" fill="#c27e4e"/>
      <path id="Trazado_876023" data-name="Trazado 876023" d="M94.59,277.521c-.962-.553-2.444,1.565-3.519,1.857a5.185,5.185,0,0,1-2.615.1c-1.1-.151-2.557-2.508-3.519-1.955a1.841,1.841,0,0,0-.787.9c-.926,2.264-4.5,12.234,2.348,16.574a6.116,6.116,0,0,0,6.531,0c6.848-4.34,3.273-14.31,2.348-16.574A1.843,1.843,0,0,0,94.59,277.521Z" transform="translate(-70.691 -202.878)" fill="#e0aea2"/>
      <path id="Trazado_876024" data-name="Trazado 876024" d="M127.045,278.421a1.842,1.842,0,0,0-.787-.9c-.86-.494-2.134,1.143-3.163,1.706,1.182,3.237,3.563,11.826-2.658,15.768a6.069,6.069,0,0,1-1.135.562,6.119,6.119,0,0,0,5.4-.562C131.545,290.655,127.97,280.685,127.045,278.421Z" transform="translate(-102.358 -202.877)" fill="#e0a192"/>
      <path id="Trazado_876025" data-name="Trazado 876025" d="M25.1,147.252H7.5v-6.871H25.1a3.436,3.436,0,0,1,0,6.871Z" transform="translate(-6.435 -85.293)" fill="#62a4fb"/>
      <path id="Trazado_876026" data-name="Trazado 876026" d="M105.71,140.382h-4.261a3.436,3.436,0,1,1,0,6.871h4.261a3.436,3.436,0,0,0,0-6.871Z" transform="translate(-87.041 -85.294)" fill="#5392f9"/>
      <circle id="Elipse_11652" data-name="Elipse 11652" cx="1.065" cy="1.065" r="1.065" transform="translate(55.447 45.321)"/>
      <circle id="Elipse_11653" data-name="Elipse 11653" cx="1.065" cy="1.065" r="1.065" transform="translate(59.868 45.321)"/>
      <circle id="Elipse_11654" data-name="Elipse 11654" cx="1.065" cy="1.065" r="1.065" transform="translate(64.29 45.321)"/>
      <path id="Trazado_876027" data-name="Trazado 876027" d="M68.732,40.969H28.149a1.065,1.065,0,0,0,0,2.13H68.732a1.855,1.855,0,0,1,1.853,1.853v4.722H2.13V44.952A1.855,1.855,0,0,1,3.983,43.1h19.9a1.065,1.065,0,1,0,0-2.13H3.983A3.988,3.988,0,0,0,0,44.952v54.93a2.167,2.167,0,0,0,2.165,2.165H70.55a2.167,2.167,0,0,0,2.165-2.165V44.952A3.988,3.988,0,0,0,68.732,40.969ZM2.13,56.153H18.668a2.37,2.37,0,1,1,0,4.741H2.13ZM10.8,81.378a8.886,8.886,0,1,1,16.556.08,26.222,26.222,0,0,0-1.684-6.318,2.924,2.924,0,0,0-1.243-1.421,2.256,2.256,0,0,0-2.3.249,10.055,10.055,0,0,0-1.592,1.188,2.176,2.176,0,0,1-1.441.553h-.041a2.175,2.175,0,0,1-1.441-.553c-.689-.609-2.518-2.228-3.9-1.437a2.922,2.922,0,0,0-1.243,1.421A26.262,26.262,0,0,0,10.8,81.378ZM12.783,83.1a22.911,22.911,0,0,1,1.663-7.154.784.784,0,0,1,.2-.284A5.577,5.577,0,0,1,16.2,76.752a4.3,4.3,0,0,0,2.853,1.088h.041a4.3,4.3,0,0,0,2.853-1.088A5.577,5.577,0,0,1,23.5,75.663a.784.784,0,0,1,.2.284A22.923,22.923,0,0,1,25.364,83.1c.174,3.764-1.035,6.494-3.595,8.116a4.993,4.993,0,0,1-5.392,0c-2.559-1.622-3.769-4.353-3.595-8.116ZM15.44,95.689a1.927,1.927,0,0,0,1.227-1.8v-.175a7.209,7.209,0,0,0,4.549.088v.087a1.927,1.927,0,0,0,1.227,1.8l6.1,2.4a2.441,2.441,0,0,1,1.339,1.3c.074.172.144.348.212.524H7.793c.068-.176.139-.351.213-.524a2.441,2.441,0,0,1,1.339-1.3Zm55.11,4.228h-38.2c-.155-.46-.329-.919-.52-1.364a4.584,4.584,0,0,0-2.515-2.442l-5.974-2.355V92.723a9.913,9.913,0,0,0,4.083-7.36,1.065,1.065,0,0,0,.166-.161,11.017,11.017,0,1,0-17.06-.072,1.06,1.06,0,0,0,.178.173,9.971,9.971,0,0,0,3.823,7.225v1.227L8.563,96.111a4.585,4.585,0,0,0-2.516,2.442c-.191.446-.365.9-.519,1.364H2.165a.034.034,0,0,1-.034-.034V63.024H18.668a4.5,4.5,0,1,0,0-9H2.13V51.8H70.584V99.882A.034.034,0,0,1,70.55,99.917Z"/>
      <path id="Trazado_876028" data-name="Trazado 876028" d="M298.233,132.882H274.624a1.841,1.841,0,0,0-1.839,1.839v7.522a1.841,1.841,0,0,0,1.839,1.839h15.751l.638,1.032a1.839,1.839,0,0,0,3.129,0l.638-1.032h3.454a1.841,1.841,0,0,0,1.839-1.839v-7.522A1.841,1.841,0,0,0,298.233,132.882Zm-.292,9.069h-3.325a1.827,1.827,0,0,0-1.564.873l-.475.769-.475-.769a1.827,1.827,0,0,0-1.565-.873H274.915v-6.939h23.026Z" transform="translate(-234.044 -78.859)"/>
      <path id="Trazado_876029" data-name="Trazado 876029" d="M322.192,166.491h11.261a1.065,1.065,0,0,0,0-2.13H322.192a1.065,1.065,0,0,0,0,2.13Z" transform="translate(-275.52 -105.868)"/>
      <path id="Trazado_876030" data-name="Trazado 876030" d="M298.233,241.055H274.624a1.841,1.841,0,0,0-1.839,1.839v7.522a1.841,1.841,0,0,0,1.839,1.839h15.751l.638,1.032a1.839,1.839,0,0,0,3.129,0l.638-1.032h3.454a1.841,1.841,0,0,0,1.839-1.839v-7.522A1.841,1.841,0,0,0,298.233,241.055Zm-.292,9.07h-3.325a1.827,1.827,0,0,0-1.564.872l-.475.769L292.1,251a1.827,1.827,0,0,0-1.565-.873H274.915v-6.939h23.026Z" transform="translate(-234.044 -171.67)"/>
      <path id="Trazado_876031" data-name="Trazado 876031" d="M322.192,274.664h11.261a1.065,1.065,0,0,0,0-2.13H322.192a1.065,1.065,0,0,0,0,2.13Z" transform="translate(-275.52 -198.678)"/>
      <path id="Trazado_876032" data-name="Trazado 876032" d="M298.233,349.229h-9.622a1.065,1.065,0,1,0,0,2.13h9.331V358.3h-3.325a1.827,1.827,0,0,0-1.564.873l-.475.769-.475-.769a1.827,1.827,0,0,0-1.565-.873H274.915v-6.939h9.435a1.065,1.065,0,1,0,0-2.13h-9.726a1.841,1.841,0,0,0-1.839,1.839v7.522a1.841,1.841,0,0,0,1.839,1.839h15.751l.638,1.032a1.839,1.839,0,0,0,3.129,0l.638-1.032h3.454a1.841,1.841,0,0,0,1.839-1.839v-7.522A1.841,1.841,0,0,0,298.233,349.229Z" transform="translate(-234.044 -264.481)"/>
      <path id="Trazado_876033" data-name="Trazado 876033" d="M321.127,381.773a1.065,1.065,0,0,0,1.065,1.065h11.261a1.065,1.065,0,0,0,0-2.13H322.192A1.065,1.065,0,0,0,321.127,381.773Z" transform="translate(-275.52 -291.489)"/>
    </g>
  </g>
</svg>
