<svg xmlns="http://www.w3.org/2000/svg" xmlns:xlink="http://www.w3.org/1999/xlink" width="399.949" height="394.998" viewBox="0 0 399.949 394.998">
  <defs>
    <clipPath id="clip-path">
      <rect id="Rectángulo_403129" data-name="Rectángulo 403129" width="399.949" height="394.998" rx="23" transform="translate(180 2526.115)" fill="#98604e"/>
    </clipPath>
    <clipPath id="clip-path-2">
      <rect id="Rectángulo_401592" data-name="Rectángulo 401592" width="97.538" height="85.643" fill="none"/>
    </clipPath>
    <clipPath id="clip-path-3">
      <rect id="Rectángulo_403128" data-name="Rectángulo 403128" width="495.425" height="347.969" fill="none"/>
    </clipPath>
  </defs>
  <g id="Grupo_1106589" data-name="Grupo 1106589" transform="translate(-180 -2526.115)">
    <rect id="Rectángulo_403071" data-name="Rectángulo 403071" width="399.949" height="394.998" rx="23" transform="translate(180 2526.115)" fill="#98604e"/>
    <g id="Enmascarar_grupo_1099816" data-name="Enmascarar grupo 1099816" clip-path="url(#clip-path)">
      <g id="Grupo_1106558" data-name="Grupo 1106558" transform="translate(214.051 2548.745)">
        <g id="Grupo_1099721" data-name="Grupo 1099721" transform="translate(0 0)" clip-path="url(#clip-path-2)">
          <path id="Trazado_873643" data-name="Trazado 873643" d="M9.91,62.867l11.24-48.08a13.589,13.589,0,0,1,22.525-6.82L79.7,41.743A13.588,13.588,0,0,1,74.337,64.66L27.08,78.967A13.589,13.589,0,0,1,9.91,62.867" transform="translate(13.541 6.078)" fill="#7bb5f2"/>
          <path id="Trazado_873644" data-name="Trazado 873644" d="M1.369,59.584,12.607,11.5a13.59,13.59,0,0,1,22.528-6.82L71.152,38.46a13.588,13.588,0,0,1-5.359,22.917L18.536,75.684A13.588,13.588,0,0,1,1.369,59.584Z" transform="translate(1.42 1.419)" fill="none" stroke="#000" stroke-miterlimit="10" stroke-width="2"/>
        </g>
      </g>
      <path id="Trazado_876097" data-name="Trazado 876097" d="M365.237,139.707C363.586,65.936,280.848,4.36,180.446,2.194S-.016,58.074,1.636,131.863c.929,41.522,27.536,79.166,68.537,104.547,22.85,14.139,37.849,37.8,38.679,63.456.024,1.056.084,2.112.144,3.186,3.742,63.67,59.419,116.2,125.485,118.473,69.644,2.4,125.169-50.513,123.672-117.406a117.88,117.88,0,0,0-2.634-22.3c-7.856-36.325-7.14-73.626,4.549-108.158a98.763,98.763,0,0,0,5.206-33.951Z" transform="translate(519.397 2546.693) rotate(65)" fill="#cb7f67"/>
      <path id="Trazado_876098" data-name="Trazado 876098" d="M231.27,183.1,196.341,33.652c-7.4-31.657-46.3-43.433-70.022-21.2L14.367,117.435C-9.35,139.671-.1,179.246,31.023,188.668l146.888,44.471C209.027,242.561,238.669,214.761,231.27,183.1Z" transform="translate(323.612 2548.056)" fill="none" stroke="#000" stroke-miterlimit="10" stroke-width="2"/>
      <g id="Grupo_1106557" data-name="Grupo 1106557" transform="translate(137.975 2573.143)">
        <g id="Grupo_1106556" data-name="Grupo 1106556" clip-path="url(#clip-path-3)">
          <path id="Trazado_876034" data-name="Trazado 876034" d="M104.911,142.4l14.617-1.441,48.028,18.009,21.5-6.239c2.868.931,5.428,1.842,7.739,2.741.041-.24,14.278,4.911,15.076,5.257,10.712,4.64,20.9,10.9,29.2,19.174a60.889,60.889,0,0,1,18.037,36.951c.978,9.608-.669,19.426-.851,29.094q-.306,16.324-.221,32.65.172,32.653,1.914,65.271a8.539,8.539,0,0,1-.507,4.289c-2.124,4.263-22.238,5.253-26.475,5.408-9.583.351-154.3-.015-157.168,0L72.015,241.275s-37.3-23.555-37.271-24.35q.041-1.162.106-2.3c2.169-37.981,32.2-68.491,70.06-72.223" transform="translate(-2.042 -8.286)" fill="#5353b8"/>
          <rect id="Rectángulo_403127" data-name="Rectángulo 403127" width="50.289" height="180.95" transform="translate(138.178 164.467)" fill="#f4f2ed"/>
          <path id="Trazado_876035" data-name="Trazado 876035" d="M225.222,250.3a.471.471,0,0,1-.471-.471V219.553a.471.471,0,0,1,.941,0v30.276a.471.471,0,0,1-.471.471" transform="translate(-13.212 -12.879)" fill="#29297f"/>
          <path id="Trazado_876036" data-name="Trazado 876036" d="M220.224,43.456c-3.159-10.059-13.458-8.771-18.776-7.35A27.805,27.805,0,0,0,198.2,37.17c-4.269-.506-15.631-7.938-21.245-11.764l-.541-.37c-1.656-1.133-2.7-1.874-2.7-1.874l-1.537,28.715s-4.221,12.315-6.961,10.736a13.525,13.525,0,0,0-6.147-1.8l-11.442-.526L141.562,60a13.468,13.468,0,0,0-3.522.309,13.752,13.752,0,0,0-10.759,12.719l-.05,1.094a14.961,14.961,0,0,0,14.217,15.585l2.65.121-15.056,45.9c-3.983,13.88,7.392,25.706,21.5,29.753l.584.168a26.545,26.545,0,0,0,32.883-17.878l5.4-18.809c16.76-1.424,30.036-15.816,30.247-33.529l.574-48.422c0-.134,0-3.421,0-3.555" transform="translate(-7.478 -1.362)" fill="#d96448"/>
          <path id="Trazado_876037" data-name="Trazado 876037" d="M190.989,134.769s-28.643-5.777-30.857-17.043h0s-6.724,19.856,25.4,36.437Z" transform="translate(-9.355 -6.626)" fill="#bb432a"/>
          <path id="Trazado_876038" data-name="Trazado 876038" d="M140.561,107.167,152.319,94h-7.437Z" transform="translate(-8.263 -5.525)" fill="#0b1126"/>
          <path id="Trazado_876039" data-name="Trazado 876039" d="M234.487,18.282a20.749,20.749,0,0,0-.7-4.825,14.651,14.651,0,0,0-3.722-6.643c-5.47-5.4-16.151-5.543-22.413-1.461-2.1,1.366-3.39,3.478-5.084,5.261.278-.172.149-1.825.132-2.139a8.181,8.181,0,0,0-.368-2.053,7.756,7.756,0,0,0-2.073-3.281A12.363,12.363,0,0,0,192.99.093c-6.788-.7-12.639,2.651-17.167,7.433-.323.341-.664.809-.47,1.236-.916-2.02-4.409-2.4-6.327-2.462a16.322,16.322,0,0,0-7.822,1.885,32.512,32.512,0,0,0-9.233,7.4,30.715,30.715,0,0,0-5.833,9.51c-.047.127-.08.258-.125.385-4.821,1.87-9.279,6.99-11.994,12.379a15.853,15.853,0,0,0-1.453,11.008,26.756,26.756,0,0,0,5.763,10.087,13.464,13.464,0,0,1,3.521-.31l6.07.28,7.6.349a32.556,32.556,0,0,0,4.013,10.472l-.583,14.183a5.63,5.63,0,0,1-1.321,3.387h0a30.083,30.083,0,0,0,22.24,44.252l2.041.283a5.606,5.606,0,0,0,1.611.414l14.334,1.481a20.779,20.779,0,0,0,22.915-20.621l-.761-25-1.161,2.086a2.218,2.218,0,0,1-3.672.3,9.583,9.583,0,0,0-6.509-3.566l-14.454-1.5a16.488,16.488,0,0,0-8.5,1.374l-1.785,1.129a8.1,8.1,0,0,1-12.418-7.015c.065-3.351.547-13.13.819-20.851,2.325-9.467,4.143-21.34,2.39-32.9a89.12,89.12,0,0,0,24.589,13.941c5.155,1.9,10.535,3.279,15.917,2.821a19.939,19.939,0,0,0,14.4-7.727c3.73-4.971,5.04-11.8,4.857-17.933" transform="translate(-7.767 0)" fill="#0b1126"/>
          <path id="Trazado_876040" data-name="Trazado 876040" d="M139.859,72.823l4.642,6.089-5.024,2.726" transform="translate(-8.199 -4.281)" fill="#d96448"/>
          <path id="Trazado_876041" data-name="Trazado 876041" d="M139.42,82.52a.941.941,0,0,1-.45-1.769l4.059-2.2-3.978-5.213a.941.941,0,1,1,1.5-1.142l4.643,6.088a.94.94,0,0,1-.3,1.4l-5.024,2.727a.94.94,0,0,1-.447.114" transform="translate(-8.14 -4.222)" fill="#bb432a"/>
          <path id="Trazado_876042" data-name="Trazado 876042" d="M184.945,58.674a9.472,9.472,0,0,0,3.916-.4c1.364-.324,2.741-.616,3.947-.827s2.6-.408,3.995-.568a9.426,9.426,0,0,0,3.81-.961c.959-.62,1.161-1.95-.339-3.278-1.417-1.3-4.718-2.4-8.717-1.711-3.991.712-6.669,2.867-7.512,4.565-.905,1.752-.227,2.925.9,3.179" transform="translate(-10.794 -2.981)" fill="#0b1126"/>
          <path id="Trazado_876043" data-name="Trazado 876043" d="M216.546,56.35a6.534,6.534,0,0,1,3.019.618c1.03.379,2.074.73,2.994,1s1.991.538,3.062.774a6.516,6.516,0,0,1,2.872,1.109c.68.613.686,1.8-.637,2.872a7.968,7.968,0,0,1-7.015.918,7.819,7.819,0,0,1-5.359-4.542c-.51-1.609.154-2.6,1.065-2.747" transform="translate(-12.656 -3.31)" fill="#0b1126"/>
          <path id="Trazado_876044" data-name="Trazado 876044" d="M206.831,104.542c-.021,0-.041,0-.062,0l-8.515-.561c-3.168-.209-5.774-2.949-6.2-6.516a.941.941,0,1,1,1.869-.222c.317,2.667,2.188,4.711,4.452,4.859l8.514.561a.941.941,0,0,1-.06,1.881" transform="translate(-11.289 -5.667)" fill="#bb432a"/>
          <path id="Trazado_876045" data-name="Trazado 876045" d="M201.849,72.132c-.27-3.082-1.708-7.7-7.765-8.927a9.861,9.861,0,0,0-2.816-.158c-4.1.351-7,3.335-8.769,5.92a3.346,3.346,0,0,0,1.95,5.13c.706.171,1.412.317,2.115.447a5.446,5.446,0,0,1-.306-2.049c.15-3.287,3.2-5.818,6.817-5.653s6.427,2.963,6.276,6.25a5.482,5.482,0,0,1-.559,2.161c.4-.021.766-.043,1.093-.067a2.168,2.168,0,0,0,2.015-2.208c-.007-.264-.026-.55-.051-.845" transform="translate(-10.694 -3.704)" fill="#fff"/>
          <path id="Trazado_876046" data-name="Trazado 876046" d="M193.347,67.081c-3.616-.165-6.669,2.366-6.818,5.654a5.442,5.442,0,0,0,.307,2.048,53.874,53.874,0,0,0,12.227.71,5.458,5.458,0,0,0,.559-2.161c.151-3.288-2.659-6.086-6.275-6.251" transform="translate(-10.965 -3.943)" fill="#0b1126"/>
          <path id="Trazado_876047" data-name="Trazado 876047" d="M228.5,74.6c-.215-2.456-1.36-6.137-6.185-7.112a7.835,7.835,0,0,0-2.244-.126c-3.265.28-5.579,2.656-6.987,4.716a2.666,2.666,0,0,0,1.553,4.087c.588.142,1.177.264,1.761.37a4.344,4.344,0,0,1-.257-1.669,5.244,5.244,0,0,1,10.431.475,4.345,4.345,0,0,1-.455,1.741c.295-.016.572-.033.818-.051a1.726,1.726,0,0,0,1.606-1.759c-.006-.209-.021-.438-.041-.673" transform="translate(-12.499 -3.958)" fill="#fff"/>
          <path id="Trazado_876048" data-name="Trazado 876048" d="M221.8,70.553a5,5,0,0,0-5.432,4.5,4.352,4.352,0,0,0,.258,1.67,43.017,43.017,0,0,0,9.718.547,4.346,4.346,0,0,0,.456-1.741,5,5,0,0,0-5-4.979" transform="translate(-12.718 -4.147)" fill="#0b1126"/>
          <path id="Trazado_876049" data-name="Trazado 876049" d="M210.876,58.274l3.589,21.707a1.839,1.839,0,0,1-.3,1.357c-1,1.439-4.013,4.4-11,2.2" transform="translate(-11.943 -3.426)" fill="#d96448"/>
          <path id="Trazado_876050" data-name="Trazado 876050" d="M207.719,85.209a16.3,16.3,0,0,1-4.9-.833.941.941,0,1,1,.566-1.795c6.411,2.023,9.089-.612,9.94-1.839a.9.9,0,0,0,.147-.666l-3.589-21.707a.941.941,0,1,1,1.856-.307l3.59,21.707a2.772,2.772,0,0,1-.457,2.048,8.311,8.311,0,0,1-7.157,3.392" transform="translate(-11.884 -3.367)" fill="#bb432a"/>
          <path id="Trazado_876051" data-name="Trazado 876051" d="M189.1,145.961a2.828,2.828,0,0,0-3.973-.2l-14.816,13.254-36.693-29.261a4.084,4.084,0,0,0-5.311.187l-15.5,14.266a3.513,3.513,0,0,0-.189,4.984l34.314,36.753a2.485,2.485,0,0,0,3.787-.183l19.664-25.646,20.536,23.139a1.628,1.628,0,0,0,2.817-.775l5-25.985Z" transform="translate(-6.564 -7.575)" fill="#fff"/>
          <path id="Trazado_876052" data-name="Trazado 876052" d="M190.711,181.98l-10.927,16.895a4.2,4.2,0,0,1-6.49.686l-16.407-16.43,16.15-21.063Z" transform="translate(-9.222 -9.527)" fill="#0b1126"/>
          <path id="Trazado_876053" data-name="Trazado 876053" d="M152.941,242.416l19.751-8.976a33.077,33.077,0,0,1,19.828-2.471l21.579,4.036c3.1.58,7.633,1.519,9.915,3.867L255.447,256.3a3.436,3.436,0,0,1,1.286,5l-.077.115a6.97,6.97,0,0,1-9.084,2.2L231.519,254.9l.657.636A7.224,7.224,0,0,1,234,262.568l-1.22,4.536.213,1.984A7.466,7.466,0,0,1,230,275.98l-20.527,14.4a2.4,2.4,0,0,1-3.594-1.017A8.533,8.533,0,0,1,208.17,279.1l6.518-5.084-18.776,5.56a18.374,18.374,0,0,1-9.427.286l-10.041-2.347L160.01,289.869Z" transform="translate(-8.99 -13.545)" fill="#d96448"/>
          <path id="Trazado_876054" data-name="Trazado 876054" d="M235.334,256.722a.467.467,0,0,1-.277-.09l-10.771-7.818a.471.471,0,1,1,.553-.761l10.771,7.819a.471.471,0,0,1-.277.851" transform="translate(-13.173 -14.576)" fill="#bb432a"/>
          <path id="Trazado_876055" data-name="Trazado 876055" d="M236.419,269.009a.467.467,0,0,1-.252-.073L222.5,260.273a.47.47,0,0,1,.5-.794l13.669,8.663a.471.471,0,0,1-.252.868" transform="translate(-13.066 -15.249)" fill="#bb432a"/>
          <path id="Trazado_876056" data-name="Trazado 876056" d="M218.515,277.009a.471.471,0,0,1-.269-.857l3.954-2.762a.471.471,0,0,1,.538.773l-3.954,2.762a.465.465,0,0,1-.269.085" transform="translate(-12.817 -16.066)" fill="#bb432a"/>
          <path id="Trazado_876057" data-name="Trazado 876057" d="M38.048,208.531l56.19,4.531.16,21.007,64.7-9.618a3.41,3.41,0,0,1,3.748,2.822L175.6,286.259a5.062,5.062,0,0,1-3.8,6.173c-12.26,2.043-36.315,6.387-61.349,10.42-12.038,1.94-24.3,3.807-35.591,5.313a36.759,36.759,0,0,1-18.82-2.39c-15.891-6.46-27.171-23.7-26.223-43.868.3-6.485.66-12.339,1.069-16.669,1.158-12.243,3.76-24.463,4.918-36.707" transform="translate(-1.75 -12.258)" fill="#5353b8"/>
          <path id="Trazado_876058" data-name="Trazado 876058" d="M97.164,233.214h-.019a.472.472,0,0,1-.452-.489l1.581-40.155a.461.461,0,0,1,.488-.452.472.472,0,0,1,.453.488l-1.581,40.156a.471.471,0,0,1-.471.452" transform="translate(-5.684 -11.293)" fill="#29297f"/>
          <path id="Trazado_876059" data-name="Trazado 876059" d="M83.343,238.606a.471.471,0,0,1-.076-.935l59.706-9.908a.471.471,0,0,1,.154.929L83.421,238.6a.444.444,0,0,1-.078.007" transform="translate(-4.872 -13.388)" fill="#29297f"/>
          <path id="Trazado_876060" data-name="Trazado 876060" d="M69.245,314.934a28.07,28.07,0,0,1-14.6-4.127.471.471,0,1,1,.491-.8,26.962,26.962,0,0,0,17.941,3.709l68.233-10.7a.471.471,0,0,1,.145.93l-68.236,10.7a27.387,27.387,0,0,1-3.968.29" transform="translate(-3.199 -17.812)" fill="#29297f"/>
          <path id="Trazado_876061" data-name="Trazado 876061" d="M444.2,185.573a7.235,7.235,0,0,0,2.57-3.812c.257-.7.477-1.411.68-2.124a27.262,27.262,0,0,0,1.8-28.227,26.948,26.948,0,0,0-12.459-11.462q-1-.46-2.038-.84a26.685,26.685,0,0,0-6.415-1.494c-1.514-.158-2.95-.126-4.284-.4a12.06,12.06,0,0,1-2.174-1.967c-4.291-5.073-2.429-12.511-2.022-19.078a36.015,36.015,0,0,0-2.084-14.278,16.7,16.7,0,1,0-20.558-23.945,40.281,40.281,0,0,0-3.578-2.046c-19.7-9.933-49.747-4.381-61.817,15.2-4.172,6.768-4.892,15.055-5.18,23-.107,2.965-.2,6.048-1.563,8.683-2.234,4.315-6.189,7.043-7.837,11.76a21.979,21.979,0,0,0,.563,15.585c1.084,2.581,2.785,4.556,4.392,6.795.813,1.132,2.582,3.467,2.105,5.126-.152.256-.3.516-.441.774l-.012.015v.006a31.347,31.347,0,0,0-3.992,19.15c1.318,11.117,8.583,20.3,18.864,25.628,12.578,6.52,24.909,13.457,35.768,21.877,9.086,7.042,21.974,10.47,35.545,8.2,19.568-3.277,34.515-18.124,35.337-34.936a28.435,28.435,0,0,0-.706-8.044c-.558-2.3-1.925-4.5-1.76-6.944a6.757,6.757,0,0,1,.379-1.751,4.673,4.673,0,0,0,.922-.45" transform="translate(-18.58 -4.095)" fill="#0b1126"/>
          <path id="Trazado_876062" data-name="Trazado 876062" d="M283.415,276.624C280.731,209.1,342.6,201.129,342.6,201.129l0,.278,17.017.059,22.64,10.587,21.893-14.039,19.8,4.2s44.356,10.678,42.786,65.389a2.3,2.3,0,0,1-1.923,2.2L446.5,288.188l-6.768,50.588c3.094,6.251,8.354,18.352,8.354,18.352H286Z" transform="translate(-16.655 -11.64)" fill="#ffd563"/>
          <path id="Trazado_876063" data-name="Trazado 876063" d="M407.682,198.015l-2.026,159.114h-60.6l-1.728-155.495" transform="translate(-20.182 -11.64)" fill="#f4f2ed"/>
          <path id="Trazado_876064" data-name="Trazado 876064" d="M375.086,228.723l.567-.013c13.65-.323,26.7-8.1,26.417-21.21l-.411-6.851a6.131,6.131,0,0,0-4.768-5.614l-21.012-4.753L353.3,197.929a5.3,5.3,0,0,0-3.6,5.131l.052,2.419c.281,13.106,11.68,23.566,25.331,23.244" transform="translate(-20.557 -11.185)" fill="#ffd563"/>
          <path id="Trazado_876065" data-name="Trazado 876065" d="M376.182,271.857a.471.471,0,0,1-.471-.471V233.138a.471.471,0,0,1,.941,0v38.249a.471.471,0,0,1-.471.471" transform="translate(-22.086 -13.677)" fill="#ffd563"/>
          <path id="Trazado_876066" data-name="Trazado 876066" d="M365.349,239.289a2.821,2.821,0,1,1,2.855-2.821,2.841,2.841,0,0,1-2.855,2.821m0-4.7a1.88,1.88,0,1,0,1.913,1.881,1.9,1.9,0,0,0-1.913-1.881" transform="translate(-21.309 -13.735)" fill="#ffd563"/>
          <path id="Trazado_876067" data-name="Trazado 876067" d="M365.044,255.262a2.822,2.822,0,1,1,2.855-2.822,2.841,2.841,0,0,1-2.855,2.822m0-4.7a1.881,1.881,0,1,0,1.914,1.881,1.9,1.9,0,0,0-1.914-1.881" transform="translate(-21.291 -14.674)" fill="#ffd563"/>
          <path id="Trazado_876068" data-name="Trazado 876068" d="M370.239,290.019,353.92,281.4a28.142,28.142,0,0,0-16.713-3.1l-18.53,2.338c-2.659.335-6.559.9-8.615,2.782L282.488,296.63a2.924,2.924,0,0,0-1.345,4.183c.021.033.04.067.06.1a5.93,5.93,0,0,0,7.6,2.329l14.072-6.593-.59.506a6.149,6.149,0,0,0-1.9,5.883l.807,3.914-.281,1.674a6.351,6.351,0,0,0,2.194,6l16.7,13.265a2.042,2.042,0,0,0,3.1-.682,7.26,7.26,0,0,0-1.429-8.83l-5.277-4.647,15.664,5.67a15.63,15.63,0,0,0,7.991.719l8.646-1.486,13.331,11.322Z" transform="translate(-16.502 -16.347)" fill="#ff9278"/>
          <path id="Trazado_876069" data-name="Trazado 876069" d="M304.548,298.179a.471.471,0,0,1-.254-.867l9.543-6.1a.47.47,0,1,1,.507.792l-9.542,6.1a.466.466,0,0,1-.254.074" transform="translate(-17.875 -17.114)" fill="#ff6a48"/>
          <path id="Trazado_876070" data-name="Trazado 876070" d="M302.85,308.559a.47.47,0,0,1-.228-.882l12.046-6.667a.471.471,0,0,1,.456.824L303.077,308.5a.485.485,0,0,1-.228.058" transform="translate(-17.775 -17.691)" fill="#ff6a48"/>
          <path id="Trazado_876071" data-name="Trazado 876071" d="M318.193,316.244a.474.474,0,0,1-.293-.1l-3.218-2.546a.471.471,0,1,1,.585-.739l3.219,2.545a.471.471,0,0,1-.293.84" transform="translate(-18.488 -18.385)" fill="#ff6a48"/>
          <path id="Trazado_876072" data-name="Trazado 876072" d="M467.159,267.094,419.213,268.1l-1.2,17.831L363.554,274.5a2.9,2.9,0,0,0-3.324,2.207l-13.812,49.449a4.307,4.307,0,0,0,2.916,5.434c10.308,2.355,30.516,7.259,51.572,11.949,10.126,2.255,20.447,4.46,29.956,6.309a31.266,31.266,0,0,0,16.1-1.078c13.821-4.683,24.271-18.755,24.486-35.929.068-5.523.062-10.512-.067-14.21-.365-10.456-.564-21.637-.929-32.094" transform="translate(-20.354 -15.668)" fill="#ffd563"/>
          <path id="Trazado_876073" data-name="Trazado 876073" d="M423.541,285.191h-.009a.471.471,0,0,1-.461-.48l.687-34.18a.476.476,0,0,1,.479-.461.471.471,0,0,1,.462.479l-.687,34.181a.471.471,0,0,1-.471.461" transform="translate(-24.87 -14.7)" fill="#d3a739"/>
          <path id="Trazado_876074" data-name="Trazado 876074" d="M433.247,290.576a.505.505,0,0,1-.1-.011l-29.686-6.758a.472.472,0,0,1-.354-.565.465.465,0,0,1,.563-.354l29.686,6.759a.47.47,0,0,1-.1.929" transform="translate(-23.695 -16.629)" fill="#d3a739"/>
          <path id="Trazado_876075" data-name="Trazado 876075" d="M441.7,356.155a23.344,23.344,0,0,1-4.757-.488l-30.654-6.382a.47.47,0,1,1,.191-.921l30.654,6.381a22.89,22.89,0,0,0,15.377-2.238.471.471,0,0,1,.441.831,24.005,24.005,0,0,1-11.252,2.816" transform="translate(-23.861 -20.478)" fill="#d3a739"/>
          <path id="Trazado_876076" data-name="Trazado 876076" d="M400.107,129.744l-10.521.886c-4.358-.648-8.738-6.744-11.291-14.982a23.972,23.972,0,0,1-11.7-6.553c-6.439,6.318-14.682,11.555-22.879,8.842a30.772,30.772,0,0,1-10.067-5.378c-.046-.038-.082-.087-.127-.126,0,.045-.01.088-.013.134l-2.984,41.787c-1.049,14.7,8.5,27.66,21.946,30.857l.23,10.655a21.365,21.365,0,0,0,21.612,21.048l.483-.012c11.632-.275,22.741-7.3,22.486-19.147l-2.4-41.528,5.079.026a12.928,12.928,0,0,0,12.73-13.038l0-.3a12.923,12.923,0,0,0-12.587-13.171" transform="translate(-19.425 -6.413)" fill="#ff9278"/>
          <path id="Trazado_876077" data-name="Trazado 876077" d="M405.565,149.293a.934.934,0,0,1-.5-.146l-4.208-2.661a.94.94,0,0,1-.225-1.391l4.271-5.219a.941.941,0,1,1,1.456,1.192l-3.6,4.4,3.308,2.092a.941.941,0,0,1-.5,1.737" transform="translate(-23.538 -8.202)" fill="#ff6a48"/>
          <path id="Trazado_876078" data-name="Trazado 876078" d="M406.315,165.013a5.09,5.09,0,0,1-3.271-1.2,5.438,5.438,0,0,1,2.809-9.556,5.071,5.071,0,0,1,3.756,1.174,5.437,5.437,0,0,1-2.81,9.554c-.162.016-.323.024-.484.024m.02-9.833c-.131,0-.262.006-.393.019a4.41,4.41,0,0,0-3.879,4.833,4.458,4.458,0,0,0,1.584,3.063,4.154,4.154,0,0,0,3.064.958,4.5,4.5,0,0,0,2.3-7.895,4.155,4.155,0,0,0-2.672-.978" transform="translate(-23.578 -9.067)" fill="#fff"/>
          <path id="Trazado_876079" data-name="Trazado 876079" d="M349.136,140.306c-1.253-2.193-3.392-4.779-6.663-5.327a7.966,7.966,0,0,0-2.273-.056c-.066.008-.123.023-.187.031a4.7,4.7,0,0,1,2.185,4.059,5.06,5.06,0,0,1-5.449,4.615,5.57,5.57,0,0,1-3.465-1.342,1.747,1.747,0,0,0,1.478,1.887,42.388,42.388,0,0,0,12.474.128,2.7,2.7,0,0,0,1.9-4" transform="translate(-19.591 -7.928)" fill="#fff"/>
          <path id="Trazado_876080" data-name="Trazado 876080" d="M342.2,139.019a4.7,4.7,0,0,0-2.185-4.059c-4.791.66-6.22,4.211-6.632,6.637-.039.237-.073.466-.1.676v.018a5.557,5.557,0,0,0,3.465,1.342,5.06,5.06,0,0,0,5.449-4.615" transform="translate(-19.592 -7.933)" fill="#0b1126"/>
          <path id="Trazado_876081" data-name="Trazado 876081" d="M349.809,174.087a.5.5,0,0,0,.343-.011,4.232,4.232,0,0,1,4.766,1.167.5.5,0,0,0,.72.059.543.543,0,0,0,.058-.745,5.318,5.318,0,0,0-5.921-1.464.536.536,0,0,0-.285.685.52.52,0,0,0,.319.309" transform="translate(-20.542 -10.154)" fill="#ff6a48"/>
          <path id="Trazado_876082" data-name="Trazado 876082" d="M378.144,126.871a7.2,7.2,0,0,1-3.078-.249c-1.075-.238-2.16-.449-3.109-.6s-2.049-.283-3.144-.387a7.193,7.193,0,0,1-3-.709c-.763-.486-.945-1.561.207-2.667,1.088-1.082,3.658-2.041,6.805-1.553,3.142.5,5.279,2.2,5.971,3.565.741,1.4.23,2.37-.649,2.6" transform="translate(-21.468 -7.088)" fill="#0b1126"/>
          <path id="Trazado_876083" data-name="Trazado 876083" d="M334.69,125.566a7.188,7.188,0,0,0,3.087-.013c1.089-.154,2.186-.281,3.144-.358s2.064-.125,3.162-.145a7.167,7.167,0,0,0,3.048-.475c.8-.426,1.055-1.485-.013-2.677-1.006-1.162-3.5-2.314-6.673-2.07-3.17.261-5.425,1.792-6.213,3.1-.841,1.344-.4,2.346.458,2.64" transform="translate(-19.621 -7.042)" fill="#0b1126"/>
          <path id="Trazado_876084" data-name="Trazado 876084" d="M367.5,157.055a2.365,2.365,0,0,0-2.986.086,16.3,16.3,0,0,1-9.661,3.74,1.785,1.785,0,0,0-1.409,2.476c.919,2.433,3.556,6.271,9.744,3.786,7.54-3.029,6.6-8.263,4.311-10.088" transform="translate(-20.77 -9.204)" fill="#fff"/>
          <path id="Trazado_876085" data-name="Trazado 876085" d="M355.9,151.4c-2.177.108-3.914.533-5.886-.843-1.833-1.281-3.292-3.874-2.65-6.2a2.733,2.733,0,0,1,2.171-1.947l2.072-.354,1.022-9.743" transform="translate(-20.41 -7.778)" fill="#ff9278"/>
          <path id="Trazado_876086" data-name="Trazado 876086" d="M353.259,152.428a6.3,6.3,0,0,1-3.845-1.161c-2.09-1.459-3.8-4.408-3.018-7.218a3.675,3.675,0,0,1,2.92-2.624l1.369-.233.947-9.033a.941.941,0,1,1,1.872.2l-1.022,9.742a.941.941,0,0,1-.777.83l-2.073.354a1.786,1.786,0,0,0-1.421,1.27c-.52,1.878.751,4.1,2.282,5.173,1.379.963,2.584.871,4.252.745.34-.025.688-.052,1.047-.07a.92.92,0,0,1,.987.893.94.94,0,0,1-.893.986c-.344.018-.676.042-1,.068-.548.041-1.088.082-1.626.082" transform="translate(-20.351 -7.719)" fill="#ff6a48"/>
          <path id="Trazado_876087" data-name="Trazado 876087" d="M379.2,139.669c-1.53-2.68-4.145-5.839-8.141-6.509a9.735,9.735,0,0,0-2.779-.068c-.328.04-.638.094-.942.154a5.956,5.956,0,0,1,4.263,5.734c-.114,3.239-3.095,5.764-6.658,5.639a6.665,6.665,0,0,1-5.108-2.577l0,.025a2.134,2.134,0,0,0,1.8,2.328,51.791,51.791,0,0,0,15.243.156,3.3,3.3,0,0,0,2.322-4.882" transform="translate(-21.151 -7.82)" fill="#fff"/>
          <path id="Trazado_876088" data-name="Trazado 876088" d="M364.941,144.632c3.563.125,6.544-2.4,6.658-5.639a5.957,5.957,0,0,0-4.263-5.734c-5.285,1.049-6.908,5.154-7.389,8-.048.28-.087.549-.115.8a6.665,6.665,0,0,0,5.108,2.577" transform="translate(-21.152 -7.833)" fill="#0b1126"/>
          <path id="Trazado_876089" data-name="Trazado 876089" d="M353.878,189.195s24.844.615,28.8-8.628h0s1.432,13.928-28.336,21.913Z" transform="translate(-20.802 -10.373)" fill="#ff6a48"/>
          <path id="Trazado_876090" data-name="Trazado 876090" d="M347.732,357.54a5.05,5.05,0,0,0-5.05-5.05H266.1l-37.675-93.259a8.966,8.966,0,0,0-8.313-5.607H95.3a5.845,5.845,0,0,0-5.458,7.934l38.248,99.909,139.161-.609c.034,0,.063-.011.1-.013h80.385Z" transform="translate(-5.258 -14.909)" fill="#0b1126"/>
          <path id="Trazado_876091" data-name="Trazado 876091" d="M295.272,364.512H286.3a.126.126,0,0,1-.127-.127v-2.054a.127.127,0,0,1,.127-.126h8.974a.127.127,0,0,1,.127.126v2.055a.127.127,0,0,1-.127.126" transform="translate(-16.822 -21.292)" fill="#fff"/>
          <path id="Trazado_876092" data-name="Trazado 876092" d="M312.171,364.512H303.2a.126.126,0,0,1-.127-.126v-2.055a.126.126,0,0,1,.127-.126h8.975a.127.127,0,0,1,.127.126v2.054a.127.127,0,0,1-.127.127" transform="translate(-17.816 -21.292)" fill="#fff"/>
          <path id="Trazado_876093" data-name="Trazado 876093" d="M177.748,318.757c-4.042,4.042-11.579,3.058-16.834-2.2s-6.24-12.792-2.2-16.835,11.578-3.057,16.834,2.2,6.239,12.793,2.2,16.835" transform="translate(-9.184 -17.473)" fill="#fff"/>
          <path id="Trazado_876094" data-name="Trazado 876094" d="M171.3,321.677a15.607,15.607,0,0,1-10.747-4.814,16.1,16.1,0,0,1-4.718-9.145,9.231,9.231,0,0,1,10.876-10.877,16.1,16.1,0,0,1,9.145,4.719c5.431,5.431,6.415,13.281,2.2,17.5a9.362,9.362,0,0,1-6.753,2.617m-6.187-24a8.438,8.438,0,0,0-6.092,2.35c-3.851,3.852-2.866,11.105,2.2,16.169s12.317,6.05,16.169,2.2,2.866-11.105-2.2-16.169a14.682,14.682,0,0,0-10.077-4.548" transform="translate(-9.154 -17.443)" fill="#121936"/>
          <path id="Trazado_876095" data-name="Trazado 876095" d="M172.378,324.973a20.1,20.1,0,0,1-13.83-6.211c-6.977-6.976-8.271-17.034-2.885-22.423s15.447-4.091,22.424,2.885,8.27,17.036,2.884,22.423a11.906,11.906,0,0,1-8.592,3.326m-8.12-31.493A11.441,11.441,0,0,0,156,296.673c-5.2,5.2-3.91,14.964,2.884,21.757s16.554,8.088,21.757,2.884,3.91-14.963-2.883-21.757a19.643,19.643,0,0,0-13.5-6.076" transform="translate(-8.955 -17.225)" fill="#fff"/>
          <path id="Trazado_876096" data-name="Trazado 876096" d="M494.013,369.526H1.412a1.412,1.412,0,0,1,0-2.824h492.6a1.412,1.412,0,0,1,0,2.824" transform="translate(0 -21.556)" fill="#121936"/>
        </g>
      </g>
    </g>
  </g>
</svg>
