<svg xmlns="http://www.w3.org/2000/svg" width="90" height="90" viewBox="0 0 90 90">
  <g id="Grupo_1106577" data-name="Grupo 1106577" transform="translate(-755.051 -2564)">
    <rect id="Rectángulo_403067" data-name="Rectángulo 403067" width="90" height="90" rx="45" transform="translate(755.051 2564)" fill="#7bb5f2" opacity="0.859"/>
    <g id="motivacion" transform="translate(750.484 2573)">
      <g id="Grupo_1106575" data-name="Grupo 1106575" transform="translate(17.608 1.041)">
        <path id="Trazado_876102" data-name="Trazado 876102" d="M183.319,41.7l2.224,4.507a1.912,1.912,0,0,0,1.439,1.046l4.973.723a1.912,1.912,0,0,1,1.06,3.261l-3.6,3.508a1.912,1.912,0,0,0-.55,1.692l.85,4.953a1.912,1.912,0,0,1-2.774,2.016l-4.448-2.339a1.912,1.912,0,0,0-1.779,0L176.267,63.4a1.912,1.912,0,0,1-2.774-2.016l.85-4.953a1.912,1.912,0,0,0-.55-1.692l-3.6-3.508a1.912,1.912,0,0,1,1.06-3.261l4.973-.723a1.912,1.912,0,0,0,1.439-1.046L179.89,41.7A1.912,1.912,0,0,1,183.319,41.7Z" transform="translate(-149.412 -36.035)" fill="#ffe177"/>
        <g id="Grupo_1106568" data-name="Grupo 1106568" transform="translate(0)">
          <g id="Grupo_1106561" data-name="Grupo 1106561" transform="translate(4.599 0)">
            <path id="Trazado_876103" data-name="Trazado 876103" d="M61.8,14.4a2.292,2.292,0,0,1-1.626-.674l-2.3-2.3a2.3,2.3,0,1,1,3.252-3.252l2.3,2.3A2.3,2.3,0,0,1,61.8,14.4Z" transform="translate(-57.2 -7.5)" fill="#01d0fb"/>
          </g>
          <g id="Grupo_1106562" data-name="Grupo 1106562" transform="translate(52.888)">
            <path id="Trazado_876104" data-name="Trazado 876104" d="M407.4,14.4a2.292,2.292,0,0,0,1.626-.674l2.3-2.3a2.3,2.3,0,1,0-3.252-3.252l-2.3,2.3A2.3,2.3,0,0,0,407.4,14.4Z" transform="translate(-405.1 -7.499)" fill="#01d0fb"/>
          </g>
          <g id="Grupo_1106563" data-name="Grupo 1106563" transform="translate(52.888 39.091)">
            <path id="Trazado_876105" data-name="Trazado 876105" d="M407.4,289.133a2.292,2.292,0,0,1,1.626.673l2.3,2.3a2.3,2.3,0,1,1-3.252,3.252l-2.3-2.3a2.3,2.3,0,0,1,1.626-3.925Z" transform="translate(-405.1 -289.133)" fill="#01d0fb"/>
          </g>
          <g id="Grupo_1106565" data-name="Grupo 1106565" transform="translate(4.599 39.091)">
            <g id="Grupo_1106564" data-name="Grupo 1106564">
              <path id="Trazado_876106" data-name="Trazado 876106" d="M61.8,289.133a2.292,2.292,0,0,0-1.626.673l-2.3,2.3a2.3,2.3,0,1,0,3.252,3.252l2.3-2.3a2.3,2.3,0,0,0-1.626-3.925Z" transform="translate(-57.2 -289.133)" fill="#01d0fb"/>
            </g>
          </g>
          <g id="Grupo_1106566" data-name="Grupo 1106566" transform="translate(0 20.695)">
            <path id="Trazado_876107" data-name="Trazado 876107" d="M28.665,161.2h-2.3a2.3,2.3,0,1,1,0-4.6h2.3a2.3,2.3,0,1,1,0,4.6Z" transform="translate(-24.066 -156.6)" fill="#01d0fb"/>
          </g>
          <g id="Grupo_1106567" data-name="Grupo 1106567" transform="translate(57.486 20.695)">
            <path id="Trazado_876108" data-name="Trazado 876108" d="M442.832,161.2h-2.3a2.3,2.3,0,1,1,0-4.6h2.3a2.3,2.3,0,1,1,0,4.6Z" transform="translate(-438.233 -156.6)" fill="#01d0fb"/>
          </g>
        </g>
        <path id="Trazado_876109" data-name="Trazado 876109" d="M247.578,45.719a1.912,1.912,0,0,0,1.439,1.046l2.99.434a1.911,1.911,0,0,1-1.19-.991L248.593,41.7a1.914,1.914,0,0,0-3.185-.379Z" transform="translate(-214.686 -36.037)" fill="#facb5f"/>
        <path id="Trazado_876110" data-name="Trazado 876110" d="M292.2,94.1a1.912,1.912,0,0,0-1.06-3.261l-2.979-.433a1.912,1.912,0,0,1,.8,3.205l-3.6,3.508a1.912,1.912,0,0,0-.55,1.692l.85,4.953a1.889,1.889,0,0,1-.753,1.864l1.218.64a1.912,1.912,0,0,0,2.774-2.015l-.85-4.953a1.912,1.912,0,0,1,.55-1.692Z" transform="translate(-248.6 -78.895)" fill="#facb5f"/>
        <g id="Grupo_1106574" data-name="Grupo 1106574" transform="translate(18.971 32.192)">
          <path id="Trazado_876111" data-name="Trazado 876111" d="M210.207,297.417s-8.048,11.374-8.048,12.072V325.01a1.15,1.15,0,0,0,1.15,1.15h12.647a1.15,1.15,0,0,0,1.15-1.15v-6.943a2.3,2.3,0,0,1,.863-1.8,13.018,13.018,0,0,0,4.886-10.165v-7.54Z" transform="translate(-196.41 -289.369)" fill="#eaa998"/>
          <path id="Trazado_876112" data-name="Trazado 876112" d="M245.425,297.417v1.725a6.065,6.065,0,0,0,8.941,5.342,6.058,6.058,0,0,0,5.749,0v-5.916l-12.647-1.15Z" transform="translate(-233.671 -289.369)" fill="#e49280"/>
          <path id="Trazado_876113" data-name="Trazado 876113" d="M285.457,303.609v7.83a13.018,13.018,0,0,1-4.886,10.165,2.3,2.3,0,0,0-.863,1.8v6.943a1.15,1.15,0,0,1-1.15,1.15h3.192a1.15,1.15,0,0,0,1.15-1.15V323.4a2.3,2.3,0,0,1,.863-1.8,13.018,13.018,0,0,0,4.886-10.165V303.9Z" transform="translate(-262.206 -294.701)" fill="#e49280"/>
          <path id="Trazado_876114" data-name="Trazado 876114" d="M205.827,242.884a2.872,2.872,0,0,0-2.573,1.383.226.226,0,0,1-.192.111.223.223,0,0,1-.223-.223v-1.777a2.921,2.921,0,0,0-2.8-2.945A2.873,2.873,0,0,0,197.4,241a.35.35,0,0,1-.623,0,2.872,2.872,0,0,0-5.415.967.21.21,0,0,1-.209.184.214.214,0,0,1-.185-.111,2.87,2.87,0,0,0-2.511-1.465,2.921,2.921,0,0,0-2.866,2.946v4.646h5.749l5.749.456v.5a2.95,2.95,0,0,0,2.844,2.944,2.873,2.873,0,0,0,2.576-1.541.371.371,0,0,1,.656,0,2.873,2.873,0,0,0,2.576,1.541,2.95,2.95,0,0,0,2.844-2.944v-3.311a2.92,2.92,0,0,0-2.76-2.941Z" transform="translate(-182.144 -239.433)" fill="#eaa998"/>
          <g id="Grupo_1106569" data-name="Grupo 1106569" transform="translate(8.157 0.59)">
            <path id="Trazado_876115" data-name="Trazado 876115" d="M219.508,245.379v6.928h1.041l1.041.083V244.23a2.869,2.869,0,0,0-1.018,1.876.21.21,0,0,1-.209.184.214.214,0,0,1-.185-.111A2.893,2.893,0,0,0,219.508,245.379Z" transform="translate(-219.508 -244.154)" fill="#e49280"/>
            <path id="Trazado_876116" data-name="Trazado 876116" d="M263.007,255.486V244.2a2.887,2.887,0,0,0-.729.91.35.35,0,0,1-.623,0,2.888,2.888,0,0,0-.731-.913v8.454l1.041.082v.5A2.992,2.992,0,0,0,263.007,255.486Z" transform="translate(-255.176 -244.125)" fill="#e49280"/>
            <path id="Trazado_876117" data-name="Trazado 876117" d="M303.59,254.978v-7.671a2.886,2.886,0,0,0-.51.622.226.226,0,0,1-.192.111.223.223,0,0,1-.223-.223V246.04a2.979,2.979,0,0,0-1.157-2.356v11.485a2.884,2.884,0,0,0,.829-.97.371.371,0,0,1,.656,0A2.89,2.89,0,0,0,303.59,254.978Z" transform="translate(-290.126 -243.684)" fill="#e49280"/>
          </g>
          <g id="Grupo_1106571" data-name="Grupo 1106571" transform="translate(8.53 12.549)">
            <g id="Grupo_1106570" data-name="Grupo 1106570">
              <path id="Trazado_876118" data-name="Trazado 876118" d="M228.616,340.179a1.041,1.041,0,0,1-1.041-1.041,7.991,7.991,0,0,0-4.755-7.3,1.041,1.041,0,1,1,.843-1.9,10.075,10.075,0,0,1,5.995,9.207A1.041,1.041,0,0,1,228.616,340.179Z" transform="translate(-222.2 -329.842)" fill="#e49280"/>
            </g>
          </g>
          <path id="Trazado_876119" data-name="Trazado 876119" d="M171.136,303.816a5.3,5.3,0,0,0,4.553-5.249,1.15,1.15,0,0,0-1.15-1.15h-8.384a4.6,4.6,0,0,0-4.27,2.891l-.288.72a11.955,11.955,0,0,0,3.632,13.775l.4.319a2.3,2.3,0,0,1,.863,1.8l6.8-.02Z" transform="translate(-160.742 -289.369)" fill="#eaa998"/>
          <g id="Grupo_1106573" data-name="Grupo 1106573" transform="translate(3.449 5.966)">
            <g id="Grupo_1106572" data-name="Grupo 1106572">
              <path id="Trazado_876120" data-name="Trazado 876120" d="M187.556,282.416a6.729,6.729,0,0,0-1.964.291v2.232a4.591,4.591,0,0,1,1.964-.442h8.384a1.143,1.143,0,0,1,1.15,1.126,5.3,5.3,0,0,1-4.553,5.273l-2.483.355a1.041,1.041,0,0,0,.294,2.061l2.484-.355a7.385,7.385,0,0,0,6.34-7.38,3.218,3.218,0,0,0-3.231-3.163h-8.384Z" transform="translate(-185.592 -282.416)" fill="#e49280"/>
            </g>
          </g>
        </g>
      </g>
      <g id="Grupo_1106576" data-name="Grupo 1106576" transform="translate(16.567)">
        <path id="Trazado_876121" data-name="Trazado 876121" d="M177.851,235.382a3.891,3.891,0,0,0-1.834.457,3.913,3.913,0,0,0-6.789-2.646,3.91,3.91,0,0,0-6.257.687A3.913,3.913,0,0,0,156.69,237v3.426a5.649,5.649,0,0,0-3.449,5.2v4.091a13.99,13.99,0,0,0,5.276,10.978,1.252,1.252,0,0,1,.472.982v6.943a2.193,2.193,0,0,0,2.191,2.191h1.891a1.041,1.041,0,0,0,0-2.082H161.18a.109.109,0,0,1-.109-.109v-6.943a3.324,3.324,0,0,0-1.254-2.608,11.918,11.918,0,0,1-4.5-9.352v-4.091a3.562,3.562,0,0,1,3.558-3.558h9.2a.109.109,0,0,1,.109.109V243.9a1.835,1.835,0,0,1-1.833,1.833h-6.324a1.041,1.041,0,1,0,0,2.082h1.258v1.856a1.62,1.62,0,0,0,1.489,1.61,5.879,5.879,0,0,1,5.409,5.841,1.041,1.041,0,1,0,2.082,0,7.973,7.973,0,0,0-6.9-7.871v-1.435h2.983a3.917,3.917,0,0,0,3.383-1.948,3.906,3.906,0,0,0,5.24-.462,3.907,3.907,0,0,0,4.708.8v3.507a11.918,11.918,0,0,1-4.495,9.352,3.324,3.324,0,0,0-1.254,2.608v6.943a.109.109,0,0,1-.109.109h-5.9a1.041,1.041,0,0,0,0,2.082h5.9a2.193,2.193,0,0,0,2.191-2.191v-6.943a1.252,1.252,0,0,1,.472-.983,13.99,13.99,0,0,0,5.276-10.978V239.3A3.92,3.92,0,0,0,177.851,235.382Zm-19.079,4.6V237a1.833,1.833,0,0,1,3.667,0v2.983h-3.558l-.109,0Zm9.307,0h-3.558v-4.133a1.833,1.833,0,0,1,3.667,0v4.138C168.151,239.985,168.115,239.981,168.079,239.981Zm4.024,4.6a1.835,1.835,0,0,1-1.833-1.833v-6.9a1.833,1.833,0,0,1,3.667,0v6.9a1.835,1.835,0,0,1-1.833,1.833Zm5.749,0a1.835,1.835,0,0,1-1.833-1.833V239.3a1.833,1.833,0,0,1,3.667,0v3.449A1.835,1.835,0,0,1,177.851,244.58Z" transform="translate(-134.271 -199.741)"/>
        <path id="Trazado_876122" data-name="Trazado 876122" d="M166.605,49.028a.87.87,0,0,1,.25.771l-.849,4.953a2.949,2.949,0,0,0,4.284,3.113l4.448-2.339a.87.87,0,0,1,.811,0L180,57.864a2.953,2.953,0,0,0,4.284-3.113l-.85-4.953a.87.87,0,0,1,.251-.771l3.6-3.508a2.953,2.953,0,0,0-1.637-5.037l-4.973-.723a.87.87,0,0,1-.656-.477l-2.224-4.507a2.953,2.953,0,0,0-5.3,0l-2.224,4.507a.871.871,0,0,1-.656.476l-4.973.723a2.953,2.953,0,0,0-1.637,5.037Zm-2.366-5.892a.849.849,0,0,1,.7-.593l4.973-.723a2.952,2.952,0,0,0,2.224-1.615l2.224-4.507a.871.871,0,0,1,1.562,0l2.224,4.506a2.952,2.952,0,0,0,2.223,1.615l4.973.723a.871.871,0,0,1,.483,1.485l-3.6,3.508a2.952,2.952,0,0,0-.849,2.614l.849,4.953a.871.871,0,0,1-1.264.918l-4.449-2.339a2.953,2.953,0,0,0-2.748,0l-4.448,2.339a.871.871,0,0,1-1.264-.918l.849-4.953a2.953,2.953,0,0,0-.849-2.614l-3.6-3.508a.849.849,0,0,1-.22-.893Z" transform="translate(-141.911 -28.532)"/>
        <path id="Trazado_876123" data-name="Trazado 876123" d="M55.4.979A3.34,3.34,0,1,0,50.678,5.7l2.3,2.3A3.34,3.34,0,1,0,57.7,3.278Zm.827,5.551a1.258,1.258,0,0,1-1.78,0l-2.3-2.3a1.258,1.258,0,1,1,1.78-1.78l2.3,2.3A1.26,1.26,0,0,1,56.229,6.53Z" transform="translate(-45.1)"/>
        <path id="Trazado_876124" data-name="Trazado 876124" d="M400.94,8.99a3.319,3.319,0,0,0,2.362-.978l2.3-2.3A3.341,3.341,0,1,0,400.877.989l-2.3,2.3a3.34,3.34,0,0,0,2.362,5.7Zm-.89-4.23,2.3-2.3a1.258,1.258,0,1,1,1.78,1.78l-2.3,2.3a1.258,1.258,0,1,1-1.78-1.78Z" transform="translate(-344.712 -0.01)"/>
        <path id="Trazado_876125" data-name="Trazado 876125" d="M403.3,282.611a3.341,3.341,0,1,0-4.724,4.724l2.3,2.3a3.34,3.34,0,1,0,4.724-4.724Zm.827,5.551a1.258,1.258,0,0,1-1.78,0l-2.3-2.3a1.258,1.258,0,0,1,1.78-1.78l2.3,2.3a1.258,1.258,0,0,1,0,1.78Z" transform="translate(-344.712 -242.542)"/>
        <path id="Trazado_876126" data-name="Trazado 876126" d="M55.339,281.633a3.319,3.319,0,0,0-2.362.979l-2.3,2.3a3.34,3.34,0,1,0,4.724,4.724l2.3-2.3a3.341,3.341,0,0,0-2.362-5.7Zm.89,4.23-2.3,2.3a1.258,1.258,0,1,1-1.779-1.78l2.3-2.3a1.258,1.258,0,0,1,1.78,1.78Z" transform="translate(-45.1 -242.542)"/>
        <path id="Trazado_876127" data-name="Trazado 876127" d="M25.547,152.441a3.344,3.344,0,0,0-3.34-3.34h-2.3a3.34,3.34,0,0,0,0,6.681h2.3A3.344,3.344,0,0,0,25.547,152.441Zm-6.9,0a1.26,1.26,0,0,1,1.258-1.258h2.3a1.258,1.258,0,0,1,0,2.517h-2.3A1.26,1.26,0,0,1,18.649,152.441Z" transform="translate(-16.567 -128.405)"/>
        <path id="Trazado_876128" data-name="Trazado 876128" d="M436.374,149.1h-2.3a3.34,3.34,0,1,0,0,6.681h2.3a3.34,3.34,0,0,0,0-6.681Zm0,4.6h-2.3a1.258,1.258,0,1,1,0-2.517h2.3a1.258,1.258,0,0,1,0,2.517Z" transform="translate(-373.248 -128.405)"/>
      </g>
    </g>
  </g>
</svg>
