<svg xmlns="http://www.w3.org/2000/svg" xmlns:xlink="http://www.w3.org/1999/xlink" width="605.69" height="313.053" viewBox="0 0 605.69 313.053">
  <defs>
    <clipPath id="clip-path">
      <rect id="Rectángulo_401425" data-name="Rectángulo 401425" width="244.887" height="254.944" fill="none"/>
    </clipPath>
  </defs>
  <g id="Grupo_1106820" data-name="Grupo 1106820" transform="translate(-814.31 -392)">
    <rect id="BG" width="605.69" height="313.053" transform="translate(814.31 392)" fill="#effaf4"/>
    <g id="Grupo_1099743" data-name="Grupo 1099743" transform="translate(1072.051 415)" style="isolation: isolate">
      <g id="Grupo_1099742" data-name="Grupo 1099742" clip-path="url(#clip-path)">
        <path id="Trazado_873868" data-name="Trazado 873868" d="M270.475,165.917a49.669,49.669,0,1,0,49.669-49.669,49.669,49.669,0,0,0-49.669,49.669" transform="translate(-270.475 -53.692)" fill="#2c423e"/>
        <path id="Trazado_873869" data-name="Trazado 873869" d="M137.9,446.693c-2.619,2.276-4.451,4.773-2.693,8.32h14.435l5.036-10.717-.143-3.669.048-.079c-1.59-.887-4.593-2.355-6.922-2.286-2.486.069-3.991.037-4.593.016-.4.945-2.782,6.341-5.169,8.416" transform="translate(17.823 -202.421)" fill="#1a2948"/>
        <path id="Trazado_873870" data-name="Trazado 873870" d="M44.681,441.111l-.148,3.669L49.57,455.5H64c1.758-3.548-.074-6.045-2.693-8.321-1.948-1.695-3.9-5.607-4.762-7.5a18.948,18.948,0,0,0-11.868,1.431" transform="translate(156.225 -202.904)" fill="#1a2948"/>
        <path id="Trazado_873871" data-name="Trazado 873871" d="M173.355,109.052a55.416,55.416,0,0,0-6.068,11.262,3.1,3.1,0,0,1-4.727,1.3,9.135,9.135,0,0,1-2.417-2.656c-1.866-3.233,3.991-7.764,3.991-7.764l.355-3.748Z" transform="translate(-14.447 -49.626)" fill="#2c423e"/>
        <path id="Trazado_873872" data-name="Trazado 873872" d="M144.737,85.724a1.927,1.927,0,0,1,1.2,1.705,17.177,17.177,0,0,1-1.22,6.313,17.652,17.652,0,0,1-3.09,5.609,1.932,1.932,0,0,1-2.017.6q-2.632-.8-5.129-1.408a29.558,29.558,0,0,0,3.6-7.137,30.466,30.466,0,0,0,1.825-7.823q2.308,1.1,4.831,2.141" transform="translate(26.578 -38.605)" fill="#2c423e"/>
        <path id="Trazado_873873" data-name="Trazado 873873" d="M150.475,77.953A20.116,20.116,0,0,1,145.7,83.31,92.039,92.039,0,0,1,169.717,85.7c.7.158,1.423.329,2.148.513a29.586,29.586,0,0,0,3.6-7.139,30.4,30.4,0,0,0,1.824-7.822c-.676-.317-1.335-.637-1.982-.959A92.249,92.249,0,0,1,155.123,56.89a19.668,19.668,0,0,1,.355,6.743,32.639,32.639,0,0,1-1.771,7.646,32.977,32.977,0,0,1-3.232,6.673" transform="translate(-10.808 -26.276)" fill="#fbf5e8"/>
        <path id="Trazado_873874" data-name="Trazado 873874" d="M206.309,52.146a19.674,19.674,0,0,1,.355,6.742,32.57,32.57,0,0,1-1.771,7.646,32.956,32.956,0,0,1-3.231,6.675,20.1,20.1,0,0,1-4.779,5.357h0c-2.187,1.621-4.432,2.231-6.409,1.526-4.766-1.7-5.9-10.323-2.578-19.625s9.657-15.26,14.422-13.559c1.974.706,3.325,2.6,3.993,5.236m-5.858-3.275c-2.92-1.045-8.262,3.654-11.265,12.057s-1.838,15.425,1.082,16.467c2.158.77,5.643-1.6,8.527-6.286a30.793,30.793,0,0,0,2.737-5.774,30.486,30.486,0,0,0,1.6-6.717c.595-5.189-.6-9-2.684-9.747" transform="translate(-61.994 -21.532)" fill="#2c423e"/>
        <path id="Trazado_873875" data-name="Trazado 873875" d="M208.212,60.426a31.946,31.946,0,0,1-4.342,12.491c-2.883,4.69-6.368,7.056-8.526,6.286-2.92-1.041-4.08-8.061-1.082-16.467s8.345-13.1,11.265-12.057c2.088.746,3.279,4.557,2.684,9.747" transform="translate(-67.071 -23.341)" fill="#ecb78e"/>
        <path id="Trazado_873876" data-name="Trazado 873876" d="M196.657,68.237l4.894.365a30.427,30.427,0,0,1-1.6,6.717,30.8,30.8,0,0,1-2.737,5.774L193.1,78.209s-.894-1.926.379-5.483,3.182-4.489,3.182-4.489" transform="translate(-60.41 -31.517)" fill="#2c423e"/>
        <path id="Trazado_873877" data-name="Trazado 873877" d="M201.17,77.932a.538.538,0,0,0,.387-.165,11.313,11.313,0,0,0,3.045-9.214.538.538,0,1,0-1.067.138,10.369,10.369,0,0,1-2.753,8.329.538.538,0,0,0,.387.912" transform="translate(-67.77 -31.446)" fill="#1a2948"/>
        <path id="Trazado_873878" data-name="Trazado 873878" d="M192.378,80.073a.535.535,0,0,0,.382-.159A29.629,29.629,0,0,0,200.9,54.977a.538.538,0,0,0-1.063.163A28.535,28.535,0,0,1,192,79.155a.538.538,0,0,0,.382.918" transform="translate(-59.564 -25.181)" fill="#1a2948"/>
        <path id="Trazado_873879" data-name="Trazado 873879" d="M37.138,139.34a15.986,15.986,0,0,0,.6,1.656,17.3,17.3,0,0,0,3.221,5.192,40.745,40.745,0,0,0,7.338,5.58l.095,19.759-2.739,16.2s.342.251.976.65C49.27,190.074,57,194.582,66,195.65c8.972,1.06,19.333-2.367,23.044-3.749.9-.338,1.417-.555,1.417-.555l-2.982-14.965-.539-3.582.68-7.126.3-3.145s.019.011.057.03c.262.137.653-4.16,2.18-3.658.308.1.634.2.972.285.083.023.171.046.258.065a11,11,0,0,0,4.49.262c1.8-.334,4.041-2.18,5.971-4.11l2.34-2.336s-4.429-18.965-6.78-23.314-15.242-5.712-15.242-5.712-2.841-3.928-4.182-3.582c.107.9.213,1.811.312,2.715-2.268,2.048-7.479,6.419-11.311,7.164-3.316.646-3.555-2.332-3.327-4.44a13.166,13.166,0,0,1,.361-1.952s-11.174-2.123-14.452-.456S37.138,139.34,37.138,139.34" transform="translate(120.712 -55.627)" fill="#ebeaea"/>
        <path id="Trazado_873880" data-name="Trazado 873880" d="M95.79,105.909c-.449,4.3-4.968,12.333-9.978,9.883a19.751,19.751,0,0,1-.475,2.408h-.021c-.227,2.106.011,5.084,3.326,4.44,3.833-.745,9.044-5.116,11.314-7.165-.1-.9-.206-1.811-.312-2.713-.222-2-.454-3.991-.681-5.982-.116-1-.227-2.006-.343-3.009a6.675,6.675,0,0,1-2.6.982c-.053.312-.127.708-.232,1.156" transform="translate(99.054 -47.929)" fill="#ecb78e"/>
        <path id="Trazado_873881" data-name="Trazado 873881" d="M85,76.281a49.714,49.714,0,0,0-1.035,5.111,5.738,5.738,0,0,0,.523,1.98,3.877,3.877,0,0,0-1.652,3.548c.206,2.4,1.536,10.569,4.028,11.631a8.837,8.837,0,0,0,3.184.555c2.629.047,5.771-.692,7.386-2.535a11.991,11.991,0,0,0,2.4-5.063c.105-.449.179-.845.232-1.156a6.676,6.676,0,0,0,2.6-.982,6.915,6.915,0,0,0,2.006-1.948l-1.409-.026a4.92,4.92,0,0,0-1.161-2.45l-.026-.016a5.254,5.254,0,0,1,1.916-2.017l1.32-.174c-.037-.069-.08-.137-.122-.206a2.891,2.891,0,0,0-4.715-.211,10.427,10.427,0,0,0,.338-4.546c-.27-2.619-2.587-4.715-3.147-5.184a11.5,11.5,0,0,1-1.795,2.661,3.619,3.619,0,0,1-1.727,1.209,1.557,1.557,0,0,1-1.811-.755,2.163,2.163,0,0,1-.105-.919c.016-.391.058-.776.111-1.161a5.244,5.244,0,0,1-5.359,1.916,1.387,1.387,0,0,1-.792-.422,1.337,1.337,0,0,1-.232-.7,1.814,1.814,0,0,1,.243-1.267.6.6,0,0,1-.122-.079,13.023,13.023,0,0,0-1.066,3.157c-.005.016-.005.032-.011.047" transform="translate(95.01 -33.528)" fill="#ecb78e"/>
        <path id="Trazado_873882" data-name="Trazado 873882" d="M76.09,65.379a.59.59,0,0,0,.122.079,1.817,1.817,0,0,0-.243,1.267,1.342,1.342,0,0,0,.232.7,1.39,1.39,0,0,0,.792.422,5.245,5.245,0,0,0,5.359-1.917c-.053.385-.1.771-.111,1.162a2.144,2.144,0,0,0,.105.919,1.556,1.556,0,0,0,1.811.755,3.62,3.62,0,0,0,1.726-1.209,11.471,11.471,0,0,0,1.8-2.661c.56.47,2.877,2.566,3.146,5.185a10.415,10.415,0,0,1-.338,4.546,2.892,2.892,0,0,1,4.715.211c.042.069.084.137.121.206a3.119,3.119,0,0,1,.338,1.077,4.886,4.886,0,0,1-.343,2.418,6.4,6.4,0,0,1-.633,1.188,6.908,6.908,0,0,1-2.006,1.948c.116,1,.227,2.007.343,3.01l.031-.005a1.938,1.938,0,0,1,.253-1.183c1.727-3.717,4.736-6.752,6.251-10.559a6.294,6.294,0,0,0,.518-3.611,3.044,3.044,0,0,0-2.254-2.413,5.719,5.719,0,0,0-1.953-7.122,1.248,1.248,0,0,0-.945-.3.955.955,0,0,0-.644.676,2.684,2.684,0,0,0-.058.966,7.26,7.26,0,0,0-4.361-4.266,2.4,2.4,0,0,0-1.679-.1,1.042,1.042,0,0,0-.6,1.389,8.1,8.1,0,0,0-5.3-2.218c-1.056-.074-2.3.1-2.83,1.008a3.063,3.063,0,0,0-.084,2.212c-1.394-.608-3.12-.935-4.356-.053a3.26,3.26,0,0,0-1.082,3.453,5.121,5.121,0,0,0,2.154,2.819" transform="translate(104.997 -25.83)" fill="#1a2948"/>
        <path id="Trazado_873883" data-name="Trazado 873883" d="M85.7,92.525a3.112,3.112,0,0,0-.338-1.076l-1.32.174a5.253,5.253,0,0,0-1.916,2.017l.026.016a4.918,4.918,0,0,1,1.161,2.45l1.41.026a6.443,6.443,0,0,0,.633-1.188,4.885,4.885,0,0,0,.343-2.418" transform="translate(114.958 -42.238)" fill="#ecb78e"/>
        <path id="Trazado_873884" data-name="Trazado 873884" d="M141.8,116.712a2.007,2.007,0,0,0-.539,2.133,22.166,22.166,0,0,0,2.545,3.474s-3.965,27.786-2.45,30.722,3.722,4.308,8.415,3,15.559-8.774,15.559-8.774a40.6,40.6,0,0,1-7.338-5.581,17.242,17.242,0,0,1-3.221-5.19l-2.75,1.864-1.953-11.937a10.489,10.489,0,0,0,1.811-4.646,28.52,28.52,0,0,0,.069-6.826c-.18-1.542-3.96-2.846-3.96-2.846s-2.861-3.168-3.352,0a2.393,2.393,0,0,0-1.959,3.31s-1.246-.4-.877,1.294" transform="translate(3.678 -51.13)" fill="#ecb78e"/>
        <path id="Trazado_873885" data-name="Trazado 873885" d="M55.916,349.793c.6.021,2.107.053,4.593-.016,2.328-.069,5.332,1.4,6.921,2.286.675.38,1.1.649,1.1.649a11.517,11.517,0,0,0,2.154-3.31,4.633,4.633,0,0,0-.586-3.912s3.622-31.9,4.4-33.852a2.362,2.362,0,0,0-.686-2.935l8.12-39.709,9.2,40.591,1.864,30.136c-.491,3.912,1.563,4.108,1.563,4.108a12.8,12.8,0,0,0-.977,5.089,3.3,3.3,0,0,0,2.349,3.226,18.945,18.945,0,0,1,11.868-1.431c.3.064.459.105.459.105a9.992,9.992,0,0,0,2.149-2.977,3.871,3.871,0,0,0-.586-3.717l-2.349-31.312s-.422-34.7-.676-48.257c-.069-3.611-.122-6.066-.153-6.488a11.553,11.553,0,0,0-1.124-3.907s.881-1.083.586-1.864a16.423,16.423,0,0,0-1.32-2.085c-3.711,1.384-14.075,4.81-23.045,3.749-9-1.067-16.731-5.575-19.376-7.275-3.432,6.911-4.889,61.529-4.889,61.529s-2.835,34.539-3.131,36.007,1.273,5.559,1.273,5.559Z" transform="translate(104.976 -113.936)" fill="#666464"/>
        <path id="Trazado_873886" data-name="Trazado 873886" d="M120.543,79.408c.005-.016.005-.032.011-.047a.331.331,0,0,0-.011.047" transform="translate(59.466 -36.655)" fill="#ecb78e"/>
        <path id="Trazado_873887" data-name="Trazado 873887" d="M93.184,115.341a19.5,19.5,0,0,1-.19,2.286c5.01,2.45,9.529-5.58,9.978-9.883a11.983,11.983,0,0,1-2.4,5.063c-1.615,1.843-4.757,2.581-7.386,2.534" transform="translate(91.873 -49.764)" fill="#1a2948"/>
        <path id="Trazado_873888" data-name="Trazado 873888" d="M84.844,97.011a.594.594,0,0,0,.062,0,.538.538,0,0,0,.474-.6,4.891,4.891,0,0,1,2.3-4.635.538.538,0,1,0-.549-.926,6,6,0,0,0-2.821,5.684.538.538,0,0,0,.534.477" transform="translate(111.593 -41.927)" fill="#1a2948"/>
        <path id="Trazado_873889" data-name="Trazado 873889" d="M87.323,98.076a.509.509,0,0,0,.089-.008.538.538,0,0,0,.442-.619,5.484,5.484,0,0,0-1.288-2.718.538.538,0,1,0-.809.709,4.475,4.475,0,0,1,1.036,2.185.538.538,0,0,0,.53.45" transform="translate(110.95 -43.669)" fill="#1a2948"/>
        <path id="Trazado_873890" data-name="Trazado 873890" d="M75.243,183.757a.53.53,0,0,0,.176-.03.538.538,0,0,0,.333-.684l-5.389-15.554a.538.538,0,1,0-1.017.352l5.389,15.555a.539.539,0,0,0,.509.362" transform="translate(131.806 -77.191)" fill="#1a2948"/>
        <path id="Trazado_873891" data-name="Trazado 873891" d="M75.462,191.688a.538.538,0,0,0,.468-.8l-2.5-4.429a.538.538,0,0,0-.937.528l2.5,4.429a.538.538,0,0,0,.469.274" transform="translate(129.913 -85.993)" fill="#1a2948"/>
        <path id="Trazado_873892" data-name="Trazado 873892" d="M136.328,162.317a.538.538,0,0,0,.533-.468l2.26-17.219a.538.538,0,1,0-1.067-.139l-2.26,17.219a.539.539,0,0,0,.463.6.638.638,0,0,0,.071,0" transform="translate(32.69 -66.52)" fill="#1a2948"/>
        <path id="Trazado_873893" data-name="Trazado 873893" d="M163.953,174.656h.026a.538.538,0,0,0,.512-.563,39.076,39.076,0,0,0-2.365-11.675.538.538,0,1,0-1.01.371,37.991,37.991,0,0,1,2.3,11.354.539.539,0,0,0,.537.513" transform="translate(-6.287 -74.854)" fill="#1a2948"/>
        <path id="Trazado_873894" data-name="Trazado 873894" d="M123.622,275.6a.538.538,0,0,0,.261-1.009l-11.877-6.566a.538.538,0,0,0-.521.942l11.878,6.566a.533.533,0,0,0,.259.067" transform="translate(60.882 -123.763)" fill="#1a2948"/>
        <path id="Trazado_873895" data-name="Trazado 873895" d="M125,281.364a.538.538,0,0,0,.193-1.04,79.93,79.93,0,0,0-12.315-3.629.538.538,0,1,0-.22,1.053,78.861,78.861,0,0,1,12.149,3.58.541.541,0,0,0,.193.035" transform="translate(58.954 -127.793)" fill="#1a2948"/>
        <path id="Trazado_873896" data-name="Trazado 873896" d="M110.3,268.1a.538.538,0,0,0,.536-.487l.635-6.7a.538.538,0,0,0-.485-.587.531.531,0,0,0-.587.484l-.589,6.213-.84,0,.174-6.532a.538.538,0,1,0-1.076-.028l-.188,7.082a.538.538,0,0,0,.537.552l1.882.005Z" transform="translate(75.366 -120.057)" fill="#1a2948"/>
        <path id="Trazado_873897" data-name="Trazado 873897" d="M66.238,345.5h.027a.537.537,0,0,0,.51-.565l-3.615-77.466c-.11-2.21-.245-4.921-1.478-7.161a1.88,1.88,0,0,0,.5-.591,1.784,1.784,0,0,0-2.312-2.455.538.538,0,1,0,.459.973.708.708,0,1,1,.472,1.332.538.538,0,0,0-.323.817c1.358,2.085,1.492,4.769,1.61,7.138L65.7,344.992a.538.538,0,0,0,.537.511" transform="translate(146.06 -118.751)" fill="#1a2948"/>
        <path id="Trazado_873898" data-name="Trazado 873898" d="M145.222,430.523a.538.538,0,0,0,.129-1.061,25.672,25.672,0,0,0-9.594-.495.538.538,0,0,0,.149,1.066,24.585,24.585,0,0,1,9.188.474.53.53,0,0,0,.129.016" transform="translate(26.323 -198.018)" fill="#1a2948"/>
        <path id="Trazado_873899" data-name="Trazado 873899" d="M58.586,430.81a.543.543,0,0,0,.187-.033,23.4,23.4,0,0,1,12.907-.915.538.538,0,1,0,.228-1.052,24.489,24.489,0,0,0-13.508.958.538.538,0,0,0,.187,1.042" transform="translate(141.318 -197.809)" fill="#1a2948"/>
        <path id="Trazado_873900" data-name="Trazado 873900" d="M179.371,127.608a2.532,2.532,0,0,0,.352-.024,1.713,1.713,0,0,0,1.3-.85,2.123,2.123,0,0,0-.018-1.688,8.528,8.528,0,0,0-2.243-3.421,3,3,0,0,0-.886-.61,1.588,1.588,0,0,0-1.3.008.538.538,0,1,0,.475.966.54.54,0,0,1,.42.021,2,2,0,0,1,.564.4,7.449,7.449,0,0,1,1.959,2.988,1.138,1.138,0,0,1,.079.833.662.662,0,0,1-.495.284,2.807,2.807,0,0,1-.91-.08.538.538,0,1,0-.211,1.055,4.716,4.716,0,0,0,.922.115" transform="translate(-31.157 -55.831)" fill="#1a2948"/>
        <path id="Trazado_873901" data-name="Trazado 873901" d="M177.872,125a.539.539,0,0,0,.21-.043,2.216,2.216,0,0,0,1.189-1.309,3.178,3.178,0,0,0,.107-1.631,4.359,4.359,0,0,0-4.921-3.575.538.538,0,0,0,.154,1.065,3.283,3.283,0,0,1,3.707,2.692,2.135,2.135,0,0,1-.06,1.084,1.158,1.158,0,0,1-.6.682.538.538,0,0,0,.21,1.034" transform="translate(-28.18 -54.685)" fill="#1a2948"/>
        <path id="Trazado_873902" data-name="Trazado 873902" d="M174.787,119.313a1.726,1.726,0,0,0,1.494-.932,2.306,2.306,0,0,0,.063-1.879,4.577,4.577,0,0,0-.915-1.4,11.567,11.567,0,0,0-2.83-2.305.538.538,0,1,0-.54.931,10.493,10.493,0,0,1,2.567,2.091,3.55,3.55,0,0,1,.709,1.061,1.255,1.255,0,0,1-.006,1,.63.63,0,0,1-.631.349.538.538,0,1,0-.247,1.047,1.44,1.44,0,0,0,.335.039" transform="translate(-24.071 -52.064)" fill="#1a2948"/>
        <path id="Trazado_873903" data-name="Trazado 873903" d="M170.309,117.2a.575.575,0,0,0,.061,0,1.893,1.893,0,0,0,1.529-1.281,2.4,2.4,0,0,0-.185-1.869,3.614,3.614,0,0,0-1.179-1.278.538.538,0,0,0-.614.884,2.566,2.566,0,0,1,.839.891,1.349,1.349,0,0,1,.119,1.026.823.823,0,0,1-.63.556.538.538,0,0,0,.059,1.073" transform="translate(-18.438 -52.041)" fill="#1a2948"/>
        <path id="Trazado_873904" data-name="Trazado 873904" d="M170.193,126.793a.538.538,0,0,0,.528-.642,4.639,4.639,0,0,1,2-4.771.538.538,0,0,0,.193-.676l-.74-1.6a.538.538,0,0,0-.977.453l.553,1.193a5.712,5.712,0,0,0-2.088,5.605.538.538,0,0,0,.527.434" transform="translate(-19.325 -54.869)" fill="#1a2948"/>
        <path id="Trazado_873905" data-name="Trazado 873905" d="M70.381,71.8a.535.535,0,0,0,.126-.015,6.99,6.99,0,0,0,4.756-4.1.538.538,0,0,0-1-.406,5.892,5.892,0,0,1-2.425,2.8,7.817,7.817,0,0,0,.772-4.993.538.538,0,1,0-1.057.2A6.716,6.716,0,0,1,69.981,70.9a.538.538,0,0,0,.4.9" transform="translate(131.999 -29.86)" fill="#1a2948"/>
        <path id="Trazado_873906" data-name="Trazado 873906" d="M102.444,86.059a6.352,6.352,0,0,0-4.794-1.248.784.784,0,0,1-.917-.725c.024-.322.251-.673.971-.915,1.68-.566,4.651,1.194,4.74,2.889" transform="translate(90.39 -38.364)" fill="#1a2948"/>
        <path id="Trazado_873907" data-name="Trazado 873907" d="M96.837,97.789c-.051.706.933,1.352,2.2,1.443s2.33-.408,2.38-1.114-.933-1.352-2.2-1.443-2.329.408-2.38,1.114" transform="translate(91.362 -44.647)" fill="#e06f43"/>
        <path id="Trazado_873908" data-name="Trazado 873908" d="M111.969,84.6a5,5,0,0,1,4.3-.6.7.7,0,0,0,.886-.6c.022-.321-.126-.7-.714-1.035-1.371-.786-4.165.561-4.468,2.227" transform="translate(67.481 -37.941)" fill="#1a2948"/>
        <path id="Trazado_873909" data-name="Trazado 873909" d="M111.806,88.868a34.62,34.62,0,0,1-1.711,4.054c-1.061,2.112-2.19,1.688-1.707,3.226s4.047,1.648,4.751,1.026.2-2.477-.825-2.458c0,0,.619-4.328-.507-5.847" transform="translate(73.156 -41.046)" fill="#e06f43"/>
        <path id="Trazado_873910" data-name="Trazado 873910" d="M103.541,107.982a3.124,3.124,0,0,0,2.954,1.775v-.011a2.312,2.312,0,0,1,1.906-1.629,3.505,3.505,0,0,1,1.714.313,3.063,3.063,0,0,0,.7-1.559.763.763,0,0,0-.872-.876l-.139.019v.005c-.023.079-.315.855-2.515,1.193-2.317.364-3.034-.327-3.034-.327l-.135.019a.766.766,0,0,0-.579,1.078" transform="translate(78.384 -48.952)" fill="#1a2948"/>
        <path id="Trazado_873911" data-name="Trazado 873911" d="M104.788,111.561v.011a5.458,5.458,0,0,0,1.043-.069,4.061,4.061,0,0,0,2.577-1.257,3.5,3.5,0,0,0-1.714-.314,2.312,2.312,0,0,0-1.906,1.629" transform="translate(80.092 -50.768)" fill="#dc3d3d"/>
        <path id="Trazado_873912" data-name="Trazado 873912" d="M105.421,106.923s.747.688,3.064.323c2.2-.338,2.492-1.114,2.485-1.188Z" transform="translate(77.188 -48.985)" fill="#fbf5e8"/>
        <path id="Trazado_873913" data-name="Trazado 873913" d="M104.7,110.529a.131.131,0,0,1,.045.015" transform="translate(83.796 -51.05)" fill="#dc3d3d"/>
        <path id="Trazado_873914" data-name="Trazado 873914" d="M102.091,90.188a1.178,1.178,0,1,0,1.26-1.253,1.263,1.263,0,0,0-1.26,1.253" transform="translate(85.529 -41.075)" fill="#1a2948"/>
        <path id="Trazado_873915" data-name="Trazado 873915" d="M117.683,88.911a1.178,1.178,0,1,0,1.26-1.253,1.263,1.263,0,0,0-1.26,1.253" transform="translate(61.546 -40.486)" fill="#1a2948"/>
        <path id="Trazado_873916" data-name="Trazado 873916" d="M118.62,89.074a.538.538,0,0,0,.372-.927,3.751,3.751,0,0,0-5.372-.385.538.538,0,1,0,.625.876,2.7,2.7,0,0,1,4,.287.534.534,0,0,0,.371.149" transform="translate(64.708 -40.095)" fill="#1a2948"/>
        <path id="Trazado_873917" data-name="Trazado 873917" d="M102.307,90.244a.538.538,0,0,0,.372-.927,3.752,3.752,0,0,0-5.372-.385.538.538,0,0,0,.625.877,2.7,2.7,0,0,1,4,.287.536.536,0,0,0,.372.149" transform="translate(89.8 -40.635)" fill="#1a2948"/>
        <path id="Trazado_873918" data-name="Trazado 873918" d="M102.444,86.059a6.352,6.352,0,0,0-4.794-1.248.784.784,0,0,1-.917-.725c.024-.322.251-.673.971-.915,1.68-.566,4.651,1.194,4.74,2.889" transform="translate(90.39 -38.364)" fill="#1a2948"/>
        <path id="Trazado_873919" data-name="Trazado 873919" d="M96.837,97.789c-.051.706.933,1.352,2.2,1.443s2.33-.408,2.38-1.114-.933-1.352-2.2-1.443-2.329.408-2.38,1.114" transform="translate(91.362 -44.647)" fill="#e06f43"/>
        <path id="Trazado_873920" data-name="Trazado 873920" d="M111.969,84.6a5,5,0,0,1,4.3-.6.7.7,0,0,0,.886-.6c.022-.321-.126-.7-.714-1.035-1.371-.786-4.165.561-4.468,2.227" transform="translate(67.481 -37.941)" fill="#1a2948"/>
        <path id="Trazado_873921" data-name="Trazado 873921" d="M111.806,88.868a34.62,34.62,0,0,1-1.711,4.054c-1.061,2.112-2.19,1.688-1.707,3.226s4.047,1.648,4.751,1.026.2-2.477-.825-2.458c0,0,.619-4.328-.507-5.847" transform="translate(73.156 -41.046)" fill="#e06f43"/>
        <path id="Trazado_873922" data-name="Trazado 873922" d="M103.541,107.982a3.124,3.124,0,0,0,2.954,1.775v-.011a2.312,2.312,0,0,1,1.906-1.629,3.505,3.505,0,0,1,1.714.313,3.063,3.063,0,0,0,.7-1.559.763.763,0,0,0-.872-.876l-.139.019v.005c-.023.079-.315.855-2.515,1.193-2.317.364-3.034-.327-3.034-.327l-.135.019a.766.766,0,0,0-.579,1.078" transform="translate(78.384 -48.952)" fill="#1a2948"/>
        <path id="Trazado_873923" data-name="Trazado 873923" d="M104.788,111.561v.011a5.458,5.458,0,0,0,1.043-.069,4.061,4.061,0,0,0,2.577-1.257,3.5,3.5,0,0,0-1.714-.314,2.312,2.312,0,0,0-1.906,1.629" transform="translate(80.092 -50.768)" fill="#dc3d3d"/>
        <path id="Trazado_873924" data-name="Trazado 873924" d="M105.421,106.923s.747.688,3.064.323c2.2-.338,2.492-1.114,2.485-1.188Z" transform="translate(77.188 -48.985)" fill="#fbf5e8"/>
        <path id="Trazado_873925" data-name="Trazado 873925" d="M104.7,110.529a.131.131,0,0,1,.045.015" transform="translate(83.796 -51.05)" fill="#dc3d3d"/>
        <path id="Trazado_873926" data-name="Trazado 873926" d="M102.091,90.188a1.178,1.178,0,1,0,1.26-1.253,1.263,1.263,0,0,0-1.26,1.253" transform="translate(85.529 -41.075)" fill="#1a2948"/>
        <path id="Trazado_873927" data-name="Trazado 873927" d="M117.683,88.911a1.178,1.178,0,1,0,1.26-1.253,1.263,1.263,0,0,0-1.26,1.253" transform="translate(61.546 -40.486)" fill="#1a2948"/>
        <path id="Trazado_873928" data-name="Trazado 873928" d="M118.62,89.074a.538.538,0,0,0,.372-.927,3.751,3.751,0,0,0-5.372-.385.538.538,0,1,0,.625.876,2.7,2.7,0,0,1,4,.287.534.534,0,0,0,.371.149" transform="translate(64.708 -40.095)" fill="#1a2948"/>
        <path id="Trazado_873929" data-name="Trazado 873929" d="M102.307,90.244a.538.538,0,0,0,.372-.927,3.752,3.752,0,0,0-5.372-.385.538.538,0,0,0,.625.877,2.7,2.7,0,0,1,4,.287.536.536,0,0,0,.372.149" transform="translate(89.8 -40.635)" fill="#1a2948"/>
        <path id="Trazado_873930" data-name="Trazado 873930" d="M37.878,186.88l2.248,2.068a2.68,2.68,0,0,0,1.145,1.5l.923.573s-.5.923.923,2.022c0,0,.075,1.6,2.695,4.09S57.19,200.09,57.19,200.09s24.7,7.414,25.62,7.5c2.321.209,6.567.832,7.566-3.168.631-2.533-1.838-20.762-1.838-20.762-1.929,1.93-4.174,3.775-5.971,4.11a12.091,12.091,0,0,1-4.49-.262c-.087-.019-.174-.042-.258-.065a21.617,21.617,0,0,1-3.911-1.324c-.038-.019.4,7.812.4,7.812l-14.846-1.374a58.792,58.792,0,0,0-3.192-5.92c-.965-1.262-6.94-5.022-6.94-5.022a2.09,2.09,0,0,0,0,3.2,28.727,28.727,0,0,0,3.514,3.292l-7.282-.15s-6.56-3.059-7.684-1.07" transform="translate(134.025 -83.881)" fill="#ecb78e"/>
        <path id="Trazado_873931" data-name="Trazado 873931" d="M56.028,208.59a.538.538,0,0,0,.336-.959,17.939,17.939,0,0,0-5.7-3.059,76.506,76.506,0,0,0-7.913-1.071.538.538,0,1,0-.093,1.072,76.925,76.925,0,0,1,7.758,1.046,17.162,17.162,0,0,1,5.279,2.854.535.535,0,0,0,.335.117" transform="translate(165.631 -93.99)" fill="#1a2948"/>
        <path id="Trazado_873932" data-name="Trazado 873932" d="M125.2,197.078a.538.538,0,0,0,.1-1.067c-.013,0-1.372-.264-2.3-.488-.911-.219-4.626-1.551-4.664-1.565a.538.538,0,0,0-.363,1.013c.155.055,3.808,1.365,4.775,1.6.951.229,2.291.487,2.347.5a.559.559,0,0,0,.1.01" transform="translate(55.852 -89.57)" fill="#1a2948"/>
        <path id="Trazado_873933" data-name="Trazado 873933" d="M123.075,200.633a.541.541,0,0,0,.519-.378.532.532,0,0,0-.337-.667c-.037-.012-.15-.04-.322-.079a14.005,14.005,0,0,1-4.442-1.619.538.538,0,0,0-.645.861,14.823,14.823,0,0,0,4.851,1.808c.114.026.193.043.229.053a.539.539,0,0,0,.148.02" transform="translate(57.967 -91.351)" fill="#1a2948"/>
        <path id="Trazado_873934" data-name="Trazado 873934" d="M122.236,205.59a.538.538,0,0,0,.153-1.054,15.021,15.021,0,0,1-3.891-2.3.538.538,0,1,0-.68.834,15.773,15.773,0,0,0,4.263,2.5.546.546,0,0,0,.154.023" transform="translate(58.818 -93.35)" fill="#1a2948"/>
        <path id="Trazado_873935" data-name="Trazado 873935" d="M364.3,53.111a1.579,1.579,0,0,0-1.608-1.649,1.537,1.537,0,0,0-1.2.526,1.715,1.715,0,0,0-.4,1.123,1.607,1.607,0,1,0,3.213,0" transform="translate(-313.724 -23.769)" fill="#1a2948"/>
        <path id="Trazado_873936" data-name="Trazado 873936" d="M360.591,70.74a.444.444,0,0,0,.446.446h1.524V72.71a.446.446,0,1,0,.891,0V71.186h1.524a.446.446,0,1,0,0-.891h-1.524V68.767a.446.446,0,1,0-.891,0v1.528h-1.524a.441.441,0,0,0-.446.446" transform="translate(-314.577 -31.556)" fill="#1a2948"/>
        <path id="Trazado_873937" data-name="Trazado 873937" d="M372.655,61.417a2.454,2.454,0,1,0,2.455-2.527,2.342,2.342,0,0,0-1.845.8,2.645,2.645,0,0,0-.61,1.724" transform="translate(-333.209 -27.2)" fill="#1a2948"/>
        <path id="Trazado_873938" data-name="Trazado 873938" d="M363.006,11.342l-2.943-4.3.144,5.206L355.3,10.505l3.176,4.127-5,1.472,5,1.472L355.3,21.7l4.906-1.746-.144,5.205,2.943-4.3,2.944,4.3-.144-5.205,4.907,1.746-3.177-4.127,5-1.472-5-1.472,3.177-4.127-4.907,1.746.144-5.206Z" transform="translate(-317.862 -3.254)" fill="#eaac36"/>
        <path id="Trazado_873939" data-name="Trazado 873939" d="M214.805,167.756l-2.943-4.3.144,5.206-4.906-1.746,3.176,4.127-5,1.472,5,1.472-3.176,4.127,4.906-1.746-.144,5.205,2.943-4.3,2.944,4.3-.144-5.205,4.906,1.746-3.176-4.127,5-1.472-5-1.472,3.176-4.127-4.906,1.746.144-5.206Z" transform="translate(-89.909 -75.498)" fill="#71c4bb"/>
        <path id="Trazado_873940" data-name="Trazado 873940" d="M249.793,182.432a1.578,1.578,0,0,0-1.608-1.649,1.537,1.537,0,0,0-1.2.526,1.715,1.715,0,0,0-.4,1.123,1.607,1.607,0,1,0,3.213,0" transform="translate(-137.597 -83.499)" fill="#1a2948"/>
        <path id="Trazado_873941" data-name="Trazado 873941" d="M246.083,200.061a.444.444,0,0,0,.446.446h1.524v1.524a.446.446,0,1,0,.891,0v-1.524h1.524a.446.446,0,1,0,0-.891h-1.524v-1.528a.446.446,0,1,0-.891,0v1.528h-1.524a.441.441,0,0,0-.446.446" transform="translate(-138.45 -91.286)" fill="#1a2948"/>
        <path id="Trazado_873942" data-name="Trazado 873942" d="M258.147,190.737a2.454,2.454,0,1,0,2.455-2.527,2.342,2.342,0,0,0-1.845.8,2.645,2.645,0,0,0-.61,1.724" transform="translate(-157.082 -86.93)" fill="#1a2948"/>
        <path id="Trazado_873943" data-name="Trazado 873943" d="M213.827,56.42c-3.141,12.913,6.014,26.231,20.454,29.743s28.689-4.114,31.83-17.026a21.747,21.747,0,0,0,.512-7.254,24.414,24.414,0,0,1,12.737-5.258A24.834,24.834,0,0,0,264.326,53.9a28.023,28.023,0,0,0-18.67-14.5c-14.441-3.513-28.689,4.114-31.83,17.026" transform="translate(-149.207 -17.8)" fill="#71c4bb"/>
        <path id="Trazado_873944" data-name="Trazado 873944" d="M305.128,342.836a5.577,5.577,0,0,0,2.693.56,21.925,21.925,0,0,0,4.471-.892c1.5-.433,2.571-.866,2.571-.866l4.7-72.67,19.387,73.552a4.232,4.232,0,0,0,2.829,1.194,9.688,9.688,0,0,0,3.712-.412,15.828,15.828,0,0,0,3.188-1.267,6.616,6.616,0,0,0,2.746-2.339l-6.911-42.159s1.077-32.337-2.349-42.426S335.4,242.48,335.4,242.48l-.053.016-.032.011c-2.481.877-5.839,1.23-7.924.406a47.542,47.542,0,0,1-6.721-3.817c-2.26,1.737-6.668,4.678-10.522,4.625l-.216.238c.655.422,1.251.892,1.32,1.23.158.771-1.1,1.5-1.1,1.5s1.151.607.877,1.357-1.837.9-3.194.518c0,0,.755.839.623,1.357s-1.283.971-2.751.734-4.033-.554-4.033-.554a7.35,7.35,0,0,1-1.948,4.44,1.9,1.9,0,0,1-.839.459l.032.106a134.822,134.822,0,0,0,3.036,45.166l-.882,39.6a14.223,14.223,0,0,0,4.06,2.962" transform="translate(-267.033 -110.432)" fill="#eaac36"/>
        <path id="Trazado_873945" data-name="Trazado 873945" d="M352.256,127.028c.243.633.544,1.394.881,2.16a14.143,14.143,0,0,0,1.885,3.294,13.633,13.633,0,0,0,2.592,2.26l.005.005a8.14,8.14,0,0,0,6.262,1.488c.01,0,.021-.005.032-.005a8.143,8.143,0,0,0,4.994-4.065A13.922,13.922,0,0,0,370.264,129a14.138,14.138,0,0,0,.264-3.78,4.6,4.6,0,0,0,2.127-1.943,4.554,4.554,0,0,0,.433-3.284,3.125,3.125,0,0,0-.824-1.531,2.008,2.008,0,0,0-1.6-.6,1.486,1.486,0,0,0-1.267,1.061,10.359,10.359,0,0,0-.834-2.56l-3.849,1.151a49.282,49.282,0,0,1-6.214-2.535c1.146,1.526,2.978,3.458,2.978,3.458l-1.758.745c-2.983-.38-6.114-5.707-6.114-5.707s-3.39,4.635-2.239,9.482a1.5,1.5,0,0,0-1.542-.338,2.007,2.007,0,0,0-1.183,1.23c-.026.074-.053.153-.074.232l.729.259a5.829,5.829,0,0,1,2.5,2.856Z" transform="translate(-315.909 -52.414)" fill="#ecb78e"/>
        <path id="Trazado_873946" data-name="Trazado 873946" d="M341.286,99.949a8.392,8.392,0,0,0-3.643,1.035,4.031,4.031,0,0,0-2.038,3.088c-.074,1.425.808,2.909.243,4.224-.37.855-1.251,1.357-1.853,2.064a5.07,5.07,0,0,0-.966,3.88,15.934,15.934,0,0,0,1.209,3.923,4.579,4.579,0,0,1,.444,1.774,6.892,6.892,0,0,1-.845,2.4,8.732,8.732,0,0,0,1.056,7.682,3.22,3.22,0,0,0,1.42.122c.8-.09,1.563-.38,2.349-.549a3.374,3.374,0,0,1,2.355.19,10.351,10.351,0,0,1,.844-2.8c.016.935.032,1.874.048,2.814a5.676,5.676,0,0,0,3.02.718,6.117,6.117,0,0,1,2.381.048,12.937,12.937,0,0,0-.285-2.418,11.079,11.079,0,0,0-.485-1.647l-.005,0a13.634,13.634,0,0,1-2.592-2.26,14.123,14.123,0,0,1-1.885-3.294,4.525,4.525,0,0,1-2.75-.823,4.573,4.573,0,0,1-1.822-2.772,3.445,3.445,0,0,1,.005-1.5c.021-.079.047-.158.074-.232a2.01,2.01,0,0,1,1.183-1.23,1.5,1.5,0,0,1,1.542.338c-1.151-4.846,2.239-9.482,2.239-9.482s3.13,5.327,6.114,5.707l1.758-.745s-1.832-1.932-2.978-3.458a49.221,49.221,0,0,0,6.214,2.534l3.849-1.151a10.36,10.36,0,0,1,.834,2.56,1.485,1.485,0,0,1,1.267-1.061,2.008,2.008,0,0,1,1.6.6,3.125,3.125,0,0,1,.824,1.531,4.555,4.555,0,0,1-.433,3.284,4.6,4.6,0,0,1-2.127,1.943,14.139,14.139,0,0,1-.264,3.78,13.93,13.93,0,0,1-1.357,3.163,11.864,11.864,0,0,0,.876,3.553v0c.069.164.143.338.222.512a10.14,10.14,0,0,1,1.774-1.3,3.671,3.671,0,0,1,2.275-.48,7.151,7.151,0,0,1-1.1-2.793,7.26,7.26,0,0,1,2.17,2.735,5.649,5.649,0,0,1,3-1.457,10.136,10.136,0,0,0,1.273-.2,4.3,4.3,0,0,0,2.212-1.827,4.539,4.539,0,0,1-2.086-3.468c-.095-1.3.391-2.587.37-3.9a5.169,5.169,0,0,0-1.2-3.22c-1.294-1.536-3.426-2.255-4.5-3.949-1.125-1.79-.76-4.171-1.684-6.072a4.9,4.9,0,0,0-2.476-2.349c-1.542-.65-3.347-.475-4.863-1.183a26.428,26.428,0,0,1-2.735-1.869,6.892,6.892,0,0,0-10.073,3.289" transform="translate(-304.828 -44.162)" fill="#1a2948"/>
        <path id="Trazado_873947" data-name="Trazado 873947" d="M385.972,134.7a4.574,4.574,0,0,0,1.822,2.772,4.525,4.525,0,0,0,2.75.823c-.338-.765-.639-1.526-.881-2.159l-.46.174a5.831,5.831,0,0,0-2.5-2.856l-.729-.259a3.445,3.445,0,0,0-.005,1.5" transform="translate(-353.316 -61.517)" fill="#ecb78e"/>
        <path id="Trazado_873948" data-name="Trazado 873948" d="M388.024,243.2c1.684.5,3.5-.554,3-1.14a10.745,10.745,0,0,0-5.174-2.423,8.123,8.123,0,0,0-3.807.929c-.56.264-1.093.555-1.589.835a18.131,18.131,0,0,0-3.141,3.88c-.47.686-.95,1.4-1.415,2.112-1.447,2.212-2.729,4.292-3.02,4.767,1.051,2.059,4.023,3.606,5.855,3.089a1.9,1.9,0,0,0,.839-.46,7.35,7.35,0,0,0,1.948-4.44s2.566.312,4.033.554,2.624-.222,2.751-.734-.623-1.357-.623-1.357c1.357.38,2.92.238,3.194-.517S390,246.94,390,246.94s1.262-.734,1.1-1.5c-.069-.338-.665-.808-1.32-1.23-.792-.512-1.668-.956-1.758-1" transform="translate(-346.883 -110.679)" fill="#ecb78e"/>
        <path id="Trazado_873949" data-name="Trazado 873949" d="M350.078,143.461c-.412.111-.65.2-.65.2a5.626,5.626,0,0,0-.369,3.4c.406,1.859,2.571,14.651,2.571,14.651s-10.052-9.355-14.017-11.932-11.082-.518-11.082-.518a6.307,6.307,0,0,0-2.6,0,7.8,7.8,0,0,0-2.872,1.2l0,.005c.19.343.4.7.639,1.046-.317.971-1.589,4.281-4.324,5.285-3.21,1.172-8.347-2.777-8.347-2.777.037-.274.058-.544.068-.8a3.567,3.567,0,0,0-2.809.422s-9.1-1.03-13.505,4.329-14.93,24.729-16.219,27.3-.179,5.31,1.542,7.729,14.455,14.543,14.455,14.543l.058-.1c.291-.475,1.573-2.556,3.02-4.767.464-.708.945-1.425,1.415-2.112L287.8,185.142l10.109-12.063,3.39,15.964c-2.075,4.144.454,6.752.454,6.752l.021.047a8.124,8.124,0,0,1,3.807-.929,10.74,10.74,0,0,1,5.174,2.424c.5.586-1.315,1.642-3,1.14.089.047.966.491,1.758,1l.216-.238c3.854.053,8.262-2.888,10.522-4.625a47.6,47.6,0,0,0,6.721,3.817c2.086.824,5.443.47,7.925-.406l.032-.011c1.689-.6,2.956-1.436,3.12-2.3.406-2.127-1.906-14.052-1.906-14.052a50.352,50.352,0,0,0,3.3-5.137c.665-1.468-.734-7.413-.734-7.413s14.862,7.413,17.539,7.413,6.166-1.542,6.679-4.921-2.825-22.09-3.521-24.993-2.349-3.5-2.349-3.5a7.6,7.6,0,0,0-1.2-.248,15.682,15.682,0,0,0-5.776.586" transform="translate(-266.617 -65.954)" fill="#a6aedf"/>
        <path id="Trazado_873950" data-name="Trazado 873950" d="M369.088,456.911c-.148,2.788.222,5.353,3.157,5.575s6.71-.406,6.9-4.329a36.923,36.923,0,0,0-.343-5.374c-.032.121-1,4.028-4.688,4.862a4.242,4.242,0,0,1-4.846-2.666c-.09.85-.153,1.521-.174,1.932" transform="translate(-332.868 -209.129)" fill="#7666fa"/>
        <path id="Trazado_873951" data-name="Trazado 873951" d="M371.424,431.591c-.47,3.474-1.325,9.957-1.7,13.447a4.242,4.242,0,0,0,4.846,2.666c3.69-.834,4.657-4.741,4.688-4.862v-.005c-.48-4.044-1.272-8.341-1.272-8.341l.6-3.236a21.921,21.921,0,0,1-4.471.892,5.578,5.578,0,0,1-2.693-.56" transform="translate(-333.329 -199.187)" fill="#ecb78e"/>
        <path id="Trazado_873952" data-name="Trazado 873952" d="M354.958,150.783a11.112,11.112,0,0,1,.486,1.647s3.986,3.131,6.905,3.279c2.877.147,4.715-3.828,4.773-3.949v-.005a11.86,11.86,0,0,1-.876-3.553,8.144,8.144,0,0,1-4.994,4.066c-.011,0-.022.005-.032.005a8.14,8.14,0,0,1-6.262-1.489" transform="translate(-313.247 -68.45)" fill="#1a2948"/>
        <path id="Trazado_873953" data-name="Trazado 873953" d="M353.005,158.763c-.011.259-.032.528-.069.8,0,0,5.137,3.949,8.347,2.777,2.735-1,4.007-4.314,4.324-5.285-.238-.348-.449-.7-.639-1.046-.122-.232-.238-.464-.338-.686-.08-.174-.153-.348-.222-.512-.058.122-1.9,4.1-4.772,3.949-2.92-.148-6.906-3.279-6.906-3.279a12.973,12.973,0,0,1,.285,2.418c0,.274,0,.565-.011.86" transform="translate(-310.534 -71.505)" fill="#ecb78e"/>
        <path id="Trazado_873954" data-name="Trazado 873954" d="M299.592,455.658a36.352,36.352,0,0,0-.348,5.375c.185,3.928,3.965,4.551,6.9,4.329s3.3-2.788,3.152-5.575c-.022-.406-.084-1.077-.174-1.927a4.241,4.241,0,0,1-4.842,2.661c-3.753-.845-4.688-4.863-4.688-4.863" transform="translate(-225.46 -210.457)" fill="#7666fa"/>
        <path id="Trazado_873955" data-name="Trazado 873955" d="M300.216,432.064l0,.042.66,3.532s-.792,4.3-1.267,8.347c0,0,.935,4.018,4.688,4.863a4.241,4.241,0,0,0,4.842-2.661c-.518-4.852-1.975-15.5-2.017-15.8a15.874,15.874,0,0,1-3.189,1.267,9.693,9.693,0,0,1-3.711.412" transform="translate(-225.471 -198.784)" fill="#ecb78e"/>
        <path id="Trazado_873956" data-name="Trazado 873956" d="M278.418,125.839c-.808,1.225-.3,3.39.063,4.536a15.68,15.68,0,0,1,5.776-.586l-.629-1.975s4.071-2.877,4.694-3.484.333-2.423.333-2.423a17.406,17.406,0,0,0,1.653-5.137c.127-2.091-1.357-2.307-1.357-2.307H285.1c-.222,1.922,2.9,1.906,2.9,1.906l-.37,1.605c-.491-1.626-2.455-1.384-2.455-1.384s-3.8.528-4.255.983.037,1.441.037,1.441-.316,2.714.586,3.041,1.468-1.5,1.468-1.5l1.32,1.04s-4.773,2.513-5.908,4.244" transform="translate(-195.02 -52.867)" fill="#ecb78e"/>
        <path id="Trazado_873957" data-name="Trazado 873957" d="M350.611,128.08a.531.531,0,0,0,.059,0,.538.538,0,0,0,.477-.594,5.321,5.321,0,0,1,.9-3.554.538.538,0,0,0-.885-.612,6.408,6.408,0,0,0-1.085,4.284.538.538,0,0,0,.534.479" transform="translate(-295.621 -56.849)" fill="#1a2948"/>
        <path id="Trazado_873958" data-name="Trazado 873958" d="M351.176,129.077a.532.532,0,0,0,.22-.047.538.538,0,0,0,.271-.711,3.6,3.6,0,0,0-1.29-1.516.538.538,0,0,0-.592.9,2.518,2.518,0,0,1,.9,1.058.538.538,0,0,0,.491.318" transform="translate(-294.924 -58.526)" fill="#1a2948"/>
        <path id="Trazado_873959" data-name="Trazado 873959" d="M390.34,136.845a.539.539,0,0,0,.507-.718,6.411,6.411,0,0,0-2.835-3.389.538.538,0,1,0-.532.935,5.329,5.329,0,0,1,2.353,2.812.537.537,0,0,0,.507.359" transform="translate(-354.357 -61.276)" fill="#1a2948"/>
        <path id="Trazado_873960" data-name="Trazado 873960" d="M389.609,137.983h.015a.538.538,0,0,0,.524-.552,2.515,2.515,0,0,1,.352-1.344.538.538,0,1,0-.923-.553,3.607,3.607,0,0,0-.505,1.925.538.538,0,0,0,.538.524" transform="translate(-355.058 -62.479)" fill="#1a2948"/>
        <path id="Trazado_873961" data-name="Trazado 873961" d="M383.508,99.042a.538.538,0,0,0,.531-.624,6.261,6.261,0,0,1,2.57-5.988.538.538,0,0,0-.608-.888,7.287,7.287,0,0,0-3.068,5.167,8.384,8.384,0,0,1-.98-4.406.538.538,0,0,0-.506-.568.544.544,0,0,0-.568.507,9.462,9.462,0,0,0,2.219,6.613.538.538,0,0,0,.41.189" transform="translate(-346.91 -42.237)" fill="#1a2948"/>
        <path id="Trazado_873962" data-name="Trazado 873962" d="M390.064,175.6a.538.538,0,0,0,.538-.526,15.673,15.673,0,0,0-3.49-10.149.538.538,0,1,0-.832.681,14.581,14.581,0,0,1,3.246,9.443.538.538,0,0,0,.526.55h.012" transform="translate(-353.52 -76.085)" fill="#1a2948"/>
        <path id="Trazado_873963" data-name="Trazado 873963" d="M389.773,196.436a.536.536,0,0,0,.386-.163l2.931-3.013a.538.538,0,0,0-.772-.751l-2.931,3.013a.538.538,0,0,0,.386.913" transform="translate(-357.812 -88.84)" fill="#1a2948"/>
        <path id="Trazado_873964" data-name="Trazado 873964" d="M388.642,199.313a.534.534,0,0,0,.227-.051l2.8-1.3a.538.538,0,1,0-.455-.975l-2.8,1.3a.538.538,0,0,0,.228,1.026" transform="translate(-355.937 -90.958)" fill="#1a2948"/>
        <path id="Trazado_873965" data-name="Trazado 873965" d="M350.577,211.413a.538.538,0,0,0,.169-1.049,55.3,55.3,0,0,0-19.474-2.779.538.538,0,0,0,.04,1.076,54.135,54.135,0,0,1,19.1,2.726.544.544,0,0,0,.169.027" transform="translate(-284.215 -95.861)" fill="#1a2948"/>
        <path id="Trazado_873966" data-name="Trazado 873966" d="M344.665,234.182a.538.538,0,0,0,.392-.17l4.936-5.261a.538.538,0,0,0-.785-.737l-4.935,5.261a.538.538,0,0,0,.392.907" transform="translate(-290.436 -105.235)" fill="#1a2948"/>
        <path id="Trazado_873967" data-name="Trazado 873967" d="M322.185,182.589a.538.538,0,0,0,.528-.643l-1.775-8.979a.538.538,0,1,0-1.056.208l1.776,8.979a.538.538,0,0,0,.527.434" transform="translate(-249.968 -79.689)" fill="#1a2948"/>
        <path id="Trazado_873968" data-name="Trazado 873968" d="M423.054,220.442a.538.538,0,0,0,.3-.986c-2.14-1.425-5.755-1.151-7.552-.765a.538.538,0,0,0,.226,1.052c2.186-.469,5.2-.412,6.729.608a.54.54,0,0,0,.3.09" transform="translate(-402.231 -100.865)" fill="#1a2948"/>
        <path id="Trazado_873969" data-name="Trazado 873969" d="M296.563,184.492a.538.538,0,0,0,.538-.537l.014-5.8a.538.538,0,0,0-.536-.539h0a.538.538,0,0,0-.538.537l-.014,5.8a.538.538,0,0,0,.537.54Z" transform="translate(-211.527 -82.038)" fill="#1a2948"/>
        <path id="Trazado_873970" data-name="Trazado 873970" d="M289.291,124.555a.532.532,0,0,0,.28-.079.538.538,0,0,0,.179-.74c-.666-1.088-1.887-2.945-2.6-3.168-.671-.211-4.2.178-4.83.878a.538.538,0,1,0,.8.717,10.572,10.572,0,0,1,3.708-.568,13.366,13.366,0,0,1,2,2.7.54.54,0,0,0,.46.257" transform="translate(-196.793 -55.66)" fill="#1a2948"/>
        <path id="Trazado_873971" data-name="Trazado 873971" d="M284.762,121.176l.949-.507s-.57-1.068-.824-1.577a5.733,5.733,0,0,0-2.121-1.57.538.538,0,1,0-.483.962,5.968,5.968,0,0,1,1.642,1.091c.258.516.837,1.6.837,1.6" transform="translate(-192.568 -54.254)" fill="#1a2948"/>
        <path id="Trazado_873972" data-name="Trazado 873972" d="M281.577,124.768h0a.538.538,0,0,0,.534-.542,16.294,16.294,0,0,0-1-4.388.538.538,0,1,0-1.008.377,15.557,15.557,0,0,1,.932,4.018.538.538,0,0,0,.538.534" transform="translate(-187.941 -55.189)" fill="#1a2948"/>
        <path id="Trazado_873973" data-name="Trazado 873973" d="M350.677,254.544h2.432a.538.538,0,0,0,.535-.487l1.09-11.448a.537.537,0,0,0-.484-.586.53.53,0,0,0-.587.484l-1.045,10.961h-1.43l-.562-11.718a.538.538,0,0,0-1.075.051l.587,12.231a.538.538,0,0,0,.538.512" transform="translate(-297.953 -111.421)" fill="#1a2948"/>
        <path id="Trazado_873974" data-name="Trazado 873974" d="M370.482,287.734a.538.538,0,0,0,.292-.991,61.659,61.659,0,0,0-11.771-5.9.538.538,0,1,0-.376,1.008,60.607,60.607,0,0,1,11.565,5.8.537.537,0,0,0,.291.086" transform="translate(-318.931 -129.699)" fill="#1a2948"/>
        <path id="Trazado_873975" data-name="Trazado 873975" d="M337.547,287.484a.534.534,0,0,0,.352-.131,54.488,54.488,0,0,1,9.116-6.386.538.538,0,0,0-.525-.94,55.572,55.572,0,0,0-9.3,6.512.538.538,0,0,0,.352.945" transform="translate(-283.758 -129.306)" fill="#1a2948"/>
        <path id="Trazado_873976" data-name="Trazado 873976" d="M338.462,292.439a.509.509,0,0,0,.1-.01l6.557-1.265a.538.538,0,0,0-.2-1.056l-6.557,1.265a.538.538,0,0,0,.1,1.066" transform="translate(-282.516 -133.989)" fill="#1a2948"/>
        <path id="Trazado_873977" data-name="Trazado 873977" d="M384.385,255.7a.538.538,0,0,0,.108-1.065l-5.722-1.181a.538.538,0,0,0-.217,1.054l5.722,1.181a.544.544,0,0,0,.109.011" transform="translate(-343.514 -117.06)" fill="#1a2948"/>
        <path id="Trazado_873978" data-name="Trazado 873978" d="M382.368,251.4a.538.538,0,0,0,.264-1.007,13.827,13.827,0,0,0-3.774-1.642,7.268,7.268,0,0,0-4.71.567.538.538,0,0,0,.472.967,6.171,6.171,0,0,1,4.009-.482,13.008,13.008,0,0,1,3.477,1.528.535.535,0,0,0,.263.069" transform="translate(-339.195 -114.815)" fill="#1a2948"/>
        <path id="Trazado_873979" data-name="Trazado 873979" d="M377.591,246.052a.534.534,0,0,0,.345-.125,11.494,11.494,0,0,1,1.716-1.267,3.515,3.515,0,0,1,1.843-.5,5.481,5.481,0,0,1,2.7,1.254.538.538,0,0,0,.617-.881,6.487,6.487,0,0,0-3.254-1.447,4.455,4.455,0,0,0-2.426.632,12.373,12.373,0,0,0-1.883,1.38.538.538,0,0,0,.346.951" transform="translate(-343.053 -112.274)" fill="#1a2948"/>
        <path id="Trazado_873980" data-name="Trazado 873980" d="M354.679,133.325c.213.66,1.342.886,2.522.505s1.965-1.224,1.752-1.883-1.342-.886-2.522-.505-1.965,1.223-1.752,1.883" transform="translate(-304.944 -60.625)" fill="#e06f43"/>
        <path id="Trazado_873981" data-name="Trazado 873981" d="M380.038,138.744c.213.66-.572,1.5-1.752,1.883s-2.309.154-2.522-.505.571-1.5,1.752-1.883,2.309-.153,2.522.505" transform="translate(-337.375 -63.764)" fill="#e06f43"/>
        <path id="Trazado_873982" data-name="Trazado 873982" d="M366.144,134.494c1.212.506,3.392-.777,3.231-2-.1-.425-.539-.688-.927-.944a7.958,7.958,0,0,1-3.143-3.921,4.919,4.919,0,0,0,.8,5.234.933.933,0,0,0,.04,1.634" transform="translate(-320.853 -58.947)" fill="#e06f43"/>
        <path id="Trazado_873983" data-name="Trazado 873983" d="M364.5,121.385a6.343,6.343,0,0,0-4.906.636.783.783,0,0,1-1.12-.329c-.1-.307-.019-.716.557-1.21,1.344-1.152,4.753-.632,5.468.9" transform="translate(-312.5 -55.358)" fill="#1a2948"/>
        <path id="Trazado_873984" data-name="Trazado 873984" d="M358.988,126.738a1.176,1.176,0,1,0,.7-1.631,1.261,1.261,0,0,0-.7,1.631" transform="translate(-309.535 -57.761)" fill="#1a2948"/>
        <path id="Trazado_873985" data-name="Trazado 873985" d="M358.273,126.765a.538.538,0,0,0,.454-.249,2.691,2.691,0,0,1,3.813-1.23.538.538,0,1,0,.4-1,3.746,3.746,0,0,0-5.119,1.65.538.538,0,0,0,.453.828" transform="translate(-310.898 -57.215)" fill="#1a2948"/>
        <path id="Trazado_873986" data-name="Trazado 873986" d="M377.54,128.739A6.344,6.344,0,0,1,381.663,126a.782.782,0,0,0,.63-.983c-.127-.3-.455-.553-1.213-.549-1.77.011-4.005,2.636-3.539,4.266" transform="translate(-340.582 -57.491)" fill="#1a2948"/>
        <path id="Trazado_873987" data-name="Trazado 873987" d="M377.044,131.129a1.177,1.177,0,1,1-1.6-.774,1.261,1.261,0,0,1,1.6.774" transform="translate(-333.956 -60.169)" fill="#1a2948"/>
        <path id="Trazado_873988" data-name="Trazado 873988" d="M375.8,132.676a.539.539,0,0,0,.479-.291,2.691,2.691,0,0,1,3.686-1.57.538.538,0,1,0,.306-1.032,3.747,3.747,0,0,0-4.949,2.107.539.539,0,0,0,.478.785" transform="translate(-337.713 -59.827)" fill="#1a2948"/>
        <path id="Trazado_873989" data-name="Trazado 873989" d="M368.389,142.7a3.163,3.163,0,0,1-2.346,2.584l0-.011a2.341,2.341,0,0,0-2.323-1.023,3.541,3.541,0,0,0-1.571.8,3.1,3.1,0,0,1-1.134-1.308.773.773,0,0,1,.59-1.1l.141-.023,0,.006c.045.07.555.736,2.786.422,2.353-.323,2.847-1.2,2.847-1.2l.136-.02a.775.775,0,0,1,.877.876" transform="translate(-317.738 -65.503)" fill="#1a2948"/>
        <path id="Trazado_873990" data-name="Trazado 873990" d="M369.2,147.338l0,.011a5.592,5.592,0,0,1-1.032.237,4.113,4.113,0,0,1-2.866-.467,3.55,3.55,0,0,1,1.571-.8,2.341,2.341,0,0,1,2.323,1.024" transform="translate(-320.902 -67.564)" fill="#dc3d3d"/>
        <path id="Trazado_873991" data-name="Trazado 873991" d="M368.409,141.865s-.524.885-2.877,1.207c-2.232.314-2.741-.352-2.757-.427Z" transform="translate(-318.74 -65.524)" fill="#fbf5e8"/>
        <path id="Trazado_873992" data-name="Trazado 873992" d="M372.553,147.864a.133.133,0,0,1,.039-.027" transform="translate(-328.186 -68.282)" fill="#dc3d3d"/>
        <path id="Trazado_873993" data-name="Trazado 873993" d="M246.994,31.838a9.138,9.138,0,0,1-7.22-1.241c-10.359,8.187-30.22,4.151-30.7-12.805-.469-23.117,36.181-24.009,36.839-.9a17.085,17.085,0,0,1-2.778,10.092c.578,2.968,3.859,4.854,3.859,4.854" transform="translate(-114.612 0)" fill="#eaac36"/>
        <path id="Trazado_873994" data-name="Trazado 873994" d="M244.236,89.663a7.48,7.48,0,0,0-5.91,1.017c-8.48-6.7-24.739-3.4-25.131,10.482-.383,18.924,29.618,19.654,30.157.737a13.987,13.987,0,0,0-2.274-8.261c.474-2.43,3.159-3.974,3.159-3.974" transform="translate(-114.072 -40.337)" fill="#2c423e"/>
        <path id="Trazado_873995" data-name="Trazado 873995" d="M263.552,80.7a3.649,3.649,0,0,0,0-7.295,3.389,3.389,0,0,0-2.661,1.159,3.8,3.8,0,0,0-.881,2.487,3.486,3.486,0,0,0,3.542,3.649m0-6.219a2.342,2.342,0,0,1,1.844.785,2.774,2.774,0,0,1,.621,1.788,2.391,2.391,0,0,1-2.465,2.569,2.42,2.42,0,0,1-2.466-2.573,2.769,2.769,0,0,1,.62-1.786,2.344,2.344,0,0,1,1.845-.784" transform="translate(-162.124 -33.903)" fill="#1a2948"/>
        <path id="Trazado_873996" data-name="Trazado 873996" d="M282.348,80.7a3.649,3.649,0,0,0,0-7.295,3.388,3.388,0,0,0-2.661,1.159,3.8,3.8,0,0,0-.88,2.487,3.486,3.486,0,0,0,3.541,3.65m0-6.219a2.342,2.342,0,0,1,1.844.785,2.773,2.773,0,0,1,.621,1.788,2.391,2.391,0,0,1-2.465,2.569,2.42,2.42,0,0,1-2.465-2.573,2.766,2.766,0,0,1,.62-1.786,2.342,2.342,0,0,1,1.845-.784" transform="translate(-191.036 -33.903)" fill="#1a2948"/>
        <path id="Trazado_873997" data-name="Trazado 873997" d="M301.144,80.7a3.649,3.649,0,0,0,0-7.295,3.389,3.389,0,0,0-2.661,1.159,3.8,3.8,0,0,0-.88,2.487,3.486,3.486,0,0,0,3.541,3.649m0-6.219a2.42,2.42,0,0,1,2.466,2.573,2.769,2.769,0,0,1-.62,1.786,2.344,2.344,0,0,1-1.845.784,2.42,2.42,0,0,1-2.465-2.573,2.391,2.391,0,0,1,2.465-2.57" transform="translate(-219.947 -33.903)" fill="#1a2948"/>
      </g>
    </g>
  </g>
</svg>
