<svg xmlns="http://www.w3.org/2000/svg" width="90" height="90" viewBox="0 0 90 90">
  <g id="Grupo_1106578" data-name="Grupo 1106578" transform="translate(-1175.051 -2564)">
    <rect id="Rectángulo_403070" data-name="Rectángulo 403070" width="90" height="90" rx="45" transform="translate(1175.051 2564)" fill="#7bb5f2" opacity="0.859"/>
    <g id="proceso" transform="translate(1188.051 2577)">
      <path id="Trazado_876129" data-name="Trazado 876129" d="M40.94,33.605a8.219,8.219,0,0,0,0-3.21L43,29.245a10.9,10.9,0,0,0-3.025-5.085l-1.194.667a1.516,1.516,0,0,1-1.574-.037,9.159,9.159,0,0,0-1.353-.754,1.42,1.42,0,0,1-.82-1.3V21.4a11.5,11.5,0,0,0-6.066.005v1.326a1.421,1.421,0,0,1-.82,1.3,9.156,9.156,0,0,0-1.352.754,1.516,1.516,0,0,1-1.574.037l-1.188-.664A10.9,10.9,0,0,0,21,29.245l2.06,1.15a8.219,8.219,0,0,0,0,3.21L21,34.755a10.9,10.9,0,0,0,3.025,5.085l1.194-.667a1.516,1.516,0,0,1,1.574.037,9.154,9.154,0,0,0,1.352.754,1.42,1.42,0,0,1,.82,1.3V42.6a11.505,11.505,0,0,0,6.066-.005V41.265a1.42,1.42,0,0,1,.82-1.3,9.149,9.149,0,0,0,1.353-.754,1.516,1.516,0,0,1,1.574-.037l1.188.664A10.9,10.9,0,0,0,43,34.755ZM32,36.125a4,4,0,1,1,4-4A4,4,0,0,1,32,36.125Z" fill="#637399"/>
      <path id="Trazado_876130" data-name="Trazado 876130" d="M32,2A30,30,0,1,0,62,32,30,30,0,0,0,32,2Zm0,48A18,18,0,1,1,50,32,18,18,0,0,1,32,50Z" fill="#f2d891"/>
      <path id="Trazado_876131" data-name="Trazado 876131" d="M14.116,33.923A17.942,17.942,0,0,1,30,14.047V13.93l4-6L30.047,2A30,30,0,0,0,2,31.93c0,.657.029,1.307.07,1.953L8,29.93l6,4Z" fill="#7bcc8f"/>
      <path id="Trazado_876132" data-name="Trazado 876132" d="M49.884,30.007A17.942,17.942,0,0,1,34,49.883V50l-4,6,3.953,5.93A30,30,0,0,0,62,32c0-.657-.029-1.307-.07-1.953L56,34l-6-4Z" fill="#d96d6d"/>
      <path id="Trazado_876133" data-name="Trazado 876133" d="M33.993,49.884A17.942,17.942,0,0,1,14.117,34H14L8,30,2.07,33.953A30,30,0,0,0,32,62c.657,0,1.307-.029,1.953-.07L30,56l4-6Z" fill="#72a6e4"/>
      <path id="Trazado_876134" data-name="Trazado 876134" d="M20.513,30.118l1.453.811a9,9,0,0,0,0,2.143l-1.452.811a1,1,0,0,0-.479,1.131,11.909,11.909,0,0,0,3.3,5.552,1,1,0,0,0,1.177.148l1.193-.666a.524.524,0,0,1,.528-.008,10.176,10.176,0,0,0,1.5.836.426.426,0,0,1,.231.39V42.6a1,1,0,0,0,.742.966,12.758,12.758,0,0,0,3.3.438h.153a12.778,12.778,0,0,0,3.132-.442,1,1,0,0,0,.742-.966V41.265a.426.426,0,0,1,.233-.39,10.235,10.235,0,0,0,1.5-.836.525.525,0,0,1,.527.007l1.188.664a1,1,0,0,0,1.177-.148,11.906,11.906,0,0,0,3.309-5.548,1,1,0,0,0-.479-1.131l-1.454-.812a8.928,8.928,0,0,0,0-2.142l1.453-.812a1,1,0,0,0,.479-1.131,11.909,11.909,0,0,0-3.3-5.552,1,1,0,0,0-1.177-.148l-1.193.666a.531.531,0,0,1-.528.008,10.251,10.251,0,0,0-1.5-.837.425.425,0,0,1-.231-.389V21.4a1,1,0,0,0-.742-.966A12.429,12.429,0,0,0,31.842,20a12.778,12.778,0,0,0-3.132.442,1,1,0,0,0-.742.966v1.326a.424.424,0,0,1-.233.39,10.24,10.24,0,0,0-1.5.836.526.526,0,0,1-.528-.007l-1.188-.664a1,1,0,0,0-1.177.148,11.914,11.914,0,0,0-3.309,5.549,1,1,0,0,0,.479,1.131Zm3.529,3.3a7.229,7.229,0,0,1,0-2.838,1,1,0,0,0-.5-1.06l-1.352-.755a9.906,9.906,0,0,1,2.016-3.357l.522.292a2.527,2.527,0,0,0,2.621-.082,8.224,8.224,0,0,1,1.2-.672,2.42,2.42,0,0,0,1.409-2.212V22.2a10.455,10.455,0,0,1,1.9-.2,9.672,9.672,0,0,1,2.166.2v.536a2.42,2.42,0,0,0,1.408,2.212,8.206,8.206,0,0,1,1.206.672,2.524,2.524,0,0,0,2.621.081l.527-.294a9.9,9.9,0,0,1,2.011,3.36l-1.353.755a1,1,0,0,0-.5,1.061,7.22,7.22,0,0,1,0,2.836,1,1,0,0,0,.495,1.061l1.353.756a9.9,9.9,0,0,1-2.016,3.356l-.522-.292a2.529,2.529,0,0,0-2.62.082,8.191,8.191,0,0,1-1.2.671,2.421,2.421,0,0,0-1.41,2.213V41.8a10.455,10.455,0,0,1-1.9.2,10.24,10.24,0,0,1-2.166-.2v-.536a2.421,2.421,0,0,0-1.408-2.212,8.206,8.206,0,0,1-1.206-.672,2.524,2.524,0,0,0-2.621-.081l-.527.294a9.9,9.9,0,0,1-2.011-3.36l1.352-.755A1,1,0,0,0,24.042,33.419Z"/>
      <path id="Trazado_876135" data-name="Trazado 876135" d="M32,37.125a5,5,0,1,0-5-5,5,5,0,0,0,5,5Zm0-8a3,3,0,1,1-3,3,3,3,0,0,1,3-3Z"/>
      <path id="Trazado_876136" data-name="Trazado 876136" d="M32,1A31,31,0,1,0,63,32,31,31,0,0,0,32,1ZM3,32A29.034,29.034,0,0,1,29.539,3.112L32.8,8l-3.474,5.211A19.013,19.013,0,0,0,13,32c0,.046.007.09.007.136L8.555,29.168a1,1,0,0,0-1.109,0L3,32.129C3,32.086,3,32.043,3,32ZM32,15A17,17,0,1,1,15,32,17,17,0,0,1,32,15Zm0,46A29.034,29.034,0,0,1,3.112,34.461L8,31.2l5.211,3.474A19.013,19.013,0,0,0,32,51c.046,0,.09-.007.136-.007l-2.968,4.452a1,1,0,0,0,0,1.109L32.129,61C32.086,61,32.043,61,32,61ZM61,32A29.034,29.034,0,0,1,34.461,60.888L31.2,56l3.474-5.211A19.013,19.013,0,0,0,51,32c0-.046-.007-.09-.007-.136l4.452,2.968a1,1,0,0,0,1.109,0L61,31.871C61,31.914,61,31.957,61,32Zm-5,.8-5.211-3.474A19.013,19.013,0,0,0,32,13c-.046,0-.09.007-.136.007l2.968-4.452a1,1,0,0,0,0-1.109L31.871,3c.043,0,.086,0,.129,0A29.034,29.034,0,0,1,60.888,29.539Z"/>
    </g>
  </g>
</svg>
