<svg xmlns="http://www.w3.org/2000/svg" xmlns:xlink="http://www.w3.org/1999/xlink" width="420" height="215" viewBox="0 0 420 215">
  <defs>
    <clipPath id="clip-path">
      <rect id="Rectángulo_403137" data-name="Rectángulo 403137" width="420" height="215" transform="translate(895.051 796)" fill="#7bb5f2"/>
    </clipPath>
    <clipPath id="clip-path-2">
      <rect id="Rectángulo_403138" data-name="Rectángulo 403138" width="88.201" height="77.444" fill="none"/>
    </clipPath>
    <clipPath id="clip-path-3">
      <rect id="Rectángulo_403136" data-name="Rectángulo 403136" width="586.747" height="345.839" fill="none"/>
    </clipPath>
  </defs>
  <g id="Enmascarar_grupo_1099823" data-name="Enmascarar grupo 1099823" transform="translate(-895.051 -796)" clip-path="url(#clip-path)">
    <g id="Grupo_1106587" data-name="Grupo 1106587" transform="translate(-8751.383 11721.369)">
      <g id="Grupo_1106588" data-name="Grupo 1106588" transform="translate(9673.717 -10906.369)">
        <g id="Grupo_1106587-2" data-name="Grupo 1106587" transform="translate(0 0)" clip-path="url(#clip-path-2)">
          <path id="Trazado_876242" data-name="Trazado 876242" d="M9.875,57.259,20.039,13.782A12.288,12.288,0,0,1,40.408,7.615L72.979,38.157A12.287,12.287,0,0,1,68.134,58.88L25.4,71.818A12.288,12.288,0,0,1,9.875,57.259" transform="translate(11.332 5.086)" fill="#e5f0fc"/>
          <path id="Trazado_876243" data-name="Trazado 876243" d="M1.334,53.976,11.5,10.5A12.289,12.289,0,0,1,31.867,4.332L64.436,34.874A12.287,12.287,0,0,1,59.591,55.6L16.858,68.535A12.287,12.287,0,0,1,1.334,53.976Z" transform="translate(1.188 1.187)" fill="none" stroke="#000" stroke-miterlimit="10" stroke-width="2"/>
        </g>
      </g>
      <path id="Trazado_876244" data-name="Trazado 876244" d="M330.027,121.806C331.3,49.172,257.349-8.375,164.869-6.71S-3.617,55.185-4.886,127.836c-.715,40.882,22.39,76.97,59.229,100.43A71.552,71.552,0,0,1,87.6,289.334c-.018,1.039,0,2.078.012,3.134,1.041,62.6,50.382,112.261,111.2,112,64.115-.271,117.307-54.514,118.458-120.375a121.066,121.066,0,0,0-1.584-21.878c-5.868-35.5-3.8-72.283,8.287-106.754a107.345,107.345,0,0,0,6.085-33.653Z" transform="translate(9986.26 -10906.089) rotate(65)" fill="#cae1f9"/>
      <path id="Trazado_876245" data-name="Trazado 876245" d="M209.226,165.664,177.641,30.526C170.951,1.9,135.775-8.749,114.322,11.358L13.088,106.289C-8.359,126.4,0,162.183,28.149,170.7l132.826,40.214C189.113,219.436,215.917,194.3,209.226,165.664Z" transform="translate(9805.244 -10907.088)" fill="none" stroke="#000" stroke-miterlimit="10" stroke-width="2"/>
    </g>
    <g id="Grupo_1106586" data-name="Grupo 1106586" transform="translate(826.796 805.419)">
      <g id="Grupo_1106585" data-name="Grupo 1106585" clip-path="url(#clip-path-3)">
        <path id="Trazado_876158" data-name="Trazado 876158" d="M243.517,134.27H182.149a6.473,6.473,0,1,1,0-12.946h61.368a6.473,6.473,0,0,1,0,12.946" transform="translate(176.72 122.045)" fill="#c56e81"/>
        <path id="Trazado_876159" data-name="Trazado 876159" d="M270.573,195.108H198.154a7.5,7.5,0,0,1-7.093-9.655L225.646,66.242a7.411,7.411,0,0,1,7.091-5.4h72.419a7.5,7.5,0,0,1,7.093,9.657L277.666,189.714a7.416,7.416,0,0,1-7.093,5.394" transform="translate(191.888 61.208)" fill="#c56e81"/>
        <path id="Trazado_876160" data-name="Trazado 876160" d="M260.922,195.108H197.843a7.5,7.5,0,0,1-7.093-9.655L225.335,66.242a7.411,7.411,0,0,1,7.091-5.4h63.081A7.5,7.5,0,0,1,302.6,70.5L268.015,189.714a7.416,7.416,0,0,1-7.093,5.394" transform="translate(191.575 61.208)" fill="#fff"/>
        <path id="Trazado_876161" data-name="Trazado 876161" d="M272.221,134.27H195.57a6.473,6.473,0,0,1,0-12.946h76.651a6.473,6.473,0,1,1,0,12.946" transform="translate(190.221 122.045)" fill="#c56e81"/>
        <path id="Trazado_876162" data-name="Trazado 876162" d="M199.923,58.027S182.814,81.545,170.7,109.371a10.134,10.134,0,0,0,.8,9.586c4.214,6.409,15.219,4.929,19.46-1.029,0,0,32.384-44.839,31.006-46.652-.329-.431-22.043-13.249-22.043-13.249" transform="translate(170.866 58.372)" fill="#eac8ce"/>
        <path id="Trazado_876163" data-name="Trazado 876163" d="M197.964,88.117,155.534,71.05l-3.673,22.206L194.58,109.5a8.463,8.463,0,0,0,4.84.4,11.056,11.056,0,0,0-1.456-21.783" transform="translate(152.764 71.472)" fill="#eac8ce"/>
        <path id="Trazado_876164" data-name="Trazado 876164" d="M218.505,55.31l-29.371,3.775a5.577,5.577,0,0,0-4.838,6.08l18.976,82.33,63.039-.156-8.924-81.895a5.577,5.577,0,0,0-4.921-6.21Z" transform="translate(185.364 55.639)" fill="#eac8ce"/>
        <path id="Trazado_876165" data-name="Trazado 876165" d="M191.07,87.819c0-.981-5.268-21-5.268-21" transform="translate(186.906 67.216)" fill="none" stroke="#d5b2ba" stroke-miterlimit="10" stroke-width="0.844"/>
        <path id="Trazado_876166" data-name="Trazado 876166" d="M221.264,99.195h-50.8V93.462h50.8a2.867,2.867,0,0,1,0,5.733" transform="translate(171.472 94.018)" fill="#061418"/>
        <path id="Trazado_876167" data-name="Trazado 876167" d="M221.249,127.3h-72.94a8.638,8.638,0,0,1-8.321-6.321L126.861,73.819a6.541,6.541,0,0,1,6.3-8.3h67.452a5.7,5.7,0,0,1,5.508,4.247Z" transform="translate(127.37 65.911)" fill="#1c2e34"/>
        <path id="Trazado_876168" data-name="Trazado 876168" d="M158.347,85.431a6.369,6.369,0,1,1-6.369-6.369,6.369,6.369,0,0,1,6.369,6.369" transform="translate(146.475 79.532)" fill="#fff"/>
        <path id="Trazado_876169" data-name="Trazado 876169" d="M208.215,72.135s16.009,31.7,34.079,57.248c2.026,2.864,6.808,4.287,10.313,4.136,7.911-.341,11.263-8.86,8.275-15.795,0,0-25.317-58.505-28.823-59.462-.54-.148-23.843,13.873-23.843,13.873" transform="translate(209.453 58.607)" fill="#eac8ce"/>
        <path id="Trazado_876170" data-name="Trazado 876170" d="M199.1,90.651,212.86,89.59l-.429,13.775-11.915-.006Z" transform="translate(200.279 90.123)" fill="#c35f54"/>
        <path id="Trazado_876171" data-name="Trazado 876171" d="M213.808,91.612s-31.56-12.166-28.053,12.69h30.294Z" transform="translate(186.585 89.162)" fill="#c35f54"/>
        <path id="Trazado_876172" data-name="Trazado 876172" d="M253.46,85.187l-49.479,1.488.963,22.152,51.41-1.083a11.371,11.371,0,0,0-2.895-22.557" transform="translate(205.194 85.608)" fill="#eac8ce"/>
        <path id="Trazado_876173" data-name="Trazado 876173" d="M222.026,71.274,235.115,99.65,204,100.585l-.03,7.43" transform="translate(205.179 71.697)" fill="none" stroke="#d5b2ba" stroke-miterlimit="10" stroke-width="0.844"/>
        <line id="Línea_631" data-name="Línea 631" x2="6.912" y2="3.39" transform="translate(440.295 171.347)" fill="none" stroke="#d5b2ba" stroke-miterlimit="10" stroke-width="0.844"/>
        <path id="Trazado_876174" data-name="Trazado 876174" d="M197.441,41.579a6.371,6.371,0,0,1-5.191,7.328,6.3,6.3,0,0,1-7.127-5.4,6.372,6.372,0,0,1,5.191-7.328,6.3,6.3,0,0,1,7.127,5.4" transform="translate(186.146 36.322)" fill="#0b181b"/>
        <path id="Trazado_876175" data-name="Trazado 876175" d="M195.593,52.385l1.46,17.229c.5,6.05,4.379,8.973,10.142,8.425,4.921-.467,10.126-3.314,9.458-8.63l-3.563-27Z" transform="translate(196.756 42.661)" fill="#c35f54"/>
        <path id="Trazado_876176" data-name="Trazado 876176" d="M208.551,77.011h0c-9.837.857-18.633-6.463-19.624-14.736l-1.978-17.313c-1.242-10.369,5.7-19.839,15.7-21.405,10.228-1.6,21.616,5.384,23.223,15.949l1.378,13.512c1.256,12.164-6.995,22.16-18.7,23.993" transform="translate(187.916 23.467)" fill="#c35f54"/>
        <path id="Trazado_876177" data-name="Trazado 876177" d="M192.736,39.534l-.058,3.861,2.441-.112" transform="translate(193.823 39.769)" fill="none" stroke="#312220" stroke-linecap="round" stroke-linejoin="round" stroke-width="0.578"/>
        <path id="Trazado_876178" data-name="Trazado 876178" d="M199.627,34.344s-4.058,0-3.958,1.693c0,0,.1,1.147,3.635,1.079s4.427-.409,4.658-1.514-2.443-1.406-4.335-1.258" transform="translate(196.83 34.512)" fill="#0b181b"/>
        <path id="Trazado_876179" data-name="Trazado 876179" d="M191.006,34.848s3.3-.634,3.7.935c0,0,.247,1.063-2.644,1.553s-3.873.185-4.221-.662c-.4-.959,1.583-1.667,3.161-1.825" transform="translate(188.91 34.928)" fill="#0b181b"/>
        <path id="Trazado_876180" data-name="Trazado 876180" d="M195.919,38.582a4.346,4.346,0,0,1,5.227.008" transform="translate(197.084 37.907)" fill="none" stroke="#312220" stroke-linecap="round" stroke-linejoin="round" stroke-width="0.578"/>
        <path id="Trazado_876181" data-name="Trazado 876181" d="M193.243,38.937s-1.843-1.92-4.419.4" transform="translate(189.946 38.418)" fill="none" stroke="#312220" stroke-linecap="round" stroke-linejoin="round" stroke-width="0.578"/>
        <path id="Trazado_876182" data-name="Trazado 876182" d="M214.555,28.416s-4.628,5.938,4.574,13.141c0,0-1.561,14.88-3.571,18.671,0,0-18.645-3.817-27.387,2.277,0,0,.3,13,15.626,13.618,20.38.824,22.527-19.893,22.527-19.893l-4.253-10.01,6.955.947s14.134-21.351-7.905-21.351Z" transform="translate(189.29 25.969)" fill="#0b181b"/>
        <path id="Trazado_876183" data-name="Trazado 876183" d="M216.924,40.068a6.371,6.371,0,0,1-5.191,7.328,6.3,6.3,0,0,1-7.127-5.4,6.373,6.373,0,0,1,5.191-7.33,6.3,6.3,0,0,1,7.127,5.4" transform="translate(205.745 34.802)" fill="#c35f54"/>
        <path id="Trazado_876184" data-name="Trazado 876184" d="M206.726,41.016s-.7-4.614,3.679-4.555" transform="translate(207.913 36.676)" fill="none" stroke="#312220" stroke-linecap="round" stroke-linejoin="round" stroke-width="0.519"/>
        <path id="Trazado_876185" data-name="Trazado 876185" d="M218.974,36.57s-17.03,1.039-27.327.217c0,0-10.156-3.8-5.942-9.968,3.33-4.872,11.39-.9,11.39-.9s-.134-5.023,3.4-6.391c4.243-1.639,16.629-2.963,27.189,13.847Z" transform="translate(185.779 18.73)" fill="#0b181b"/>
        <path id="Trazado_876186" data-name="Trazado 876186" d="M199.056,57.244l-5.44.7s-2.429,9.091,10.192,10c13.153.951,18.34-3.914,20.88-10.409l-14.481-2.842Z" transform="translate(194.578 55.019)" fill="#c35f54"/>
        <rect id="Rectángulo_403131" data-name="Rectángulo 403131" width="18.565" height="25.097" transform="matrix(1, -0.004, 0.004, 1, 342.264, 303.103)" fill="#c35f54"/>
        <path id="Trazado_876187" data-name="Trazado 876187" d="M236.581,101.188l1.306,8a28.079,28.079,0,0,1-27.714,32.6h-8.3v70.583l-34.444.461-1.922-86.472a24.612,24.612,0,0,1,24.555-25.074Z" transform="translate(166.49 101.79)" fill="#0086ff"/>
        <path id="Trazado_876188" data-name="Trazado 876188" d="M205.259,163.033c-4.369,1.165-14.373,4.251-19.01-2.471L154.9,177.55l55.346-.365L207.779,164.7a2.021,2.021,0,0,0-2.519-1.663" transform="translate(155.817 161.516)" fill="#0b181b"/>
        <rect id="Rectángulo_403132" data-name="Rectángulo 403132" width="55.347" height="4.797" transform="matrix(1, -0.007, 0.007, 1, 310.715, 339.066)" fill="#fff"/>
        <path id="Trazado_876189" data-name="Trazado 876189" d="M173.115,167.309a.9.9,0,0,1-.363-.289,18.469,18.469,0,0,0-4.086-4.184.876.876,0,0,1,.971-1.458,19.809,19.809,0,0,1,4.533,4.612.876.876,0,0,1-1.055,1.32" transform="translate(169.278 162.194)" fill="#fff"/>
        <path id="Trazado_876190" data-name="Trazado 876190" d="M170.99,168.429a.888.888,0,0,1-.365-.289,18.491,18.491,0,0,0-4.084-4.184.875.875,0,0,1,.969-1.458,19.763,19.763,0,0,1,4.533,4.612.875.875,0,0,1-1.053,1.32" transform="translate(167.14 163.318)" fill="#fff"/>
        <path id="Trazado_876191" data-name="Trazado 876191" d="M168.865,169.546a.888.888,0,0,1-.365-.289,18.487,18.487,0,0,0-4.084-4.184.875.875,0,0,1,.969-1.458,19.815,19.815,0,0,1,4.533,4.612.875.875,0,0,1-1.053,1.32" transform="translate(165.002 164.444)" fill="#fff"/>
        <rect id="Rectángulo_403133" data-name="Rectángulo 403133" width="18.565" height="25.097" transform="matrix(1, -0.004, 0.004, 1, 390.866, 303.103)" fill="#c35f54"/>
        <path id="Trazado_876192" data-name="Trazado 876192" d="M229.284,162.143c-4.369,1.165-14.256,4.979-18.894-1.743l-31.353,16.988,55.346-.363L231.8,163.8a2.021,2.021,0,0,0-2.519-1.661" transform="translate(180.101 161.353)" fill="#0b181b"/>
        <rect id="Rectángulo_403134" data-name="Rectángulo 403134" width="55.347" height="4.797" transform="matrix(1, -0.007, 0.007, 1, 359.142, 338.741)" fill="#fff"/>
        <path id="Trazado_876193" data-name="Trazado 876193" d="M197.258,167.147a.888.888,0,0,1-.365-.289,18.49,18.49,0,0,0-4.084-4.184.875.875,0,0,1,.969-1.458,19.758,19.758,0,0,1,4.533,4.612.875.875,0,0,1-1.053,1.32" transform="translate(193.563 162.03)" fill="#fff"/>
        <path id="Trazado_876194" data-name="Trazado 876194" d="M195.131,168.267a.882.882,0,0,1-.363-.289,18.469,18.469,0,0,0-4.086-4.184.876.876,0,0,1,.971-1.458,19.757,19.757,0,0,1,4.533,4.612.876.876,0,0,1-1.055,1.32" transform="translate(191.425 163.155)" fill="#fff"/>
        <path id="Trazado_876195" data-name="Trazado 876195" d="M193.007,169.384a.882.882,0,0,1-.363-.289,18.47,18.47,0,0,0-4.086-4.184.875.875,0,0,1,.969-1.458,19.844,19.844,0,0,1,4.535,4.612.876.876,0,0,1-1.055,1.32" transform="translate(189.286 164.281)" fill="#fff"/>
        <path id="Trazado_876196" data-name="Trazado 876196" d="M260.81,101.188l1.306,8a28.08,28.08,0,0,1-27.714,32.6h-8.3v70.583l-34.444.461-1.922-86.472a24.612,24.612,0,0,1,24.555-25.074Z" transform="translate(190.863 101.79)" fill="#0086ff"/>
        <path id="Trazado_876197" data-name="Trazado 876197" d="M189.574,141.859V125.366a24.366,24.366,0,0,1,24.238-24.446l6.138-.01" transform="translate(190.701 101.51)" fill="none" stroke="#55382c" stroke-miterlimit="10" stroke-width="0.844"/>
        <path id="Trazado_876198" data-name="Trazado 876198" d="M194.777,245.824,145.365,98.993,105.6,244.039" transform="translate(106.225 99.581)" fill="none" stroke="#55382e" stroke-miterlimit="10" stroke-width="1.147"/>
        <path id="Trazado_876199" data-name="Trazado 876199" d="M298.336,245.824,248.924,98.993,209.156,244.039" transform="translate(210.399 99.581)" fill="none" stroke="#55382e" stroke-miterlimit="10" stroke-width="1.147"/>
        <rect id="Rectángulo_403135" data-name="Rectángulo 403135" width="351.094" height="9.947" transform="translate(179.281 193.237)" fill="#fff"/>
        <path id="Trazado_876200" data-name="Trazado 876200" d="M118.7,49.759h83.054a4.194,4.194,0,0,0,4.194-4.194V17.894a4.194,4.194,0,0,0-4.194-4.194H118.7a4.194,4.194,0,0,0-4.194,4.194v27.67a4.194,4.194,0,0,0,4.194,4.194" transform="translate(115.188 13.781)" fill="#fff"/>
        <line id="Línea_632" data-name="Línea 632" x1="60.772" transform="translate(244.273 41.299)" fill="none" stroke="#f1d5ce" stroke-linecap="round" stroke-linejoin="round" stroke-width="0.98"/>
        <line id="Línea_633" data-name="Línea 633" x1="20.808" transform="translate(244.477 50.883)" fill="none" stroke="#f1d5ce" stroke-linecap="round" stroke-linejoin="round" stroke-width="0.98"/>
        <path id="Trazado_876201" data-name="Trazado 876201" d="M164.113,29.284V45.593L143.325,29.284Z" transform="translate(144.177 29.458)" fill="#fff"/>
        <path id="Trazado_876202" data-name="Trazado 876202" d="M92.427,43.08,105.181,93.5l24.948,43.156-8.6,7.264L86.162,99.636,72.038,58.825Z" transform="translate(72.467 43.336)" fill="#f9b0a3"/>
        <path id="Trazado_876203" data-name="Trazado 876203" d="M105.312,89.728l22.168,6.541c2.106.614,4.094,1.458,4.732,3.536a4.356,4.356,0,0,1-.329,3.109l-.024.052a4.541,4.541,0,0,1-4.979,2.521l-18.5-2.423,2.778,4.788a2.429,2.429,0,0,1-3.352,3.39l-6.505-4.311a8.244,8.244,0,0,1-3.48-5.041l-1.113-4.9,2.626-7.264Z" transform="translate(97.283 90.261)" fill="#f9b0a3"/>
        <path id="Trazado_876204" data-name="Trazado 876204" d="M92.587,38.579l8.555,30.99L74.094,81.91l8.5-25.249Z" transform="translate(74.535 38.809)" fill="#ff9184"/>
        <path id="Trazado_876205" data-name="Trazado 876205" d="M101.131,31.854S75.144,22.282,60.067,49.705s-27.148,86.966-27.148,86.966l67.2,5.623,26.336-76.8c3.314-7.091,11.574-16.266,5.715-21.456A30.44,30.44,0,0,0,120.8,37.962Z" transform="translate(33.115 30.416)" fill="#ff9184"/>
        <line id="Línea_634" data-name="Línea 634" y1="22.256" x2="7.633" transform="translate(151.514 97.147)" fill="none" stroke="#ff6c63" stroke-miterlimit="10" stroke-width="1.02"/>
        <path id="Trazado_876206" data-name="Trazado 876206" d="M96.975,94.442l-27.3-57.8L48.431,67.866l29.846,40.905A13.628,13.628,0,0,0,89.9,114.351l56.915-2.562,7.384-9.907Z" transform="translate(48.719 36.857)" fill="#ffc1b2"/>
        <path id="Trazado_876207" data-name="Trazado 876207" d="M106.7,69.164l24.673,1.44,10.076,3.382a2.2,2.2,0,0,1-1.27,4.214l-9.923-2.658-7-.554,3,2.712a9.937,9.937,0,0,1,2.953,4.86l.421,1.611a4.29,4.29,0,0,1-2.989,5.209l-4.864,1.366a4.286,4.286,0,0,1-5.127-2.5l-1.525-3.713-4.712-2.373a14.3,14.3,0,0,1-12.641-3.079c-5.171-4.347.61-5.633,1.141-5.873s7.779-4.044,7.779-4.044" transform="translate(96.215 69.575)" fill="#ffc1b2"/>
        <path id="Trazado_876208" data-name="Trazado 876208" d="M76.207,34.516,99.585,74.56l-36.354,25.8L44.654,60.641Z" transform="translate(44.919 34.721)" fill="#ff9184"/>
        <path id="Trazado_876209" data-name="Trazado 876209" d="M48.857,57.354l11.025,19.4,6.431-4.636" transform="translate(49.147 57.695)" fill="none" stroke="#ff6c63" stroke-miterlimit="10" stroke-width="1.02"/>
        <line id="Línea_635" data-name="Línea 635" x1="14.916" y1="28.011" transform="translate(122.339 86.416)" fill="none" stroke="#ff6c63" stroke-miterlimit="10" stroke-width="1.02"/>
        <path id="Trazado_876210" data-name="Trazado 876210" d="M97.128,185.627l-2.265-44.532-20.069,3.476,5.583,46,17.243-3.292Z" transform="translate(75.239 141.934)" fill="#ffc1b2"/>
        <path id="Trazado_876211" data-name="Trazado 876211" d="M78.565,163.207s14.334,5.956,21.078-3.675l34.819,18.184-60.357.132Z" transform="translate(74.547 160.48)"/>
        <path id="Trazado_876212" data-name="Trazado 876212" d="M134.442,173.818l-60.357.132.042-5.221,60.355-.132Z" transform="translate(74.525 169.599)" fill="#fff"/>
        <path id="Trazado_876213" data-name="Trazado 876213" d="M87.335,166.9a1,1,0,0,0,.4-.319,20.621,20.621,0,0,1,4.541-4.594.945.945,0,0,0,.269-1.324.989.989,0,0,0-1.346-.253,22.09,22.09,0,0,0-5.039,5.063.938.938,0,0,0,.215,1.33.988.988,0,0,0,.957.1" transform="translate(86.488 161.199)" fill="#fff"/>
        <path id="Trazado_876214" data-name="Trazado 876214" d="M89.694,168.093a1,1,0,0,0,.4-.319,20.623,20.623,0,0,1,4.541-4.594.945.945,0,0,0,.269-1.324.986.986,0,0,0-1.346-.253,22.091,22.091,0,0,0-5.039,5.063.94.94,0,0,0,.215,1.33.988.988,0,0,0,.957.1" transform="translate(88.863 162.402)" fill="#fff"/>
        <path id="Trazado_876215" data-name="Trazado 876215" d="M92.055,169.29a1,1,0,0,0,.4-.319A20.638,20.638,0,0,1,97,164.379a.944.944,0,0,0,.269-1.324.984.984,0,0,0-1.344-.255,22.134,22.134,0,0,0-5.041,5.063.938.938,0,0,0,.215,1.33.988.988,0,0,0,.957.1" transform="translate(91.236 163.607)" fill="#fff"/>
        <path id="Trazado_876216" data-name="Trazado 876216" d="M85.811,87.787l37.473,55.793c3.952,6.916,3.677,9.292,4.2,17.241l3.9,67.307-33.024,2.229-8.3-66.822L49.19,97.634,47.142,84.421Z" transform="translate(47.422 84.923)" fill="#fff"/>
        <path id="Trazado_876217" data-name="Trazado 876217" d="M49.439,187.888l11.795-46.042-20.067,3.476L32.23,187.888l16.4,1.932Z" transform="translate(32.422 142.689)" fill="#ffc1b2"/>
        <path id="Trazado_876218" data-name="Trazado 876218" d="M34.079,163.207s14.334,5.956,21.078-3.675l34.817,18.184-60.355.132Z" transform="translate(29.796 160.48)"/>
        <path id="Trazado_876219" data-name="Trazado 876219" d="M89.956,173.818,29.6,173.95l.042-5.221L90,168.6Z" transform="translate(29.775 169.599)" fill="#fff"/>
        <path id="Trazado_876220" data-name="Trazado 876220" d="M42.848,166.9a1,1,0,0,0,.4-.319,20.621,20.621,0,0,1,4.541-4.594.945.945,0,0,0,.269-1.324.989.989,0,0,0-1.346-.253,22.09,22.09,0,0,0-5.039,5.063.936.936,0,0,0,.215,1.33.988.988,0,0,0,.957.1" transform="translate(41.737 161.199)" fill="#fff"/>
        <path id="Trazado_876221" data-name="Trazado 876221" d="M45.208,168.093a1,1,0,0,0,.4-.319,20.623,20.623,0,0,1,4.541-4.594.945.945,0,0,0,.269-1.324.986.986,0,0,0-1.346-.253,22.091,22.091,0,0,0-5.039,5.063.94.94,0,0,0,.215,1.33.988.988,0,0,0,.957.1" transform="translate(44.112 162.402)" fill="#fff"/>
        <path id="Trazado_876222" data-name="Trazado 876222" d="M47.569,169.29a1,1,0,0,0,.4-.319,20.637,20.637,0,0,1,4.541-4.592.944.944,0,0,0,.269-1.324.984.984,0,0,0-1.344-.255,22.134,22.134,0,0,0-5.041,5.063.936.936,0,0,0,.215,1.33.988.988,0,0,0,.957.1" transform="translate(46.486 163.607)" fill="#fff"/>
        <path id="Trazado_876223" data-name="Trazado 876223" d="M57.754,115.636l-.052-7.881,10.82-12.587" transform="translate(58.045 95.734)" fill="none" stroke="#e2e2e2" stroke-miterlimit="10" stroke-width="0.76"/>
        <path id="Trazado_876224" data-name="Trazado 876224" d="M37.579,83.374s-8.838,18.8,2.343,44.466c.429.983.859,1.866,1.292,2.7l4.541,38.967L30.159,232.4l34.37.409,18.547-55.342a45.39,45.39,0,0,0,1.334-8.465L83.932,97.6,92,87.893Z" transform="translate(30.338 83.87)" fill="#fff"/>
        <path id="Trazado_876225" data-name="Trazado 876225" d="M92.6,10.979S100.034,26.473,86.991,26Z" transform="translate(87.508 11.044)" fill="#0b181b"/>
        <path id="Trazado_876226" data-name="Trazado 876226" d="M82.818,22.537a6.919,6.919,0,0,0,3.539,9.089,6.846,6.846,0,0,0,8.932-3.807,6.921,6.921,0,0,0-3.538-9.089,6.848,6.848,0,0,0-8.932,3.807" transform="translate(82.747 18.316)" fill="#f1998a"/>
        <path id="Trazado_876227" data-name="Trazado 876227" d="M90.295,34.3,84.887,50.1c-1.888,5.552-6.208,7.38-11.48,5.516-4.5-1.593-8.71-5.48-6.838-10.3l9.669-24.462Z" transform="translate(66.506 20.972)" fill="#ffc1b2"/>
        <path id="Trazado_876228" data-name="Trazado 876228" d="M82.576,43.024S69.332,39.7,70.3,23.843c.3-4.995,16.425,7.053,16.425,7.053Z" transform="translate(70.665 22.765)" fill="#0b181b"/>
        <path id="Trazado_876229" data-name="Trazado 876229" d="M81.653,54.214h0c9.017,3.109,18.974-1.687,21.843-9.205l5.914-15.759c3.595-9.424-.692-19.927-9.687-23.736-9.209-3.9-21.518-.026-25.5,9.5L69.762,27.349c-4.028,11.1,1.358,22.4,11.891,26.866" transform="translate(68.831 4.034)" fill="#ffc1b2"/>
        <path id="Trazado_876230" data-name="Trazado 876230" d="M83.626,20.426l-.794,3.388-2.261-.676" transform="translate(81.05 20.547)" fill="none" stroke="#0b181b" stroke-linecap="round" stroke-linejoin="round" stroke-width="0.527"/>
        <path id="Trazado_876231" data-name="Trazado 876231" d="M81.968,12.607s3.8.949,3.31,2.515c0,0-.361,1.051-3.659.158s-4.052-1.422-4.008-2.511,2.62-.744,4.357-.162" transform="translate(78.07 12.132)" fill="#0b181b"/>
        <path id="Trazado_876232" data-name="Trazado 876232" d="M89.069,15.557s-2.941-1.366-3.689.008c0,0-.481.939,2.114,2.074s3.585,1.081,4.11.369c.594-.806-1.093-1.932-2.536-2.451" transform="translate(85.852 15.041)" fill="#0b181b"/>
        <path id="Trazado_876233" data-name="Trazado 876233" d="M84.208,20.043a1.641,1.641,0,1,0,2.13-1,1.672,1.672,0,0,0-2.13,1" transform="translate(84.596 19.049)" fill="#0b181b"/>
        <path id="Trazado_876234" data-name="Trazado 876234" d="M77.511,17.5a1.641,1.641,0,1,0,2.13-1,1.671,1.671,0,0,0-2.13,1" transform="translate(77.858 16.487)" fill="#0b181b"/>
        <path id="Trazado_876235" data-name="Trazado 876235" d="M83.265,21.513A7.722,7.722,0,1,0,93.253,17.1,7.722,7.722,0,0,0,83.265,21.513Z" transform="translate(83.234 16.674)" fill="none" stroke="#fff" stroke-miterlimit="10" stroke-width="0.49"/>
        <path id="Trazado_876236" data-name="Trazado 876236" d="M79.084,14.042a7.721,7.721,0,1,0,10.184,3.94A7.721,7.721,0,0,0,79.084,14.042Z" transform="translate(74.926 13.46)" fill="none" stroke="#fff" stroke-miterlimit="10" stroke-width="0.49"/>
        <line id="Línea_636" data-name="Línea 636" x1="6.798" y1="2.63" transform="translate(143.134 29.148)" fill="none" stroke="#fff" stroke-miterlimit="10" stroke-width="0.49"/>
        <line id="Línea_637" data-name="Línea 637" x2="2.166" y2="0.839" transform="translate(163.755 38.743)" fill="none" stroke="#fff" stroke-miterlimit="10" stroke-width="0.49"/>
        <path id="Trazado_876237" data-name="Trazado 876237" d="M77.4,22.63s1.647,3.3,7.893,3.3" transform="translate(77.858 22.765)" fill="none" stroke="#0b181b" stroke-linecap="round" stroke-linejoin="round" stroke-width="0.527"/>
        <path id="Trazado_876238" data-name="Trazado 876238" d="M70.115,8C73.852.991,80.2,3.9,80.2,3.9l0,.01c4.225-3.739,12.551-5.4,20.346-2.271,10.561,4.235,18.074,13.652,17.733,19.919s-8.547,3.051-8.547,3.051A190.084,190.084,0,0,1,87.914,16.85c-.977,4.315-3.7,10.756-11.157,8.469l-6.1,11.957S65.271,17.088,70.115,8" transform="translate(68.498 0)" fill="#0b181b"/>
        <path id="Trazado_876239" data-name="Trazado 876239" d="M65.289,16.222a6.851,6.851,0,0,0,3.5,9,6.78,6.78,0,0,0,8.846-3.769,6.855,6.855,0,0,0-3.5-9,6.781,6.781,0,0,0-8.846,3.771" transform="translate(65.118 12.005)" fill="#ffc1b2"/>
        <path id="Trazado_876240" data-name="Trazado 876240" d="M70.147,19.451s1.936-4.63-2.648-5.715" transform="translate(67.9 13.818)" fill="none" stroke="#312220" stroke-linecap="round" stroke-linejoin="round" stroke-width="0.558"/>
        <path id="Trazado_876241" data-name="Trazado 876241" d="M64.508,30.382l16.258,3.791,11.2,4.5S88.794,49.7,78.7,47.87C60.1,44.5,64.508,30.382,64.508,30.382" transform="translate(64.432 30.563)" fill="#ffc1b2"/>
        <line id="Línea_638" data-name="Línea 638" x1="586.747" transform="translate(0 344.689)" fill="none" stroke="#55382e" stroke-miterlimit="10" stroke-width="1.147"/>
      </g>
    </g>
  </g>
</svg>
