<svg xmlns="http://www.w3.org/2000/svg" width="90.914" height="90.914" viewBox="0 0 90.914 90.914">
  <g id="Grupo_1106649" data-name="Grupo 1106649" transform="translate(-807.51 -1208)">
    <g id="Grupo_1106201" data-name="Grupo 1106201" transform="translate(807.51 1208)">
      <path id="Trazado_874925" data-name="Trazado 874925" d="M45.457,0A45.457,45.457,0,0,1,90.914,45.457h0A45.457,45.457,0,0,1,0,45.457H0A45.457,45.457,0,0,1,45.457,0Z" transform="translate(0 0)" fill="#ffc2af" opacity="0.859"/>
      <path id="Trazado_874923" data-name="Trazado 874923" d="M45.457,0A45.457,45.457,0,0,1,90.914,45.457h0A45.457,45.457,0,0,1,0,45.457H0A45.457,45.457,0,0,1,45.457,0Z" transform="translate(0 0)" fill="none"/>
    </g>
    <g id="motivacion-" transform="translate(822.51 1223)">
      <g id="Grupo_1106595" data-name="Grupo 1106595" transform="translate(5.275 9.732)">
        <g id="Grupo_1106593" data-name="Grupo 1106593" transform="translate(0 32.311)">
          <path id="Trazado_876247" data-name="Trazado 876247" d="M41.4,325.787l-.754.16.872.247a1.3,1.3,0,0,1,.913.968l.162.731.162-.731a1.3,1.3,0,0,1,.913-.968l.872-.247-.754-.16a1.3,1.3,0,0,1-.992-.962L42.6,324l-.2.824A1.3,1.3,0,0,1,41.4,325.787Z" transform="translate(-40.649 -324)" fill="#ef5264"/>
        </g>
        <g id="Grupo_1106594" data-name="Grupo 1106594" transform="translate(37.014)">
          <path id="Trazado_876248" data-name="Trazado 876248" d="M326.651,76.787l-.754.16.872.247a1.3,1.3,0,0,1,.913.968l.162.731.162-.731a1.3,1.3,0,0,1,.913-.968l.872-.247-.754-.16a1.3,1.3,0,0,1-.992-.962l-.2-.824-.2.824A1.3,1.3,0,0,1,326.651,76.787Z" transform="translate(-325.897 -75)" fill="#f6b545"/>
        </g>
      </g>
      <g id="Grupo_1106602" data-name="Grupo 1106602" transform="translate(0.779 24.487)">
        <g id="Grupo_1106598" data-name="Grupo 1106598" transform="translate(0 0.47)">
          <g id="Grupo_1106596" data-name="Grupo 1106596" transform="translate(0 0)">
            <path id="Trazado_876249" data-name="Trazado 876249" d="M20.289,201.195l-8.862-8.861L6.381,197.38a1.3,1.3,0,0,0,0,1.835l7.027,7.026a1.3,1.3,0,0,0,1.835,0Z" transform="translate(-6 -192.334)" fill="#fef2a8"/>
          </g>
          <g id="Grupo_1106597" data-name="Grupo 1106597" transform="translate(0)">
            <path id="Trazado_876250" data-name="Trazado 876250" d="M9.6,197.142l3.317-3.316-1.492-1.492-5.047,5.046a1.3,1.3,0,0,0,0,1.835l7.027,7.026a1.3,1.3,0,0,0,1.835,0l.445-.445L9.6,199.711a1.817,1.817,0,0,1,0-2.569Z" transform="translate(-6.001 -192.333)" fill="#eeb6a8"/>
          </g>
        </g>
        <g id="Grupo_1106601" data-name="Grupo 1106601" transform="translate(3.476)">
          <g id="Grupo_1106599" data-name="Grupo 1106599" transform="translate(0)">
            <path id="Trazado_876251" data-name="Trazado 876251" d="M43.695,196.795l-7.708-7.707a1.3,1.3,0,0,0-1.835,0l-1.207,1.207a.519.519,0,0,0-.079.633l3.363,5.625,5.626,3.363a.519.519,0,0,0,.633-.078l1.207-1.207A1.3,1.3,0,0,0,43.695,196.795Z" transform="translate(-32.792 -188.707)" fill="#bec3c7"/>
          </g>
          <g id="Grupo_1106600" data-name="Grupo 1106600">
            <path id="Trazado_876252" data-name="Trazado 876252" d="M35.985,189.087a1.3,1.3,0,0,0-1.835,0l-1.207,1.207a.519.519,0,0,0-.079.633l.861,1.439,2.77-2.77Z" transform="translate(-32.791 -188.707)" fill="#abafb2"/>
          </g>
        </g>
      </g>
      <g id="Grupo_1106626" data-name="Grupo 1106626" transform="translate(12.263 0.779)">
        <g id="Grupo_1106612" data-name="Grupo 1106612" transform="translate(0 10.9)">
          <g id="Grupo_1106605" data-name="Grupo 1106605" transform="translate(3.976 15.233)">
            <g id="Grupo_1106603" data-name="Grupo 1106603" transform="translate(0 0)">
              <path id="Trazado_876253" data-name="Trazado 876253" d="M130.287,207.392l4.886,1.326-5.108,18.459a2.5,2.5,0,0,1-4.826-1.326Z" transform="translate(-125.149 -207.392)" fill="#b07676"/>
            </g>
            <g id="Grupo_1106604" data-name="Grupo 1106604">
              <path id="Trazado_876254" data-name="Trazado 876254" d="M127.508,225.745l4.865-17.788-2.086-.566-5.049,18.459a2.5,2.5,0,0,0,4.607,1.863h-.835A1.557,1.557,0,0,1,127.508,225.745Z" transform="translate(-125.149 -207.391)" fill="#a45775"/>
            </g>
          </g>
          <g id="Grupo_1106608" data-name="Grupo 1106608" transform="translate(0 0)">
            <g id="Grupo_1106606" data-name="Grupo 1106606">
              <path id="Trazado_876255" data-name="Trazado 876255" d="M121.686,94.174l-7.777-.028L111.679,91.4a4.173,4.173,0,0,0-6.14-.114l-10.311,10.3a2.437,2.437,0,0,0-.012,3.452,2.39,2.39,0,0,0,3.346-.032l5.082-5.079-.433,3.221a3.946,3.946,0,0,0,1.59,3.716l6.262,4.558v8.43a2.52,2.52,0,0,0,5.039,0v-8.346a5.262,5.262,0,0,0-.9-2.94l-3.186-4.729L112,98.929l9.682-.029a2.363,2.363,0,0,0,0-4.725Z" transform="translate(-94.505 -90)" fill="#b07676"/>
            </g>
            <g id="Grupo_1106607" data-name="Grupo 1106607" transform="translate(8.671 8.897)">
              <path id="Trazado_876256" data-name="Trazado 876256" d="M171.551,178.489v-7.77a1.3,1.3,0,0,0-.534-1.049l-5.728-4.169a3.946,3.946,0,0,1-1.59-3.716l.433-3.221L161.6,161.1l-.232,1.723a3.946,3.946,0,0,0,1.59,3.716l6.262,4.558v8.429a2.518,2.518,0,0,0,4.568,1.464A2.518,2.518,0,0,1,171.551,178.489Z" transform="translate(-161.328 -158.564)" fill="#a45775"/>
            </g>
          </g>
          <g id="Grupo_1106611" data-name="Grupo 1106611" transform="translate(2.546)">
            <g id="Grupo_1106609" data-name="Grupo 1106609" transform="translate(0 0)">
              <path id="Trazado_876257" data-name="Trazado 876257" d="M130.986,94.146,128.755,91.4a4.173,4.173,0,0,0-6.14-.114l-8.487,8.481,3.378,3.376,3.214-3.212-.433,3.221a3.949,3.949,0,0,0-.03.689h8.836l-.015-4.916,6.845-.021V94.164Z" transform="translate(-114.128 -90)" fill="#8bb6ef"/>
            </g>
            <g id="Grupo_1106610" data-name="Grupo 1106610">
              <path id="Trazado_876258" data-name="Trazado 876258" d="M122.615,91.29l-8.487,8.481,1.558,1.557,8.487-8.481a4.312,4.312,0,0,1,5.151-.744l-.569-.7A4.173,4.173,0,0,0,122.615,91.29Z" transform="translate(-114.128 -90)" fill="#8388ef"/>
            </g>
          </g>
        </g>
        <g id="Grupo_1106615" data-name="Grupo 1106615" transform="translate(11.881 8.994)">
          <g id="Grupo_1106613" data-name="Grupo 1106613">
            <path id="Trazado_876259" data-name="Trazado 876259" d="M189.132,81.122h0a3.071,3.071,0,0,1-3.071-3.071V75.31h4.369v4.514A1.3,1.3,0,0,1,189.132,81.122Z" transform="translate(-186.061 -75.31)" fill="#ffdecf"/>
          </g>
          <g id="Grupo_1106614" data-name="Grupo 1106614" transform="translate(0)">
            <path id="Trazado_876260" data-name="Trazado 876260" d="M187.49,77.273V75.31h-1.428v2.741a3.071,3.071,0,0,0,3.071,3.071,1.3,1.3,0,0,0,1.194-.788A3.07,3.07,0,0,1,187.49,77.273Z" transform="translate(-186.062 -75.31)" fill="#fcb497"/>
          </g>
        </g>
        <g id="Grupo_1106620" data-name="Grupo 1106620" transform="translate(9.37)">
          <g id="Grupo_1106616" data-name="Grupo 1106616" transform="translate(0 1.554)">
            <path id="Trazado_876261" data-name="Trazado 876261" d="M172.21,27.321H171.9a5.191,5.191,0,0,1-5.19-5.19v-.263a3.893,3.893,0,0,1,3.893-3.893h1.6a2.6,2.6,0,0,1,2.6,2.6v4.156A2.6,2.6,0,0,1,172.21,27.321Z" transform="translate(-166.712 -17.975)" fill="#ffdecf"/>
          </g>
          <g id="Grupo_1106617" data-name="Grupo 1106617" transform="translate(0 1.72)">
            <path id="Trazado_876262" data-name="Trazado 876262" d="M173.767,27.528h-.306a5.191,5.191,0,0,1-5.191-5.19v-.263a3.88,3.88,0,0,1,1.209-2.818,3.894,3.894,0,0,0-2.766,3.727v.263a5.191,5.191,0,0,0,5.191,5.19h.306a2.59,2.59,0,0,0,2.007-.95A2.606,2.606,0,0,1,173.767,27.528Z" transform="translate(-166.713 -19.256)" fill="#fcb497"/>
          </g>
          <g id="Grupo_1106618" data-name="Grupo 1106618">
            <path id="Trazado_876263" data-name="Trazado 876263" d="M176.807,6h-6.2a3.893,3.893,0,0,0-3.893,3.893v2.231a2.555,2.555,0,0,0,3.53-1.365l.252-.654H172.7A4.1,4.1,0,0,0,176.807,6Z" transform="translate(-166.712 -6)" fill="#d49c8d"/>
          </g>
          <g id="Grupo_1106619" data-name="Grupo 1106619">
            <path id="Trazado_876264" data-name="Trazado 876264" d="M170.995,7.687h5.449A4.089,4.089,0,0,0,176.807,6h-6.2a3.893,3.893,0,0,0-3.893,3.893v2.231a2.541,2.541,0,0,0,1.687.213V10.282A2.6,2.6,0,0,1,170.995,7.687Z" transform="translate(-166.712 -6)" fill="#c7758d"/>
          </g>
        </g>
        <g id="Grupo_1106623" data-name="Grupo 1106623" transform="translate(0 20.671)">
          <g id="Grupo_1106621" data-name="Grupo 1106621">
            <path id="Trazado_876265" data-name="Trazado 876265" d="M95.228,167.122a2.437,2.437,0,0,0-.012,3.452,2.39,2.39,0,0,0,3.346-.032l1.868-1.867L97.051,165.3Z" transform="translate(-94.505 -165.3)" fill="#ffdecf"/>
          </g>
          <g id="Grupo_1106622" data-name="Grupo 1106622">
            <path id="Trazado_876266" data-name="Trazado 876266" d="M96.785,168.679l1.824-1.822L97.051,165.3l-1.824,1.822a2.437,2.437,0,0,0-.012,3.452,2.377,2.377,0,0,0,.95.559A2.48,2.48,0,0,1,96.785,168.679Z" transform="translate(-94.505 -165.3)" fill="#fcb497"/>
          </g>
        </g>
        <g id="Grupo_1106625" data-name="Grupo 1106625" transform="translate(24.343 15.064)">
          <g id="Grupo_1106624" data-name="Grupo 1106624">
            <path id="Trazado_876267" data-name="Trazado 876267" d="M284.938,122.1l-2.838-.01v4.744l2.837-.009a2.363,2.363,0,0,0,0-4.725Z" transform="translate(-282.1 -122.088)" fill="#ffdecf"/>
          </g>
        </g>
      </g>
      <g id="Grupo_1106647" data-name="Grupo 1106647" transform="translate(0 0.528)">
        <g id="Grupo_1106630" data-name="Grupo 1106630" transform="translate(0 50.339)">
          <g id="Grupo_1106627" data-name="Grupo 1106627" transform="translate(0.779 0.779)">
            <path id="Trazado_876268" data-name="Trazado 876268" d="M6,398h6.686v8.564H6Z" transform="translate(-6.001 -398)" fill="#ef8bbd"/>
          </g>
          <g id="Grupo_1106628" data-name="Grupo 1106628" transform="translate(0.779 0.779)">
            <path id="Trazado_876269" data-name="Trazado 876269" d="M8.467,402.282V398H6v8.564h6.686V404.1h-2.4A1.817,1.817,0,0,1,8.467,402.282Z" transform="translate(-6.001 -398)" fill="#e068bd"/>
          </g>
          <g id="Grupo_1106629" data-name="Grupo 1106629">
            <path id="Trazado_876270" data-name="Trazado 876270" d="M7.464,402.121H.779A.779.779,0,0,1,0,401.343v-8.564A.779.779,0,0,1,.779,392H7.464a.779.779,0,0,1,.779.779v8.564A.779.779,0,0,1,7.464,402.121Zm-5.907-1.557H6.686v-7.007H1.557Z" transform="translate(0 -392)"/>
          </g>
        </g>
        <g id="Grupo_1106633" data-name="Grupo 1106633" transform="translate(13.036 48.003)">
          <g id="Grupo_1106631" data-name="Grupo 1106631">
            <path id="Trazado_876271" data-name="Trazado 876271" d="M100.459,374h6.686v11.679h-6.686Z" transform="translate(-100.459 -374)" fill="#a183e2"/>
          </g>
          <g id="Grupo_1106632" data-name="Grupo 1106632">
            <path id="Trazado_876272" data-name="Trazado 876272" d="M102.925,381.4V374h-2.466v11.679h6.686v-2.465h-2.4A1.817,1.817,0,0,1,102.925,381.4Z" transform="translate(-100.459 -374)" fill="#9762e2"/>
          </g>
        </g>
        <g id="Grupo_1106636" data-name="Grupo 1106636" transform="translate(25.293 43.529)">
          <g id="Grupo_1106634" data-name="Grupo 1106634">
            <path id="Trazado_876273" data-name="Trazado 876273" d="M194.918,339.516H201.6v16.153h-6.686Z" transform="translate(-194.918 -339.516)" fill="#fef2a8"/>
          </g>
          <g id="Grupo_1106635" data-name="Grupo 1106635">
            <path id="Trazado_876274" data-name="Trazado 876274" d="M197.384,351.387V339.516h-2.466v16.153H201.6V353.2h-2.4A1.817,1.817,0,0,1,197.384,351.387Z" transform="translate(-194.918 -339.516)" fill="#eeb6a8"/>
          </g>
        </g>
        <g id="Grupo_1106640" data-name="Grupo 1106640" transform="translate(36.771 29.058)">
          <g id="Grupo_1106637" data-name="Grupo 1106637" transform="translate(0.779 0.779)">
            <path id="Trazado_876275" data-name="Trazado 876275" d="M289.376,234h6.686v29.845h-6.686Z" transform="translate(-289.376 -234)" fill="#b2e7f1"/>
          </g>
          <g id="Grupo_1106638" data-name="Grupo 1106638" transform="translate(0.779 0.779)">
            <path id="Trazado_876276" data-name="Trazado 876276" d="M291.842,259.563V234h-2.466v29.845h6.686V261.38h-2.4A1.817,1.817,0,0,1,291.842,259.563Z" transform="translate(-289.376 -234)" fill="#a7adf1"/>
          </g>
          <g id="Grupo_1106639" data-name="Grupo 1106639">
            <path id="Trazado_876277" data-name="Trazado 876277" d="M290.839,259.4h-6.686a.779.779,0,0,1-.779-.779V228.779a.779.779,0,0,1,.779-.779h6.686a.779.779,0,0,1,.779.779v29.845A.779.779,0,0,1,290.839,259.4Zm-5.907-1.557h5.128V229.557h-5.128Z" transform="translate(-283.375 -228)"/>
          </g>
        </g>
        <g id="Grupo_1106643" data-name="Grupo 1106643" transform="translate(49.807 19.456)">
          <g id="Grupo_1106641" data-name="Grupo 1106641">
            <path id="Trazado_876278" data-name="Trazado 876278" d="M383.835,154h6.686v40.226h-6.686Z" transform="translate(-383.835 -154)" fill="#57ceae"/>
          </g>
          <g id="Grupo_1106642" data-name="Grupo 1106642">
            <path id="Trazado_876279" data-name="Trazado 876279" d="M386.3,189.944V154h-2.466v40.226h6.686v-2.465h-2.4A1.817,1.817,0,0,1,386.3,189.944Z" transform="translate(-383.835 -154)" fill="#71afc4"/>
          </g>
        </g>
        <g id="Grupo_1106646" data-name="Grupo 1106646" transform="translate(49.028)">
          <g id="Grupo_1106644" data-name="Grupo 1106644" transform="translate(4.122 2.345)">
            <path id="Trazado_876280" data-name="Trazado 876280" d="M409.6,30.367V22.138l7.066,4.05Z" transform="translate(-409.596 -22.138)" fill="#ef8bbd"/>
          </g>
          <g id="Grupo_1106645" data-name="Grupo 1106645" transform="translate(4.122 2.345)">
            <path id="Trazado_876281" data-name="Trazado 876281" d="M411.283,26.017V23.1l-1.687-.967v8.229l7.066-4.179-1.706-.978-2.5,1.477A.779.779,0,0,1,411.283,26.017Z" transform="translate(-409.596 -22.138)" fill="#e068bd"/>
          </g>
          <path id="Trazado_876282" data-name="Trazado 876282" d="M389.408,9.787l-6.675-3.826V4.847a.779.779,0,0,0-1.557,0v17.9h-2.564a.779.779,0,0,0-.779.779V63.75a.779.779,0,0,0,.779.779H385.3a.779.779,0,0,0,.779-.779V23.524a.779.779,0,0,0-.779-.779h-2.564V15.086l6.684-3.953A.785.785,0,0,0,389.408,9.787Zm-4.889,53.184H379.39V24.3h5.128Zm-1.786-49.695V7.756l4.74,2.717Z" transform="translate(-377.833 -4.068)"/>
        </g>
      </g>
      <g id="Grupo_1106648" data-name="Grupo 1106648" transform="translate(0.001)">
        <path id="Trazado_876283" data-name="Trazado 876283" d="M26.6,49.289H23.71a.779.779,0,1,0,0,1.557H24.7L12.44,62.925a.779.779,0,1,0,1.093,1.109L25.825,51.927v1a.779.779,0,0,0,1.557,0V50.068a.779.779,0,0,0-.779-.779Z" transform="translate(-10.625 -42.893)"/>
        <path id="Trazado_876284" data-name="Trazado 876284" d="M39.453,15.074l-7.408-.027-2-2.456a4.56,4.56,0,0,0-.75-.731v-.188a3.368,3.368,0,0,0,1.213-2.589V4.717a4.878,4.878,0,0,0,2-3.939A.779.779,0,0,0,31.734,0h-6.2a4.677,4.677,0,0,0-4.672,4.671V6.9a.778.778,0,0,0,.037.234,5.971,5.971,0,0,0,2.482,4.218h-.008V11.9a5.016,5.016,0,0,0-.619.522l-10.311,10.3a3.268,3.268,0,0,0-.9,1.746,2.06,2.06,0,0,0-1.361.6l-.71.71L8.007,24.316a2.079,2.079,0,0,0-2.937,0L3.863,25.523a1.3,1.3,0,0,0-.373,1.054L.615,29.453a2.079,2.079,0,0,0,0,2.936l7.027,7.026a2.109,2.109,0,0,0,2.937,0l2.877-2.877a1.371,1.371,0,0,0,1.053-.371l1.207-1.207a2.078,2.078,0,0,0,0-2.936l-1.463-1.463.71-.71a2.085,2.085,0,0,0,.578-1.818,3.132,3.132,0,0,0,1.338-.791l3.453-3.451-.126.939a4.716,4.716,0,0,0,.309,2.414L15.585,45.165a3.238,3.238,0,0,0,.4,2.587h-2.94a.779.779,0,0,0-.779.779V60.209a.779.779,0,0,0,.779.779h6.686a.779.779,0,0,0,.779-.779V48.794a3.275,3.275,0,0,0,1.406-1.89l4.115-14.871L28.049,33.5v8.034a3.237,3.237,0,0,0,.512,1.739H25.3a.779.779,0,0,0-.779.779V60.21a.779.779,0,0,0,.779.779h6.686a.779.779,0,0,0,.779-.779v-15.7a3.3,3.3,0,0,0,1.881-2.975V33.192a6.018,6.018,0,0,0-1.031-3.375L30.56,25.284l-.012-3.9,8.9-.027a3.141,3.141,0,0,0,0-6.282ZM22.418,6.358V4.671a3.118,3.118,0,0,1,3.115-3.114h5.331A3.332,3.332,0,0,1,27.629,4.1H25.422a.778.778,0,0,0-.727.5c-.332,1.027-1.035,2.021-2.277,1.755Zm.249,1.59a3.393,3.393,0,0,0,3.289-2.286,11.1,11.1,0,0,0,3-.184V9.083A1.884,1.884,0,0,1,26.83,10.9a4.419,4.419,0,0,1-4.163-2.952ZM27.74,12.4v1.885a.52.52,0,0,1-.519.519,2.3,2.3,0,0,1-2.292-2.292v-.369A5.861,5.861,0,0,0,27.74,12.4ZM11.281,26.171a.516.516,0,0,1,.367-.152c.057,0,.53.946.574,1a3.1,3.1,0,0,0,1.688,1.057.516.516,0,0,1-.05.673l-.71.71-2.58-2.58Zm-1.8,12.143a.519.519,0,0,1-.734,0L1.716,31.288a.52.52,0,0,1,0-.734l2.511-2.511,2.5,4.174a.776.776,0,0,0,.049,1.041.789.789,0,0,0,1.041.049l4.175,2.5Zm5.137-5.189a.52.52,0,0,1,0,.734L13.55,34.923,8.9,32.146a.777.777,0,0,0-1.021-1.021L5.107,26.481l1.064-1.064a.52.52,0,0,1,.734,0l2.013,2.013h0l3.68,3.68h0Zm1.163-6.984a1.619,1.619,0,0,1-2.256.022,1.679,1.679,0,0,1,.022-2.341l1.273-1.272,2.277,2.275Zm3.173,33.29H13.821V49.31h5.128Zm1.463-12.942a1.729,1.729,0,0,1-1.662,1.263,1.747,1.747,0,0,1-1.663-2.176l4.584-16.759a4.74,4.74,0,0,0,.437.362l2.576,1.875ZM31.207,59.431H26.078v-14.6h5.128Zm1.116-28.744a4.467,4.467,0,0,1,.765,2.505v8.346a1.742,1.742,0,0,1-1.741,1.739,1.765,1.765,0,0,1-1.741-1.739v-8.43a.779.779,0,0,0-.32-.629l-6.262-4.558a3.165,3.165,0,0,1-1.16-1.619h7.5ZM35.834,19.81l-6.068.018a.779.779,0,0,0-.776.781L29,24.745H21.774l.407-3.027a.789.789,0,0,0-1.322-.654l-2.664,2.662L15.918,21.45l7.671-7.665a3.856,3.856,0,0,0,3.633,2.578A2.079,2.079,0,0,0,29.3,14.287v-.15l1.772,2.179a.779.779,0,0,0,.6.287l4.163.015V19.81Zm3.613-.011-2.056.006V16.624l2.057.007h0a1.584,1.584,0,0,1,0,3.168Z" transform="translate(-0.008)"/>
      </g>
    </g>
  </g>
</svg>
