<svg xmlns="http://www.w3.org/2000/svg" width="90.914" height="90.914" viewBox="0 0 90.914 90.914">
  <g id="Grupo_1106763" data-name="Grupo 1106763" transform="translate(-1117.51 -1208)">
    <g id="Grupo_1106202" data-name="Grupo 1106202" transform="translate(1117.51 1208)">
      <path id="Trazado_874924" data-name="Trazado 874924" d="M45.457,0A45.457,45.457,0,0,1,90.914,45.457h0A45.457,45.457,0,0,1,0,45.457H0A45.457,45.457,0,0,1,45.457,0Z" transform="translate(0 0)" fill="#ffcaba" opacity="0.859"/>
      <rect id="Rectángulo_400907" data-name="Rectángulo 400907" width="90.914" height="90.914" rx="45.457" transform="translate(0 0)" fill="none"/>
    </g>
    <g id="Layer_21" transform="translate(1133.51 1220.017)">
      <g id="Grupo_1106762" data-name="Grupo 1106762" transform="translate(0 5.983)">
        <g id="Grupo_1106651" data-name="Grupo 1106651" transform="translate(26.585 19.936)">
          <g id="Grupo_1106650" data-name="Grupo 1106650">
            <circle id="Elipse_11659" data-name="Elipse 11659" cx="2.567" cy="2.567" r="2.567" fill="#f9d0b4"/>
          </g>
        </g>
        <g id="Grupo_1106653" data-name="Grupo 1106653" transform="translate(16.512 18.58)">
          <g id="Grupo_1106652" data-name="Grupo 1106652">
            <path id="Trazado_876285" data-name="Trazado 876285" d="M97.186,87.9a1.4,1.4,0,0,0-1.909.368L91.149,93.92,87.17,96.282a2.707,2.707,0,0,1-1.382.379h-1.1a2.707,2.707,0,0,1-1.382-.379l-4.171-2.475L75,88.157a1.4,1.4,0,0,0-1.909-.368,1.367,1.367,0,0,0-.331,1.934l4.327,5.922a1.366,1.366,0,0,0,.406.369l3.6,2.273,0,0a.6.6,0,0,1,.28.517l.057,8.331h7.4l.057-8.217a.6.6,0,0,1,.28-.517l0,0,3.6-2.273a1.366,1.366,0,0,0,.406-.369l4.327-5.922A1.367,1.367,0,0,0,97.186,87.9Z" transform="translate(-72.5 -87.561)" fill="#f9d0b4"/>
          </g>
        </g>
        <g id="Grupo_1106655" data-name="Grupo 1106655" transform="translate(46.628 19.936)">
          <g id="Grupo_1106654" data-name="Grupo 1106654">
            <circle id="Elipse_11660" data-name="Elipse 11660" cx="2.567" cy="2.567" r="2.567" fill="#f9d0b4"/>
          </g>
        </g>
        <g id="Grupo_1106657" data-name="Grupo 1106657" transform="translate(36.099 18.58)">
          <g id="Grupo_1106656" data-name="Grupo 1106656">
            <path id="Trazado_876286" data-name="Trazado 876286" d="M161,88.157a1.4,1.4,0,0,0-1.909-.368,1.366,1.366,0,0,0-.331,1.934L159.7,91l1.692-2.316Z" transform="translate(-158.5 -87.561)" fill="#f9d0b4"/>
          </g>
        </g>
        <g id="Grupo_1106659" data-name="Grupo 1106659" transform="translate(38.988 22.019)">
          <g id="Grupo_1106658" data-name="Grupo 1106658">
            <path id="Trazado_876287" data-name="Trazado 876287" d="M189.866,114.893c-1.13-3.752-.563-2.087-1.489-5.013a2.23,2.23,0,0,0-2.126-1.556h-5.772a2.707,2.707,0,0,1-1.382-.379l-4.171-2.475-2.051-2.807-1.692,2.316,1.7,2.329a1.366,1.366,0,0,0,.406.369l3.6,2.273,0,0a.6.6,0,0,1,.28.517l.057,8.331h7.4l.051-6.555a.746.746,0,0,1,1.46-.209l1.031,3.427-.65,6.967a1.4,1.4,0,0,0,1.186,1.54,1.367,1.367,0,0,0,1.53-1.229l.682-7.3A1.372,1.372,0,0,0,189.866,114.893Z" transform="translate(-171.183 -102.662)" fill="#f9d0b4"/>
          </g>
        </g>
        <g id="Grupo_1106661" data-name="Grupo 1106661" transform="translate(5.476 18.872)">
          <g id="Grupo_1106660" data-name="Grupo 1106660" transform="translate(0 0)">
            <circle id="Elipse_11661" data-name="Elipse 11661" cx="2.567" cy="2.567" r="2.567" transform="translate(0 3.63) rotate(-45)" fill="#f9d0b4"/>
          </g>
        </g>
        <g id="Grupo_1106663" data-name="Grupo 1106663" transform="translate(19.359 18.58)">
          <g id="Grupo_1106662" data-name="Grupo 1106662">
            <path id="Trazado_876288" data-name="Trazado 876288" d="M87.252,87.79a1.4,1.4,0,0,0-1.909.368l-.343.47,1.692,2.316.891-1.22A1.366,1.366,0,0,0,87.252,87.79Z" transform="translate(-85 -87.561)" fill="#f9d0b4"/>
          </g>
        </g>
        <g id="Grupo_1106665" data-name="Grupo 1106665" transform="translate(0.569 21.962)">
          <g id="Grupo_1106664" data-name="Grupo 1106664">
            <path id="Trazado_876289" data-name="Trazado 876289" d="M19.6,102.412,17.5,105.276l-4.171,2.475a2.707,2.707,0,0,1-1.382.379H6.18a2.23,2.23,0,0,0-2.126,1.556c-.926,2.927-.359,1.261-1.489,5.013a1.369,1.369,0,0,0-.06.545l.682,7.3a1.367,1.367,0,0,0,1.53,1.229,1.4,1.4,0,0,0,1.186-1.54l-.65-6.967,1.031-3.427a.746.746,0,0,1,1.46.209l.051,6.555h7.4l.057-8.331a.6.6,0,0,1,.28-.517l0,0,3.6-2.273a1.366,1.366,0,0,0,.406-.369l1.744-2.386Z" transform="translate(-2.5 -102.412)" fill="#f9d0b4"/>
          </g>
        </g>
        <g id="Grupo_1106667" data-name="Grupo 1106667" transform="translate(21.968 25.184)">
          <g id="Grupo_1106666" data-name="Grupo 1106666">
            <path id="Trazado_876290" data-name="Trazado 876290" d="M109.107,116.632l-3.44,2.041a2.707,2.707,0,0,1-1.382.379h-1.1a2.707,2.707,0,0,1-1.382-.379l-3.568-2.117L96.454,118.7l3.144,1.984,0,0a.6.6,0,0,1,.28.517l.057,8.331h7.4l.057-8.217a.6.6,0,0,1,.28-.517l0,0,3.206-2.023Z" transform="translate(-96.454 -116.556)" fill="#70d6f9"/>
          </g>
        </g>
        <g id="Grupo_1106669" data-name="Grupo 1106669" transform="translate(41.555 25.184)">
          <g id="Grupo_1106668" data-name="Grupo 1106668">
            <path id="Trazado_876291" data-name="Trazado 876291" d="M197.08,120.609a2.23,2.23,0,0,0-2.126-1.556h-5.772a2.707,2.707,0,0,1-1.382-.379l-3.568-2.117-1.779,2.139,3.144,1.984,0,0a.6.6,0,0,1,.28.517l.057,8.331h7.4l.051-6.555a.746.746,0,0,1,1.46-.209l.88,2.926,2.623-.787c-.841-2.817-.413-1.576-1.274-4.295Z" transform="translate(-182.454 -116.556)" fill="#f5c84c"/>
          </g>
        </g>
        <g id="Grupo_1106671" data-name="Grupo 1106671" transform="translate(0.85 25.184)">
          <g id="Grupo_1106670" data-name="Grupo 1106670">
            <path id="Trazado_876292" data-name="Trazado 876292" d="M17.855,116.556l-3.568,2.117a2.707,2.707,0,0,1-1.382.379H7.133a2.23,2.23,0,0,0-2.126,1.556c-.86,2.719-.433,1.477-1.274,4.3l2.623.787.88-2.926a.746.746,0,0,1,1.46.209l.051,6.555h7.4l.057-8.331a.6.6,0,0,1,.28-.517l0,0,3.144-1.984Z" transform="translate(-3.734 -116.556)" fill="#fc657e"/>
          </g>
        </g>
        <g id="Grupo_1106673" data-name="Grupo 1106673" transform="translate(25.452 38.157)">
          <g id="Grupo_1106672" data-name="Grupo 1106672">
            <path id="Trazado_876293" data-name="Trazado 876293" d="M111.75,173.517V189a1.367,1.367,0,0,0,2.733,0V177.446a.968.968,0,1,1,1.936,0V189a1.367,1.367,0,0,0,2.733,0V173.517Z" transform="translate(-111.75 -173.517)" fill="#5290db"/>
          </g>
        </g>
        <g id="Grupo_1106675" data-name="Grupo 1106675" transform="translate(45.039 38.157)">
          <g id="Grupo_1106674" data-name="Grupo 1106674">
            <path id="Trazado_876294" data-name="Trazado 876294" d="M197.75,173.517V189a1.367,1.367,0,0,0,2.733,0V177.446a.968.968,0,1,1,1.936,0V189a1.367,1.367,0,0,0,2.733,0V173.517Z" transform="translate(-197.75 -173.517)" fill="#5290db"/>
          </g>
        </g>
        <g id="Grupo_1106677" data-name="Grupo 1106677" transform="translate(5.865 38.157)">
          <g id="Grupo_1106676" data-name="Grupo 1106676">
            <path id="Trazado_876295" data-name="Trazado 876295" d="M25.75,173.517V189a1.367,1.367,0,0,0,2.733,0V177.446a.968.968,0,1,1,1.936,0V189a1.367,1.367,0,0,0,2.733,0V173.517Z" transform="translate(-25.75 -173.517)" fill="#5290db"/>
          </g>
        </g>
        <g id="Grupo_1106679" data-name="Grupo 1106679" transform="translate(25.452 52.05)">
          <g id="Grupo_1106678" data-name="Grupo 1106678">
            <path id="Trazado_876296" data-name="Trazado 876296" d="M111.75,234.517v1.594a1.367,1.367,0,0,0,2.733,0v-1.594Z" transform="translate(-111.75 -234.517)" fill="#818182"/>
          </g>
        </g>
        <g id="Grupo_1106681" data-name="Grupo 1106681" transform="translate(30.121 52.05)">
          <g id="Grupo_1106680" data-name="Grupo 1106680">
            <path id="Trazado_876297" data-name="Trazado 876297" d="M132.25,234.517v1.594a1.367,1.367,0,0,0,2.733,0v-1.594Z" transform="translate(-132.25 -234.517)" fill="#818182"/>
          </g>
        </g>
        <g id="Grupo_1106683" data-name="Grupo 1106683" transform="translate(45.039 52.05)">
          <g id="Grupo_1106682" data-name="Grupo 1106682">
            <path id="Trazado_876298" data-name="Trazado 876298" d="M197.75,234.517v1.594a1.367,1.367,0,0,0,2.733,0v-1.594Z" transform="translate(-197.75 -234.517)" fill="#818182"/>
          </g>
        </g>
        <g id="Grupo_1106685" data-name="Grupo 1106685" transform="translate(49.708 52.05)">
          <g id="Grupo_1106684" data-name="Grupo 1106684">
            <path id="Trazado_876299" data-name="Trazado 876299" d="M218.25,234.517v1.594a1.367,1.367,0,0,0,2.733,0v-1.594Z" transform="translate(-218.25 -234.517)" fill="#818182"/>
          </g>
        </g>
        <g id="Grupo_1106687" data-name="Grupo 1106687" transform="translate(10.534 52.05)">
          <g id="Grupo_1106686" data-name="Grupo 1106686">
            <path id="Trazado_876300" data-name="Trazado 876300" d="M46.25,234.517v1.594a1.367,1.367,0,0,0,2.733,0v-1.594Z" transform="translate(-46.25 -234.517)" fill="#818182"/>
          </g>
        </g>
        <g id="Grupo_1106689" data-name="Grupo 1106689" transform="translate(5.865 52.05)">
          <g id="Grupo_1106688" data-name="Grupo 1106688">
            <path id="Trazado_876301" data-name="Trazado 876301" d="M25.75,234.517v1.594a1.367,1.367,0,0,0,2.733,0v-1.594Z" transform="translate(-25.75 -234.517)" fill="#818182"/>
          </g>
        </g>
        <g id="Grupo_1106691" data-name="Grupo 1106691" transform="translate(20.775 0.569)">
          <g id="Grupo_1106690" data-name="Grupo 1106690">
            <path id="Trazado_876302" data-name="Trazado 876302" d="M107.78,15.6h-1.656a.192.192,0,0,1-.187-.152,6.457,6.457,0,0,0-.86-2.076.192.192,0,0,1,.025-.24l1.171-1.171a.191.191,0,0,0,0-.271l-1.51-1.51a.191.191,0,0,0-.271,0l-1.171,1.171a.192.192,0,0,1-.24.025,6.463,6.463,0,0,0-2.076-.86.192.192,0,0,1-.152-.187V8.674a.191.191,0,0,0-.191-.191H98.526a.191.191,0,0,0-.191.191V10.33a.192.192,0,0,1-.152.187,6.457,6.457,0,0,0-2.076.86.192.192,0,0,1-.239-.025L94.7,10.182a.191.191,0,0,0-.271,0l-1.51,1.51a.191.191,0,0,0,0,.271l1.171,1.171a.192.192,0,0,1,.025.24,6.462,6.462,0,0,0-.86,2.076.192.192,0,0,1-.187.152H91.407a.191.191,0,0,0-.191.191v2.136a.191.191,0,0,0,.191.191h1.656a.192.192,0,0,1,.187.152,6.457,6.457,0,0,0,.86,2.076.192.192,0,0,1-.025.24l-1.171,1.171a.191.191,0,0,0,0,.271l1.51,1.51a.191.191,0,0,0,.271,0l1.171-1.171a.192.192,0,0,1,.239-.025,6.462,6.462,0,0,0,2.076.86.192.192,0,0,1,.152.187v1.656a.191.191,0,0,0,.191.191h2.136a.191.191,0,0,0,.191-.191V23.391A.192.192,0,0,1,101,23.2a6.457,6.457,0,0,0,2.076-.86.192.192,0,0,1,.24.025l1.171,1.171a.191.191,0,0,0,.271,0l1.51-1.51a.191.191,0,0,0,0-.271L105.1,20.588a.192.192,0,0,1-.025-.24,6.462,6.462,0,0,0,.86-2.076.192.192,0,0,1,.187-.152h1.656a.191.191,0,0,0,.191-.191V15.793A.191.191,0,0,0,107.78,15.6Z" transform="translate(-91.216 -8.483)" fill="#dae6f1"/>
          </g>
        </g>
        <g id="Grupo_1106693" data-name="Grupo 1106693" transform="translate(24.868 4.699)">
          <g id="Grupo_1106692" data-name="Grupo 1106692">
            <circle id="Elipse_11662" data-name="Elipse 11662" cx="4.284" cy="4.284" r="4.284" fill="#70d6f9"/>
          </g>
        </g>
        <g id="Grupo_1106695" data-name="Grupo 1106695" transform="translate(36.999 44.189)">
          <g id="Grupo_1106694" data-name="Grupo 1106694">
            <path id="Trazado_876303" data-name="Trazado 876303" d="M166.629,202.016a2.527,2.527,0,0,1-2.027-1.981c0-.046-.091-.046-.091,0a2.527,2.527,0,0,1-2.027,1.981c-.046,0-.046.068,0,.091a2.527,2.527,0,0,1,2.027,1.981c0,.046.091.046.091,0a2.527,2.527,0,0,1,2.027-1.981C166.675,202.084,166.675,202.016,166.629,202.016Z" transform="translate(-162.45 -200)" fill="#f5c84c"/>
          </g>
        </g>
        <g id="Grupo_1106697" data-name="Grupo 1106697" transform="translate(11.783 13.897)">
          <g id="Grupo_1106696" data-name="Grupo 1106696">
            <path id="Trazado_876304" data-name="Trazado 876304" d="M54.667,68.415a1.774,1.774,0,0,1-1.422-1.39c0-.032-.064-.032-.064,0a1.773,1.773,0,0,1-1.422,1.39c-.032,0-.032.048,0,.064a1.774,1.774,0,0,1,1.422,1.39c0,.032.064.032.064,0a1.773,1.773,0,0,1,1.422-1.39C54.7,68.463,54.7,68.415,54.667,68.415Z" transform="translate(-51.734 -67.001)" fill="#f5c84c"/>
          </g>
        </g>
        <g id="Grupo_1106699" data-name="Grupo 1106699" transform="translate(42.932 6.518)">
          <g id="Grupo_1106698" data-name="Grupo 1106698" transform="translate(0 0)">
            <path id="Trazado_876305" data-name="Trazado 876305" d="M191.734,35.853h-.524v-.524a.734.734,0,0,0-.729-.729.719.719,0,0,0-.729.729v.524h-.524a.734.734,0,0,0-.729.729.719.719,0,0,0,.729.729h.524v.524a.734.734,0,0,0,.729.729.72.72,0,0,0,.729-.729V37.31h.524a.734.734,0,0,0,.729-.729A.719.719,0,0,0,191.734,35.853Z" transform="translate(-188.5 -34.6)" fill="#70d6f9"/>
          </g>
        </g>
        <g id="Grupo_1106701" data-name="Grupo 1106701" transform="translate(35.849 51.705)">
          <g id="Grupo_1106700" data-name="Grupo 1106700">
            <path id="Trazado_876306" data-name="Trazado 876306" d="M158.174,233a.774.774,0,1,0,.774.774A.774.774,0,0,0,158.174,233Z" transform="translate(-157.4 -233)" fill="#fc657e"/>
          </g>
        </g>
        <g id="Grupo_1106703" data-name="Grupo 1106703" transform="translate(40.176 1.826)">
          <g id="Grupo_1106702" data-name="Grupo 1106702">
            <path id="Trazado_876307" data-name="Trazado 876307" d="M177.174,14a.774.774,0,1,0,.774.774A.774.774,0,0,0,177.174,14Z" transform="translate(-176.4 -14)" fill="#87d147"/>
          </g>
        </g>
        <g id="Grupo_1106706" data-name="Grupo 1106706" transform="translate(26.016 19.367)">
          <g id="Grupo_1106705" data-name="Grupo 1106705">
            <g id="Grupo_1106704" data-name="Grupo 1106704">
              <path id="Trazado_876308" data-name="Trazado 876308" d="M117.364,91.017a3.137,3.137,0,1,0,3.137,3.137A3.141,3.141,0,0,0,117.364,91.017Zm0,5.135a2,2,0,1,1,2-2A2,2,0,0,1,117.364,96.152Z" transform="translate(-114.227 -91.017)"/>
            </g>
          </g>
        </g>
        <g id="Grupo_1106709" data-name="Grupo 1106709" transform="translate(15.942 18.013)">
          <g id="Grupo_1106708" data-name="Grupo 1106708">
            <g id="Grupo_1106707" data-name="Grupo 1106707">
              <path id="Trazado_876309" data-name="Trazado 876309" d="M96.39,86.784a1.922,1.922,0,0,0-.814-1.271,1.98,1.98,0,0,0-2.691.5l-4.06,5.555-3.879,2.3a2.139,2.139,0,0,1-1.091.3h-1.1a2.141,2.141,0,0,1-1.091-.3L77.59,91.456,73.531,85.9a1.98,1.98,0,0,0-2.691-.5,1.936,1.936,0,0,0-.469,2.739L74.7,94.06a1.9,1.9,0,0,0,.562.514l3.612,2.278a.068.068,0,0,1,.008.037l.057,8.331a.569.569,0,0,0,.569.566h7.4a.57.57,0,0,0,.569-.566L87.535,97c0-.019.006-.031,0-.028l.005,0,.01-.006,3.59-2.265a1.92,1.92,0,0,0,.575-.523l4.327-5.922a1.918,1.918,0,0,0,.346-1.468Zm-1.265.8L90.8,93.5a.815.815,0,0,1-.25.223L86.949,96a1.169,1.169,0,0,0-.553,1l-.053,7.652H80.073l-.053-7.761a1.171,1.171,0,0,0-.553-1L75.855,93.6a.791.791,0,0,1-.237-.215l-4.327-5.922a.8.8,0,0,1,.194-1.128.834.834,0,0,1,1.127.234l4.128,5.649a.572.572,0,0,0,.169.154l4.171,2.475a3.279,3.279,0,0,0,1.672.459h1.1a3.279,3.279,0,0,0,1.672-.459l3.979-2.361a.569.569,0,0,0,.169-.154L93.8,86.686a.834.834,0,0,1,1.127-.234.8.8,0,0,1,.193,1.128Z" transform="translate(-69.998 -85.073)"/>
            </g>
          </g>
        </g>
        <g id="Grupo_1106712" data-name="Grupo 1106712" transform="translate(46.059 19.367)">
          <g id="Grupo_1106711" data-name="Grupo 1106711">
            <g id="Grupo_1106710" data-name="Grupo 1106710">
              <path id="Trazado_876310" data-name="Trazado 876310" d="M205.365,91.017a3.137,3.137,0,1,0,3.137,3.137A3.14,3.14,0,0,0,205.365,91.017Zm0,5.135a2,2,0,1,1,2-2A2,2,0,0,1,205.365,96.152Z" transform="translate(-202.228 -91.017)"/>
            </g>
          </g>
        </g>
        <g id="Grupo_1106714" data-name="Grupo 1106714" transform="translate(35.529 18.013)">
          <g id="Grupo_1106713" data-name="Grupo 1106713">
            <path id="Trazado_876311" data-name="Trazado 876311" d="M159.837,86.321l-.307-.42a1.98,1.98,0,0,0-2.691-.5,1.936,1.936,0,0,0-.469,2.739l.829,1.135a.569.569,0,1,0,.919-.672l-.829-1.135a.8.8,0,0,1,.194-1.128.834.834,0,0,1,1.127.234l.307.42a.569.569,0,1,0,.919-.672Z" transform="translate(-155.997 -85.073)"/>
          </g>
        </g>
        <g id="Grupo_1106716" data-name="Grupo 1106716" transform="translate(38.518 21.602)">
          <g id="Grupo_1106715" data-name="Grupo 1106715">
            <path id="Trazado_876312" data-name="Trazado 876312" d="M188.818,113.313c-.533-1.769-.686-2.328-.8-2.735-.126-.458-.2-.734-.693-2.286a2.788,2.788,0,0,0-2.668-1.954h-5.772a2.141,2.141,0,0,1-1.091-.3l-4.071-2.416-1.871-2.56a.569.569,0,1,0-.919.672l1.94,2.654a.571.571,0,0,0,.169.154l4.171,2.475a3.279,3.279,0,0,0,1.672.459h5.772a1.654,1.654,0,0,1,1.583,1.159c.484,1.531.558,1.8.681,2.244.114.413.269.979.809,2.772a.79.79,0,0,1,.035.318l-.682,7.3a.8.8,0,0,1-.893.717.834.834,0,0,1-.689-.922l.65-6.967a.569.569,0,0,0-.022-.217l-1.031-3.427a1.311,1.311,0,0,0-1.24-.936,1.315,1.315,0,0,0-1.335,1.3l-.047,5.99h-6.272l-.053-7.762a1.169,1.169,0,0,0-.551-1l0,0-3.61-2.277a.793.793,0,0,1-.237-.215l-1.6-2.192a.569.569,0,1,0-.919.672l1.6,2.192a1.9,1.9,0,0,0,.562.514l3.6,2.273.01.006a.076.076,0,0,1,.007.035l.057,8.331a.569.569,0,0,0,.569.566h7.4a.569.569,0,0,0,.569-.565l.051-6.555a.175.175,0,0,1,.053-.125.189.189,0,0,1,.126-.05.176.176,0,0,1,.166.126l1,3.321-.64,6.856a1.939,1.939,0,0,0,1.927,2.173,1.937,1.937,0,0,0,1.923-1.756l.682-7.3a1.916,1.916,0,0,0-.082-.763Z" transform="translate(-169.121 -100.829)"/>
          </g>
        </g>
        <g id="Grupo_1106719" data-name="Grupo 1106719" transform="translate(5.973 19.367)">
          <g id="Grupo_1106718" data-name="Grupo 1106718">
            <g id="Grupo_1106717" data-name="Grupo 1106717">
              <path id="Trazado_876313" data-name="Trazado 876313" d="M29.364,91.017A3.137,3.137,0,1,0,32.5,94.154,3.141,3.141,0,0,0,29.364,91.017Zm0,5.135a2,2,0,1,1,2-2A2,2,0,0,1,29.364,96.152Z" transform="translate(-26.227 -91.017)"/>
            </g>
          </g>
        </g>
        <g id="Grupo_1106721" data-name="Grupo 1106721" transform="translate(18.855 18.013)">
          <g id="Grupo_1106720" data-name="Grupo 1106720">
            <path id="Trazado_876314" data-name="Trazado 876314" d="M86.678,86.67a1.922,1.922,0,0,0-.814-1.271,1.98,1.98,0,0,0-2.691.5l-.278.38a.569.569,0,0,0,.919.672l.278-.381a.834.834,0,0,1,1.127-.234.8.8,0,0,1,.194,1.128l-.82,1.121a.569.569,0,1,0,.919.672l.82-1.121A1.92,1.92,0,0,0,86.678,86.67Z" transform="translate(-82.786 -85.073)"/>
          </g>
        </g>
        <g id="Grupo_1106723" data-name="Grupo 1106723" transform="translate(0 21.547)">
          <g id="Grupo_1106722" data-name="Grupo 1106722">
            <path id="Trazado_876315" data-name="Trazado 876315" d="M19.584,103.013a.57.57,0,0,0-.8.124l-1.633,2.235a.811.811,0,0,1-.25.223l-3.6,2.269a1.169,1.169,0,0,0-.555,1l-.053,7.766H6.43l-.047-5.99a1.315,1.315,0,0,0-2.575-.369L2.777,113.7a.569.569,0,0,0-.022.217l.65,6.967a.834.834,0,0,1-.689.922.8.8,0,0,1-.893-.717l-.682-7.3a.807.807,0,0,1,.038-.328c.537-1.783.692-2.348.806-2.762.122-.445.2-.713.681-2.244a1.654,1.654,0,0,1,1.583-1.159h5.772a3.277,3.277,0,0,0,1.672-.459l4.171-2.475a.568.568,0,0,0,.169-.154l1.979-2.708a.569.569,0,1,0-.919-.672l-1.91,2.614-4.071,2.416a2.137,2.137,0,0,1-1.091.3H4.25a2.788,2.788,0,0,0-2.668,1.954c-.491,1.552-.567,1.828-.693,2.286-.112.407-.266.966-.8,2.725a1.925,1.925,0,0,0-.085.773l.682,7.3a1.937,1.937,0,0,0,1.923,1.756,2,2,0,0,0,.243-.015,1.981,1.981,0,0,0,1.683-2.158l-.64-6.856,1-3.321a.176.176,0,0,1,.166-.126h0a.176.176,0,0,1,.176.175L5.3,117.2a.569.569,0,0,0,.569.565h7.4a.569.569,0,0,0,.569-.566l.057-8.335a.047.047,0,0,1,.01-.033l.008,0,3.59-2.265a1.925,1.925,0,0,0,.575-.523l1.633-2.235a.569.569,0,0,0-.124-.8Z" transform="translate(0 -100.591)"/>
          </g>
        </g>
        <g id="Grupo_1106726" data-name="Grupo 1106726" transform="translate(20.206)">
          <g id="Grupo_1106725" data-name="Grupo 1106725">
            <g id="Grupo_1106724" data-name="Grupo 1106724">
              <path id="Trazado_876316" data-name="Trazado 876316" d="M105.85,13.1h-1.359a7.011,7.011,0,0,0-.707-1.706l.961-.961a.76.76,0,0,0,0-1.075l-1.51-1.51a.761.761,0,0,0-1.076,0l-.961.961A7.011,7.011,0,0,0,99.493,8.1V6.744a.762.762,0,0,0-.761-.761H96.6a.761.761,0,0,0-.761.761V8.1a7.009,7.009,0,0,0-1.706.707l-.961-.961a.761.761,0,0,0-1.076,0l-1.51,1.51a.761.761,0,0,0,0,1.076l.961.961a7.011,7.011,0,0,0-.707,1.706H89.478a.761.761,0,0,0-.761.761V16a.761.761,0,0,0,.761.761h1.359a7.011,7.011,0,0,0,.707,1.706l-.961.961a.762.762,0,0,0,0,1.076l1.51,1.51a.779.779,0,0,0,1.076,0l.961-.961a7.013,7.013,0,0,0,1.706.707v1.359a.762.762,0,0,0,.761.761h2.136a.762.762,0,0,0,.761-.761V21.758a7,7,0,0,0,1.706-.707l.961.961a.779.779,0,0,0,1.076,0l1.51-1.51a.762.762,0,0,0,0-1.076l-.961-.961a7.007,7.007,0,0,0,.707-1.706h1.359a.761.761,0,0,0,.761-.761V13.862A.761.761,0,0,0,105.85,13.1Zm-.378,2.519h-1.278a.757.757,0,0,0-.743.6,5.874,5.874,0,0,1-.785,1.893.758.758,0,0,0,.1.948l.9.9-.976.976-.9-.9a.757.757,0,0,0-.948-.1,5.869,5.869,0,0,1-1.893.785.757.757,0,0,0-.6.743v1.278h-1.38V21.46a.757.757,0,0,0-.6-.743,5.871,5.871,0,0,1-1.893-.784.757.757,0,0,0-.948.1l-.9.9-.976-.976.9-.9a.758.758,0,0,0,.1-.948,5.876,5.876,0,0,1-.785-1.893.757.757,0,0,0-.743-.6H89.855V14.24h1.278a.757.757,0,0,0,.743-.6,5.872,5.872,0,0,1,.785-1.893.758.758,0,0,0-.1-.948l-.9-.9.976-.976.9.9a.757.757,0,0,0,.948.1,5.877,5.877,0,0,1,1.893-.785.757.757,0,0,0,.6-.743V7.122h1.38V8.4a.757.757,0,0,0,.6.743,5.878,5.878,0,0,1,1.893.784.757.757,0,0,0,.948-.1l.9-.9.976.976-.9.9a.758.758,0,0,0-.1.948,5.877,5.877,0,0,1,.785,1.894.757.757,0,0,0,.743.6h1.278v1.38Z" transform="translate(-88.717 -5.983)"/>
            </g>
          </g>
        </g>
        <g id="Grupo_1106728" data-name="Grupo 1106728" transform="translate(27.141 7.739)">
          <g id="Grupo_1106727" data-name="Grupo 1106727">
            <path id="Trazado_876317" data-name="Trazado 876317" d="M123.224,40.127a.569.569,0,0,0-.805,0l-1.508,1.508-.773-.773a.569.569,0,0,0-.805.805l1.176,1.176a.57.57,0,0,0,.805,0l1.91-1.91A.569.569,0,0,0,123.224,40.127Z" transform="translate(-119.166 -39.96)"/>
          </g>
        </g>
        <g id="Grupo_1106731" data-name="Grupo 1106731" transform="translate(24.299 4.13)">
          <g id="Grupo_1106730" data-name="Grupo 1106730">
            <g id="Grupo_1106729" data-name="Grupo 1106729">
              <path id="Trazado_876318" data-name="Trazado 876318" d="M111.542,24.115a4.854,4.854,0,1,0,4.854,4.854,4.86,4.86,0,0,0-4.854-4.854Zm0,8.569a3.715,3.715,0,1,1,3.715-3.715A3.719,3.719,0,0,1,111.542,32.684Z" transform="translate(-106.688 -24.115)"/>
            </g>
          </g>
        </g>
        <g id="Grupo_1106733" data-name="Grupo 1106733" transform="translate(34.14 24.796)">
          <g id="Grupo_1106732" data-name="Grupo 1106732">
            <path id="Trazado_876319" data-name="Trazado 876319" d="M152.483,116.959l-1.578-1.9a.569.569,0,1,0-.875.728l1.578,1.9a.569.569,0,0,0,.876-.728Z" transform="translate(-149.897 -114.856)"/>
          </g>
        </g>
        <g id="Grupo_1106735" data-name="Grupo 1106735" transform="translate(21.506 24.766)">
          <g id="Grupo_1106734" data-name="Grupo 1106734">
            <path id="Trazado_876320" data-name="Trazado 876320" d="M96.9,114.853a.57.57,0,0,0-.8.074l-1.546,1.859a.569.569,0,1,0,.875.728l1.546-1.859a.569.569,0,0,0-.073-.8Z" transform="translate(-94.425 -114.721)"/>
          </g>
        </g>
        <g id="Grupo_1106737" data-name="Grupo 1106737" transform="translate(54.49 33.022)">
          <g id="Grupo_1106736" data-name="Grupo 1106736">
            <path id="Trazado_876321" data-name="Trazado 876321" d="M242.559,151.375a.57.57,0,0,0-.709-.382l-2.2.66a.569.569,0,1,0,.327,1.091l2.2-.66A.569.569,0,0,0,242.559,151.375Z" transform="translate(-239.246 -150.97)"/>
          </g>
        </g>
        <g id="Grupo_1106739" data-name="Grupo 1106739" transform="translate(41.083 24.746)">
          <g id="Grupo_1106738" data-name="Grupo 1106738">
            <path id="Trazado_876322" data-name="Trazado 876322" d="M182.889,114.766a.57.57,0,0,0-.8.074l-1.572,1.89a.569.569,0,1,0,.875.728l1.572-1.89a.569.569,0,0,0-.073-.8Z" transform="translate(-180.383 -114.634)"/>
          </g>
        </g>
        <g id="Grupo_1106741" data-name="Grupo 1106741" transform="translate(0.45 33.013)">
          <g id="Grupo_1106740" data-name="Grupo 1106740">
            <path id="Trazado_876323" data-name="Trazado 876323" d="M5.014,151.647l-2.307-.692a.569.569,0,1,0-.327,1.091l2.307.692a.569.569,0,1,0,.327-1.091Z" transform="translate(-1.974 -150.931)"/>
          </g>
        </g>
        <g id="Grupo_1106743" data-name="Grupo 1106743" transform="translate(14.522 24.76)">
          <g id="Grupo_1106742" data-name="Grupo 1106742">
            <path id="Trazado_876324" data-name="Trazado 876324" d="M66.318,116.759l-1.547-1.86a.569.569,0,0,0-.875.728l1.547,1.86a.569.569,0,0,0,.875-.728Z" transform="translate(-63.763 -114.694)"/>
          </g>
        </g>
        <g id="Grupo_1106745" data-name="Grupo 1106745" transform="translate(24.882 37.587)">
          <g id="Grupo_1106744" data-name="Grupo 1106744">
            <path id="Trazado_876325" data-name="Trazado 876325" d="M117.221,171.015a.569.569,0,0,0-.569.569v15.487a.79.79,0,0,1-.242.572.8.8,0,0,1-1.352-.572V175.513a1.537,1.537,0,0,0-3.075,0v11.559a.79.79,0,0,1-.242.572.8.8,0,0,1-1.352-.572V171.584a.569.569,0,1,0-1.139,0v15.487a1.936,1.936,0,1,0,3.872,0V175.513a.4.4,0,1,1,.8,0v11.559a1.927,1.927,0,0,0,1.877,1.935h.06a1.936,1.936,0,0,0,1.935-1.936V171.584A.569.569,0,0,0,117.221,171.015Z" transform="translate(-109.25 -171.015)"/>
          </g>
        </g>
        <g id="Grupo_1106747" data-name="Grupo 1106747" transform="translate(44.469 37.588)">
          <g id="Grupo_1106746" data-name="Grupo 1106746">
            <path id="Trazado_876326" data-name="Trazado 876326" d="M203.221,171.017a.569.569,0,0,0-.569.569v15.487a.791.791,0,0,1-.242.572.8.8,0,0,1-1.352-.572V175.515a1.537,1.537,0,0,0-3.075,0v11.559a.791.791,0,0,1-.242.572.8.8,0,0,1-1.352-.572V171.586a.569.569,0,1,0-1.139,0v15.487a1.936,1.936,0,1,0,3.872,0V175.515a.4.4,0,1,1,.8,0v11.559a1.927,1.927,0,0,0,1.877,1.935h.06a1.936,1.936,0,0,0,1.935-1.936V171.586A.569.569,0,0,0,203.221,171.017Z" transform="translate(-195.25 -171.017)"/>
          </g>
        </g>
        <g id="Grupo_1106749" data-name="Grupo 1106749" transform="translate(5.295 37.588)">
          <g id="Grupo_1106748" data-name="Grupo 1106748">
            <path id="Trazado_876327" data-name="Trazado 876327" d="M31.221,171.017a.569.569,0,0,0-.569.569v15.487a.8.8,0,1,1-1.594,0V175.515a1.537,1.537,0,0,0-3.075,0v11.559a.8.8,0,1,1-1.594,0V171.586a.569.569,0,1,0-1.139,0v15.487a1.936,1.936,0,1,0,3.872,0V175.515a.4.4,0,1,1,.8,0v11.559a1.936,1.936,0,0,0,1.935,1.936h.06a1.927,1.927,0,0,0,1.877-1.935V171.586A.569.569,0,0,0,31.221,171.017Z" transform="translate(-23.25 -171.017)"/>
          </g>
        </g>
        <g id="Grupo_1106751" data-name="Grupo 1106751" transform="translate(25.101 51.481)">
          <g id="Grupo_1106750" data-name="Grupo 1106750">
            <path id="Trazado_876328" data-name="Trazado 876328" d="M113.083,232.017h-2.306a.569.569,0,1,0,0,1.139h2.306a.569.569,0,0,0,0-1.139Z" transform="translate(-110.208 -232.017)"/>
          </g>
        </g>
        <g id="Grupo_1106753" data-name="Grupo 1106753" transform="translate(29.779 51.481)">
          <g id="Grupo_1106752" data-name="Grupo 1106752">
            <path id="Trazado_876329" data-name="Trazado 876329" d="M133.625,232.017h-2.306a.569.569,0,1,0,0,1.139h2.306a.569.569,0,1,0,0-1.139Z" transform="translate(-130.75 -232.017)"/>
          </g>
        </g>
        <g id="Grupo_1106755" data-name="Grupo 1106755" transform="translate(44.64 51.481)">
          <g id="Grupo_1106754" data-name="Grupo 1106754">
            <path id="Trazado_876330" data-name="Trazado 876330" d="M198.89,232.017h-2.32a.569.569,0,1,0,0,1.139h2.32a.569.569,0,1,0,0-1.139Z" transform="translate(-196 -232.017)"/>
          </g>
        </g>
        <g id="Grupo_1106757" data-name="Grupo 1106757" transform="translate(49.376 51.481)">
          <g id="Grupo_1106756" data-name="Grupo 1106756">
            <path id="Trazado_876331" data-name="Trazado 876331" d="M219.682,232.017h-2.32a.569.569,0,1,0,0,1.139h2.32a.569.569,0,1,0,0-1.139Z" transform="translate(-216.793 -232.017)"/>
          </g>
        </g>
        <g id="Grupo_1106759" data-name="Grupo 1106759" transform="translate(10.1 51.481)">
          <g id="Grupo_1106758" data-name="Grupo 1106758">
            <path id="Trazado_876332" data-name="Trazado 876332" d="M47.347,232.017H44.913a.569.569,0,1,0,0,1.139h2.434a.569.569,0,1,0,0-1.139Z" transform="translate(-44.344 -232.017)"/>
          </g>
        </g>
        <g id="Grupo_1106761" data-name="Grupo 1106761" transform="translate(5.445 51.481)">
          <g id="Grupo_1106760" data-name="Grupo 1106760">
            <path id="Trazado_876333" data-name="Trazado 876333" d="M26.9,232.017h-2.42a.569.569,0,1,0,0,1.139H26.9a.569.569,0,1,0,0-1.139Z" transform="translate(-23.906 -232.017)"/>
          </g>
        </g>
      </g>
    </g>
  </g>
</svg>
