<svg xmlns="http://www.w3.org/2000/svg" width="90.913" height="90.914" viewBox="0 0 90.913 90.914">
  <g id="Grupo_1106764" data-name="Grupo 1106764" transform="translate(-8989 9762)">
    <g id="Grupo_1106203" data-name="Grupo 1106203" transform="translate(8989 -9762)">
      <path id="Trazado_874924" data-name="Trazado 874924" d="M45.457,0A45.457,45.457,0,0,1,90.914,45.457h0A45.457,45.457,0,0,1,0,45.457H0A45.457,45.457,0,0,1,45.457,0Z" transform="translate(0 0)" fill="#ffcaba" opacity="0.859"/>
      <rect id="Rectángulo_400907" data-name="Rectángulo 400907" width="90.914" height="90.914" rx="45.457" transform="translate(0 0)" fill="none"/>
    </g>
    <g id="medicamento_2_" data-name="medicamento (2)" transform="translate(8984.455 -9749.999)">
      <path id="Trazado_876334" data-name="Trazado 876334" d="M33.216,159.41a26.875,26.875,0,0,0-.974,7.187l-5.164,10.328,5.164,3.1v15.492H42.57v8.262H75.62V187.764a26.886,26.886,0,0,0,9.354-28.354Z" transform="translate(-6.565 -138.914)" fill="#f1f1f0"/>
      <path id="Trazado_876335" data-name="Trazado 876335" d="M298.7,7.982l-10.571,4.162,4.541,11.532,10.571-4.162A6.2,6.2,0,1,0,298.7,7.982Z" transform="translate(-234.051 -6.58)" fill="#74d0e3"/>
      <path id="Trazado_876336" data-name="Trazado 876336" d="M328.475,20.77a6.166,6.166,0,0,0-1.882-2.557,6.2,6.2,0,0,1-3.68,7.5l-9.839,3.874,1.333,3.387,10.571-4.162A6.2,6.2,0,0,0,328.475,20.77Z" transform="translate(-255.788 -15.872)" fill="#53aad4"/>
      <path id="Trazado_876337" data-name="Trazado 876337" d="M84.263,6.909l10.571,4.158L90.293,22.588,79.722,18.43A6.192,6.192,0,1,1,84.263,6.909Z" transform="translate(-49.017 -5.645)" fill="#fad55a"/>
      <path id="Trazado_876338" data-name="Trazado 876338" d="M81.2,30.5a6.2,6.2,0,0,1-3.842-6.788,6.2,6.2,0,0,0,2.36,9.887l10.571,4.162,1.255-3.188Z" transform="translate(-49.017 -20.662)" fill="#fead5a"/>
      <path id="Trazado_876339" data-name="Trazado 876339" d="M187.009,336.784c-7.187-7.316-13.47-.538-8.262,5.358,3.021,3.42,8.262,8.262,8.262,8.262s5.242-4.842,8.262-8.262C200.478,336.246,194.2,329.468,187.009,336.784Z" transform="translate(-137.06 -290.704)" fill="#f5577e"/>
      <path id="Trazado_876340" data-name="Trazado 876340" d="M180.961,341.672c-2.094-2.371-2.329-4.884-1.395-6.567-2.914.9-3.968,4.785-.819,8.351,3.021,3.42,8.262,8.262,8.262,8.262s.845-.78,2.051-1.935C188.154,348.94,183.667,344.736,180.961,341.672Z" transform="translate(-137.061 -292.018)" fill="#ce384f"/>
      <path id="Trazado_876341" data-name="Trazado 876341" d="M214.761,209.177c-4.3-4.373-8.051-.322-4.939,3.2,1.806,2.044,4.939,4.939,4.939,4.939s3.133-2.894,4.939-4.939C222.813,208.855,219.057,204.8,214.761,209.177Z" transform="translate(-164.813 -180.622)" fill="#f5577e"/>
      <path id="Trazado_876342" data-name="Trazado 876342" d="M211.777,210.792A3.762,3.762,0,0,1,210.7,207.5c-2.028.291-2.9,2.8-.879,5.078,1.806,2.044,4.939,4.939,4.939,4.939s.847-.783,1.914-1.821C216.309,215.354,213.464,212.7,211.777,210.792Z" transform="translate(-164.813 -180.819)" fill="#ce384f"/>
      <path id="Trazado_876343" data-name="Trazado 876343" d="M231.721,88.091c-2.529-2.575-4.74-.189-2.908,1.886,1.063,1.2,2.908,2.908,2.908,2.908s1.845-1.7,2.908-2.908C236.461,87.9,234.25,85.516,231.721,88.091Z" transform="translate(-181.772 -75.788)" fill="#f5577e"/>
      <path id="Trazado_876344" data-name="Trazado 876344" d="M230.331,88.954a2.2,2.2,0,0,1-.625-1.967c-1.451-.111-2.2,1.522-.893,3,1.063,1.2,2.908,2.908,2.908,2.908s.591-.546,1.3-1.238C232.5,91.168,231.171,89.9,230.331,88.954Z" transform="translate(-181.773 -75.798)" fill="#ce384f"/>
      <path id="Trazado_876345" data-name="Trazado 876345" d="M36.006,187.986h-9.36V173.462a.968.968,0,0,0-.47-.83l-4.4-2.637,4.763-9.526a.968.968,0,0,0,.1-.433,25.976,25.976,0,0,1,.753-6.218H47.011a.968.968,0,1,0,0-1.936H26.651a.968.968,0,0,0-.933.71,27.884,27.884,0,0,0-1.008,7.215l-5.063,10.125a.968.968,0,0,0,.368,1.263l4.694,2.816v14.944a.968.968,0,0,0,.968.968h9.36v7.294a.968.968,0,0,0,1.936,0v-8.262A.968.968,0,0,0,36.006,187.986Z" transform="translate(0 -132.353)"/>
      <path id="Trazado_876346" data-name="Trazado 876346" d="M297.425,152.591a.968.968,0,0,0-.933-.71H270.774a.968.968,0,0,0,0,1.936h24.971a25.919,25.919,0,0,1-9.2,26.623.969.969,0,0,0-.372.763v16.014a.968.968,0,0,0,1.936,0V181.67a27.856,27.856,0,0,0,9.319-29.079Z" transform="translate(-218.083 -132.353)"/>
      <path id="Trazado_876347" data-name="Trazado 876347" d="M285.208,17.451a.977.977,0,0,0,1.256.546l10.571-4.162A7.165,7.165,0,0,0,291.785.5L281.214,4.663a.968.968,0,0,0-.546,1.256ZM292.494,2.3a5.229,5.229,0,1,1,3.831,9.73l-9.67,3.807-3.831-9.73Z" transform="translate(-227.489 0)"/>
      <path id="Trazado_876348" data-name="Trazado 876348" d="M72.816,13.838,83.387,18a.977.977,0,0,0,1.256-.546L89.183,5.922a.968.968,0,0,0-.546-1.256L78.066.5a7.165,7.165,0,0,0-5.25,13.334Zm-2.24-8.583a5.194,5.194,0,0,1,2.779-2.879,5.247,5.247,0,0,1,4-.07l9.67,3.808L83.2,15.843l-9.67-3.807A5.234,5.234,0,0,1,70.576,5.255Z" transform="translate(-42.465 -0.002)"/>
      <path id="Trazado_876349" data-name="Trazado 876349" d="M190.026,327.339c-2-1.863-5.681-2.051-9.591,1.506-3.911-3.557-7.591-3.369-9.591-1.506-1.966,1.832-2.39,5.459.6,8.848,3.019,3.418,8.116,8.134,8.331,8.333a.977.977,0,0,0,1.314,0c.216-.2,5.313-4.915,8.331-8.333C192.416,332.8,191.992,329.171,190.026,327.339Zm-2.055,7.566c-2.326,2.634-6.04,6.172-7.537,7.578-1.5-1.407-5.21-4.944-7.537-7.578-2.174-2.461-2.015-4.957-.734-6.149a3.1,3.1,0,0,1,2.157-.79c1.487,0,3.386.827,5.424,2.9a.978.978,0,0,0,1.381,0c3.25-3.309,6.149-3.444,7.581-2.111C189.986,329.949,190.145,332.444,187.971,334.906Z" transform="translate(-130.486 -284.109)"/>
      <path id="Trazado_876350" data-name="Trazado 876350" d="M202.176,200.587c-1.313,1.223-1.62,3.619.334,5.832,1.817,2.058,4.878,4.89,5.008,5.009a.977.977,0,0,0,1.314,0c.129-.12,3.19-2.951,5.008-5.009,1.954-2.212,1.647-4.608.334-5.832-1.283-1.2-3.575-1.384-6,.667C205.751,199.2,203.459,199.392,202.176,200.587ZM212.853,202c.627.584.669,1.848-.465,3.133-1.258,1.424-3.2,3.3-4.213,4.253-1.009-.954-2.955-2.828-4.213-4.253-1.135-1.285-1.093-2.548-.465-3.133a1.46,1.46,0,0,1,1.018-.36,4.486,4.486,0,0,1,2.97,1.61.978.978,0,0,0,1.381,0C210.615,201.473,212.159,201.358,212.853,202Z" transform="translate(-158.226 -174.021)"/>
      <path id="Trazado_876351" data-name="Trazado 876351" d="M221.491,84.006c1.083,1.227,2.9,2.907,2.977,2.978a.977.977,0,0,0,1.314,0c.077-.071,1.893-1.752,2.977-2.978,1.319-1.493,1.084-3.137.17-3.989-.841-.784-2.284-.967-3.8.174-1.519-1.141-2.962-.958-3.8-.174C220.407,80.869,220.172,82.513,221.491,84.006Zm1.15-2.572a.471.471,0,0,1,.329-.11,2.341,2.341,0,0,1,1.464.834.978.978,0,0,0,1.381,0c.8-.811,1.519-.979,1.793-.724.223.208.193.73-.3,1.29-.63.713-1.56,1.623-2.182,2.218-.622-.595-1.553-1.505-2.182-2.218C222.448,82.165,222.418,81.642,222.641,81.435Z" transform="translate(-175.176 -69.177)"/>
    </g>
  </g>
</svg>
