<svg xmlns="http://www.w3.org/2000/svg" xmlns:xlink="http://www.w3.org/1999/xlink" width="339" height="244" viewBox="0 0 339 244">
  <defs>
    <clipPath id="clip-path">
      <path id="Trazado_873467" data-name="Trazado 873467" d="M17.313,113.515A102.578,102.578,0,1,0,119.892,10.939,102.579,102.579,0,0,0,17.313,113.515" transform="translate(-17.313 -10.939)" fill="#98604e"/>
    </clipPath>
    <clipPath id="clip-path-2">
      <rect id="Rectángulo_35929" data-name="Rectángulo 35929" width="291" height="242" rx="10" transform="translate(0.25 0)" fill="#2c423e"/>
    </clipPath>
    <clipPath id="clip-path-3">
      <rect id="Rectángulo_401432" data-name="Rectángulo 401432" width="239.159" height="248.581" fill="none"/>
    </clipPath>
  </defs>
  <g id="Grupo_1106352" data-name="Grupo 1106352" transform="translate(-210.051 -1036)">
    <rect id="Rectángulo_403004" data-name="Rectángulo 403004" width="339" height="244" transform="translate(210.051 1036)" fill="#fd9f81"/>
    <g id="Grupo_1099531" data-name="Grupo 1099531" transform="translate(233.8 1038)">
      <g id="Grupo_1099530" data-name="Grupo 1099530" transform="translate(0)">
        <g id="Grupo_1099525" data-name="Grupo 1099525" transform="translate(55.789 18.424)">
          <g id="Grupo_1099433" data-name="Grupo 1099433" clip-path="url(#clip-path)">
            <path id="Trazado_873461" data-name="Trazado 873461" d="M226.9,50.045,188.356,11.5,152.07,47.791,115.578,11.3,77.446,49.43,39.725,11.709,5.65,45.785,0,40.135,39.725.41,77.446,38.129,115.578,0,152.07,36.49,188.356.2,226.9,38.746,263.023,2.621l5.652,5.647Z" transform="translate(-40.151 -25.369)" fill="#98604e"/>
            <path id="Trazado_873462" data-name="Trazado 873462" d="M226.9,66.84,188.356,28.3,152.07,64.584l-36.492-36.49L77.446,66.226,39.725,28.5,5.65,62.582,0,56.931,39.725,17.206,77.446,54.927,115.578,16.8,152.07,53.287,188.356,17,226.9,55.541l36.126-36.126,5.652,5.647Z" transform="translate(-40.151 -3.214)" fill="#98604e"/>
            <path id="Trazado_873463" data-name="Trazado 873463" d="M226.9,83.636,188.356,45.1,152.07,81.381l-36.492-36.49L77.446,83.021,39.725,45.3,5.65,79.378,0,73.726,39.725,34,77.446,71.722,115.578,33.59,152.07,70.082,188.356,33.8,226.9,72.337l36.126-36.126,5.652,5.649Z" transform="translate(-40.151 18.942)" fill="#98604e"/>
            <path id="Trazado_873464" data-name="Trazado 873464" d="M226.9,100.432,188.356,61.89,152.07,98.175l-36.492-36.49L77.446,99.817,39.725,62.094,5.65,96.171,0,90.522,39.725,50.8,77.446,88.518l38.132-38.132L152.07,86.879l36.286-36.288L226.9,89.133,263.023,53l5.652,5.65Z" transform="translate(-40.151 41.099)" fill="#98604e"/>
            <path id="Trazado_873465" data-name="Trazado 873465" d="M226.9,117.227,188.356,78.685,152.07,114.97l-36.492-36.49L77.446,116.612,39.725,78.891,5.65,112.969,0,107.319,39.725,67.592l37.721,37.721,38.132-38.132,36.492,36.492,36.286-36.286L226.9,105.93,263.023,69.8l5.652,5.649Z" transform="translate(-40.151 63.254)" fill="#98604e"/>
            <path id="Trazado_873466" data-name="Trazado 873466" d="M226.9,134.022l-38.542-38.54L152.07,131.768l-36.492-36.49L77.446,133.408,39.725,95.686,5.65,129.764,0,124.112,39.725,84.388l37.721,37.721,38.132-38.132,36.492,36.492,36.286-36.286,38.542,38.54L263.023,86.6l5.652,5.649Z" transform="translate(-40.151 85.41)" fill="#98604e"/>
          </g>
        </g>
        <g id="Enmascarar_grupo_1098695" data-name="Enmascarar grupo 1098695" clip-path="url(#clip-path-2)">
          <g id="Grupo_1099757" data-name="Grupo 1099757" transform="translate(26.17 7.977)">
            <g id="Grupo_1099756" data-name="Grupo 1099756" clip-path="url(#clip-path-3)">
              <path id="Trazado_874032" data-name="Trazado 874032" d="M158.539,180.434a176.359,176.359,0,0,1,8.084-20.908c4.283-8.629,11.177-11.271,15.81-10.094a11.18,11.18,0,0,1,6.322,4.308l10.326,14.366s-2.86,3.838-9.21,21.207c-11.727,1.079-22.089-2.651-31.331-8.88" transform="translate(-148.139 27.924)" fill="#b16860"/>
              <path id="Trazado_874033" data-name="Trazado 874033" d="M197.015,214.811c-10.21.712-20.459.927-30.718.916a292.423,292.423,0,0,1,9.485-40.223c9.242,6.228,19.6,9.959,31.331,8.88-.544,1.488-1.11,3.062-1.706,4.754-2.373,6.746-5.166,15.189-8.392,25.673" transform="translate(-165.382 32.854)" fill="#b57567"/>
              <path id="Trazado_874034" data-name="Trazado 874034" d="M46.583,142c.926-6.2,2.566-9.01,2.566-9.01.5-2.376,1.5-3.671,1.543-8.2.015-1.8-.066-3.957-1.093-5.377-5.7-7.872-14.668.667-14.668.667s1.638-14.128-1.288-13.705-3.125,18.271-3.125,18.271a126.691,126.691,0,0,0,.036,13.33l-1.252,4.74" transform="translate(153.68 19.913)" fill="#b57567"/>
              <path id="Trazado_874035" data-name="Trazado 874035" d="M37.4,134.421a.248.248,0,0,0,.189-.084c.408-.455,9.942-11.169,9.035-14.753a1.6,1.6,0,0,0-1.1-1.289c-1.971-.541-5.621,3.055-5.775,3.208a.254.254,0,1,0,.357.361c.995-.989,3.866-3.465,5.282-3.08a1.122,1.122,0,0,1,.74.925c.842,3.325-8.822,14.181-8.918,14.29a.253.253,0,0,0,.188.423" transform="translate(148.379 22.134)" fill="#503a33"/>
              <path id="Trazado_874036" data-name="Trazado 874036" d="M39.484,127.666a.263.263,0,0,0,.137-.039.255.255,0,0,0,.078-.351,11.6,11.6,0,0,0-5.355-4.308.254.254,0,0,0-.172.478,11.274,11.274,0,0,1,5.1,4.1.256.256,0,0,0,.215.118" transform="translate(159.053 23.016)" fill="#503a33"/>
              <path id="Trazado_874037" data-name="Trazado 874037" d="M32.948,125.5a2.814,2.814,0,0,0,2.283-1.877,8.509,8.509,0,0,0-.946-8.43.254.254,0,1,0-.4.318,7.983,7.983,0,0,1,.881,7.9c-.553,1.192-1.366,1.657-1.955,1.575-.484-.063-.832-.478-.949-1.141a.246.246,0,0,0-.294-.2.252.252,0,0,0-.207.293,1.712,1.712,0,0,0,1.384,1.555,1.588,1.588,0,0,0,.2.012" transform="translate(165.951 21.547)" fill="#503a33"/>
              <path id="Trazado_874038" data-name="Trazado 874038" d="M36.33,124.2a2.4,2.4,0,0,0,2.081-1.768,6.089,6.089,0,0,0-2.284-7.789.253.253,0,0,0-.345.095.256.256,0,0,0,.094.347,5.5,5.5,0,0,1,2.065,7.156c-.525,1.292-1.407,1.616-1.994,1.377-.73-.3-1.127-1.435-.476-3.04,1.026-2.524-1.527-5.037-1.637-5.143a.254.254,0,0,0-.353.364c.024.024,2.416,2.382,1.52,4.587-.813,2-.178,3.323.755,3.7a1.526,1.526,0,0,0,.576.112" transform="translate(160.511 21.455)" fill="#503a33"/>
              <path id="Trazado_874039" data-name="Trazado 874039" d="M31,125.718a1.836,1.836,0,0,0,1.34-.705,6.714,6.714,0,0,0,1.216-5.133.243.243,0,0,0-.285-.217.254.254,0,0,0-.217.286,6.281,6.281,0,0,1-1.092,4.727,1.512,1.512,0,0,1-.979.534c-1.029-.023-1.084-1.3-1.085-1.356a.245.245,0,0,0-.261-.246.254.254,0,0,0-.246.262c.02.628.378,1.821,1.581,1.847Z" transform="translate(170.631 22.4)" fill="#503a33"/>
              <path id="Trazado_874040" data-name="Trazado 874040" d="M59.955,169.694c1.559,2.5,2.471,4.06,2.471,4.06l13.375-41.2-.113-2.573a131.208,131.208,0,0,1,16.218,2.852c.488,11.378,2.639,63.342-12.172,75.582-15.764,13.029-35.931-6.24-47.456-20.27,10.884-3.032,20.808-9.15,27.677-18.451" transform="translate(108.541 24.332)" fill="#b57567"/>
              <path id="Trazado_874041" data-name="Trazado 874041" d="M63.216,132.431c11.559,3.7,27.194,27.226,33.17,36.8-6.87,9.3-16.794,15.419-27.678,18.451a142.713,142.713,0,0,1-9.187-12.436Z" transform="translate(72.11 24.791)" fill="#b16860"/>
              <path id="Trazado_874042" data-name="Trazado 874042" d="M188.312,176.361s4.859,27.224,4.818,41.335H85.165c.208-4.277.659-8.234.965-11.04A228.568,228.568,0,0,0,87,183.551c-15.586-4.378-24.571-18.136-24.571-18.136s7.852-21.488,20.609-27.879,34.28-10.422,34.28-10.422c27.061-4.3,44.937-1.207,60.865,1.222,18.571,2.83,34.061,30.345,34.061,30.345-8.6,14.244-23.93,17.681-23.93,17.681" transform="translate(-47.196 23.393)" fill="#b26c4a"/>
              <path id="Trazado_874043" data-name="Trazado 874043" d="M196.882,177.223c.919.311.387,5,.387,5s-16.075,1.585-29.787-17.425c0,0-.6-5,5.7-6.024,0,0,9.855,13.766,23.7,18.453" transform="translate(-157.08 29.721)" fill="#e28279"/>
              <path id="Trazado_874044" data-name="Trazado 874044" d="M58.493,169.9c-.875.294.924,5,.924,5s15.164,1.878,28.469-16.878c0,0,.662-4.986-5.277-6.127,0,0-10.945,13.571-24.116,18.005" transform="translate(82.092 28.435)" fill="#e28279"/>
              <path id="Trazado_874045" data-name="Trazado 874045" d="M97.954,206.55H97.14a91.5,91.5,0,0,0,19.04-21.923.258.258,0,1,1,.438.272A91.951,91.951,0,0,1,97.954,206.55" transform="translate(7.176 34.539)" fill="#d49a2c"/>
              <path id="Trazado_874046" data-name="Trazado 874046" d="M91.877,205.759a82.982,82.982,0,0,0,8.091-16.851.257.257,0,1,1,.487.167,83.449,83.449,0,0,1-7.973,16.684Z" transform="translate(29.614 35.33)" fill="#d49a2c"/>
              <path id="Trazado_874047" data-name="Trazado 874047" d="M111.469,133.5a3.689,3.689,0,0,1,2.262-6.1,201.978,201.978,0,0,1,20.208-1.927c5.788-.152,12.644-.14,17.726-.1a5.132,5.132,0,0,1,4.387,7.754c-2.942,4.853-8.659,10.333-19.576,10.948A30.363,30.363,0,0,1,111.469,133.5" transform="translate(-48.861 23.465)" fill="#e28279"/>
              <path id="Trazado_874048" data-name="Trazado 874048" d="M77.464,217.606c3.264-9.081,15.438-42.893,18.733-51.13,0,0-.476-29.691-2.861-36.845a46.819,46.819,0,0,1,10.879-2.251s3.19,21.448,3.667,35.756c0,0,32.67-1.908,43.164-2.384,0,0-1.68-28.632-3.112-35.31a68.422,68.422,0,0,1,8.922.85s5.16,14.189,5.874,34.7c0,0,19.078,43.88,22.894,47.7l.914,8.921Z" transform="translate(-39.345 23.483)" fill="#18257b"/>
              <path id="Trazado_874049" data-name="Trazado 874049" d="M130.384,196.243c22.183-1.789,22.082-26.507,22.08-26.757a.283.283,0,0,0-.087-.2.332.332,0,0,0-.2-.08c-18.042.354-48,2.129-48.3,2.146a.291.291,0,0,0-.2.106.3.3,0,0,0-.059.224c.043.254,4.3,24.647,24.626,24.647.7,0,1.412-.029,2.149-.088m21.508-26.464c-.057,2.742-1.181,24.256-21.556,25.9-20.349,1.637-25.526-20.853-26.109-23.78,3.272-.191,30.623-1.774,47.665-2.12" transform="translate(-36.305 31.675)" fill="#e28279"/>
              <path id="Trazado_874050" data-name="Trazado 874050" d="M144.48,161.948l11.772-1.6a3.1,3.1,0,0,0,2.658-3.5l-.154-1.141a3.112,3.112,0,0,0-3.5-2.657l-11.772,1.6a3.109,3.109,0,0,0-2.658,3.5l.157,1.14a3.105,3.105,0,0,0,3.07,2.688,3.246,3.246,0,0,0,.427-.028m13.713-6.166.154,1.142a2.536,2.536,0,0,1-2.173,2.858l-11.772,1.6a2.536,2.536,0,0,1-2.86-2.173l-.154-1.14a2.538,2.538,0,0,1,2.173-2.859l11.772-1.605a2.6,2.6,0,0,1,.345-.024,2.543,2.543,0,0,1,2.514,2.2" transform="translate(-86.935 28.645)" fill="#e28279"/>
              <path id="Trazado_874051" data-name="Trazado 874051" d="M152.2,163.8a4.292,4.292,0,1,1-4.293-4.293A4.293,4.293,0,0,1,152.2,163.8" transform="translate(-83.545 29.859)" fill="#e28279"/>
              <path id="Trazado_874052" data-name="Trazado 874052" d="M98.3,156.721l11.883-.015a3.108,3.108,0,0,0,3.1-3.109v-1.152a3.1,3.1,0,0,0-3.1-3.1h0l-11.881.014a3.1,3.1,0,0,0-3.1,3.11v1.15a3.107,3.107,0,0,0,3.1,3.1Zm11.89-.3h0Zm1.781-5.772a2.525,2.525,0,0,1,.747,1.8v1.15a2.543,2.543,0,0,1-2.536,2.544l-11.883.014h0a2.541,2.541,0,0,1-2.538-2.537v-1.152a2.537,2.537,0,0,1,2.537-2.542l11.881-.014h0a2.523,2.523,0,0,1,1.791.741" transform="translate(12.857 27.957)" fill="#e28279"/>
              <path id="Trazado_874053" data-name="Trazado 874053" d="M107.4,160.134a4.292,4.292,0,1,1-3.679-4.828,4.291,4.291,0,0,1,3.679,4.828" transform="translate(14.368 29.066)" fill="#e28279"/>
              <path id="Trazado_874054" data-name="Trazado 874054" d="M189.739,23.734c0,12.646-10.744,22.9-24,22.9s-24-10.253-24-22.9,10.744-22.9,24-22.9,24,10.251,24,22.9" transform="translate(-118.856 0.157)" fill="#503a33"/>
              <ellipse id="Elipse_11522" data-name="Elipse 11522" cx="24.421" cy="23.3" rx="24.421" ry="23.3" transform="translate(21.143 0.261)" fill="none" stroke="#503a33" stroke-linecap="round" stroke-linejoin="round" stroke-width="0.438"/>
              <path id="Trazado_874055" data-name="Trazado 874055" d="M108.238,27.191s-31.264-.44-33.905,22.018,6.165,25.981,1.762,31.7-13.652,12.33-11.01,21.577S72.13,113.94,69.929,120.1s-3.083,8.807-1.321,14.091c0,0,18.933,6.606,29.944,4.4l1.321-12.77,3.522,12.329a88.535,88.535,0,0,0,46.237,1.321c25.1-6.165,40.511-3.522,49.317-10.128l-4.4-18.055,9.247,15.853s3.194,2.2,18.165-3.963c0,0,5.283-8.917,2.642-18.824-3.3-12.391-7.927-10.019-9.247-20.147s-.4-23.5-12.439-33.687c-11.449-9.688-5.285-15.411-12.33-25.1s-41.392-15.851-68.253-2.2" transform="translate(-62.895 2.865)" fill="#503a33"/>
              <path id="Trazado_874056" data-name="Trazado 874056" d="M82.076,96.32l-.49-19.31s14.394-11,20.463,5.4S90.869,105.15,82.076,96.32" transform="translate(38.986 13.74)" fill="#b57567"/>
              <path id="Trazado_874057" data-name="Trazado 874057" d="M95.283,115.871c.159,0,.318,0,.476-.01a11.637,11.637,0,0,0,4.192-22.286.605.605,0,0,0-.488,1.108,10.427,10.427,0,1,1-14.3,12.073.6.6,0,1,0-1.174.291,11.672,11.672,0,0,0,11.294,8.824" transform="translate(32.551 17.508)" fill="#e19e2c"/>
              <path id="Trazado_874058" data-name="Trazado 874058" d="M186.768,100.645l-5.656-18.469s-17.14-5.867-17.694,11.614,17.812,18.017,23.35,6.855" transform="translate(-141.605 15.206)" fill="#b57567"/>
              <path id="Trazado_874059" data-name="Trazado 874059" d="M168.174,118.514A11.63,11.63,0,0,0,179.551,104.5a.605.605,0,0,0-1.185.247,10.427,10.427,0,1,1-18.131-4.636.6.6,0,0,0-.919-.787,11.632,11.632,0,0,0,8.858,19.193" transform="translate(-126.48 18.553)" fill="#e19e2c"/>
              <path id="Trazado_874060" data-name="Trazado 874060" d="M139.79,127.967a55.28,55.28,0,0,0,7.162-2.645l-.232-12.277-31.27,2.415.056,12.355c8,2.336,16.786,2.574,24.283.152" transform="translate(-44.857 21.162)" fill="#b16860"/>
              <path id="Trazado_874061" data-name="Trazado 874061" d="M139.632,126.031c-7.5,2.422-16.286,2.184-24.283-.152l.036,7.656c11.8,8.822,26.364,5.655,31.531-3.668l-.121-6.481a55.284,55.284,0,0,1-7.162,2.645" transform="translate(-44.699 23.098)" fill="#b57567"/>
              <path id="Trazado_874062" data-name="Trazado 874062" d="M188.52,49.327s1.339,20.605,1.82,45.036c.388,19.779-15.052,39.436-39.17,41.462-22.668,1.9-46.422-6.79-54.1-38.49S93.9,39.482,122.654,31.862s57.6-6.939,65.866,17.465" transform="translate(-62.491 5.162)" fill="#b57567"/>
              <path id="Trazado_874063" data-name="Trazado 874063" d="M123.818,40.79c-.127-.17-.211-.264-.211-.264s.076.1.211.264" transform="translate(-31.406 7.586)" fill="#503a33"/>
              <path id="Trazado_874064" data-name="Trazado 874064" d="M145.484,76.869s-3.952-4.346,4.123-10.029,10.972-4.518,12.35-1.781c1.257,2.5-.544,6.312-5.13,9.385-5.505,3.687-9.2,4.928-11.344,2.425" transform="translate(-94.76 11.754)" fill="#503a33"/>
              <path id="Trazado_874065" data-name="Trazado 874065" d="M119.953,72.456s2.84-5.144-6.329-8.8S101.9,61.79,101.2,64.774c-.646,2.721,1.989,6.016,7.161,7.945,6.208,2.315,10.084,2.668,11.6-.262" transform="translate(-1.234 11.532)" fill="#503a33"/>
              <path id="Trazado_874066" data-name="Trazado 874066" d="M181.894,100.476a.349.349,0,0,1-.328-.489c.037-.085,3.611-8.551-2.32-12.346a7.758,7.758,0,0,0-6.065-1.317,9.652,9.652,0,0,0-5.333,4.078.351.351,0,0,1-.6-.357,10.21,10.21,0,0,1,5.77-4.4,8.43,8.43,0,0,1,6.609,1.407c6.433,4.116,2.624,13.123,2.585,13.214a.35.35,0,0,1-.315.211" transform="translate(-142.701 15.996)" fill="#503a33"/>
              <path id="Trazado_874067" data-name="Trazado 874067" d="M167.592,92.9a.35.35,0,0,1-.221-.627c.057-.045,5.848-4.442,10.288-.161a.35.35,0,1,1-.486.5c-4.007-3.863-9.321.17-9.374.211a.348.348,0,0,1-.208.072" transform="translate(-137.15 16.892)" fill="#503a33"/>
              <path id="Trazado_874068" data-name="Trazado 874068" d="M130.147,93.357a.35.35,0,0,1-.158-.666,9.451,9.451,0,0,0,4-3.893c.938-1.985.578-4.935-.751-6.189a2.468,2.468,0,0,0-3.086-.128c-.039.021-.1.058-.182.107-4.26,2.583-6.225,1.5-7.123.128-1.648-2.511-.642-22.594-.524-24.875a.358.358,0,0,1,.369-.331.351.351,0,0,1,.331.369c-.323,6.137-.879,22.491.408,24.454,1.06,1.615,3.138,1.5,6.176-.343.093-.056.163-.1.208-.123a3.152,3.152,0,0,1,3.9.234c1.552,1.461,1.975,4.731.906,7a10,10,0,0,1-4.33,4.225.345.345,0,0,1-.144.034" transform="translate(-40.784 10.766)" fill="#503a33"/>
              <path id="Trazado_874069" data-name="Trazado 874069" d="M137.615,99.041a10.583,10.583,0,0,0,.825-3.3,53.325,53.325,0,0,0-16.47-2.564,14.671,14.671,0,0,0,.284,3.763,40.364,40.364,0,0,1,15.361,2.1" transform="translate(-44.058 17.443)"/>
              <path id="Trazado_874070" data-name="Trazado 874070" d="M122.643,96.361c.571,2.746,2.168,6.077,6.546,6.622,5.4.672,7.768-2.1,8.815-4.526a40.364,40.364,0,0,0-15.361-2.1" transform="translate(-44.447 18.027)" fill="#7c3645"/>
              <path id="Trazado_874071" data-name="Trazado 874071" d="M89.276,94.682a.354.354,0,0,0,.128-.072.35.35,0,0,0,.027-.5c-.062-.069-6.137-6.965-1.713-12.444A7.749,7.749,0,0,1,93.052,78.5,9.661,9.661,0,0,1,99.4,80.676a.35.35,0,0,0,.458-.529A10.2,10.2,0,0,0,93,77.8a8.426,8.426,0,0,0-5.822,3.429c-4.8,5.944,1.672,13.279,1.737,13.352a.349.349,0,0,0,.366.1" transform="translate(37.787 14.559)" fill="#503a33"/>
              <path id="Trazado_874072" data-name="Trazado 874072" d="M98.847,84.526a.35.35,0,0,0,.011-.665c-.069-.024-6.955-2.359-9.809,3.109a.35.35,0,1,0,.62.324c2.576-4.934,8.894-2.793,8.957-2.771a.352.352,0,0,0,.221,0" transform="translate(34.396 15.602)" fill="#503a33"/>
              <path id="Trazado_874073" data-name="Trazado 874073" d="M164.651,97.393c-.6,3.338-6.147,5.138-12.4,4.022s-10.836-4.727-10.24-8.066,6.147-5.139,12.4-4.022,10.834,4.727,10.238,8.066" transform="translate(-94.08 16.66)" fill="#b16860"/>
              <path id="Trazado_874074" data-name="Trazado 874074" d="M99.226,96.586c.869,3.278,6.549,4.616,12.686,2.988s10.411-5.6,9.542-8.88-6.55-4.616-12.688-2.988-10.409,5.6-9.54,8.88" transform="translate(-0.074 16.289)" fill="#b16860"/>
              <path id="Trazado_874075" data-name="Trazado 874075" d="M139.726,87.414s-.342-7.046,5.283-8.093,7.606,5.694,7.606,5.694" transform="translate(-79.334 14.828)" fill="none" stroke="#000" stroke-linecap="round" stroke-linejoin="round" stroke-width="0.636"/>
              <line id="Línea_583" data-name="Línea 583" x1="3.784" y1="1.083" transform="translate(56.628 100.262)" fill="none" stroke="#000" stroke-linecap="round" stroke-linejoin="round" stroke-width="0.636"/>
              <line id="Línea_584" data-name="Línea 584" x1="2.556" y1="0.86" transform="translate(57.697 98.728)" fill="none" stroke="#000" stroke-linecap="round" stroke-linejoin="round" stroke-width="0.752"/>
              <path id="Trazado_874076" data-name="Trazado 874076" d="M120.467,83.464s-1.826-6.815-7.5-6.1-5.506,7.744-5.506,7.744" transform="translate(-8.885 14.473)" fill="none" stroke="#000" stroke-linecap="round" stroke-linejoin="round" stroke-width="0.636"/>
              <line id="Línea_585" data-name="Línea 585" y1="2.186" x2="3.273" transform="translate(111.289 94.904)" fill="none" stroke="#000" stroke-linecap="round" stroke-linejoin="round" stroke-width="0.636"/>
              <line id="Línea_586" data-name="Línea 586" y1="1.599" x2="2.171" transform="translate(110.903 93.769)" fill="none" stroke="#000" stroke-linecap="round" stroke-linejoin="round" stroke-width="0.752"/>
              <path id="Trazado_874077" data-name="Trazado 874077" d="M120.434,23.74s-32.963,5.4-36.58,24.842,6.634,47.7,6.634,47.7,13.126-6.847,21.057-8.756c4.27-1.028-4.017-6.981.476-22.189,0,0,5.658,14.011,12.347,15.259,7.884,1.47,26.7-.93,35.05-6.722,4.585-3.182,1.926-17.033,3.12-17.683,2.364-1.289,4.716,15.976,7.229,16.439,1.712.315,13.21,8.4,16.18,4,2.418-3.585.284-12.686,1.53-12.418,3.419.736,2.782,18.193,5.519,18.812,6.131,1.389,10.3,2.269,11.37,1.67,5.408-3.023,2.444-39.344-8.24-51.427s-46.045-22.584-75.692-9.531" transform="translate(-66.484 3.318)" fill="#503a33"/>
              <path id="Trazado_874078" data-name="Trazado 874078" d="M172.76,129.086a27.627,27.627,0,0,0,1.7-17.23c-.97-4.276-2.949-8.261-4.059-12.5s-1.231-9.075,1.263-12.68c2.85-4.12,8.659-6.02,10.193-10.789,1.66-5.164-2.626-10.1-4.9-15.024a21.749,21.749,0,0,1,5.124-24.636,21.75,21.75,0,0,1,25.058-2.3" transform="translate(-169.388 5.801)" fill="none" stroke="#503a33" stroke-linecap="round" stroke-linejoin="round" stroke-width="0.438"/>
              <path id="Trazado_874079" data-name="Trazado 874079" d="M62.328,16.831c4.566.305,9.206.624,13.5,2.2s8.282,4.608,9.917,8.883c1.358,3.551.972,7.524,1.829,11.229,1.407,6.082,5.963,10.846,10.094,15.527s8.2,10.107,8.257,16.349c.056,6.35-4.05,12.981-1.256,18.684,1.584,3.232,4.972,5.1,7.538,7.624,6.392,6.291,7.027,17.527,1.384,24.5" transform="translate(47.717 3.151)" fill="none" stroke="#503a33" stroke-linecap="round" stroke-linejoin="round" stroke-width="0.438"/>
              <path id="Trazado_874080" data-name="Trazado 874080" d="M57.48,179.076a.253.253,0,0,0,.245-.186A73.83,73.83,0,0,1,62.4,167.007a.254.254,0,1,0-.452-.23,74.22,74.22,0,0,0-4.708,11.978.254.254,0,0,0,.176.312.283.283,0,0,0,.069.009" transform="translate(108.797 31.194)" fill="#503a33"/>
              <path id="Trazado_874081" data-name="Trazado 874081" d="M63.511,50.151H7.49c-3.444,0-7.117.167-7.117,5.182S-.4,91.57.286,96.3c.573,3.928,2.612,5.837,11.107,6s46.84-.118,51.2,0c2.755.075,7.921.075,8.265-5.849.351-6.033.256-34.851.221-40.284.036-6.435-7.567-6.017-7.567-6.017" transform="translate(168.042 9.387)" fill="#fff"/>
              <path id="Trazado_874082" data-name="Trazado 874082" d="M23.842,91.893s-.446,8.938-4.022,15.643c0,0,11.4-2.011,14.972-17.207Z" transform="translate(180.837 16.909)" fill="#fff"/>
              <path id="Trazado_874083" data-name="Trazado 874083" d="M19.09,84.522c-.647,0-4.674.072-5.284.008-.507-.055-.753-.246-.774-1.044s.015-4.4,0-4.808c-.009-.259-.009-.743.754-.776.779-.032,4.5-.024,5.2-.02a.678.678,0,0,1,.776.711v5.26c0,.323-.021.668-.668.668" transform="translate(203.938 14.579)" fill="#111a57"/>
              <path id="Trazado_874084" data-name="Trazado 874084" d="M33.849,78.592v5.26c0,.324-.021.668-.668.668s-4.674.074-5.284.008c-.507-.053-.753-.245-.774-1.042s.015-4.4,0-4.808c-.01-.259-.01-.744.754-.776.779-.033,4.5-.024,5.2-.02a.677.677,0,0,1,.776.71" transform="translate(173.118 14.579)" fill="#111a57"/>
              <path id="Trazado_874085" data-name="Trazado 874085" d="M47.94,78.592v5.26c0,.324-.021.668-.668.668s-4.674.074-5.284.008c-.507-.053-.753-.245-.774-1.042s.015-4.4,0-4.808c-.009-.259-.009-.744.754-.776.779-.033,4.5-.024,5.2-.02a.677.677,0,0,1,.776.71" transform="translate(142.298 14.579)" fill="#111a57"/>
            </g>
          </g>
        </g>
      </g>
    </g>
  </g>
</svg>
