<svg xmlns="http://www.w3.org/2000/svg" xmlns:xlink="http://www.w3.org/1999/xlink" width="420" height="337.714" viewBox="0 0 420 337.714">
  <defs>
    <clipPath id="clip-path">
      <rect id="Rectángulo_35205" data-name="Rectángulo 35205" width="420" height="337.026" fill="#f5eec2"/>
    </clipPath>
    <clipPath id="clip-path-2">
      <rect id="Rectángulo_401592" data-name="Rectángulo 401592" width="47.488" height="41.696" fill="none"/>
    </clipPath>
    <clipPath id="clip-path-3">
      <rect id="Rectángulo_403082" data-name="Rectángulo 403082" width="277.677" height="322.89" fill="none"/>
    </clipPath>
  </defs>
  <g id="Grupo_1106350" data-name="Grupo 1106350" transform="translate(0 11)">
    <g id="Grupo_1106349" data-name="Grupo 1106349" transform="translate(0 -11.313)">
      <g id="Grupo_1106181" data-name="Grupo 1106181" transform="translate(0 1)">
        <rect id="Rectángulo_35205-2" data-name="Rectángulo 35205" width="420" height="337.026" fill="#f5eec2"/>
      </g>
      <circle id="Elipse_11641" data-name="Elipse 11641" cx="24" cy="24" r="24" transform="translate(349 0.313)" fill="#f6de44"/>
      <g id="Enmascarar_grupo_1099790" data-name="Enmascarar grupo 1099790" transform="translate(0 1)" clip-path="url(#clip-path)">
        <path id="Trazado_875396" data-name="Trazado 875396" d="M341.234,130.626C339.692,61.724,262.416,4.213,168.641,2.19S.091,54.381,1.634,123.3c.868,38.781,25.718,73.94,64.013,97.646,21.342,13.206,35.351,35.3,36.126,59.268.022.986.078,1.973.135,2.976,3.5,59.467,55.5,108.533,117.2,110.652,65.047,2.241,116.907-47.179,115.508-109.656a110.1,110.1,0,0,0-2.46-20.83c-7.337-33.928-6.669-68.766,4.249-101.019a92.245,92.245,0,0,0,4.863-31.71Z" transform="translate(294.26 -60.764) rotate(65)" fill="#f6de44"/>
      </g>
      <g id="Grupo_1106348" data-name="Grupo 1106348" transform="translate(56.462 54.453)">
        <g id="Grupo_1099721" data-name="Grupo 1099721" transform="translate(0 0)" clip-path="url(#clip-path-2)">
          <path id="Trazado_873643" data-name="Trazado 873643" d="M9.721,32.805,15.193,9.4A6.616,6.616,0,0,1,26.16,6.077L43.7,22.521a6.615,6.615,0,0,1-2.609,11.158L18.08,40.644a6.616,6.616,0,0,1-8.359-7.838" transform="translate(1.697 0.761)" fill="#7bb5f2"/>
          <path id="Trazado_873644" data-name="Trazado 873644" d="M1.18,29.522,6.651,6.114a6.617,6.617,0,0,1,10.968-3.32L35.155,19.238A6.615,6.615,0,0,1,32.546,30.4L9.538,37.361A6.615,6.615,0,0,1,1.18,29.522Z" transform="translate(0.178 0.178)" fill="none" stroke="#000" stroke-miterlimit="10" stroke-width="2"/>
        </g>
      </g>
      <path id="Trazado_875395" data-name="Trazado 875395" d="M47.155,39.678c2.47,7.56-1.452,18.174-9.4,18.114-4.536-.03-8.308-3.578-10.6-7.485C20.538,39,10.1,32.134,3.667,21.984-1.2,14.319-2.066,10.457,6.3,3.825c19.775-15.7,36.032,21.063,40.853,35.868Z" transform="translate(388.15 278.347) rotate(89)" fill="#f6de44"/>
      <g id="Grupo_1106346" data-name="Grupo 1106346" transform="translate(71 15)">
        <g id="Grupo_1106345" data-name="Grupo 1106345" clip-path="url(#clip-path-3)">
          <path id="Trazado_875349" data-name="Trazado 875349" d="M72.8,131.44c-8.5,7.627-19.988,22.087-11.654,48.15l57.693-56.718c-11.888-10.281-31.77-4.228-46.038,8.568" transform="translate(-16.814 -28.791)" fill="#942f51"/>
          <path id="Trazado_875350" data-name="Trazado 875350" d="M141.762,230.548c-3.89.829-8.023.77-12.006.954-4.067.188-7.764.676-11.8.338-1.206-.1-11.72-.188-11.949-.949l-2.957-9.537a36.963,36.963,0,0,1-10.505-2.21c-.252-.087-.5-.181-.748-.276a40.375,40.375,0,0,1-23.434-25.149l68.779-35.743a2.442,2.442,0,0,1,.293.3c4.5,5.146,15.855,40.663,15.855,40.663l.406,1.218.277.846,1.147,3.445.228.647c3.732,11.094-2.692,23.129-13.587,25.451" transform="translate(-19.733 -38.653)" fill="#ffa6a6"/>
          <path id="Trazado_875351" data-name="Trazado 875351" d="M172.919,183.214l14.041,8.157a2.941,2.941,0,0,1,.2,4.872l-8.634,6.084a.969.969,0,0,1-1.485-.538l-5.529-17.317a1.012,1.012,0,0,1,1.412-1.259" transform="translate(-49.488 -44.796)" fill="#ffa6a6"/>
          <path id="Trazado_875352" data-name="Trazado 875352" d="M135.668,239.135l-.634,3.445-.268,1.459-1.317,7.183L128.9,275.975l-46.038-7,12.676-37.651.447-1.329,4.561-13.538,3.618-10.732.765-2.279.748.863Z" transform="translate(-23.916 -49.779)" fill="#ffa6a6"/>
          <path id="Trazado_875353" data-name="Trazado 875353" d="M154.629,389.452H37.275s0-71.942,22.116-99.716c12.326-15.48,16.1-17.7,16.1-17.7s26.019,1.407,43.907,15.816,25.369,41.449,30.3,61.306a190.045,190.045,0,0,1,4.887,37.91c.041,1.528.041,2.383.041,2.383" transform="translate(-10.759 -66.562)" fill="#ffc29e"/>
          <path id="Trazado_875354" data-name="Trazado 875354" d="M165.128,398.258h-.016c-7.716-20.418-16.156-41.371-26.044-61.3l-1.2-2.434c-3.187-6.527-6.488-13.269-12.1-17.932a32.8,32.8,0,0,0-20.059-7.692c-15.742-.388-28.694,10.395-30.792,25.633-.992,7.235-.2,14.616.707,20.885a314.86,314.86,0,0,0,9.578,42.839h-.854a314.18,314.18,0,0,1-9.529-42.71c-.919-6.328-1.716-13.8-.707-21.143,2.154-15.67,15.416-26.772,31.613-26.367a33.6,33.6,0,0,1,20.547,7.874c5.748,4.783,9.09,11.612,12.319,18.217.39.811.788,1.623,1.187,2.426,9.578,19.3,17.783,39.532,25.3,59.32.041,1.528.041,2.383.041,2.383" transform="translate(-21.258 -75.368)" fill="#361524"/>
          <path id="Trazado_875355" data-name="Trazado 875355" d="M91.59,259.3s37.677,14.624,41.2,18.381,5.952,11.96,5.952,11.96S128.992,281.493,101.08,275c-13.151-3.058-15.046-2.863-15.046-2.863Z" transform="translate(-24.833 -63.445)" fill="#fff"/>
          <path id="Trazado_875356" data-name="Trazado 875356" d="M135.316,157.975l-32.847,16.547L62.031,188.859C69.522,209.988,89.523,220.2,89.523,220.2a5.075,5.075,0,0,0,1.2-1.053,8.674,8.674,0,0,0,1.447-2.521,43.585,43.585,0,0,0,2.367-11.291c.016-.13.032-.251.041-.381.373-3.92,1.081-7.545,3.577-10.352a10.132,10.132,0,0,1,1.349-1.3c.057-.042.106-.086.163-.121,2.781-2.175,6.18-2.52,9.5-3.107,3.008-.536,6.074-1.408,8.1-4.006,2.122-2.72,2.74-6.337,3.935-9.539a38.071,38.071,0,0,1,14.416-18.252,2.562,2.562,0,0,0-.293-.3" transform="translate(-17.905 -38.653)" fill="#942f51"/>
          <path id="Trazado_875357" data-name="Trazado 875357" d="M119.853,209.253c0,7.634-4.414,13.823-9.859,13.823s-9.859-6.189-9.859-13.823,4.414-13.823,9.859-13.823,9.859,6.189,9.859,13.823" transform="translate(-28.903 -47.818)" fill="#ffa6a6"/>
          <path id="Trazado_875358" data-name="Trazado 875358" d="M156.173,182.343a2.516,2.516,0,0,0,1.771.114,20.646,20.646,0,0,0,7.83-3.585,4.229,4.229,0,0,0,1.707-1.924c.937-2.722-3.142-2.988-4.662-2.693a11.222,11.222,0,0,0-3.592,1.489,9.173,9.173,0,0,0-3.345,3.11,3.636,3.636,0,0,0-.556,1.844,2.307,2.307,0,0,0,.018.261,1.862,1.862,0,0,0,.827,1.382" transform="translate(-44.834 -42.613)" fill="#942f51"/>
          <path id="Trazado_875359" data-name="Trazado 875359" d="M167.279,189.455a5.731,5.731,0,0,1-.226-1.341,3.313,3.313,0,0,1,.35-1.791c.817-1.434,2.265-.872,2.956.315a6.6,6.6,0,0,1,.88,3.379,3.269,3.269,0,0,1-.278,1.4,1.487,1.487,0,0,1-1.038.851,1.889,1.889,0,0,1-1.619-.856,5.589,5.589,0,0,1-1.025-1.96" transform="translate(-48.217 -45.381)" fill="#361524"/>
          <path id="Trazado_875360" data-name="Trazado 875360" d="M183.848,214.669c-3.13,2.59-7.553,3.048-11.7,1.709-.5-.156-.285-.992.211-.829,3.968,1.269,8.27.855,11.212-1.727Z" transform="translate(-49.606 -52.318)" fill="#361524"/>
          <path id="Trazado_875361" data-name="Trazado 875361" d="M149.659,254.327l-.268,1.459-1.317,7.182c-8.733-3.608-14.547-11.516-14.547-11.516Z" transform="translate(-38.541 -61.525)" fill="#361524"/>
          <path id="Trazado_875362" data-name="Trazado 875362" d="M223.32,250.988l-4.436,4.078-4.8,4.589,3.446,9.744a22.4,22.4,0,0,0,5.564-1.484c1.766-.952,6.142-11.593,5.633-11.916s-5.4-5.011-5.4-5.011" transform="translate(-61.793 -61.411)" fill="#361524"/>
          <path id="Trazado_875397" data-name="Trazado 875397" d="M.584.051,5.793-.1,4.356,48.661l-5.21.152Z" transform="matrix(0.627, -0.779, 0.779, 0.627, 148.777, 193.043)" fill="#fadacd"/>
          <path id="Trazado_875363" data-name="Trazado 875363" d="M268,297.822l-2.074-.737-4.074-1.454.366-3.715,2.78-.44,2.215,3.77,1.192,2.033a.361.361,0,0,1-.4.542" transform="translate(-75.582 -71.318)" fill="#fadacd"/>
          <path id="Trazado_875364" data-name="Trazado 875364" d="M269.655,299.043l-2.074-.737a1.942,1.942,0,0,1,1.287-1.838l1.192,2.033a.361.361,0,0,1-.4.542" transform="translate(-77.235 -72.539)" fill="#361524"/>
          <path id="Trazado_875398" data-name="Trazado 875398" d="M.022.061l5.21-.152L5.176,1.819l-5.21.152Z" transform="matrix(0.627, -0.779, 0.779, 0.627, 147.669, 191.359)" fill="#fff"/>
          <path id="Trazado_875365" data-name="Trazado 875365" d="M203.789,244.848l-.684.9a2.174,2.174,0,0,0,.3,2.933l2.826,2.415,3.148-4.154-2.826-2.415a1.888,1.888,0,0,0-2.763.317" transform="translate(-58.499 -59.719)" fill="#e95a73"/>
          <path id="Trazado_875366" data-name="Trazado 875366" d="M214.7,299.853s-7.674-9.544-6.961-17.724S210.289,269,209.9,265.651s-2.142-5.668-1.667-7.087,1.68-2.462,3.528-1.32a13.34,13.34,0,0,1,4.829,6.139c.839,2.377.557,13.313.557,13.313l11.535,19.959Z" transform="translate(-59.948 -62.823)" fill="#ffa6a6"/>
          <path id="Trazado_875367" data-name="Trazado 875367" d="M219.853,271.836s1.635-9.117,2.122-11.965,1-7.351,2.326-8.7a3.785,3.785,0,0,1,5.621.809,11.079,11.079,0,0,1,1.462,3.652,4.584,4.584,0,0,1,4.891,1.671,10.519,10.519,0,0,1,1.684,5.178,6.942,6.942,0,0,1,3.94,1.462c1.655,1.419,1.822,4.419,1.822,4.419a6.768,6.768,0,0,1,3.286,4.926c.9,6.445-3.133,24.63-3.133,24.63l-15.757,3.073-9.038-21.564Z" transform="translate(-63.236 -61.232)" fill="#ffa6a6"/>
          <path id="Trazado_875368" data-name="Trazado 875368" d="M237.574,395.065l2.754-93.99-24.357,2.713-1.862,4.481-7.578,86.8Z" transform="translate(-59.613 -73.667)" fill="#ffa6a6"/>
          <path id="Trazado_875369" data-name="Trazado 875369" d="M219.451,278.452a.25.25,0,0,1-.041,0,.242.242,0,0,1-.184-.281l1.2-6.77a.23.23,0,0,1,.264-.2.242.242,0,0,1,.184.281l-1.2,6.77a.233.233,0,0,1-.224.2" transform="translate(-63.277 -66.356)" fill="#361524"/>
          <path id="Trazado_875370" data-name="Trazado 875370" d="M234.22,267.511a.2.2,0,0,1-.036,0,.24.24,0,0,1-.189-.276l1.4-9.432a.234.234,0,0,1,.261-.2.241.241,0,0,1,.189.277l-1.4,9.432a.233.233,0,0,1-.225.2" transform="translate(-67.54 -63.028)" fill="#361524"/>
          <path id="Trazado_875371" data-name="Trazado 875371" d="M244.094,274.666l-.029,0a.239.239,0,0,1-.2-.27l.906-7.538a.232.232,0,0,1,.255-.21.24.24,0,0,1,.2.271l-.906,7.538a.232.232,0,0,1-.225.212" transform="translate(-70.39 -65.242)" fill="#361524"/>
          <path id="Trazado_875372" data-name="Trazado 875372" d="M252.469,282.529l-.024,0a.238.238,0,0,1-.2-.265l.73-7.444a.235.235,0,0,1,.25-.216.24.24,0,0,1,.2.266l-.73,7.444a.234.234,0,0,1-.226.217" transform="translate(-72.807 -67.189)" fill="#361524"/>
          <path id="Trazado_875373" data-name="Trazado 875373" d="M336.171,89.012l-38.15,29.569-3.8-5.543-7.587,2.236-1.169-13.69-5.132-7.539Z" transform="translate(-80.916 -21.779)" fill="#88cbf7"/>
          <path id="Trazado_875374" data-name="Trazado 875374" d="M296.306,117.111l-7.587,2.236-1.169-13.69Z" transform="translate(-82.999 -25.852)" fill="#361524"/>
          <path id="Trazado_875375" data-name="Trazado 875375" d="M287.957,102.062a.413.413,0,0,1-.4-.334.434.434,0,0,1,.3-.518l48.6-12a.4.4,0,0,1,.489.323.434.434,0,0,1-.3.518l-48.6,12a.4.4,0,0,1-.092.011" transform="translate(-82.999 -21.826)" fill="#361524"/>
          <path id="Trazado_875376" data-name="Trazado 875376" d="M290.453,233.808l-11.141,13.6s10.835,12.626,16.934,6.475a12.639,12.639,0,0,0,1.214-3.632c.74-6.758-1.823-19.354-1.823-19.354Z" transform="translate(-80.621 -56.495)" fill="#361524"/>
          <path id="Trazado_875377" data-name="Trazado 875377" d="M328.045,190.175l-3.619,4.688-.569.751-16.075,20.85-.553.733-4.79,6.208-.61.794-9.456,12.268a.146.146,0,0,1,.008-.034c.122-.406,1.2-4.688-2.959-11.992a19.9,19.9,0,0,0-5.058-5.344c-7.228-5.655-18.465-10.36-18.465-10.36s9.538-10.956,21.49-25.685c8.123-10,16.693-23.31,16.693-23.31s12.684,7.338,18.172,13.166c3.708,3.937,10.164,9.6,5.79,17.267" transform="translate(-76.75 -39.085)" fill="#7bb5f2"/>
          <path id="Trazado_875378" data-name="Trazado 875378" d="M308.831,237.779l-.61.794a25.911,25.911,0,0,0-2.569-6.129c-3.887-6.57-10.724-10.377-17.335-13.088-.488-.2-.277-1.036.211-.838,6.822,2.8,13.822,6.717,17.823,13.486a25.751,25.751,0,0,1,2.48,5.776" transform="translate(-83.14 -53.459)" fill="#fff"/>
          <path id="Trazado_875379" data-name="Trazado 875379" d="M316.782,228.6l-.553.734a36.808,36.808,0,0,0-18.88-19.123c-.48-.207-.268-1.045.22-.838A37.7,37.7,0,0,1,316.782,228.6" transform="translate(-85.749 -51.221)" fill="#fff"/>
          <path id="Trazado_875380" data-name="Trazado 875380" d="M339.921,199.52l-.569.751a36.956,36.956,0,0,0-19.506-20.625c-.472-.216-.26-1.045.219-.838a37.857,37.857,0,0,1,19.856,20.712" transform="translate(-92.244 -43.743)" fill="#fff"/>
          <path id="Trazado_875381" data-name="Trazado 875381" d="M158.624,99.608s8.717-22.958,11.068-46.729c2.348-23.742,0-40.361,0-40.361s19.829-1.942,33.245-5.18A236.484,236.484,0,0,0,227.331,0s.116,23.4-1.626,37.555c-3.694,30-10.028,43.707-10.028,43.707S209.69,87,191.148,92.377a234.682,234.682,0,0,1-32.524,7.231" transform="translate(-45.785)" fill="#7bb5f2"/>
          <path id="Trazado_875382" data-name="Trazado 875382" d="M196.178,28.2a.417.417,0,0,1-.4-.381.427.427,0,0,1,.357-.479c.094-.011,9.417-1.168,16.765-2.87s15.059-4.422,15.136-4.449a.4.4,0,0,1,.514.273.439.439,0,0,1-.258.546c-.078.027-7.831,2.761-15.22,4.473S196.32,28.19,196.226,28.2a.336.336,0,0,1-.048,0" transform="translate(-56.508 -4.894)" fill="#fff"/>
          <path id="Trazado_875383" data-name="Trazado 875383" d="M186.9,56.792a.416.416,0,0,1-.4-.379.426.426,0,0,1,.354-.48c.136-.018,13.641-1.8,20.991-3.5s19.207-5.512,19.325-5.551a.4.4,0,0,1,.507.288.437.437,0,0,1-.27.539c-.12.039-12,3.857-19.388,5.567s-20.929,3.495-21.065,3.513a.384.384,0,0,1-.051,0" transform="translate(-53.831 -11.466)" fill="#fff"/>
          <path id="Trazado_875384" data-name="Trazado 875384" d="M185.546,68.507a.416.416,0,0,1-.4-.379.426.426,0,0,1,.354-.48c.136-.018,13.642-1.8,20.991-3.5s19.206-5.512,19.325-5.551a.4.4,0,0,1,.507.288.437.437,0,0,1-.27.539c-.12.039-12,3.857-19.388,5.567S185.733,68.485,185.6,68.5a.4.4,0,0,1-.051,0" transform="translate(-53.439 -14.333)" fill="#fff"/>
          <path id="Trazado_875385" data-name="Trazado 875385" d="M184.367,80.509a.416.416,0,0,1-.4-.379.426.426,0,0,1,.354-.48c.136-.018,13.642-1.8,20.99-3.5s19.207-5.512,19.325-5.551a.4.4,0,0,1,.507.288.437.437,0,0,1-.27.539c-.12.039-12.006,3.857-19.389,5.567s-20.928,3.495-21.063,3.513a.4.4,0,0,1-.051,0" transform="translate(-53.099 -17.269)" fill="#fff"/>
          <path id="Trazado_875386" data-name="Trazado 875386" d="M182.7,94.312a.416.416,0,0,1-.4-.379.426.426,0,0,1,.354-.48c.136-.018,13.641-1.8,20.99-3.5a.4.4,0,0,1,.484.33.431.431,0,0,1-.31.513c-7.386,1.712-20.928,3.495-21.064,3.513a.385.385,0,0,1-.051,0" transform="translate(-52.617 -22.007)" fill="#fff"/>
          <path id="Trazado_875387" data-name="Trazado 875387" d="M157.439,295.193a.416.416,0,0,1-.4-.359,25.341,25.341,0,0,0-2.02-5.685,15.763,15.763,0,0,0-4.038-5.639.451.451,0,0,1-.094-.6.392.392,0,0,1,.566-.1,16.264,16.264,0,0,1,4.3,5.963,25.605,25.605,0,0,1,2.091,5.919.43.43,0,0,1-.333.5.356.356,0,0,1-.069.006" transform="translate(-43.53 -69.178)" fill="#361524"/>
          <path id="Trazado_875388" data-name="Trazado 875388" d="M120.464,137.113a.4.4,0,0,1-.3-.143.45.45,0,0,1,.029-.61,64.645,64.645,0,0,0,17.388-28.7c3.108-11.063,4.94-31.178-7.9-36.4-6.119-2.486-14.919-1.059-18.464,5.581-2.865,5.369-2.172,11.924,1.684,15.942a9.042,9.042,0,0,0,10.492,2.082,6.914,6.914,0,0,0,4.265-6.432A5.435,5.435,0,0,0,126,84.259a4.92,4.92,0,0,0-3.816-.817.4.4,0,0,1-.483-.331.433.433,0,0,1,.313-.513,5.646,5.646,0,0,1,4.484.978,6.266,6.266,0,0,1,1.969,4.821,7.761,7.761,0,0,1-4.748,7.258A9.816,9.816,0,0,1,112.327,93.4c-4.119-4.292-4.869-11.275-1.82-16.984,3.807-7.134,12.886-8.634,19.461-5.961,12.528,5.091,12.351,23.356,8.392,37.45A65.524,65.524,0,0,1,120.737,137a.4.4,0,0,1-.272.111" transform="translate(-31.359 -16.936)" fill="#5dace1"/>
          <path id="Trazado_875389" data-name="Trazado 875389" d="M211.2,191.171a23.507,23.507,0,0,1-22.574-17.33,50.059,50.059,0,0,1-1.278-8.883c-.833-9.4-1.776-20.061-12.338-23.16-14.342-4.206-30.665,9.494-30.827,9.633a.39.39,0,0,1-.571-.067.449.449,0,0,1,.063-.607c.166-.141,16.821-14.117,31.552-9.792,11.1,3.258,12.117,14.71,12.931,23.912a49.517,49.517,0,0,0,1.246,8.71,22.649,22.649,0,0,0,28.456,15.74c7.721-2.293,14.625-9.077,17.587-17.282A21.8,21.8,0,0,0,234,153.13a12.816,12.816,0,0,0-12.41-5.816,12.489,12.489,0,0,0-10.652,8.253,11.107,11.107,0,0,0,1,9.569,9.287,9.287,0,0,0,7.478,4.651c.247.011.5.012.747,0a7.771,7.771,0,0,0,5.2-2.305,8.034,8.034,0,0,0,.971-9.538,4.8,4.8,0,0,0-4.239-1.934,3.827,3.827,0,0,0-3.24,2.2.4.4,0,0,1-.548.185.445.445,0,0,1-.174-.582,4.656,4.656,0,0,1,3.9-2.66,5.606,5.606,0,0,1,4.96,2.288,8.979,8.979,0,0,1-1.063,10.663,8.57,8.57,0,0,1-5.737,2.55c-.273.012-.546.012-.817,0a10.08,10.08,0,0,1-8.123-5.043,12.023,12.023,0,0,1-1.076-10.355,13.3,13.3,0,0,1,11.332-8.8,13.627,13.627,0,0,1,13.173,6.213c3.469,5.8,4.009,12.791,1.518,19.688-3.051,8.451-10.167,15.439-18.127,17.8a24.126,24.126,0,0,1-6.879,1.012" transform="translate(-41.427 -34.288)" fill="#5dace1"/>
          <path id="Trazado_875390" data-name="Trazado 875390" d="M268.426,174.824a.393.393,0,0,1-.21-.061.449.449,0,0,1-.139-.593c.093-.164,9.423-16.554,20.664-28.54,11.133-11.87,25.19-23.889,44.912-23,9.929.443,20.375,5.971,21.333,17.324.709,8.412-5.864,16.826-14.066,18.007a12.541,12.541,0,0,1-10.965-3.4c-4.1-4.213-4.742-11.232-1.436-15.646,2.233-2.983,6.614-5.87,10.954-5.161a7.686,7.686,0,0,1,6.326,8.081,6.028,6.028,0,0,1-4.879,6.009c-1.935.3-4.372-.622-5.092-2.687a.439.439,0,0,1,.24-.554.4.4,0,0,1,.522.255c.57,1.633,2.633,2.377,4.213,2.132a5.192,5.192,0,0,0,4.183-5.188,6.844,6.844,0,0,0-5.637-7.2c-4.027-.656-8.1,2.051-10.193,4.845-3.052,4.077-2.44,10.577,1.365,14.489a11.77,11.77,0,0,0,10.29,3.168c7.793-1.122,14.039-9.1,13.366-17.074-.913-10.833-10.983-16.113-20.556-16.539-19.457-.874-33.3,11.016-44.3,22.752-11.169,11.909-20.45,28.212-20.543,28.375a.4.4,0,0,1-.349.209" transform="translate(-77.361 -29.992)" fill="#5dace1"/>
          <path id="Trazado_875391" data-name="Trazado 875391" d="M203.389,114.793a50.1,50.1,0,0,1-11.278-1.357c-9.56-2.252-20.3-.022-20.4,0a.41.41,0,0,1-.478-.338.431.431,0,0,1,.319-.508c.109-.023,11.013-2.289,20.739,0,8.432,1.986,28.924,4.509,37.078-14.931,1.9-4.523,3.175-8.345,4.527-12.391.556-1.663,1.132-3.389,1.781-5.255A22.765,22.765,0,0,1,248.212,66.2c5.575-2.289,11.613-2.5,17.452-2.71l.543-.019a35.13,35.13,0,0,0,16.666-4.384c7.836-4.516,10.742-13.59,7.062-22.065a20.837,20.837,0,0,0-1.247-2.431A18.749,18.749,0,0,0,273.5,25.965a15.057,15.057,0,0,0-12.709,7.077,15.7,15.7,0,0,0-1.1,13.63,11.976,11.976,0,0,0,8.463,7.409,9.78,9.78,0,0,0,8.32-2.1,9.651,9.651,0,0,0,3.491-7.228,7.284,7.284,0,0,0-4.859-7.43,5.9,5.9,0,0,0-7.146,2.759.393.393,0,0,1-.562.128.446.446,0,0,1-.122-.6,6.747,6.747,0,0,1,8.072-3.116,8.228,8.228,0,0,1,5.431,8.282,10.641,10.641,0,0,1-12.792,10.145,12.8,12.8,0,0,1-9.042-7.914A16.613,16.613,0,0,1,260.1,32.593,15.935,15.935,0,0,1,273.243,25.1c.092,0,.183,0,.273,0a19.582,19.582,0,0,1,15.856,9.021,21.747,21.747,0,0,1,1.3,2.533c3.866,8.908.818,18.443-7.413,23.185a35.861,35.861,0,0,1-17.026,4.488l-.543.019c-5.771.205-11.739.417-17.185,2.653a21.636,21.636,0,0,0-12.07,13.314c-.647,1.862-1.223,3.584-1.777,5.244-1.358,4.061-2.64,7.9-4.55,12.454-5.707,13.6-17.22,16.779-26.72,16.779" transform="translate(-49.422 -6.141)" fill="#5dace1"/>
          <path id="Trazado_875392" data-name="Trazado 875392" d="M86.334,271.814a.459.459,0,0,1-.2-.048.531.531,0,0,1-.24-.687l5.017-11.6a.476.476,0,0,1,.646-.255.531.531,0,0,1,.24.687l-5.017,11.6a.486.486,0,0,1-.443.3" transform="translate(-24.779 -63.416)" fill="#361524"/>
          <path id="Trazado_875393" data-name="Trazado 875393" d="M49.216,197.683a58.865,58.865,0,0,0-23.122,7.248,35.6,35.6,0,0,0-10.9,8.868,21.1,21.1,0,0,0-4.708,13.455c.161,4.579,2.1,8.841,3.281,13.249.809,3.03,1.208,6.49-.364,9.161a17.113,17.113,0,0,1-3.929,3.947C-.341,262.1-2.852,277.852,3.463,289.49c7.953,14.655,26.652,12.428,36.037,1.055a45.332,45.332,0,0,0,9.829-29.671c-.507-14.612-8.854-27.96-6.838-42.84.851-6.287,3.321-12.464,7.651-16.847a4.812,4.812,0,0,0,1.225-1.606,1.52,1.52,0,0,0-.474-1.832,1.847,1.847,0,0,0-1.053-.122q-.312.026-.625.056" transform="translate(0 -48.35)" fill="#942f51"/>
          <path id="Trazado_875394" data-name="Trazado 875394" d="M64.258,206.038a1.217,1.217,0,0,1-1.105-.745l-2.436-5.513a1.33,1.33,0,0,1,.586-1.722,1.19,1.19,0,0,1,1.623.622l2.436,5.514a1.331,1.331,0,0,1-.586,1.722,1.153,1.153,0,0,1-.517.122" transform="translate(-17.492 -48.43)" fill="#e95a73"/>
        </g>
      </g>
      <circle id="Elipse_11642" data-name="Elipse 11642" cx="13" cy="13" r="13" transform="translate(12 133.313)" fill="#f6de44"/>
    </g>
  </g>
</svg>
