<svg xmlns="http://www.w3.org/2000/svg" width="68.729" height="68.729" viewBox="0 0 68.729 68.729">
  <g id="Grupo_1106526" data-name="Grupo 1106526" transform="translate(-640.32 -1097)">
    <g id="Grupo_1106378" data-name="Grupo 1106378" transform="translate(333.269 -1)">
      <path id="Trazado_875307" data-name="Trazado 875307" d="M33.193,0A33.193,33.193,0,1,1,0,33.193,33.193,33.193,0,0,1,33.193,0Z" transform="translate(309.394 1098)" fill="#7bb5f2"/>
      <g id="Elipse_11629" data-name="Elipse 11629" transform="translate(307.051 1107.372)" fill="none" stroke="#000" stroke-width="1">
        <circle cx="29.679" cy="29.679" r="29.679" stroke="none"/>
        <circle cx="29.679" cy="29.679" r="29.179" fill="none"/>
      </g>
    </g>
    <g id="medios-de-comunicacion-social_1_" data-name="medios-de-comunicacion-social (1)" transform="translate(648.077 1079.049)">
      <g id="Grupo_1106500" data-name="Grupo 1106500" transform="translate(4.018 29.079)">
        <g id="Grupo_1106499" data-name="Grupo 1106499" transform="translate(0 0)">
          <path id="Trazado_875748" data-name="Trazado 875748" d="M44.777,35.8H54.07a6.166,6.166,0,0,1,0,12.333H52.9a.347.347,0,0,0-.3.174L51.116,50.88a.347.347,0,0,1-.6,0L49.027,48.3a.347.347,0,0,0-.3-.174H44.777a6.166,6.166,0,0,1,0-12.333Z" transform="translate(-38.611 -35.798)" fill="#97da7b"/>
        </g>
      </g>
      <g id="Grupo_1106502" data-name="Grupo 1106502" transform="translate(19.719 34.502)">
        <g id="Grupo_1106501" data-name="Grupo 1106501" transform="translate(0 0)">
          <path id="Trazado_875749" data-name="Trazado 875749" d="M189.5,94.816a6.156,6.156,0,0,0,5.879-6.9A7.523,7.523,0,0,0,189.5,94.816Z" transform="translate(-189.504 -87.912)" fill="#80d261"/>
        </g>
      </g>
      <g id="Grupo_1106504" data-name="Grupo 1106504" transform="translate(0.78 47.299)">
        <g id="Grupo_1106503" data-name="Grupo 1106503">
          <path id="Trazado_875750" data-name="Trazado 875750" d="M33.641,210.9H15.327a7.827,7.827,0,1,0,0,15.653h1.481a.441.441,0,0,1,.382.22l1.888,3.269a.441.441,0,0,0,.763,0l1.888-3.269a.441.441,0,0,1,.382-.22H33.641a7.827,7.827,0,1,0,0-15.653Z" transform="translate(-7.5 -210.895)" fill="#99e6fc"/>
        </g>
      </g>
      <g id="Grupo_1106506" data-name="Grupo 1106506" transform="translate(11.178 62.952)">
        <g id="Grupo_1106505" data-name="Grupo 1106505">
          <path id="Trazado_875751" data-name="Trazado 875751" d="M108.133,361.548l-.708,1.227,1.179,2.042a.441.441,0,0,0,.763,0l1.888-3.269a.441.441,0,0,1,.382-.22h-3.122A.44.44,0,0,0,108.133,361.548Z" transform="translate(-107.425 -361.328)" fill="#62dbfb"/>
        </g>
      </g>
      <g id="Grupo_1106508" data-name="Grupo 1106508" transform="translate(23.8 47.299)">
        <g id="Grupo_1106507" data-name="Grupo 1106507">
          <path id="Trazado_875752" data-name="Trazado 875752" d="M231.845,210.9h-3.122a7.827,7.827,0,1,1,0,15.653h3.122a7.827,7.827,0,1,0,0-15.653Z" transform="translate(-228.723 -210.895)" fill="#62dbfb"/>
        </g>
      </g>
      <g id="Grupo_1106510" data-name="Grupo 1106510" transform="translate(30.87 35.953)">
        <g id="Grupo_1106509" data-name="Grupo 1106509" transform="translate(0 0)">
          <path id="Trazado_875753" data-name="Trazado 875753" d="M311.087,101.86h-8.252a6.166,6.166,0,0,0,0,12.333H304a.347.347,0,0,1,.3.174l1.487,2.576a.347.347,0,0,0,.6,0l1.487-2.576a.347.347,0,0,1,.3-.174h2.908a6.166,6.166,0,0,0,0-12.333Z" transform="translate(-296.668 -101.86)" fill="#d9b1ee"/>
        </g>
      </g>
      <g id="Grupo_1106512" data-name="Grupo 1106512" transform="translate(5.291 50.222)">
        <g id="Grupo_1106511" data-name="Grupo 1106511">
          <path id="Trazado_875754" data-name="Trazado 875754" d="M55.751,239.174l1.106,2.465a.316.316,0,0,0,.254.185l2.686.29a.316.316,0,0,1,.178.548l-2,1.814a.316.316,0,0,0-.1.3l.554,2.644a.316.316,0,0,1-.466.339l-2.344-1.344a.316.316,0,0,0-.314,0l-2.344,1.344a.316.316,0,0,1-.466-.339l.554-2.644a.316.316,0,0,0-.1-.3l-2-1.814a.316.316,0,0,1,.178-.548l2.686-.29a.316.316,0,0,0,.254-.185l1.106-2.465A.316.316,0,0,1,55.751,239.174Z" transform="translate(-50.847 -238.987)" fill="#ffe177"/>
        </g>
      </g>
      <g id="Grupo_1106514" data-name="Grupo 1106514" transform="translate(21.768 35.105)">
        <g id="Grupo_1106513" data-name="Grupo 1106513" transform="translate(0 0)">
          <circle id="Elipse_11647" data-name="Elipse 11647" cx="7.521" cy="7.521" r="7.521" fill="#ffe177"/>
        </g>
      </g>
      <g id="Grupo_1106516" data-name="Grupo 1106516" transform="translate(21.926 55.858)">
        <g id="Grupo_1106515" data-name="Grupo 1106515" transform="translate(0 0)">
          <path id="Trazado_875755" data-name="Trazado 875755" d="M218,293.151h12.869a7.278,7.278,0,1,1,0,14.557h-1.377a.41.41,0,0,0-.355.2l-1.755,3.04a.41.41,0,0,1-.71,0l-1.755-3.04a.41.41,0,0,0-.355-.2H218a7.278,7.278,0,1,1,0-14.557Z" transform="translate(-210.719 -293.151)" fill="#feaee1"/>
        </g>
      </g>
      <g id="Grupo_1106518" data-name="Grupo 1106518" transform="translate(42.167 35.953)">
        <g id="Grupo_1106517" data-name="Grupo 1106517" transform="translate(0 0)">
          <path id="Trazado_875756" data-name="Trazado 875756" d="M408.36,101.86h-3.122a6.166,6.166,0,0,1,.332,12.324v.009h2.79a6.166,6.166,0,1,0,0-12.333Z" transform="translate(-405.238 -101.86)" fill="#cb97e7"/>
        </g>
      </g>
      <g id="Grupo_1106520" data-name="Grupo 1106520" transform="translate(27.729 35.105)">
        <g id="Grupo_1106519" data-name="Grupo 1106519" transform="translate(0 0)">
          <path id="Trazado_875757" data-name="Trazado 875757" d="M268.047,93.7a7.547,7.547,0,0,0-1.561.163,7.522,7.522,0,0,1,0,14.716,7.522,7.522,0,1,0,1.561-14.88Z" transform="translate(-266.486 -93.703)" fill="#ffd15b"/>
        </g>
      </g>
      <g id="Grupo_1106522" data-name="Grupo 1106522" transform="translate(38.952 55.858)">
        <g id="Grupo_1106521" data-name="Grupo 1106521" transform="translate(0 0)">
          <path id="Trazado_875758" data-name="Trazado 875758" d="M377.466,293.151h-3.122a7.278,7.278,0,0,1,1.748,14.344v.213h1.374a7.278,7.278,0,1,0,0-14.557Z" transform="translate(-374.344 -293.151)" fill="#fe93d3"/>
        </g>
      </g>
      <g id="Grupo_1106524" data-name="Grupo 1106524" transform="translate(30.133 59.152)">
        <g id="Grupo_1106523" data-name="Grupo 1106523" transform="translate(0 0)">
          <path id="Trazado_875759" data-name="Trazado 875759" d="M296.771,324.806a2.923,2.923,0,0,0-2.124.912,2.931,2.931,0,1,0-4.207,4.081c.531.537,4.207,3.367,4.207,3.367s3.658-2.822,4.188-3.347a2.931,2.931,0,0,0-2.064-5.013Z" transform="translate(-289.592 -324.806)" fill="#fe646f"/>
        </g>
      </g>
      <g id="Grupo_1106525" data-name="Grupo 1106525" transform="translate(0 28.299)">
        <path id="Trazado_875760" data-name="Trazado 875760" d="M300.547,144.206a.771.771,0,1,0-.771-.771A.77.77,0,0,0,300.547,144.206Z" transform="translate(-268.583 -130.765)"/>
        <path id="Trazado_875761" data-name="Trazado 875761" d="M249.414,144.206a.771.771,0,1,0-.771-.771A.77.77,0,0,0,249.414,144.206Z" transform="translate(-222.771 -130.765)"/>
        <path id="Trazado_875762" data-name="Trazado 875762" d="M53.166,234.618l-2.421-.262-1-2.222a1.1,1.1,0,0,0-1-.647h0a1.1,1.1,0,0,0-1,.647l-1,2.222-2.421.262a1.1,1.1,0,0,0-.618,1.9l1.8,1.635-.5,2.383a1.1,1.1,0,0,0,1.618,1.176l2.112-1.211,2.112,1.211a1.1,1.1,0,0,0,1.618-1.176l-.5-2.383,1.8-1.635a1.1,1.1,0,0,0-.618-1.9Zm-4.842-1.844h0Zm2.41,4.4a1.1,1.1,0,0,0-.337,1.037l.342,1.631-1.445-.829a1.1,1.1,0,0,0-1.091,0l-1.445.829.342-1.63a1.1,1.1,0,0,0-.337-1.037l-1.235-1.118,1.656-.179a1.1,1.1,0,0,0,.882-.641l.682-1.52.682,1.52a1.1,1.1,0,0,0,.882.641l1.656.179Z" transform="translate(-38.841 -210.344)"/>
        <path id="Trazado_875763" data-name="Trazado 875763" d="M287.929,327.228a.78.78,0,0,0,.477-.162c.378-.292,3.712-2.867,4.261-3.411a3.712,3.712,0,0,0-4.737-5.681,3.674,3.674,0,0,0-2.124-.667,3.712,3.712,0,0,0-2.638,6.323c.552.558,3.906,3.143,4.286,3.436A.78.78,0,0,0,287.929,327.228Zm-4.275-6.209a2.15,2.15,0,0,1,3.709-1.482.78.78,0,0,0,1.131,0,2.132,2.132,0,0,1,1.558-.669,2.151,2.151,0,0,1,1.515,3.678c-.322.32-2.236,1.827-3.639,2.915-1.408-1.09-3.331-2.6-3.652-2.929A2.137,2.137,0,0,1,283.654,321.019Z" transform="translate(-252.74 -287.234)"/>
        <path id="Trazado_875764" data-name="Trazado 875764" d="M34.955,48.749a6.946,6.946,0,0,0,2.081.317h.917l1.362,2.359a1.131,1.131,0,0,0,.976.564h0a1.131,1.131,0,0,0,.977-.564l1.362-2.359h2.658a6.947,6.947,0,1,0,0-13.894H37.036a6.884,6.884,0,0,0-2.973.667,8.282,8.282,0,0,0-7.652-1A6.955,6.955,0,0,0,19.477,28.3H15.033a.78.78,0,1,0,0,1.561h4.444a5.392,5.392,0,0,1,5.386,5.386c0,.124,0,.248-.013.371a8.334,8.334,0,0,0-3.53,4.693l-.018.006a5.372,5.372,0,0,1-1.824.316H18.31a1.131,1.131,0,0,0-.977.564l-1.112,1.926L15.11,41.2a1.131,1.131,0,0,0-.977-.564H10.184a5.386,5.386,0,1,1,0-10.772h1.727a.78.78,0,1,0,0-1.561H10.184a6.947,6.947,0,1,0,0,13.894h3.7l1.362,2.359a1.131,1.131,0,0,0,.977.564h0a1.131,1.131,0,0,0,.976-.564l1.362-2.359h.917a6.962,6.962,0,0,0,1.535-.171c-.014.2-.024.4-.024.6a8.249,8.249,0,0,0,.972,3.892H8.607a8.607,8.607,0,0,0,0,17.214H9.892l1.79,3.1a1.221,1.221,0,0,0,2.115,0l1.79-3.1H21.17A8.068,8.068,0,0,0,29.2,71.195h.031a.78.78,0,1,0,0-1.561H29.2a6.5,6.5,0,0,1,0-13H42.074a6.5,6.5,0,0,1,0,13H40.7a1.194,1.194,0,0,0-1.031.6l-1.434,2.484L36.8,70.229a1.194,1.194,0,0,0-1.031-.595H32.358a.78.78,0,0,0,0,1.561h3.195L37.2,74.05a1.19,1.19,0,0,0,2.061,0l1.648-2.855h1.164a8.059,8.059,0,0,0,0-16.117H35.527a8.521,8.521,0,0,0-1.916-5.366,8.353,8.353,0,0,0,1.3-.98l.047.018ZM45.288,36.734a5.386,5.386,0,0,1,0,10.772H42.38a1.131,1.131,0,0,0-.977.564L40.292,50,39.18,48.07a1.131,1.131,0,0,0-.977-.564H37.036a5.429,5.429,0,0,1-.973-.088,8.278,8.278,0,0,0-.681-10.424,5.356,5.356,0,0,1,1.654-.26h8.252ZM33.966,55.078H29.2a8.069,8.069,0,0,0-8,7.094H15.39a1.224,1.224,0,0,0-1.058.611l-1.593,2.76-1.593-2.76a1.225,1.225,0,0,0-1.058-.61H8.607a7.046,7.046,0,0,1,0-14.093H23.038a8.289,8.289,0,0,0,9.122,2.337A6.977,6.977,0,0,1,33.966,55.078ZM29.29,49.367a6.741,6.741,0,1,1,6.741-6.741A6.749,6.749,0,0,1,29.29,49.367Z" transform="translate(0 -28.299)"/>
        <path id="Trazado_875765" data-name="Trazado 875765" d="M254.42,167.668a.78.78,0,0,0-.78.78,1.893,1.893,0,1,1-3.786,0,.78.78,0,0,0-1.561,0,3.454,3.454,0,1,0,6.908,0A.78.78,0,0,0,254.42,167.668Z" transform="translate(-222.456 -153.166)"/>
        <path id="Trazado_875766" data-name="Trazado 875766" d="M105.308,72.841H96.9a.78.78,0,1,0,0,1.561h8.408a.78.78,0,0,0,0-1.561Z" transform="translate(-86.118 -68.206)"/>
        <path id="Trazado_875767" data-name="Trazado 875767" d="M105.308,104.36H96.9a.78.78,0,1,0,0,1.561h8.408a.78.78,0,0,0,0-1.561Z" transform="translate(-86.118 -96.446)"/>
        <path id="Trazado_875768" data-name="Trazado 875768" d="M378.242,140.476h5.844a.78.78,0,0,0,0-1.561h-5.844a.78.78,0,1,0,0,1.561Z" transform="translate(-338.185 -127.405)"/>
        <path id="Trazado_875769" data-name="Trazado 875769" d="M378.242,171.995h5.844a.78.78,0,0,0,0-1.561h-5.844a.78.78,0,1,0,0,1.561Z" transform="translate(-338.185 -155.644)"/>
        <path id="Trazado_875770" data-name="Trazado 875770" d="M165.693,240.937h2.851a.78.78,0,1,0,0-1.561h-2.851a.78.78,0,0,0,0,1.561Z" transform="translate(-147.753 -217.412)"/>
        <path id="Trazado_875771" data-name="Trazado 875771" d="M167.783,299.438h-2.089a.78.78,0,0,0,0,1.561h2.089a.78.78,0,1,0,0-1.561Z" transform="translate(-147.753 -271.225)"/>
        <path id="Trazado_875772" data-name="Trazado 875772" d="M172.148,270.669h-6.455a.78.78,0,0,0,0,1.561h6.455a.78.78,0,1,0,0-1.561Z" transform="translate(-147.753 -245.449)"/>
      </g>
    </g>
  </g>
</svg>
