<svg xmlns="http://www.w3.org/2000/svg" width="88" height="88" viewBox="0 0 88 88">
  <g id="Grupo_1106532" data-name="Grupo 1106532" transform="translate(-177.051 -385)">
    <g id="Grupo_1106313" data-name="Grupo 1106313" transform="translate(-130 -713)">
      <circle id="Elipse_11624" data-name="Elipse 11624" cx="42.5" cy="42.5" r="42.5" transform="translate(310.051 1098)" fill="#c5b236"/>
      <g id="Elipse_11629" data-name="Elipse 11629" transform="translate(307.051 1110)" fill="none" stroke="#000" stroke-width="1">
        <circle cx="38" cy="38" r="38" stroke="none"/>
        <circle cx="38" cy="38" r="37.5" fill="none"/>
      </g>
    </g>
    <g id="medios-de-comunicacion-social_2_" data-name="medios-de-comunicacion-social (2)" transform="translate(191.051 399)">
      <path id="Trazado_875808" data-name="Trazado 875808" d="M8,8H39.5V33.942H8ZM8,8" transform="translate(-7.073 -7.073)" fill="#a6e7ff"/>
      <path id="Trazado_875809" data-name="Trazado 875809" d="M8,15.412A7.412,7.412,0,0,0,15.412,8H8Zm0,0" transform="translate(-7.073 -7.073)" fill="#ff8a65"/>
      <path id="Trazado_875810" data-name="Trazado 875810" d="M33.016,125.9,16.339,112,8,119.412V125.9Zm0,0" transform="translate(-7.073 -99.029)" fill="#8edf78"/>
      <path id="Trazado_875811" data-name="Trazado 875811" d="M50,90.53,67.372,72l9.265,9.265V90.53Zm0,0" transform="translate(-44.209 -63.661)" fill="#e2fc85"/>
      <path id="Trazado_875812" data-name="Trazado 875812" d="M90.032,201.853v31.5H40v-31.5A1.853,1.853,0,0,1,41.853,200H88.179A1.853,1.853,0,0,1,90.032,201.853Zm0,0" transform="translate(-35.367 -176.837)" fill="#e0e0e0"/>
      <path id="Trazado_875813" data-name="Trazado 875813" d="M72,232h42.62v22.236H72Zm0,0" transform="translate(-63.661 -205.131)" fill="#90a4ae"/>
      <path id="Trazado_875814" data-name="Trazado 875814" d="M41.354,456a1.853,1.853,0,0,1-1.853,1.853H33.942A1.853,1.853,0,0,1,32.089,456H8v1.853a3.706,3.706,0,0,0,3.706,3.706H61.738a3.706,3.706,0,0,0,3.706-3.706V456Zm0,0" transform="translate(-7.073 -403.189)" fill="#eee"/>
      <path id="Trazado_875815" data-name="Trazado 875815" d="M160.089,152H136v16.677h12.045v4.633l5.559-4.633h6.486Zm0,0" transform="translate(-120.249 -134.396)" fill="#2ac3f2"/>
      <path id="Trazado_875816" data-name="Trazado 875816" d="M312,104h22.236v16.677H312Zm0,0" transform="translate(-275.866 -91.955)" fill="#ff8a65"/>
      <path id="Trazado_875817" data-name="Trazado 875817" d="M392,144v7.412l5.559-3.706Zm0,0" transform="translate(-346.601 -127.323)" fill="#fff"/>
      <path id="Trazado_875818" data-name="Trazado 875818" d="M8,280H30.236v8.339l4.633,4.633H30.236v3.706H8Zm0,0" transform="translate(-7.073 -247.572)" fill="#e2fc85"/>
      <path id="Trazado_875819" data-name="Trazado 875819" d="M73.265,314.78h-2.78V312H66.78v2.78H64v3.706h2.78v2.78h3.706v-2.78h2.78Zm0,0" transform="translate(-56.588 -275.866)" fill="#8edf78"/>
      <g id="Grupo_1106531" data-name="Grupo 1106531" transform="translate(9.265 3.706)">
        <path id="Trazado_875820" data-name="Trazado 875820" d="M317.355,310.7H304v-1.853h8.882l-1.2-1.2,1.31-1.31Zm0,0" transform="translate(-278.058 -274.571)" fill="#fff"/>
        <path id="Trazado_875821" data-name="Trazado 875821" d="M305.049,364.361,300.688,360h13.355v1.853h-8.882l1.2,1.2Zm0,0" transform="translate(-275.129 -322.013)" fill="#fff"/>
        <path id="Trazado_875822" data-name="Trazado 875822" d="M168,176h13.9v1.853H168Zm0,0" transform="translate(-157.808 -159.323)" fill="#fff"/>
        <path id="Trazado_875823" data-name="Trazado 875823" d="M168,208h5.559v1.853H168Zm0,0" transform="translate(-157.808 -187.617)" fill="#fff"/>
        <path id="Trazado_875824" data-name="Trazado 875824" d="M232,208h6.486v1.853H232Zm0,0" transform="translate(-214.396 -187.617)" fill="#fff"/>
        <path id="Trazado_875825" data-name="Trazado 875825" d="M168,240h8.339v1.853H168Zm0,0" transform="translate(-157.808 -215.911)" fill="#fff"/>
        <path id="Trazado_875826" data-name="Trazado 875826" d="M256,240h3.706v1.853H256Zm0,0" transform="translate(-235.617 -215.911)" fill="#fff"/>
        <path id="Trazado_875827" data-name="Trazado 875827" d="M337.853,131.706H336V128h3.706v1.853h-1.853Zm0,0" transform="translate(-306.352 -116.882)" fill="#fff"/>
        <path id="Trazado_875828" data-name="Trazado 875828" d="M451.706,195.706H448v-1.853h1.853V192h1.853Zm0,0" transform="translate(-405.38 -173.47)" fill="#fff"/>
        <path id="Trazado_875829" data-name="Trazado 875829" d="M80,64h5.559v1.853H80Zm0,0" transform="translate(-80 -60.294)" fill="#fff"/>
        <path id="Trazado_875830" data-name="Trazado 875830" d="M96,32h9.265v1.853H96Zm0,0" transform="translate(-94.147 -32)" fill="#fff"/>
      </g>
      <path id="Trazado_875831" data-name="Trazado 875831" d="M64.339,304H58.78v2.78H56v5.559h2.78v2.78h5.559v-2.78h2.78V306.78h-2.78Zm.927,4.633v1.853h-2.78v2.78H60.633v-2.78h-2.78v-1.853h2.78v-2.78h1.853v2.78Zm0,0" transform="translate(-49.514 -268.792)"/>
      <path id="Trazado_875832" data-name="Trazado 875832" d="M35.208,16.677H33.354V0H0V27.8H3.706V31.5H0v18.53H3.706v1.853H0v2.78A4.638,4.638,0,0,0,4.633,59.3H54.664A4.638,4.638,0,0,0,59.3,54.664v-2.78H55.591V29.648H59.3V11.118H35.208Zm0,1.853V29.648h3.706v3.706H33.019l-4.3,3.581V33.354H24.089V31.5H16.677V18.53ZM5.559,51.885V50.032H51.885V29.648h1.853V51.885H33.354v.927a.927.927,0,0,1-.927.927H26.869a.927.927,0,0,1-.927-.927v-.927Zm44.473-3.706H24.089V46.326h5.943l-5.943-5.943V35.208h2.78v5.684l6.821-5.684h7.077V29.648h9.265Zm-33.416-31.5,6.569-7.006,7.007,7.006ZM1.853,1.853H7.338A6.486,6.486,0,0,1,1.853,7.338Zm0,7.357A8.35,8.35,0,0,0,9.21,1.853H31.5V15.367l-8.36-8.36-8.591,9.163L9.246,11.749,1.853,18.32ZM7.412,25.942V31.5H5.559V25.016a.927.927,0,0,1,.927-.927h8.339v1.853ZM14.824,27.8V31.5H9.265V27.8ZM11.4,22.236l3.421-3.649v3.649ZM1.853,25.942V20.8l7.432-6.606,4,3.336L8.864,22.236H6.486a2.78,2.78,0,0,0-2.78,2.78v.927Zm0,22.236V33.354H22.236v7.8l3.322,3.322H22.236v3.706Zm55.591,5.559v.927a2.78,2.78,0,0,1-2.78,2.78H4.633a2.78,2.78,0,0,1-2.78-2.78v-.927H24.248a2.785,2.785,0,0,0,2.621,1.853h5.559a2.785,2.785,0,0,0,2.621-1.853ZM37.061,12.971H57.444V27.8H37.061Zm0,0"/>
      <path id="Trazado_875833" data-name="Trazado 875833" d="M384,139.923l8.153-5.438L384,129.047Zm1.853-7.412,2.965,1.974-2.965,1.974Zm0,0" transform="translate(-339.527 -114.101)"/>
      <path id="Trazado_875834" data-name="Trazado 875834" d="M464,0h1.853V7.412H464Zm0,0" transform="translate(-410.262)"/>
      <path id="Trazado_875835" data-name="Trazado 875835" d="M496,0h1.853V9.265H496Zm0,0" transform="translate(-438.556)"/>
      <path id="Trazado_875836" data-name="Trazado 875836" d="M432,0h1.853V5.559H432Zm0,0" transform="translate(-381.968)"/>
    </g>
  </g>
</svg>
