<svg xmlns="http://www.w3.org/2000/svg" width="104" height="104" viewBox="0 0 104 104">
  <g id="Grupo_1106548" data-name="Grupo 1106548" transform="translate(-224.051 -1556)">
    <circle id="Elipse_11635" data-name="Elipse 11635" cx="52" cy="52" r="52" transform="translate(224.051 1556)" fill="#fd9f81"/>
    <g id="intranet" transform="translate(244.051 1577.5)">
      <path id="Trazado_875978" data-name="Trazado 875978" d="M14.115,52.881H9.824a2.155,2.155,0,0,1-2.148-2.148V10.324A2.154,2.154,0,0,1,9.824,8.176H67.2a2.154,2.154,0,0,1,2.148,2.148V50.733A2.155,2.155,0,0,1,67.2,52.881H17.928" transform="translate(-6.723 -6.723)" fill="#fff4f1"/>
      <path id="Trazado_875979" data-name="Trazado 875979" d="M177.52,342.133h19.492v12.9H177.52Zm0,0" transform="translate(-155.474 -299.207)" fill="#9a9999"/>
      <path id="Trazado_875980" data-name="Trazado 875980" d="M303.781,342.133h3.812v12.9h-3.812Zm0,0" transform="translate(-266.056 -299.207)" fill="#696867"/>
      <path id="Trazado_875981" data-name="Trazado 875981" d="M33.82,8.176h-24a2.155,2.155,0,0,0-2.148,2.148V50.733a2.155,2.155,0,0,0,2.148,2.148h24Zm0,0" transform="translate(-6.723 -6.723)" fill="#5e8ee1"/>
      <path id="Trazado_875982" data-name="Trazado 875982" d="M187.5,8.176h3.812V52.881H187.5Zm0,0" transform="translate(-164.219 -6.723)" fill="#467bff"/>
      <path id="Trazado_875983" data-name="Trazado 875983" d="M69.352,13.25V10.3a2.1,2.1,0,0,0-2.068-2.127H9.744A2.1,2.1,0,0,0,7.676,10.3V13.25Zm0,0" transform="translate(-6.723 -6.723)" fill="#dbdedf"/>
      <path id="Trazado_875984" data-name="Trazado 875984" d="M7.676,315.789v4.275a2.12,2.12,0,0,0,1.973,2.23H67.378a2.12,2.12,0,0,0,1.973-2.23v-4.275Zm0,0" transform="translate(-6.723 -276.135)" fill="#dbdedf"/>
      <path id="Trazado_875985" data-name="Trazado 875985" d="M460.14,8.176h-3.812a2.155,2.155,0,0,1,2.148,2.148V50.733a2.155,2.155,0,0,1-2.148,2.148h3.812a2.155,2.155,0,0,0,2.148-2.148V10.324A2.155,2.155,0,0,0,460.14,8.176Zm0,0" transform="translate(-399.659 -6.723)" fill="#e9ebec"/>
      <path id="Trazado_875986" data-name="Trazado 875986" d="M460.781,8.176h-3.812a2.1,2.1,0,0,1,2.068,2.127V13.25h3.812V10.3A2.1,2.1,0,0,0,460.781,8.176Zm0,0" transform="translate(-400.221 -6.723)" fill="#b4b4b4"/>
      <path id="Trazado_875987" data-name="Trazado 875987" d="M164.868,425.317a6.393,6.393,0,0,0-6.36-6.211H141.113a6.393,6.393,0,0,0-6.36,6.211Zm0,0" transform="translate(-118.02 -366.621)" fill="#d0cfd1"/>
      <path id="Trazado_875988" data-name="Trazado 875988" d="M459.708,315.789v4.275a2.12,2.12,0,0,1-1.973,2.23h3.812a2.12,2.12,0,0,0,1.973-2.23v-4.275Zm0,0" transform="translate(-400.891 -276.135)" fill="#b4b4b4"/>
      <path id="Trazado_875989" data-name="Trazado 875989" d="M299.148,419.105h-3.812a6.393,6.393,0,0,1,6.36,6.211h3.812A6.393,6.393,0,0,0,299.148,419.105Zm0,0" transform="translate(-258.66 -366.621)" fill="#b4b4b4"/>
      <path id="Trazado_875990" data-name="Trazado 875990" d="M47.385,78.609a1.823,1.823,0,1,1-1.823-1.823A1.823,1.823,0,0,1,47.385,78.609Zm0,0" transform="translate(-38.307 -66.812)" fill="#aceded"/>
      <path id="Trazado_875991" data-name="Trazado 875991" d="M47.385,139.374a1.823,1.823,0,1,1-1.823-1.823A1.823,1.823,0,0,1,47.385,139.374Zm0,0" transform="translate(-38.307 -120.031)" fill="#fff4f1"/>
      <path id="Trazado_875992" data-name="Trazado 875992" d="M47.385,139.374a1.823,1.823,0,1,1-1.823-1.823A1.823,1.823,0,0,1,47.385,139.374Zm0,0" transform="translate(-38.307 -120.031)" fill="#ffec56"/>
      <path id="Trazado_875993" data-name="Trazado 875993" d="M47.385,200.139a1.823,1.823,0,1,1-1.823-1.823A1.823,1.823,0,0,1,47.385,200.139Zm0,0" transform="translate(-38.307 -173.251)" fill="#fc9086"/>
      <path id="Trazado_875994" data-name="Trazado 875994" d="M47.385,260.905a1.823,1.823,0,1,1-1.823-1.823A1.823,1.823,0,0,1,47.385,260.905Zm0,0" transform="translate(-38.307 -226.47)" fill="#467bff"/>
      <path id="Trazado_875995" data-name="Trazado 875995" d="M290.931,194.227H310.2a1.864,1.864,0,0,1,0,3.729h-1.889l-2.5,2.421-2.5-2.421H290.931a1.864,1.864,0,1,1,0-3.729Zm0,0" transform="translate(-253.169 -169.669)" fill="#ffec56"/>
      <path id="Trazado_875996" data-name="Trazado 875996" d="M331.865,89.266h14.189a1.864,1.864,0,0,1,0,3.729h-1.889l-2.5,2.422-2.5-2.422h-7.3a1.864,1.864,0,0,1,0-3.729Zm0,0" transform="translate(-289.019 -77.742)" fill="#fc9086"/>
      <path id="Trazado_875997" data-name="Trazado 875997" d="M38.839,129.875a2.776,2.776,0,1,0,2.776,2.776A2.78,2.78,0,0,0,38.839,129.875Zm0,3.646a.87.87,0,1,1,.87-.87A.871.871,0,0,1,38.839,133.521Zm0,0" transform="translate(-31.584 -113.309)"/>
      <path id="Trazado_875998" data-name="Trazado 875998" d="M435.761,273.117a.953.953,0,1,0,.953.953A.954.954,0,0,0,435.761,273.117Zm0,0" transform="translate(-380.812 -238.763)"/>
      <path id="Trazado_875999" data-name="Trazado 875999" d="M409.152,273.117a.953.953,0,1,0,.953.953A.954.954,0,0,0,409.152,273.117Zm0,0" transform="translate(-357.507 -238.763)"/>
      <path id="Trazado_876000" data-name="Trazado 876000" d="M462.367,273.117a.953.953,0,1,0,.953.953A.954.954,0,0,0,462.367,273.117Zm0,0" transform="translate(-404.114 -238.763)"/>
      <path id="Trazado_876001" data-name="Trazado 876001" d="M38.839,69.109a2.776,2.776,0,1,0,2.776,2.777A2.78,2.78,0,0,0,38.839,69.109Zm0,3.647a.87.87,0,1,1,.87-.87A.871.871,0,0,1,38.839,72.756Zm0,0" transform="translate(-31.584 -60.089)"/>
      <path id="Trazado_876002" data-name="Trazado 876002" d="M38.839,190.641a2.776,2.776,0,1,0,2.776,2.776A2.78,2.78,0,0,0,38.839,190.641Zm0,3.646a.87.87,0,1,1,.87-.87A.871.871,0,0,1,38.839,194.287Zm0,0" transform="translate(-31.584 -166.528)"/>
      <path id="Trazado_876003" data-name="Trazado 876003" d="M38.839,251.406a2.776,2.776,0,1,0,2.776,2.776A2.78,2.78,0,0,0,38.839,251.406Zm0,3.646a.87.87,0,1,1,.87-.87A.871.871,0,0,1,38.839,255.053Zm0,0" transform="translate(-31.584 -219.748)"/>
      <path id="Trazado_876004" data-name="Trazado 876004" d="M303.484,186.551H284.212a2.818,2.818,0,0,0,0,5.635h12l2.222,2.152a.952.952,0,0,0,1.326,0l2.221-2.152h1.5a2.818,2.818,0,0,0,0-5.635Zm0,3.729H301.6a.954.954,0,0,0-.664.269l-1.835,1.778-1.835-1.778a.954.954,0,0,0-.664-.269H284.212a.911.911,0,1,1,0-1.822h19.272a.911.911,0,1,1,0,1.822Zm0,0" transform="translate(-246.45 -162.946)"/>
      <path id="Trazado_876005" data-name="Trazado 876005" d="M325.142,87.225h6.916l2.222,2.152a.953.953,0,0,0,1.326,0l2.221-2.152h1.5a2.818,2.818,0,0,0,0-5.635H325.142a2.818,2.818,0,1,0,0,5.635Zm0-3.729h14.189a.911.911,0,0,1,0,1.823h-1.889a.954.954,0,0,0-.663.268l-1.835,1.779-1.836-1.779a.952.952,0,0,0-.663-.268h-7.3a.911.911,0,0,1,0-1.823Zm0,0" transform="translate(-282.297 -71.02)"/>
      <path id="Trazado_876006" data-name="Trazado 876006" d="M100.883,84.7h8.793a.953.953,0,0,0,0-1.906h-8.793a.953.953,0,1,0,0,1.906Zm0,0" transform="translate(-87.52 -72.077)"/>
      <path id="Trazado_876007" data-name="Trazado 876007" d="M109.676,143.676h-8.793a.953.953,0,1,0,0,1.906h8.793a.953.953,0,1,0,0-1.906Zm0,0" transform="translate(-87.52 -125.396)"/>
      <path id="Trazado_876008" data-name="Trazado 876008" d="M109.676,204.555h-8.793a.953.953,0,1,0,0,1.906h8.793a.953.953,0,1,0,0-1.906Zm0,0" transform="translate(-87.52 -178.714)"/>
      <path id="Trazado_876009" data-name="Trazado 876009" d="M109.676,265.43h-8.793a.953.953,0,0,0,0,1.906h8.793a.953.953,0,0,0,0-1.906Zm0,0" transform="translate(-87.52 -232.03)"/>
      <path id="Trazado_876010" data-name="Trazado 876010" d="M60.481.5H35.858a.953.953,0,0,0,0,1.906H60.481a1.2,1.2,0,0,1,1.2,1.195V5.575H1.906V3.6a1.2,1.2,0,0,1,1.2-1.2H30.774a.953.953,0,1,0,0-1.906H3.1A3.1,3.1,0,0,0,0,3.6V44.01a3.1,3.1,0,0,0,3.1,3.1H7.393a.953.953,0,1,0,0-1.906H3.1a1.2,1.2,0,0,1-1.2-1.2v-3.4h59.77v3.4a1.2,1.2,0,0,1-1.2,1.2H11.205a.953.953,0,1,0,0,1.906h9.887v4.707a7.4,7.4,0,0,0-5.311,6.851.953.953,0,0,0,.953.979H46.848a.953.953,0,0,0,.953-.979,7.4,7.4,0,0,0-5.311-6.851V47.111H60.481a3.1,3.1,0,0,0,3.1-3.1V3.6A3.1,3.1,0,0,0,60.481.5Zm-14.7,57.243H17.8a5.461,5.461,0,0,1,5.289-4.306H40.488A5.461,5.461,0,0,1,45.778,57.743Zm-5.194-6.209-.1,0H23.094l-.1,0V47.112H40.584ZM1.906,7.481H26.144V38.7H1.906ZM28.051,38.7V7.481H61.676V38.7Zm0,0"/>
    </g>
  </g>
</svg>
