<svg xmlns="http://www.w3.org/2000/svg" width="90.913" height="90.914" viewBox="0 0 90.913 90.914">
  <g id="Grupo_1106812" data-name="Grupo 1106812" transform="translate(-8679 9727)">
    <g id="Grupo_1106204" data-name="Grupo 1106204" transform="translate(8679 -9727)">
      <path id="Trazado_874925" data-name="Trazado 874925" d="M45.457,0A45.457,45.457,0,0,1,90.914,45.457h0A45.457,45.457,0,0,1,0,45.457H0A45.457,45.457,0,0,1,45.457,0Z" transform="translate(0 0)" fill="#ffc2af" opacity="0.859"/>
      <path id="Trazado_874923" data-name="Trazado 874923" d="M45.457,0A45.457,45.457,0,0,1,90.914,45.457h0A45.457,45.457,0,0,1,0,45.457H0A45.457,45.457,0,0,1,45.457,0Z" transform="translate(0 0)" fill="none"/>
    </g>
    <g id="fuerza-de-voluntad" transform="translate(8691.743 -9714.25)">
      <g id="Grupo_1106776" data-name="Grupo 1106776">
        <g id="Grupo_1106766" data-name="Grupo 1106766">
          <g id="Grupo_1106765" data-name="Grupo 1106765">
            <path id="Trazado_876352" data-name="Trazado 876352" d="M33.06,42.68a3.861,3.861,0,0,1-3.69,3.6,3.364,3.364,0,0,1-3.35-3.02,3.373,3.373,0,0,1-3.07-3.36,3.324,3.324,0,0,1,.71-2.07,4.3,4.3,0,0,1,.01-8.12,3.372,3.372,0,0,1,2.67-5.29,3.374,3.374,0,0,1,6.74.22V42.68" fill="#ef4a51"/>
          </g>
        </g>
        <g id="Grupo_1106768" data-name="Grupo 1106768">
          <g id="Grupo_1106767" data-name="Grupo 1106767">
            <path id="Trazado_876353" data-name="Trazado 876353" d="M33.05,24.87a3.861,3.861,0,0,1,3.69-3.6,3.364,3.364,0,0,1,3.35,3.02,3.373,3.373,0,0,1,3.07,3.36,3.324,3.324,0,0,1-.71,2.07,4.3,4.3,0,0,1-.01,8.12,3.372,3.372,0,0,1-2.67,5.29,3.374,3.374,0,0,1-6.74-.22V24.87" fill="#ef4a51"/>
          </g>
        </g>
        <g id="Grupo_1106769" data-name="Grupo 1106769">
          <path id="Trazado_876354" data-name="Trazado 876354" d="M60.68,26.34a25.4,25.4,0,0,0-6.32-5.87l-1.08-.71a4.3,4.3,0,0,0-2.61.65,4.438,4.438,0,0,0-1.46,2.93l.94,1.24c-.03,2.61,5.19.31,5.19.31,2.01,1.75.89,5.16.89,5.16a5.175,5.175,0,0,0-6.07.33c-3.16-3.64-6.12-2.2-7.28-1.39a3.3,3.3,0,0,1-.42.73,4.3,4.3,0,0,1-.01,8.12,3.372,3.372,0,0,1-2.67,5.29,3.437,3.437,0,0,1-.2.91c5.08.35,8.56-5.96,8.56-5.96a5.475,5.475,0,0,0,2.24-.68,13.27,13.27,0,0,0,11.15-.89,3.615,3.615,0,0,0,2.3-.18c.74-3.66-1.11-7.29-3.15-9.99Z" fill="#ffab03"/>
        </g>
        <g id="Grupo_1106770" data-name="Grupo 1106770">
          <path id="Trazado_876355" data-name="Trazado 876355" d="M26.02,43.26a3.373,3.373,0,0,1-3.07-3.36,3.324,3.324,0,0,1,.71-2.07,4.3,4.3,0,0,1,.01-8.12,2.936,2.936,0,0,1-.3-.55c-.95-.74-4.11-2.7-7.51,1.22a5.187,5.187,0,0,0-6.07-.33s-1.12-3.41.89-5.16c0,0,5.21,2.3,5.19-.31l.94-1.24a4.438,4.438,0,0,0-1.46-2.93,4.3,4.3,0,0,0-2.61-.65l-1.08.71a25.241,25.241,0,0,0-6.32,5.87c-2.03,2.71-3.88,6.33-3.15,9.99a3.615,3.615,0,0,0,2.3.18,13.313,13.313,0,0,0,11.15.89,5.657,5.657,0,0,0,2.24.68s3.39,6.13,8.35,5.97a2.5,2.5,0,0,1-.21-.79Z" fill="#ffab03"/>
        </g>
        <g id="Grupo_1106773" data-name="Grupo 1106773">
          <g id="Grupo_1106771" data-name="Grupo 1106771" opacity="0.3">
            <path id="Trazado_876356" data-name="Trazado 876356" d="M42.46,29.71a3.373,3.373,0,0,0-2.36-5.43,3.364,3.364,0,0,0-3.35-3.02,3.861,3.861,0,0,0-3.69,3.6v6.5a12.954,12.954,0,0,0,9.49,6.43,4.291,4.291,0,0,0-.09-8.08Z" fill="#e2e2e2"/>
          </g>
          <g id="Grupo_1106772" data-name="Grupo 1106772" opacity="0.3">
            <path id="Trazado_876357" data-name="Trazado 876357" d="M43.1,30a4.632,4.632,0,0,0-.64-.29,3.373,3.373,0,0,0-2.36-5.43,3.364,3.364,0,0,0-3.35-3.02H36.7a1.5,1.5,0,0,0,.01,3h.04a.379.379,0,0,1,.37.33,3.006,3.006,0,0,0,2.72,2.68.363.363,0,0,1,.33.37.332.332,0,0,1-.1.25,2.3,2.3,0,0,0-.73,2.02,3.234,3.234,0,0,0,3.12,2.79h.03A1.443,1.443,0,0,0,43.1,30Z" fill="#e2e2e2"/>
          </g>
        </g>
        <g id="Grupo_1106774" data-name="Grupo 1106774" opacity="0.3">
          <path id="Trazado_876358" data-name="Trazado 876358" d="M63.84,33.75a3.615,3.615,0,0,1-2.3.18,13.313,13.313,0,0,1-11.15.89,5.657,5.657,0,0,1-2.24.68,14.233,14.233,0,0,1-5.26,5.25,3.374,3.374,0,0,1-3.1,2.38,3.437,3.437,0,0,1-.2.91c5.08.35,8.56-5.96,8.56-5.96a5.475,5.475,0,0,0,2.24-.68,13.27,13.27,0,0,0,11.15-.89,3.615,3.615,0,0,0,2.3-.18,8.785,8.785,0,0,0,.06-2.98c-.02.13-.04.26-.06.4Z" fill="#fff"/>
        </g>
        <g id="Grupo_1106775" data-name="Grupo 1106775" opacity="0.3">
          <path id="Trazado_876359" data-name="Trazado 876359" d="M23.06,40.72a14.441,14.441,0,0,1-5.21-5.22,5.475,5.475,0,0,1-2.24-.68,13.313,13.313,0,0,1-11.15-.89,3.615,3.615,0,0,1-2.3-.18c-.03-.13-.04-.27-.06-.4a8.785,8.785,0,0,0,.06,2.98,3.615,3.615,0,0,0,2.3.18,13.313,13.313,0,0,0,11.15.89,5.657,5.657,0,0,0,2.24.68s3.39,6.13,8.35,5.97a3.42,3.42,0,0,1-.19-.78,3.381,3.381,0,0,1-2.95-2.55Z" fill="#fff"/>
        </g>
      </g>
      <g id="Grupo_1106811" data-name="Grupo 1106811">
        <g id="Grupo_1106795" data-name="Grupo 1106795">
          <g id="Grupo_1106778" data-name="Grupo 1106778">
            <g id="Grupo_1106777" data-name="Grupo 1106777">
              <path id="Trazado_876360" data-name="Trazado 876360" d="M29.37,47.03a4.106,4.106,0,0,1-4-3.12,4.133,4.133,0,0,1-2.79-5.75,5.052,5.052,0,0,1,.04-8.8,4,4,0,0,1-.31-1.57,4.088,4.088,0,0,1,3.36-4.05,4.12,4.12,0,0,1,8.14.9V42.68a4.637,4.637,0,0,1-4.44,4.35Zm.32-25.01a2.632,2.632,0,0,0-2.62,2.45.742.742,0,0,1-.73.7,2.623,2.623,0,0,0-2.07,4.12.75.75,0,0,1-.37,1.14,3.548,3.548,0,0,0,0,6.7.751.751,0,0,1,.34,1.17,2.593,2.593,0,0,0-.55,1.61,2.636,2.636,0,0,0,2.39,2.61.747.747,0,0,1,.68.67,2.616,2.616,0,0,0,2.61,2.35,3.135,3.135,0,0,0,2.94-2.85V24.64a2.616,2.616,0,0,0-2.62-2.62Z"/>
            </g>
          </g>
          <g id="Grupo_1106779" data-name="Grupo 1106779">
            <path id="Trazado_876361" data-name="Trazado 876361" d="M29.1,27.26a3.685,3.685,0,0,1-2.47-.8,3.025,3.025,0,0,1-1.05-2,.747.747,0,0,1,1.49-.11,1.507,1.507,0,0,0,.53.97,2.648,2.648,0,0,0,2.01.4.749.749,0,0,1,.15,1.49,3.738,3.738,0,0,1-.66.05Z"/>
          </g>
          <g id="Grupo_1106780" data-name="Grupo 1106780">
            <path id="Trazado_876362" data-name="Trazado 876362" d="M25.79,31.44a3.644,3.644,0,0,1-2.72-1.26.747.747,0,0,1,1.17-.93,2.128,2.128,0,0,0,2.33.56.746.746,0,1,1,.46,1.42,3.84,3.84,0,0,1-1.24.21Z"/>
          </g>
          <g id="Grupo_1106781" data-name="Grupo 1106781">
            <path id="Trazado_876363" data-name="Trazado 876363" d="M24.84,38.71a5.273,5.273,0,0,1-1.38-.16.751.751,0,0,1-.53-.92.758.758,0,0,1,.92-.53,4.241,4.241,0,0,0,3.55-.79.752.752,0,0,1,.98,1.14,5.308,5.308,0,0,1-3.54,1.26Z"/>
          </g>
          <g id="Grupo_1106782" data-name="Grupo 1106782">
            <path id="Trazado_876364" data-name="Trazado 876364" d="M30.89,42.54a3.227,3.227,0,0,1-2.17-.92.751.751,0,0,1,1-1.12,1.71,1.71,0,0,0,1.31.53,2.387,2.387,0,0,0,1.42-.88A.759.759,0,0,1,33.5,40a.748.748,0,0,1,.15,1.05,3.858,3.858,0,0,1-2.46,1.47,1.514,1.514,0,0,1-.3.02Z"/>
          </g>
          <g id="Grupo_1106784" data-name="Grupo 1106784">
            <g id="Grupo_1106783" data-name="Grupo 1106783">
              <path id="Trazado_876365" data-name="Trazado 876365" d="M36.42,47.03a4.127,4.127,0,0,1-4.12-4.12V24.87a4.631,4.631,0,0,1,4.45-4.35,4.106,4.106,0,0,1,4,3.12,4.133,4.133,0,0,1,2.79,5.75,5.052,5.052,0,0,1-.04,8.8,4,4,0,0,1,.31,1.57,4.088,4.088,0,0,1-3.36,4.05A4.145,4.145,0,0,1,36.42,47.03Zm.32-25.01a3.145,3.145,0,0,0-2.95,2.85V42.91a2.623,2.623,0,0,0,5.24.17.742.742,0,0,1,.73-.7,2.606,2.606,0,0,0,2.54-2.62,2.537,2.537,0,0,0-.47-1.49.75.75,0,0,1,.37-1.14,3.548,3.548,0,0,0,0-6.7.751.751,0,0,1-.34-1.17,2.593,2.593,0,0,0,.55-1.61,2.636,2.636,0,0,0-2.39-2.61.747.747,0,0,1-.68-.67,2.6,2.6,0,0,0-2.6-2.35Z"/>
            </g>
          </g>
          <g id="Grupo_1106785" data-name="Grupo 1106785">
            <path id="Trazado_876366" data-name="Trazado 876366" d="M39.79,43.88a.753.753,0,0,1-.75-.7,1.507,1.507,0,0,0-.53-.97,2.648,2.648,0,0,0-2.01-.4.749.749,0,0,1-.15-1.49,4.076,4.076,0,0,1,3.15.76,3.025,3.025,0,0,1,1.05,2,.742.742,0,0,1-.7.79.176.176,0,0,1-.06.01Z"/>
          </g>
          <g id="Grupo_1106786" data-name="Grupo 1106786">
            <path id="Trazado_876367" data-name="Trazado 876367" d="M42.45,38.58a.754.754,0,0,1-.58-.28,2.128,2.128,0,0,0-2.33-.56.74.74,0,0,1-.94-.48.752.752,0,0,1,.48-.94,3.644,3.644,0,0,1,3.96,1.05.745.745,0,0,1-.59,1.21Z"/>
          </g>
          <g id="Grupo_1106787" data-name="Grupo 1106787">
            <path id="Trazado_876368" data-name="Trazado 876368" d="M38.22,31.41a.762.762,0,0,1-.57-.26.748.748,0,0,1,.08-1.06,5.719,5.719,0,0,1,4.93-1.11.751.751,0,0,1-.39,1.45,4.241,4.241,0,0,0-3.55.79.765.765,0,0,1-.5.19Z"/>
          </g>
          <g id="Grupo_1106788" data-name="Grupo 1106788">
            <path id="Trazado_876369" data-name="Trazado 876369" d="M33.06,27.68a.738.738,0,0,1-.45-.15.749.749,0,0,1-.15-1.05,3.85,3.85,0,0,1,2.47-1.47,3.143,3.143,0,0,1,2.46.9.751.751,0,1,1-1,1.12,1.71,1.71,0,0,0-1.31-.53,2.349,2.349,0,0,0-1.42.88.726.726,0,0,1-.6.3Z"/>
          </g>
          <g id="Grupo_1106789" data-name="Grupo 1106789">
            <path id="Trazado_876370" data-name="Trazado 876370" d="M58.64,33.14a.753.753,0,0,1-.67-.41,5.424,5.424,0,0,0-2.08-2.02.759.759,0,0,1-.33-1.01.75.75,0,0,1,1.01-.33,6.848,6.848,0,0,1,2.74,2.67.75.75,0,0,1-.33,1.01.621.621,0,0,1-.34.09Z"/>
          </g>
          <g id="Grupo_1106790" data-name="Grupo 1106790">
            <path id="Trazado_876371" data-name="Trazado 876371" d="M54.05,26.1a.375.375,0,0,1-.1-.01.753.753,0,0,1-.65-.84c.09-.67-.14-.85-.21-.91-.59-.48-2.28-.2-3.3.15a.74.74,0,0,1-.95-.46.748.748,0,0,1,.46-.95c.33-.12,3.27-1.09,4.73.1a2.343,2.343,0,0,1,.75,2.27A.728.728,0,0,1,54.05,26.1Z"/>
          </g>
          <g id="Grupo_1106791" data-name="Grupo 1106791">
            <path id="Trazado_876372" data-name="Trazado 876372" d="M7.36,33.14a.844.844,0,0,1-.34-.08.75.75,0,0,1-.33-1.01,6.769,6.769,0,0,1,2.74-2.67.751.751,0,1,1,.68,1.34,5.424,5.424,0,0,0-2.08,2.02.762.762,0,0,1-.67.4Z"/>
          </g>
          <g id="Grupo_1106792" data-name="Grupo 1106792">
            <path id="Trazado_876373" data-name="Trazado 876373" d="M11.95,26.1a.753.753,0,0,1-.74-.66,2.343,2.343,0,0,1,.75-2.27c1.46-1.19,4.4-.22,4.73-.1a.746.746,0,0,1-.49,1.41c-1.01-.35-2.71-.63-3.3-.15-.07.06-.3.24-.21.91a.753.753,0,0,1-.65.84.149.149,0,0,1-.09.02Z"/>
          </g>
          <g id="Grupo_1106793" data-name="Grupo 1106793">
            <path id="Trazado_876374" data-name="Trazado 876374" d="M40,44.8c-.15,0-.31-.01-.46-.02a.77.77,0,0,1-.58-.34.738.738,0,0,1-.08-.66,2.31,2.31,0,0,0,.16-.7.742.742,0,0,1,.73-.7,2.623,2.623,0,0,0,2.07-4.12.75.75,0,0,1,.37-1.14,3.548,3.548,0,0,0,0-6.7.751.751,0,0,1-.34-1.17,2.662,2.662,0,0,0,.32-.56.74.74,0,0,1,.26-.32c.97-.68,4.3-2.54,7.81,1a5.982,5.982,0,0,1,5.46-.41,4.228,4.228,0,0,0-.55-3.19c-1.15.45-3.66,1.27-4.95.42a1.749,1.749,0,0,1-.79-1.35l-.8-1.06a.743.743,0,0,1-.15-.48,5.2,5.2,0,0,1,1.71-3.47.55.55,0,0,1,.09-.07A4.965,4.965,0,0,1,53.41,19a.919.919,0,0,1,.29.11l1.08.71a25.882,25.882,0,0,1,6.51,6.05c2.79,3.72,3.93,7.38,3.29,10.59a.754.754,0,0,1-.35.5,4.089,4.089,0,0,1-2.53.32,14.008,14.008,0,0,1-11.24.92,6.812,6.812,0,0,1-1.84.57c-.83,1.34-4.03,6.03-8.62,6.03Zm3.49-6.61a4,4,0,0,1,.31,1.57,4.127,4.127,0,0,1-1.13,2.85,13.589,13.589,0,0,0,4.82-4.9.75.75,0,0,1,.6-.38A5.059,5.059,0,0,0,50,36.76a.723.723,0,0,1,.64-.06,12.711,12.711,0,0,0,10.49-.81.768.768,0,0,1,.53-.11,4.067,4.067,0,0,0,1.51,0c.48-3.38-1.39-6.73-3.09-8.98a24.529,24.529,0,0,0-6.14-5.7l-.93-.61a3.666,3.666,0,0,0-1.89.53,3.762,3.762,0,0,0-1.13,2.11l.76,1a.746.746,0,0,1,.15.46c0,.27.08.33.13.36.61.4,2.72-.17,4.01-.74a.737.737,0,0,1,.79.12c2.36,2.05,1.16,5.8,1.11,5.96a.785.785,0,0,1-.44.47.755.755,0,0,1-.64-.05,4.412,4.412,0,0,0-5.19.23.787.787,0,0,1-.55.19.738.738,0,0,1-.52-.25c-2.47-2.84-4.73-2.23-6-1.45a5.04,5.04,0,0,1,2.5,4.36,5.1,5.1,0,0,1-2.61,4.4Z"/>
          </g>
          <g id="Grupo_1106794" data-name="Grupo 1106794">
            <path id="Trazado_876375" data-name="Trazado 876375" d="M26.01,44.79c-4.6,0-7.8-4.69-8.61-6.02a6.557,6.557,0,0,1-1.85-.57,14,14,0,0,1-11.24-.92,4.111,4.111,0,0,1-2.53-.32.754.754,0,0,1-.35-.5c-.64-3.21.5-6.87,3.29-10.59a26.238,26.238,0,0,1,6.51-6.05l1.08-.71A.647.647,0,0,1,12.6,19a4.942,4.942,0,0,1,3.13.76.55.55,0,0,1,.09.07,5.187,5.187,0,0,1,1.71,3.47.827.827,0,0,1-.15.48l-.8,1.06a1.749,1.749,0,0,1-.79,1.35c-1.29.85-3.8.03-4.95-.42a4.228,4.228,0,0,0-.55,3.19,5.991,5.991,0,0,1,5.46.41c2.92-2.94,6.05-2.38,8.07-.8a.741.741,0,0,1,.22.28,2.256,2.256,0,0,0,.24.43.75.75,0,0,1-.37,1.14,3.548,3.548,0,0,0,0,6.7.751.751,0,0,1,.34,1.17,2.593,2.593,0,0,0-.55,1.61,2.636,2.636,0,0,0,2.39,2.61.747.747,0,0,1,.68.67,2.832,2.832,0,0,0,.15.61.724.724,0,0,1-.09.67.8.8,0,0,1-.6.33h-.22Zm-10.4-8.14a.765.765,0,0,1,.39.11,4.98,4.98,0,0,0,1.91.57.765.765,0,0,1,.6.38,13.992,13.992,0,0,0,4.58,4.77,4.18,4.18,0,0,1-.51-4.32,5.058,5.058,0,0,1-.11-8.72c-1.19-.75-3.51-1.51-6.06,1.42a.752.752,0,0,1-.53.26.8.8,0,0,1-.55-.2,4.407,4.407,0,0,0-5.19-.22.755.755,0,0,1-.64.05.735.735,0,0,1-.44-.47c-.05-.16-1.25-3.91,1.11-5.96a.74.74,0,0,1,.79-.12c1.29.57,3.41,1.14,4.01.74.04-.03.13-.08.13-.36a.746.746,0,0,1,.15-.46l.76-1a3.762,3.762,0,0,0-1.13-2.11,3.764,3.764,0,0,0-1.89-.53l-.93.61a24.529,24.529,0,0,0-6.14,5.7c-1.69,2.26-3.57,5.61-3.09,8.98a4.058,4.058,0,0,0,1.51,0,.757.757,0,0,1,.53.11,12.7,12.7,0,0,0,10.49.81.727.727,0,0,1,.25-.04Z"/>
          </g>
        </g>
        <g id="Grupo_1106798" data-name="Grupo 1106798">
          <g id="Grupo_1106796" data-name="Grupo 1106796">
            <path id="Trazado_876376" data-name="Trazado 876376" d="M33,12.75a.755.755,0,0,1-.75-.75V8a.75.75,0,0,1,1.5,0v4A.755.755,0,0,1,33,12.75Z"/>
          </g>
          <g id="Grupo_1106797" data-name="Grupo 1106797">
            <path id="Trazado_876377" data-name="Trazado 876377" d="M33,58.75a.755.755,0,0,1-.75-.75V54a.75.75,0,0,1,1.5,0v4A.755.755,0,0,1,33,58.75Z"/>
          </g>
        </g>
        <g id="Grupo_1106801" data-name="Grupo 1106801">
          <g id="Grupo_1106799" data-name="Grupo 1106799">
            <path id="Trazado_876378" data-name="Trazado 876378" d="M25.82,14.02a.766.766,0,0,1-.71-.49L23.74,9.77a.751.751,0,1,1,1.41-.52l1.37,3.76a.749.749,0,0,1-.45.96A.742.742,0,0,1,25.82,14.02Z"/>
          </g>
          <g id="Grupo_1106800" data-name="Grupo 1106800">
            <path id="Trazado_876379" data-name="Trazado 876379" d="M41.55,57.24a.766.766,0,0,1-.71-.49l-1.37-3.76a.75.75,0,0,1,1.41-.51l1.37,3.76a.749.749,0,0,1-.45.96A.69.69,0,0,1,41.55,57.24Z"/>
          </g>
        </g>
        <g id="Grupo_1106804" data-name="Grupo 1106804">
          <g id="Grupo_1106802" data-name="Grupo 1106802">
            <path id="Trazado_876380" data-name="Trazado 876380" d="M19.5,17.66a.724.724,0,0,1-.57-.27l-2.57-3.06a.752.752,0,0,1,1.15-.97l2.57,3.06a.748.748,0,0,1-.09,1.06A.728.728,0,0,1,19.5,17.66Z"/>
          </g>
          <g id="Grupo_1106803" data-name="Grupo 1106803">
            <path id="Trazado_876381" data-name="Trazado 876381" d="M49.07,52.9a.724.724,0,0,1-.57-.27l-2.57-3.06a.748.748,0,0,1,.09-1.06.757.757,0,0,1,1.06.09l2.57,3.06a.748.748,0,0,1-.09,1.06A.782.782,0,0,1,49.07,52.9Z"/>
          </g>
        </g>
        <g id="Grupo_1106807" data-name="Grupo 1106807">
          <g id="Grupo_1106805" data-name="Grupo 1106805">
            <path id="Trazado_876382" data-name="Trazado 876382" d="M40.18,14.02a.63.63,0,0,1-.26-.05.749.749,0,0,1-.45-.96l1.37-3.76a.75.75,0,0,1,1.41.51l-1.37,3.76A.729.729,0,0,1,40.18,14.02Z"/>
          </g>
          <g id="Grupo_1106806" data-name="Grupo 1106806">
            <path id="Trazado_876383" data-name="Trazado 876383" d="M24.45,57.24a.63.63,0,0,1-.26-.05.749.749,0,0,1-.45-.96l1.37-3.76a.75.75,0,1,1,1.41.51l-1.37,3.76a.738.738,0,0,1-.7.5Z"/>
          </g>
        </g>
        <g id="Grupo_1106810" data-name="Grupo 1106810">
          <g id="Grupo_1106808" data-name="Grupo 1106808">
            <path id="Trazado_876384" data-name="Trazado 876384" d="M46.5,17.66a.736.736,0,0,1-.48-.18.748.748,0,0,1-.09-1.06l2.57-3.06a.752.752,0,0,1,1.15.97l-2.57,3.06A.774.774,0,0,1,46.5,17.66Z"/>
          </g>
          <g id="Grupo_1106809" data-name="Grupo 1106809">
            <path id="Trazado_876385" data-name="Trazado 876385" d="M16.93,52.9a.736.736,0,0,1-.48-.18.748.748,0,0,1-.09-1.06l2.57-3.06a.752.752,0,1,1,1.15.97l-2.57,3.06A.759.759,0,0,1,16.93,52.9Z"/>
          </g>
        </g>
      </g>
    </g>
  </g>
</svg>
